<?xml version="1.0" standalone="no"?>
<!DOCTYPE svg PUBLIC "-//W3C//DTD SVG 1.1//EN" "http://www.w3.org/Graphics/SVG/1.1/DTD/svg11.dtd" >
<svg>
<metadata>
Created by FontForge 20110222 at Wed Apr  2 04:57:25 2014
 By Orthosie Webhosting
Copyright (C) 1990, 2011 Hoefler &#38; Frere-Jones. http://www.typography.com
</metadata>
<defs>
<font id="IdealSansLight" horiz-adv-x="374" >
  <font-face 
    font-family="IdealSansLight"
    font-weight="300"
    font-stretch="normal"
    units-per-em="1000"
    panose-1="0 0 0 0 0 0 0 0 0 0"
    ascent="800"
    descent="-200"
    x-height="459"
    cap-height="707"
    bbox="-171 -247 1171 1114"
    underline-thickness="50"
    underline-position="-50"
    unicode-range="U+0020-FB04"
  />
<missing-glyph horiz-adv-x="500" 
d="M0 -200v1000h500v-1000h-500zM71 750l179 -390l179 390h-358zM50 -76l172 376l-172 376v-752zM450 676l-172 -376l172 -376v752zM250 240l-179 -390h358z" />
    <glyph glyph-name="f_f" unicode="ff" horiz-adv-x="630" 
d="M309 715l6 -66q-23 9 -44 9q-92 0 -92 -137v-64h130q-4 -23 -4 -60h-126v-298q0 -61 3 -99h-77q5 54 5 165v232h-85l20 60h65v57q0 97 39.5 153t112.5 56q23 0 47 -8zM623 715l6 -66q-23 9 -44 9q-92 0 -92 -137v-64h130q-4 -23 -4 -60h-126v-298q0 -61 3 -99h-77
q5 54 5 165v232h-85l20 60h65v57q0 97 39.5 153t112.5 56q23 0 47 -8z" />
    <glyph glyph-name="fi" unicode="fi" horiz-adv-x="541" 
d="M465 0h-77q5 54 5 166v117q0 107 -6 172q47 0 78 4q-3 -27 -3 -114v-246q0 -60 3 -99zM479 619q0 -21 -14 -36t-36 -15q-21 0 -34.5 14t-13.5 33q0 22 14 37t36 15q21 0 34.5 -14.5t13.5 -33.5zM309 715l6 -66q-23 9 -44 9q-92 0 -92 -137v-64h130q-4 -23 -4 -60h-126
v-298q0 -61 3 -99h-77q5 54 5 165v232h-85l20 60h65v57q0 97 39.5 153t112.5 56q23 0 47 -8z" />
    <glyph glyph-name="fl" unicode="fl" horiz-adv-x="541" 
d="M465 0h-77q5 54 5 166v376q0 110 -5 168q48 4 77 10q-3 -27 -3 -115v-506q0 -60 3 -99zM309 715l6 -66q-23 9 -44 9q-92 0 -92 -137v-64h130q-4 -23 -4 -60h-126v-298q0 -61 3 -99h-77q5 54 5 165v232h-85l20 60h65v57q0 97 39.5 153t112.5 56q23 0 47 -8z" />
    <glyph glyph-name="f_f_i" unicode="ffi" horiz-adv-x="855" 
d="M780 0h-77q5 54 5 166v117q0 107 -6 172q47 0 78 4q-3 -27 -3 -114v-246q0 -60 3 -99zM794 619q0 -21 -14 -36t-36 -15q-21 0 -34.5 14t-13.5 33q0 22 14 37t36 15q21 0 34.5 -14.5t13.5 -33.5zM309 715l6 -66q-23 9 -44 9q-92 0 -92 -137v-64h130q-4 -23 -4 -60h-126
v-298q0 -61 3 -99h-77q5 54 5 165v232h-85l20 60h65v57q0 97 39.5 153t112.5 56q23 0 47 -8zM623 715l6 -66q-23 9 -44 9q-92 0 -92 -137v-64h130q-4 -23 -4 -60h-126v-298q0 -61 3 -99h-77q5 54 5 165v232h-85l20 60h65v57q0 97 39.5 153t112.5 56q23 0 47 -8z" />
    <glyph glyph-name="f_f_l" unicode="ffl" horiz-adv-x="855" 
d="M780 0h-77q5 54 5 166v376q0 110 -5 168q48 4 77 10q-3 -27 -3 -115v-506q0 -60 3 -99zM309 715l6 -66q-23 9 -44 9q-92 0 -92 -137v-64h130q-4 -23 -4 -60h-126v-298q0 -61 3 -99h-77q5 54 5 165v232h-85l20 60h65v57q0 97 39.5 153t112.5 56q23 0 47 -8zM623 715l6 -66
q-23 9 -44 9q-92 0 -92 -137v-64h130q-4 -23 -4 -60h-126v-298q0 -61 3 -99h-77q5 54 5 165v232h-85l20 60h65v57q0 97 39.5 153t112.5 56q23 0 47 -8z" />
    <glyph glyph-name="f_f_b" unicode="ffb" horiz-adv-x="1174" 
d="M1129 242q0 -108 -70.5 -183t-174.5 -75q-71 0 -119 39l-47 -37l-16 5q6 83 6 166v386q0 111 -5 168q20 1 77 9q-3 -26 -3 -115v-203q73 65 156 65q87 0 141.5 -62.5t54.5 -162.5zM1060 233q0 80 -38 126.5t-106 46.5q-77 0 -139 -68v-257q45 -36 113 -36q74 0 122 55.5
t48 132.5zM309 715l6 -66q-23 9 -44 9q-92 0 -92 -137v-64h130q-4 -23 -4 -60h-126v-298q0 -61 3 -99h-77q5 54 5 165v232h-85l20 60h65v57q0 97 39.5 153t112.5 56q23 0 47 -8zM623 715l6 -66q-23 9 -44 9q-92 0 -92 -137v-64h130q-4 -23 -4 -60h-126v-298q0 -61 3 -99h-77
q5 54 5 165v232h-85l20 60h65v57q0 97 39.5 153t112.5 56q23 0 47 -8z" />
    <glyph glyph-name="f_f_h" unicode="ffh" horiz-adv-x="1173" 
d="M1099 0h-78q6 64 6 170v121q0 115 -95 115q-54 0 -104.5 -46.5t-50.5 -89.5v-171q0 -55 3 -99h-77q5 72 5 166v376q0 110 -5 168q48 4 77 10q-3 -27 -3 -115v-245q27 44 75 75.5t99 31.5q69 0 107 -41t38 -119v-204q0 -25 3 -103zM309 715l6 -66q-23 9 -44 9
q-92 0 -92 -137v-64h130q-4 -23 -4 -60h-126v-298q0 -61 3 -99h-77q5 54 5 165v232h-85l20 60h65v57q0 97 39.5 153t112.5 56q23 0 47 -8zM623 715l6 -66q-23 9 -44 9q-92 0 -92 -137v-64h130q-4 -23 -4 -60h-126v-298q0 -61 3 -99h-77q5 54 5 165v232h-85l20 60h65v57
q0 97 39.5 153t112.5 56q23 0 47 -8z" />
    <glyph glyph-name="f_f_j" unicode="ffj" horiz-adv-x="855" 
d="M780 459q-3 -27 -3 -114v-402q0 -82 -32.5 -119.5t-84.5 -37.5q-16 0 -40 6l-9 62q24 -4 33 -4q33 1 48.5 21t15.5 69l1 343q0 107 -6 172q46 0 77 4zM794 619q0 -21 -14 -36t-36 -15q-21 0 -34.5 14t-13.5 33q0 22 14 37t36 15q21 0 34.5 -14.5t13.5 -33.5zM309 715
l6 -66q-23 9 -44 9q-92 0 -92 -137v-64h130q-4 -23 -4 -60h-126v-298q0 -61 3 -99h-77q5 54 5 165v232h-85l20 60h65v57q0 97 39.5 153t112.5 56q23 0 47 -8zM623 715l6 -66q-23 9 -44 9q-92 0 -92 -137v-64h130q-4 -23 -4 -60h-126v-298q0 -61 3 -99h-77q5 54 5 165v232
h-85l20 60h65v57q0 97 39.5 153t112.5 56q23 0 47 -8z" />
    <glyph glyph-name="f_f_k" unicode="ffk" horiz-adv-x="1090" 
d="M1012 -11l-235 243v-133q0 -61 3 -99h-77q5 54 5 165v377q0 110 -5 168q48 4 77 10q-3 -27 -3 -116v-349q20 23 104.5 107t95.5 97q53 0 90 3l-219 -212l52 -53q18 -20 55.5 -59t80.5 -82.5t50 -50.5zM623 715l6 -66q-23 9 -44 9q-92 0 -92 -137v-64h130q-4 -23 -4 -60
h-126v-298q0 -61 3 -99h-77q5 54 5 165v232h-85l20 60h65v57q0 97 39.5 153t112.5 56q23 0 47 -8zM309 715l6 -66q-23 9 -44 9q-92 0 -92 -137v-64h130q-4 -23 -4 -60h-126v-298q0 -61 3 -99h-77q5 54 5 165v232h-85l20 60h65v57q0 97 39.5 153t112.5 56q23 0 47 -8z" />
    <glyph glyph-name="f_b" unicode="fb" horiz-adv-x="859" 
d="M814 242q0 -108 -70.5 -183t-174.5 -75q-71 0 -119 39l-47 -37l-16 5q6 83 6 166v386q0 111 -5 168q20 1 77 9q-3 -26 -3 -115v-203q73 65 156 65q87 0 141.5 -62.5t54.5 -162.5zM745 233q0 80 -38 126.5t-106 46.5q-77 0 -139 -68v-257q45 -36 113 -36q74 0 122 55.5
t48 132.5zM309 715l6 -66q-23 9 -44 9q-92 0 -92 -137v-64h130q-4 -23 -4 -60h-126v-298q0 -61 3 -99h-77q5 54 5 165v232h-85l20 60h65v57q0 97 39.5 153t112.5 56q23 0 47 -8z" />
    <glyph glyph-name="f_h" unicode="fh" horiz-adv-x="858" 
d="M784 0h-78q6 64 6 170v121q0 115 -95 115q-54 0 -104.5 -46.5t-50.5 -89.5v-171q0 -55 3 -99h-77q5 72 5 166v376q0 110 -5 168q48 4 77 10q-3 -27 -3 -115v-245q27 44 75 75.5t99 31.5q69 0 107 -41t38 -119v-204q0 -25 3 -103zM309 715l6 -66q-23 9 -44 9
q-92 0 -92 -137v-64h130q-4 -23 -4 -60h-126v-298q0 -61 3 -99h-77q5 54 5 165v232h-85l20 60h65v57q0 97 39.5 153t112.5 56q23 0 47 -8z" />
    <glyph glyph-name="f_j" unicode="fj" horiz-adv-x="541" 
d="M465 459q-3 -27 -3 -114v-402q0 -82 -32.5 -119.5t-84.5 -37.5q-16 0 -40 6l-9 62q24 -4 33 -4q33 1 48.5 21t15.5 69l1 343q0 107 -6 172q46 0 77 4zM479 619q0 -21 -14 -36t-36 -15q-21 0 -34.5 14t-13.5 33q0 22 14 37t36 15q21 0 34.5 -14.5t13.5 -33.5zM309 715
l6 -66q-23 9 -44 9q-92 0 -92 -137v-64h130q-4 -23 -4 -60h-126v-298q0 -61 3 -99h-77q5 54 5 165v232h-85l20 60h65v57q0 97 39.5 153t112.5 56q23 0 47 -8z" />
    <glyph glyph-name="f_k" unicode="fk" horiz-adv-x="776" 
d="M697 -11l-235 243v-133q0 -61 3 -99h-77q5 54 5 165v377q0 110 -5 168q48 4 77 10q-3 -27 -3 -116v-349q20 23 104.5 107t95.5 97q52 0 90 3l-219 -212l52 -53q18 -20 55.5 -59t80.5 -82.5t50 -50.5zM309 715l6 -66q-23 9 -44 9q-92 0 -92 -137v-64h130q-4 -23 -4 -60
h-126v-298q0 -61 3 -99h-77q5 54 5 165v232h-85l20 60h65v57q0 97 39.5 153t112.5 56q23 0 47 -8z" />
    <glyph glyph-name=".notdef" horiz-adv-x="500" 
d="M0 -200v1000h500v-1000h-500zM71 750l179 -390l179 390h-358zM50 -76l172 376l-172 376v-752zM450 676l-172 -376l172 -376v752zM250 240l-179 -390h358z" />
    <glyph glyph-name=".null" horiz-adv-x="0" 
 />
    <glyph glyph-name="nonmarkingreturn" horiz-adv-x="333" 
 />
    <glyph glyph-name="space" unicode=" " horiz-adv-x="207" 
 />
    <glyph glyph-name="exclam" unicode="!" horiz-adv-x="218" 
d="M154 713q-5 -68 -6 -102l-10 -309q-3 -57 -3 -100l-50 -4q0 18 -1 42.5t-2 60.5t-2 62l-5 202q-2 71 -7 142q44 2 86 6zM158 37q0 -22 -14.5 -37.5t-36.5 -15.5q-21 0 -34 14t-13 34q0 23 14 38t36 15q20 0 34 -14.5t14 -33.5z" />
    <glyph glyph-name="quotedbl" unicode="&#x22;" horiz-adv-x="321" 
d="M238 477l-39 -9q12 133 13 240q65 9 82 11q-22 -122 -56 -242zM79 473l-39 -9q12 138 12 240q74 10 83 11q-22 -122 -56 -242z" />
    <glyph glyph-name="numbersign" unicode="#" horiz-adv-x="692" 
d="M506 419h-6l-24 -184h4q116 0 164 2q-9 -37 -11 -60q-5 0 -61.5 0.5t-95.5 0.5h-7l-2 -18q-15 -129 -16 -160h-68q11 54 27 178l-172 1l-2 -19q-15 -128 -17 -160h-67q13 67 28 179h-1q-117 0 -161 -2q6 33 9 60q50 -2 155 -2h5l24 186h-2q-95 0 -161 -3q6 33 9 60
q50 -2 155 -2h6q15 125 18 182q31 0 67 4q-14 -74 -24 -163l-3 -23h172q15 125 18 182q32 0 68 4q-5 -22 -24 -163l-3 -23h3q116 0 164 2q-9 -37 -11 -60q-4 0 -60.5 0.5t-96.5 0.5zM269 420l-24 -185h172l24 184z" />
    <glyph glyph-name="dollar" unicode="$" horiz-adv-x="515" 
d="M259 -120h-61q3 20 11 106q-90 9 -176 59l6 73q82 -60 177 -73q0 9 1 14l20 252q-32 13 -52 22.5t-46 26t-40.5 33.5t-25 42t-10.5 54q0 72 54.5 123t146.5 55l5 94q15 0 57 2q-3 -23 -8 -99q79 -9 141 -50l-20 -63q-54 41 -127 53l-19 -244q41 -17 65.5 -30t53.5 -34.5
t43 -50.5t14 -66q0 -81 -54 -134.5t-151 -59.5q-1 -6 -5 -105zM403 173q0 40 -30 66t-86 51l-19 -247q63 5 99 42t36 88zM130 496q0 -40 28.5 -65.5t83.5 -49.5l17 208q0 7 2 19q-61 -2 -96 -34t-35 -78z" />
    <glyph glyph-name="percent" unicode="%" horiz-adv-x="714" 
d="M671 226q0 -87 -56.5 -163.5t-128.5 -76.5q-51 0 -79.5 34t-28.5 88q0 86 57 163.5t129 77.5q51 0 79 -34.5t28 -88.5zM335 546q0 -87 -56.5 -163.5t-128.5 -76.5q-51 0 -79 34t-28 88q0 86 57 163.5t128 77.5q51 0 79 -34.5t28 -88.5zM118 -26l-48 25q53 65 126 160
l279 364q90 117 118 158l49 -27q-35 -43 -90 -116l-358 -466q-32 -42 -76 -98zM614 227q0 32 -13.5 51t-38.5 19q-48 0 -87 -62t-39 -127q0 -70 53 -70q48 0 86.5 61.5t38.5 127.5zM278 547q0 70 -52 70q-48 0 -87 -62t-39 -127q0 -69 53 -69q48 0 86.5 61.5t38.5 126.5z
" />
    <glyph glyph-name="ampersand" unicode="&#x26;" horiz-adv-x="693" 
d="M252 -16q-87 0 -145.5 51.5t-58.5 132.5q0 128 176 200q-54 80 -54 143q0 71 48 116t119 45t111 -42.5t40 -97.5q0 -56 -37 -101t-126 -87q76 -92 163 -169q52 53 113 133l49 -40q-74 -91 -117 -134q97 -80 132 -107l-45 -52l-132 115q-124 -106 -236 -106zM258 48
q91 0 184 83q-113 100 -183 188q-138 -55 -138 -148q0 -52 36.5 -87.5t100.5 -35.5zM240 513q0 -57 50 -123q129 58 129 139q0 36 -23 60.5t-62 24.5q-40 0 -67 -28t-27 -73z" />
    <glyph glyph-name="quotesingle" unicode="'" horiz-adv-x="160" 
d="M79 473l-39 -9q12 138 12 240q74 10 83 11q-22 -122 -56 -242z" />
    <glyph glyph-name="parenleft" unicode="(" horiz-adv-x="398" 
d="M375 -227q-131 71 -214.5 195t-83.5 276q0 154 83 280.5t215 198.5l27 -46q-112 -65 -185.5 -176t-73.5 -254q0 -142 74.5 -254t185.5 -176z" />
    <glyph glyph-name="parenright" unicode=")" horiz-adv-x="398" 
d="M23 -227l-27 46q111 64 185.5 175t74.5 254t-74.5 254.5t-186.5 175.5l28 45q132 -71 215.5 -196t83.5 -277q0 -153 -84 -279.5t-215 -197.5z" />
    <glyph glyph-name="asterisk" unicode="*" horiz-adv-x="371" 
d="M354 604q2 -38 4 -55q-74 0 -137 -3q34 -81 57 -127q-22 -7 -51 -20q-19 71 -43 136q-24 -18 -109 -95q-16 24 -35 43q93 61 118 81q-55 37 -117 72q25 36 31 46q69 -57 108 -86q1 3 33 136q32 -9 55 -14q-34 -88 -48 -131q4 0 134 17z" />
    <glyph glyph-name="plus" unicode="+" horiz-adv-x="552" 
d="M476 301q-2 -12 -5 -58q-24 0 -74 0.5t-76 0.5h-16v-26q0 -102 3 -153h-65q3 39 5 179h-24q-29 0 -78 -0.5t-70 -0.5q3 21 3 58l169 -3q-2 138 -5 177q2 0 65 3q-3 -54 -3 -157v-23q5 0 73 1t98 2z" />
    <glyph glyph-name="comma" unicode="," horiz-adv-x="206" 
d="M42 -182l-24 35l7 7q79 55 79 109q0 35 -47 57l-14 6q17 55 61 55q27 0 45.5 -23t18.5 -59q0 -96 -126 -187z" />
    <glyph glyph-name="hyphen" unicode="-" horiz-adv-x="415" 
d="M360 308q-5 -27 -5 -59q-78 2 -113 2h-77q-42 0 -108 -2q3 23 3 59q66 -3 149 -3q79 0 151 3z" />
    <glyph glyph-name="period" unicode="." horiz-adv-x="205" 
d="M152 37q0 -22 -14.5 -37.5t-36.5 -15.5q-21 0 -34.5 14.5t-13.5 34.5q0 23 14 38.5t36 15.5q21 0 35 -15t14 -35z" />
    <glyph glyph-name="slash" unicode="/" horiz-adv-x="325" 
d="M322 737q-15 -43 -45 -147l-193 -688q-13 -46 -38 -141l-65 -6q23 76 67 234l152 540q39 133 55 205q19 -1 67 3z" />
    <glyph glyph-name="zero" unicode="0" horiz-adv-x="577" 
d="M527 256q0 -117 -67.5 -195t-178.5 -78q-105 0 -167.5 71.5t-62.5 175.5q0 117 67 194.5t178 77.5q105 0 168 -71.5t63 -174.5zM456 244q0 88 -44 142t-119 54q-79 0 -125.5 -58t-46.5 -141q0 -88 44.5 -142t119.5 -54q79 0 125 58t46 141z" />
    <glyph glyph-name="one" unicode="1" horiz-adv-x="330" 
d="M224 0h-76q4 49 4 172v247l-106 -27l-11 62q67 16 129 34l49 14l11 -8q-3 -27 -3 -116v-274q0 -70 3 -104z" />
    <glyph glyph-name="two" unicode="2" horiz-adv-x="476" 
d="M431 65q-6 -32 -7 -68q-77 4 -182 4q-110 0 -190 -4l-12 49q177 130 236 190.5t59 112.5q0 43 -28.5 67.5t-77.5 24.5q-71 0 -140 -57l-21 60q77 59 166 59q73 0 122 -40.5t49 -107.5q0 -83 -96 -171q-63 -56 -154 -122q193 0 276 3z" />
    <glyph glyph-name="three" unicode="3" horiz-adv-x="463" 
d="M404 26q0 -82 -67.5 -134t-174.5 -52q-61 0 -122 16l-10 64q66 -17 123 -17q81 0 131 32t50 92q0 54 -57 87t-156 28l-10 51q108 29 159 66.5t51 88.5q0 39 -29.5 66t-82.5 27q-75 0 -140 -52l-24 58q82 56 167 56q80 0 129.5 -42t49.5 -105q0 -64 -41 -104.5t-115 -67.5
q76 -11 122.5 -52t46.5 -106z" />
    <glyph glyph-name="four" unicode="4" horiz-adv-x="507" 
d="M315 -158q4 51 4 169v33h-67q-142 0 -223 -4l-14 48l248 327l69 94l56 -6q-2 -36 -2 -117v-285q49 0 103 2q-6 -36 -7 -63l-96 3v-90q0 -65 2 -111h-73zM99 101q17 -1 220 -1v297z" />
    <glyph glyph-name="five" unicode="5" horiz-adv-x="468" 
d="M52 -152l-10 64q36 -8 79 -8q99 0 162 39.5t63 107.5q0 57 -40 87t-111 30q-50 0 -110 -12l-17 11q5 70 6 108l4 106q2 80 1 102l11 10q58 -2 163 -2q35 0 155 2q-7 -23 -9 -68q-94 2 -146 2h-108l-8 -202q33 5 65 5q106 0 160.5 -46t54.5 -127q0 -99 -81.5 -157.5
t-205.5 -58.5q-46 0 -78 7z" />
    <glyph glyph-name="six" unicode="6" horiz-adv-x="538" 
d="M449 610q-133 -24 -211.5 -95t-102.5 -175q73 66 162 66q86 0 138.5 -58t52.5 -139q0 -95 -61.5 -160t-157.5 -65q-99 0 -157.5 69.5t-58.5 184.5q0 102 41.5 191.5t130 156t211.5 86.5zM277 348q-83 0 -151 -64q-2 -28 -2 -44q0 -92 40.5 -143.5t110.5 -51.5
q64 0 103 46t39 112q0 65 -38.5 105t-101.5 40z" />
    <glyph glyph-name="seven" unicode="7" horiz-adv-x="476" 
d="M426 493l18 -31q-14 -23 -53 -106l-192 -400q-48 -102 -56 -125l-64 34q48 85 84 163l190 399h-138q-127 0 -183 -1q6 57 6 67q97 -3 187 -3q102 0 201 3z" />
    <glyph glyph-name="eight" unicode="8" horiz-adv-x="510" 
d="M46 159q0 126 143 178q-119 55 -119 160q0 73 55 124t138 51q80 0 133 -49.5t53 -119.5q0 -103 -122 -159q64 -29 100.5 -72.5t36.5 -95.5q0 -84 -59 -138.5t-153 -54.5q-89 0 -147.5 50.5t-58.5 125.5zM394 169q0 92 -140 144q-138 -50 -138 -150q0 -53 41.5 -86.5
t100.5 -33.5q62 0 99 36t37 90zM139 497q0 -44 31.5 -74.5t93.5 -53.5q56 19 86 53t30 77q0 51 -34 83t-86 32q-54 0 -87.5 -33t-33.5 -84z" />
    <glyph glyph-name="nine" unicode="9" horiz-adv-x="539" 
d="M94 -113q252 62 305 246q-80 -52 -156 -52q-82 0 -137 57.5t-55 141.5q0 94 61 158.5t157 64.5q100 0 157 -68.5t57 -182.5q0 -160 -90.5 -267.5t-270.5 -154.5zM262 140q80 0 149 51q3 27 3 57q0 90 -37.5 141.5t-110.5 51.5q-63 0 -103.5 -45.5t-40.5 -110.5
q0 -64 39 -104.5t101 -40.5z" />
    <glyph glyph-name="colon" unicode=":" horiz-adv-x="204" 
d="M152 37q0 -22 -14.5 -37.5t-37.5 -15.5q-21 0 -34.5 14.5t-13.5 34.5q0 23 14 38.5t37 15.5q21 0 35 -15t14 -35zM152 343q0 -22 -14.5 -37.5t-37.5 -15.5q-21 0 -34.5 14.5t-13.5 34.5q0 22 14 38t37 16q21 0 35 -15t14 -35z" />
    <glyph glyph-name="semicolon" unicode=";" horiz-adv-x="210" 
d="M159 343q0 -22 -14.5 -37.5t-37.5 -15.5q-21 0 -34.5 14.5t-13.5 34.5q0 22 14.5 38t36.5 16q21 0 35 -15t14 -35zM46 -182l-24 35l7 7q79 55 79 109q0 34 -47 57l-14 6q17 55 61 55q26 0 45 -23t19 -59q0 -96 -126 -187z" />
    <glyph glyph-name="less" unicode="&#x3c;" horiz-adv-x="555" 
d="M392 45q-89 71 -270 207l-1 30q153 117 270 214l34 -49q-72 -52 -134 -101l-97 -77l103 -79q60 -48 129 -95z" />
    <glyph glyph-name="equal" unicode="=" horiz-adv-x="552" 
d="M466 385q-2 -12 -5 -59l-141 2h-96l-137 -2q2 28 2 59q165 -3 188 -3q102 0 189 3zM466 216q-2 -12 -5 -59l-141 2h-96l-137 -2q2 28 2 59q165 -3 188 -3q102 0 189 3z" />
    <glyph glyph-name="greater" unicode="&#x3e;" horiz-adv-x="555" 
d="M163 496q89 -71 270 -207l1 -30q-153 -117 -270 -214l-33 49q58 43 133 101l96 77l-101 79q-74 58 -130 95z" />
    <glyph glyph-name="question" unicode="?" horiz-adv-x="422" 
d="M394 570q0 -41 -25 -74t-61 -54t-71.5 -39.5t-60.5 -41t-25 -48.5q0 -29 20 -44.5t54 -15.5q32 0 68 13l13 -65q-41 -13 -80 -13q-66 0 -106 33t-40 89q0 40 25 71.5t61 51.5t71.5 39t60.5 43t25 54q0 39 -30 62t-83 23q-41 0 -86 -15t-76 -40l-3 74q28 20 76.5 33.5
t88.5 13.5q83 0 133.5 -41t50.5 -109zM237 38q0 -22 -15 -38t-38 -16q-22 0 -35.5 15t-13.5 35q0 23 14.5 38.5t37.5 15.5q22 0 36 -15t14 -35z" />
    <glyph glyph-name="at" unicode="@" horiz-adv-x="866" 
d="M757 335q0 108 -71 185.5t-211 77.5q-144 0 -249.5 -108.5t-105.5 -264.5q0 -143 87 -228t225 -85q145 0 257 70l17 -38q-129 -76 -284 -76q-153 0 -251.5 101.5t-98.5 243.5q0 96 35.5 178t94.5 136t133 84.5t152 30.5q148 0 233 -87.5t85 -207.5q0 -115 -66.5 -202.5
t-161.5 -87.5q-98 0 -62 141q-28 -61 -75.5 -101t-86.5 -40q-45 0 -68.5 34.5t-23.5 91.5q0 96 65 181t150 85q25 0 48 -7.5t31 -15.5l42 27l7 -5l-41 -267q-7 -39 -0.5 -61t31.5 -22q61 0 112 69t51 168zM538 378q-25 22 -67 22q-60 0 -106 -64.5t-46 -138.5q0 -91 54 -91
q42 0 92 60t63 145z" />
    <glyph glyph-name="A" unicode="A" horiz-adv-x="695" 
d="M13 0l228 506q68 149 90 208l20 6l241 -530q46 -105 89 -190l-80 -7l-104 232h-310l-16 -37q-19 -45 -76 -188h-82zM342 579l-128 -293h256z" />
    <glyph glyph-name="B" unicode="B" horiz-adv-x="605" 
d="M298 0h-193q5 60 5 241v221q0 181 -5 241q14 0 82 2t92 2q122 0 182 -51t60 -124q0 -56 -33 -98t-90 -59q77 -19 116.5 -64.5t39.5 -109.5q0 -88 -68.5 -144.5t-187.5 -56.5zM183 69q49 -4 111 -4q87 0 136 34.5t49 102.5q0 62 -52 98.5t-156 36.5q-63 0 -89 -2v-191
q0 -52 1 -75zM183 399q30 -2 86 -2q86 0 131.5 34.5t45.5 92.5q0 119 -173 119q-27 0 -90 -3q-1 -11 -1 -66v-111q0 -55 1 -64z" />
    <glyph glyph-name="C" unicode="C" horiz-adv-x="679" 
d="M636 142l-5 -83q-99 -77 -226 -77q-152 0 -249.5 104t-97.5 250q0 162 103.5 273t262.5 111q117 0 204 -61l-22 -67q-80 61 -187 61q-125 0 -205.5 -86.5t-80.5 -214.5q0 -136 77.5 -220t199.5 -84q126 0 226 94z" />
    <glyph glyph-name="D" unicode="D" horiz-adv-x="734" 
d="M676 371q0 -164 -102 -267.5t-271 -103.5h-198q6 72 6 241v221q0 169 -6 241q11 0 75 2.5t115 2.5q178 0 279.5 -96t101.5 -241zM600 361q0 128 -81 205t-227 77q-68 0 -107 -3q-1 -21 -1 -81v-414q0 -54 1 -76q52 -5 108 -5q152 0 229.5 83t77.5 214z" />
    <glyph glyph-name="E" unicode="E" horiz-adv-x="544" 
d="M509 65q-6 -34 -6 -68q-79 4 -201 4q-127 0 -197 -5q5 60 5 245v221q0 186 -5 246q112 -4 191 -4q78 0 196 4q-5 -23 -7 -66q-27 0 -90 0.5t-99 0.5q-83 0 -111 -1q-1 -24 -1 -81v-161l261 2q-3 -28 -3 -65l-258 1v-194q0 -57 1 -81q33 -1 110 -1q113 0 214 3z" />
    <glyph glyph-name="F" unicode="F" horiz-adv-x="522" 
d="M491 708q-4 -24 -6 -66q-27 0 -90 0.5t-99 0.5q-83 0 -111 -1q-1 -24 -1 -81v-170l253 1q-3 -29 -3 -64l-250 1v-185q0 -116 2 -144h-81q5 60 5 241v221q0 186 -5 246q112 -4 191 -4t195 4z" />
    <glyph glyph-name="G" unicode="G" horiz-adv-x="739" 
d="M660 53q-108 -70 -240 -70q-155 0 -258.5 104.5t-103.5 254.5q0 159 107 268.5t269 109.5q57 0 116 -17t100 -45l-22 -68q-37 29 -92 46t-110 17q-129 0 -211 -86.5t-82 -216.5q0 -134 84 -217.5t211 -83.5q88 0 160 39v150q0 45 -2 64q-41 1 -71 1q-80 0 -137 -2
q3 39 0 68q87 -3 137 -3q79 0 150 4q-5 -50 -5 -227v-90z" />
    <glyph glyph-name="H" unicode="H" horiz-adv-x="770" 
d="M663 0h-81q5 60 5 241v94h-403v-191q0 -116 2 -144h-81q5 60 5 241v221q0 181 -5 241q49 0 81 4q-2 -29 -2 -147v-163h403v65q0 181 -5 241q49 0 81 4q-3 -44 -3 -147v-416q0 -102 3 -144z" />
    <glyph glyph-name="I" unicode="I" horiz-adv-x="302" 
d="M191 0h-82q6 72 6 241v221q0 169 -6 241q50 0 82 4q-3 -43 -3 -147v-416q0 -102 3 -144z" />
    <glyph glyph-name="J" unicode="J" horiz-adv-x="404" 
d="M230 462q0 169 -6 241q50 0 81 4q-2 -58 -2 -147v-382q0 -102 -39.5 -149t-130.5 -47q-63 0 -117 24l5 70q58 -28 111 -28q52 0 75 29.5t23 87.5v297z" />
    <glyph glyph-name="K" unicode="K" horiz-adv-x="635" 
d="M531 -7l-347 359v-208q0 -88 2 -144h-81q6 72 6 241v221q0 169 -6 241q49 0 81 4q-2 -58 -2 -147v-189l142 143q121 121 186 190h96l-344 -338l160 -163q67 -70 197 -203z" />
    <glyph glyph-name="L" unicode="L" horiz-adv-x="530" 
d="M511 65q-4 -21 -6 -68q-80 4 -201 4q-122 0 -199 -4q6 72 6 244v221q0 169 -6 241q49 0 81 4q-2 -58 -2 -147v-415q0 -58 2 -81q14 0 56.5 -0.5t57.5 -0.5q81 0 211 2z" />
    <glyph glyph-name="M" unicode="M" horiz-adv-x="891" 
d="M61 0q19 95 37 235l34 247q19 133 28 233l21 5q5 -12 66 -152l198 -448l198 446q54 122 66 154h20q9 -82 29 -228l34 -252q18 -133 39 -240l-78 -6q-8 89 -18 154l-49 367q-228 -512 -232 -524l-20 -5l-232 528l-49 -371q-15 -125 -16 -143h-76z" />
    <glyph glyph-name="N" unicode="N" horiz-adv-x="786" 
d="M99 0q6 60 9 241l3 234q0 192 -4 240l21 5l481 -585v327q0 169 -6 241q50 0 82 4q-5 -48 -5 -147l-5 -420q-1 -27 -0.5 -80t2.5 -72l-21 -5l-478 578v-417q0 -102 3 -144h-82z" />
    <glyph glyph-name="O" unicode="O" horiz-adv-x="816" 
d="M404 45q122 0 200 90.5t78 220.5q0 133 -76 217t-194 84q-122 0 -200.5 -90.5t-78.5 -220.5q0 -132 76 -216.5t195 -84.5zM398 -18q-148 0 -244 103t-96 248q0 164 101 275.5t259 111.5q148 0 244 -103t96 -248q0 -164 -101 -275.5t-259 -111.5z" />
    <glyph glyph-name="P" unicode="P" horiz-adv-x="555" 
d="M183 280v-136q0 -88 2 -144h-81q6 72 6 241v221q0 170 -6 242q14 0 75.5 2t95.5 2q121 0 186.5 -56.5t65.5 -145.5q0 -102 -71.5 -164.5t-217.5 -62.5q-37 0 -55 1zM451 494q0 149 -189 149q-23 0 -79 -2v-299q27 -3 57 -3q103 0 157 41.5t54 113.5z" />
    <glyph glyph-name="Q" unicode="Q" horiz-adv-x="818" 
d="M831 -76l-49 -59l-391 117q-146 3 -239.5 105.5t-93.5 245.5q0 164 101 275.5t259 111.5q148 0 244 -103t96 -248q0 -127 -63 -226t-170 -139l121 -34q102 -28 185 -46zM404 45q122 0 200 90.5t78 220.5q0 133 -76 217t-194 84q-122 0 -200.5 -90.5t-78.5 -220.5
q0 -132 76 -216.5t195 -84.5z" />
    <glyph glyph-name="R" unicode="R" horiz-adv-x="621" 
d="M594 4l-86 -11l-194 301h-131v-150q0 -88 2 -144h-81q6 72 6 241v221q0 170 -6 242q18 0 50.5 0.5t71.5 2t54 1.5q120 1 187.5 -55.5t65.5 -140.5q-3 -144 -151 -201l108 -161q48 -73 104 -146zM183 356h117q72 0 114.5 42.5t42.5 103.5q0 68 -43.5 104.5t-128.5 36.5
q-72 0 -102 -2v-285z" />
    <glyph glyph-name="S" unicode="S" horiz-adv-x="521" 
d="M469 189q0 -87 -61.5 -147t-165.5 -60t-195 57l5 79q34 -28 88 -49t106 -21q69 0 109.5 36t40.5 95q0 42 -33 75.5t-80 58.5t-94.5 51t-80.5 66.5t-33 92.5q0 83 60 140t156 57q88 0 160 -49l-24 -65q-65 48 -139 48q-64 0 -102 -34.5t-38 -87.5q0 -34 24 -62t59.5 -47
t77 -42.5t77 -46.5t59.5 -60.5t24 -84.5z" />
    <glyph glyph-name="T" unicode="T" horiz-adv-x="624" 
d="M598 708q-5 -23 -7 -68q-76 2 -243 2v-84v-414q0 -116 2 -144h-81q5 60 5 241v218q0 157 -1 183q-103 0 -247 -2q4 27 4 68q172 -4 281 -4q111 0 287 4z" />
    <glyph glyph-name="U" unicode="U" horiz-adv-x="745" 
d="M652 707q-4 -39 -4 -147v-280q0 -146 -76 -222q-78 -76 -210 -76q-118 0 -191.5 69t-73.5 188v223q0 181 -5 241q49 0 82 4q-3 -29 -3 -147v-296q0 -216 206 -216q92 0 145 53.5t53 148.5v212q0 183 -6 241q48 0 83 4z" />
    <glyph glyph-name="V" unicode="V" horiz-adv-x="651" 
d="M13 701l81 6l236 -576l154 383q18 43 71 189h83l-214 -508q-60 -140 -82 -208l-21 -6l-224 530q-43 103 -84 190z" />
    <glyph glyph-name="W" unicode="W" horiz-adv-x="990" 
d="M976 703l-184 -508q-13 -36 -29 -81t-26 -74t-18 -53l-20 -6l-200 568l-132 -360q-10 -29 -37 -98.5t-40 -108.5h-20l-185 528q-49 140 -71 191l80 6l191 -562l137 378q9 27 35.5 101.5t30.5 85.5l21 6l200 -571l125 370q22 65 61 188h81z" />
    <glyph glyph-name="X" unicode="X" horiz-adv-x="687" 
d="M128 0h-90l261 352l-106 147q-15 21 -74.5 102t-73.5 102l85 7l212 -303l73 107q14 21 68 97t66 94h89l-254 -345l113 -156q87 -124 148 -203l-86 -7l-217 312l-74 -107q-15 -22 -71.5 -101.5t-68.5 -97.5z" />
    <glyph glyph-name="Y" unicode="Y" horiz-adv-x="611" 
d="M11 703l82 7l215 -340l74 115q2 2 137 220h86l-262 -398v-163q0 -102 3 -144h-82q6 72 6 238v66l-107 166q-72 115 -152 233z" />
    <glyph glyph-name="Z" unicode="Z" horiz-adv-x="619" 
d="M579 708l15 -14l-448 -631q46 -1 159 -1q161 0 267 3q-5 -32 -7 -68q-83 4 -256 4q-179 0 -266 -5l-15 15l447 631q-50 1 -152 1q-114 0 -254 -2q4 27 4 67q109 -4 251 -4q168 0 255 4z" />
    <glyph glyph-name="bracketleft" unicode="[" horiz-adv-x="370" 
d="M363 -167q-6 -25 -7 -60q-39 3 -112 3q-74 0 -133 -3l-9 6q5 47 5 194v545q0 146 -5 195l10 10q56 -3 129 -3q59 0 118 3q-4 -29 -4 -60q-80 2 -113 2q-47 0 -72 -1v-701q0 -92 3 -131q12 0 35 -0.5t36 -0.5q39 0 119 2z" />
    <glyph glyph-name="backslash" unicode="\" horiz-adv-x="315" 
d="M271 -245q-30 116 -49 179l-181 639q-26 94 -47 161q37 0 65 3q9 -43 51 -192l167 -588q41 -149 56 -196z" />
    <glyph glyph-name="bracketright" unicode="]" horiz-adv-x="370" 
d="M7 663q6 24 7 60q39 -3 111 -3q76 0 133 3l10 -6q-5 -47 -5 -194v-545q0 -146 5 -195l-10 -10q-55 3 -129 3q-59 0 -118 -3q4 31 4 60q40 -1 113 -1h72v700q0 93 -3 132q-12 0 -35 0.5t-36 0.5q-41 0 -119 -2z" />
    <glyph glyph-name="asciicircum" unicode="^" horiz-adv-x="575" 
d="M348 541l-64 80l-65 -85q-52 -68 -85 -116l-50 38q93 118 186 242l28 3q110 -142 193 -244l-51 -37q-38 51 -92 119z" />
    <glyph glyph-name="underscore" unicode="_" horiz-adv-x="650" 
d="M620 57q-2 -13 -5 -59q-116 2 -194 2h-197q-81 0 -193 -2q3 22 3 59q105 -3 291 -3q184 0 295 3z" />
    <glyph glyph-name="grave" unicode="`" horiz-adv-x="307" 
d="M56 680l87 7l93 -146l-45 -4z" />
    <glyph glyph-name="a" unicode="a" horiz-adv-x="480" 
d="M181 -12q-66 0 -103.5 36t-37.5 94q0 67 59 108.5t175 41.5q28 0 54 -3l1 19q4 122 -106 122q-68 0 -130 -44l-16 61q75 44 156 44t123.5 -46t40.5 -130l-6 -198q-1 -27 6.5 -38t24.5 -11t40 10l-7 -50q-28 -14 -53 -14q-30 0 -49.5 21.5t-20.5 67.5q-19 -41 -60 -66
t-91 -25zM195 44q54 0 91.5 37t39.5 93l1 44q-27 3 -55 3q-87 0 -126 -27.5t-39 -71.5q0 -35 22 -56.5t66 -21.5z" />
    <glyph glyph-name="b" unicode="b" horiz-adv-x="544" 
d="M500 242q0 -108 -70.5 -183t-174.5 -75q-71 0 -119 39l-47 -37l-16 5q6 82 6 166v386q0 111 -5 168q19 1 77 9q-3 -26 -3 -115v-203q73 65 156 65q87 0 141.5 -62.5t54.5 -162.5zM431 233q0 80 -38 126.5t-106 46.5q-77 0 -139 -68v-257q45 -36 113 -36q74 0 122 55.5
t48 132.5z" />
    <glyph glyph-name="c" unicode="c" horiz-adv-x="479" 
d="M433 422l-20 -62q-57 45 -131 45q-75 0 -122 -52t-47 -127q0 -84 49.5 -132.5t122.5 -48.5q81 0 149 59l-4 -73q-70 -47 -153 -47q-101 0 -166.5 66t-65.5 165q0 106 67.5 179t173.5 73q85 0 147 -45z" />
    <glyph glyph-name="d" unicode="d" horiz-adv-x="544" 
d="M279 467q70 0 117 -38v113q0 110 -5 168q50 4 77 10q-3 -27 -3 -115v-459q0 -85 6 -145h-64l-6 56q-24 -29 -64 -51t-85 -22q-94 0 -151 64.5t-57 161.5q0 110 66.5 183.5t168.5 73.5zM280 406q-76 0 -121.5 -53.5t-45.5 -132.5q0 -82 42.5 -128.5t108.5 -46.5
q41 0 76.5 21.5t55.5 55.5v238q-44 46 -116 46z" />
    <glyph glyph-name="e" unicode="e" horiz-adv-x="500" 
d="M460 247l-46 -28l-300 -8q2 -80 44 -123t116 -43q86 0 166 67l-3 -72q-80 -56 -171 -56q-104 0 -162.5 65t-58.5 164q0 109 63 181.5t164 72.5q93 0 140.5 -61t47.5 -159zM116 264l279 7q-14 137 -128 137q-60 0 -100.5 -40.5t-50.5 -103.5z" />
    <glyph glyph-name="f" unicode="f" horiz-adv-x="315" 
d="M309 715l6 -66q-23 9 -44 9q-92 0 -92 -137v-64h130q-4 -23 -4 -60h-126v-298q0 -61 3 -99h-77q5 54 5 165v232h-85l20 60h65v57q0 97 39.5 153t112.5 56q23 0 47 -8z" />
    <glyph glyph-name="g" unicode="g" horiz-adv-x="468" 
d="M417 306q0 -74 -54 -123t-134 -49q-34 0 -61 9q-45 -26 -45 -49q0 -39 103 -39l43 -1q184 -3 184 -112q0 -67 -72 -115t-175 -48q-89 0 -139.5 32.5t-50.5 82.5q0 70 104 120q-59 24 -59 66q0 45 66 83q-70 47 -70 129q0 72 53.5 122.5t132.5 50.5q41 0 80 -17
q31 99 127 83l-5 -61q-62 9 -83 -48q55 -49 55 -116zM352 299q0 50 -32 81t-81 31t-82.5 -33.5t-33.5 -78.5q0 -52 31 -81t81 -29q51 0 84 32t33 78zM232 -4l-51 3q-100 -41 -100 -95q0 -30 34.5 -50t95.5 -20q76 0 126.5 29.5t50.5 69.5q0 61 -119 62z" />
    <glyph glyph-name="h" unicode="h" horiz-adv-x="543" 
d="M470 0h-78q6 64 6 170v121q0 115 -95 115q-54 0 -104.5 -46.5t-50.5 -89.5v-171q0 -55 3 -99h-77q5 72 5 166v376q0 110 -5 168q48 4 77 10q-3 -27 -3 -115v-245q27 44 75 75.5t99 31.5q69 0 107 -41t38 -119v-204q0 -25 3 -103z" />
    <glyph glyph-name="i" unicode="i" horiz-adv-x="226" 
d="M151 0h-77q5 54 5 166v117q0 107 -6 172q47 0 78 4q-3 -27 -3 -114v-246q0 -60 3 -99zM165 619q0 -21 -14 -36t-36 -15q-21 0 -34.5 14t-13.5 33q0 22 14 37t36 15q21 0 34.5 -14.5t13.5 -33.5z" />
    <glyph glyph-name="j" unicode="j" horiz-adv-x="226" 
d="M151 459q-3 -27 -3 -114v-402q0 -82 -32.5 -119.5t-84.5 -37.5q-16 0 -40 6l-9 62q24 -4 33 -4q33 1 48.5 21t15.5 69l1 343q0 107 -6 172q46 0 77 4zM165 619q0 -21 -14 -36t-36 -15q-21 0 -34.5 14t-13.5 33q0 22 14 37t36 15q21 0 34.5 -14.5t13.5 -33.5z" />
    <glyph glyph-name="k" unicode="k" horiz-adv-x="461" 
d="M383 -11l-235 243v-133q0 -61 3 -99h-77q5 54 5 165v377q0 110 -5 168q48 4 77 10q-3 -27 -3 -116v-349q20 23 104.5 107t95.5 97q53 0 90 3l-219 -212l52 -53q18 -20 55.5 -59t80.5 -82.5t50 -50.5z" />
    <glyph glyph-name="l" unicode="l" horiz-adv-x="226" 
d="M151 0h-77q5 54 5 166v376q0 110 -5 168q48 4 77 10q-3 -27 -3 -115v-506q0 -60 3 -99z" />
    <glyph glyph-name="m" unicode="m" horiz-adv-x="824" 
d="M751 0h-78q6 64 6 170v121q0 115 -89 115q-54 0 -98.5 -42t-44.5 -85v-176q0 -64 3 -103h-77q5 72 5 170v121q0 115 -87 115q-54 0 -98.5 -42t-44.5 -85v-176q0 -59 3 -103h-77q5 72 5 170v114q0 106 -6 170q22 0 68 4l5 -90q30 42 73 70.5t90 28.5q53 0 87.5 -26.5
t44.5 -75.5q24 41 68.5 71.5t98.5 30.5q67 0 103.5 -40.5t36.5 -119.5v-204q0 -64 3 -103z" />
    <glyph glyph-name="n" unicode="n" horiz-adv-x="543" 
d="M470 0h-78q6 64 6 170v121q0 115 -95 115q-54 0 -104.5 -46.5t-50.5 -89.5v-167q0 -59 3 -103h-77q5 72 5 170v114q0 98 -5 170q22 0 68 4l5 -99q27 44 75.5 76t99.5 32q69 0 107 -41t38 -119v-204q0 -25 3 -103z" />
    <glyph glyph-name="o" unicode="o" horiz-adv-x="543" 
d="M498 237q0 -109 -64.5 -181t-169.5 -72q-98 0 -158.5 66t-60.5 164q0 109 64 181t168 72q98 0 159.5 -66.5t61.5 -163.5zM429 227q0 84 -44 131.5t-112 47.5q-71 0 -115.5 -52t-44.5 -129q0 -85 42.5 -132.5t113.5 -47.5q72 0 116 52t44 130z" />
    <glyph glyph-name="p" unicode="p" horiz-adv-x="544" 
d="M500 242q0 -113 -69 -185.5t-160 -72.5q-77 0 -123 41v-137q0 -63 4 -96q-1 0 -38.5 -3.5t-39.5 -3.5q5 48 5 155v343q0 111 -7 171q37 0 68 3l5 -66q66 76 157 76q90 0 144 -64t54 -161zM431 234q0 83 -40.5 127.5t-105.5 44.5q-77 0 -137 -76v-237q46 -49 122 -49
q70 0 115.5 55.5t45.5 134.5z" />
    <glyph glyph-name="q" unicode="q" horiz-adv-x="544" 
d="M396 114v252q-45 40 -112 40q-76 0 -123.5 -54.5t-47.5 -133.5t41.5 -126t108.5 -47q40 0 75.5 19.5t57.5 49.5zM456 465l16 -5q-7 -76 -7 -166v-401q0 -62 4 -101q-1 0 -38 -3.5t-39 -3.5q4 39 4 176v87q-58 -64 -143 -64q-92 0 -150.5 63.5t-58.5 162.5q0 109 69 183
t172 74q70 0 124 -40z" />
    <glyph glyph-name="r" unicode="r" horiz-adv-x="329" 
d="M309 467l-9 -80q-58 6 -105 -31.5t-47 -90.5v-162q0 -59 3 -103h-77q5 54 5 170v128q0 89 -9 152q31 1 69 10l8 -103q52 99 162 110z" />
    <glyph glyph-name="s" unicode="s" horiz-adv-x="406" 
d="M214 467q74 0 134 -36l-24 -61q-50 35 -111 35q-38 0 -63.5 -17t-25.5 -50q0 -24 24.5 -41.5t60 -30.5t71 -28t60 -42.5t24.5 -66.5q0 -66 -50.5 -105.5t-121.5 -39.5q-92 0 -150 38l4 73q67 -49 148 -49q44 0 73 19t29 53q0 27 -24.5 46.5t-60 32.5t-71 28t-60 42.5
t-24.5 67.5q0 56 45 94t113 38z" />
    <glyph glyph-name="t" unicode="t" horiz-adv-x="338" 
d="M304 72l-3 -61q-32 -25 -85 -25q-113 0 -113 123v288h-80l19 60h62l7 100l61 16v-116h126q-3 -25 -3 -60h-123v-281q0 -36 14.5 -51.5t44.5 -15.5q37 0 73 23z" />
    <glyph glyph-name="u" unicode="u" horiz-adv-x="544" 
d="M471 0h-64l-9 86q-26 -43 -74 -73t-94 -30q-153 0 -153 172v134q0 89 -5 166q46 0 77 4q-3 -41 -3 -110v-178q0 -65 25 -95.5t77 -30.5q48 0 98 42t50 83v119q0 97 -6 166q49 0 78 4q-3 -41 -3 -110v-180q0 -101 6 -169z" />
    <glyph glyph-name="v" unicode="v" horiz-adv-x="471" 
d="M214 -14q-11 32 -60 148l-69 159q-58 134 -70 158l75 11l148 -366l64 165q4 11 34 87.5t41 107.5q43 0 76 3l-194 -468z" />
    <glyph glyph-name="w" unicode="w" horiz-adv-x="698" 
d="M184 -14q-9 36 -49 148l-57 158q-37 103 -62 159l76 11l116 -350l50 146q47 136 67 198l49 5l122 -349l48 145q46 141 62 199q51 0 75 3l-165 -468l-43 -5q-16 60 -58 174l-66 186l-122 -354z" />
    <glyph glyph-name="x" unicode="x" horiz-adv-x="453" 
d="M110 461l121 -181q15 21 44 62t51.5 73t28.5 41q49 0 80 3l-165 -224l38 -53q51 -80 125 -179l-73 -12l-132 197q-134 -181 -138 -188h-80l178 230l-23 34q-16 25 -69 101t-60 86z" />
    <glyph glyph-name="y" unicode="y" horiz-adv-x="458" 
d="M90 -213l109 252q-25 65 -42 102q-2 4 -31 69t-37 84q-42 99 -73 157l78 11l140 -342l59 142q62 158 74 194q55 0 77 3l-223 -533q-43 -104 -54 -136q-47 0 -77 -3z" />
    <glyph glyph-name="z" unicode="z" horiz-adv-x="448" 
d="M411 459l11 -18l-289 -382q198 0 281 2q-6 -33 -7 -65q-95 5 -186 5q-87 0 -185 -5l-11 18l289 384q-177 0 -263 -2q4 28 4 63q89 -3 165 -3q100 0 191 3z" />
    <glyph glyph-name="braceleft" unicode="{" horiz-adv-x="379" 
d="M70 229v38q81 20 110 36t29 35q0 15 -17.5 46.5t-35.5 71.5t-18 74q0 146 200 192l14 -45q-78 -20 -114.5 -55.5t-36.5 -76.5q0 -33 33.5 -99t33.5 -92q0 -34 -24.5 -59.5t-85.5 -46.5q63 -20 86.5 -45.5t23.5 -60.5q0 -26 -33.5 -91.5t-33.5 -98.5q0 -41 36.5 -76.5
t114.5 -55.5l-14 -45q-200 46 -200 192q0 34 18 73.5t35.5 71t17.5 46.5q0 19 -29 35t-110 36z" />
    <glyph glyph-name="bar" unicode="|" horiz-adv-x="286" 
d="M175 -240h-66q5 66 5 241v514q0 157 -5 219q26 0 66 4q-3 -28 -3 -141v-693q0 -113 3 -144z" />
    <glyph glyph-name="braceright" unicode="}" horiz-adv-x="379" 
d="M309 268v-38q-81 -20 -110 -36t-29 -35q0 -15 18 -46.5t35.5 -71.5t17.5 -74q0 -146 -200 -192l-14 45q79 20 115 55.5t36 76.5q0 33 -33.5 99t-33.5 92q0 34 24.5 59.5t85.5 46.5q-63 20 -86.5 45.5t-23.5 60.5q0 26 33.5 91.5t33.5 98.5q0 41 -36 76.5t-115 55.5l14 45
q200 -46 200 -192q0 -34 -17.5 -73.5t-35.5 -71t-18 -46.5q0 -19 29 -35t110 -36z" />
    <glyph glyph-name="asciitilde" unicode="~" horiz-adv-x="507" 
d="M72 237q22 109 98 109q30 0 88.5 -26.5t76.5 -26.5q33 0 46 60l54 -8q-11 -57 -37.5 -84.5t-62.5 -27.5q-30 0 -88.5 27t-75.5 27q-34 0 -45 -58z" />
    <glyph glyph-name="uni00A0" unicode="&#xa0;" horiz-adv-x="207" 
 />
    <glyph glyph-name="exclamdown" unicode="&#xa1;" horiz-adv-x="218" 
d="M65 -11q5 68 6 102l10 309q3 57 3 100l50 4q0 -18 1 -42.5t2 -60.5t2 -62l5 -202q2 -71 7 -142q-44 -2 -86 -6zM61 666q0 21 14.5 36.5t36.5 15.5q21 0 34 -14t13 -34q0 -23 -14 -38t-36 -15q-21 0 -34.5 14.5t-13.5 34.5z" />
    <glyph glyph-name="cent" unicode="&#xa2;" horiz-adv-x="484" 
d="M300 361l-18 -249q-2 -14 -3 -38t-2 -32h4q87 0 157 62l-3 -72q-72 -48 -162 -48q-4 -56 -4 -95h-56l8 100q-79 16 -127.5 78t-48.5 147q0 99 57.5 169.5t151.5 81.5l5 95q16 0 58 4q-3 -18 -9 -98q73 -7 129 -47l-20 -58q-49 39 -113 46q-2 -13 -4 -46zM112 227
q0 -71 30 -116.5t83 -61.5l6 72l17 235q0 2 3 50q-64 -10 -101.5 -60t-37.5 -119z" />
    <glyph glyph-name="sterling" unicode="&#xa3;" horiz-adv-x="503" 
d="M44 299q2 30 2 62h89q-29 60 -29 117q0 82 57 138t146 56q76 0 137 -35l-16 -61q-59 34 -123 34q-58 0 -95.5 -34.5t-37.5 -91.5q0 -50 35 -122q106 1 195 6q-1 -11 -4 -63q-79 2 -164 -1q16 -43 16 -77q0 -92 -88 -165q162 0 309 5q-6 -37 -6 -71q-64 4 -193 4
q-148 0 -227 -5l-10 49q74 36 111.5 78t37.5 97q0 34 -22 82z" />
    <glyph glyph-name="yen" unicode="&#xa5;" horiz-adv-x="608" 
d="M264 0q5 138 5 149h-2q-150 0 -211 -2q3 24 3 61q87 -3 209 -3h1v81l-14 21q-36 0 -103 -0.5t-95 -0.5q3 22 3 58q69 -3 160 -3l-51 78q-17 27 -77 118t-65 98l75 6l201 -312l59 92q9 14 65.5 102.5t71.5 113.5h83l-198 -296q94 0 167 3q-4 -17 -6 -58q-29 0 -96 0.5
t-101 0.5l-12 -18v-84h1q120 0 212 3q-1 -8 -2 -18t-2 -23t-2 -20q-62 2 -206 2h-1v-14q0 -95 3 -135h-75z" />
    <glyph glyph-name="section" unicode="&#xa7;" horiz-adv-x="457" 
d="M51 257q0 46 28.5 81t79.5 54q-90 48 -90 126q0 60 50.5 105t131.5 45q85 0 146 -42l-19 -61q-61 43 -132 43q-47 0 -77.5 -24t-30.5 -61q0 -33 28.5 -57.5t69 -42t81.5 -37t69.5 -52.5t28.5 -78q0 -88 -96 -134q87 -47 87 -123q0 -66 -53.5 -112.5t-145.5 -46.5
q-87 0 -160 44l4 71q75 -54 162 -54q55 0 90 26t35 67q0 32 -29.5 56.5t-72 41.5t-84.5 36.5t-71.5 52t-29.5 76.5zM120 267q0 -36 33 -60t107 -54q41 13 65 38.5t24 57.5q0 20 -9.5 36.5t-31.5 31t-39 23t-49 22.5q-48 -13 -74 -38.5t-26 -56.5z" />
    <glyph glyph-name="dieresis" unicode="&#xa8;" horiz-adv-x="365" 
d="M145 613q0 -22 -13.5 -37t-35.5 -15q-20 0 -33 14t-13 33q0 21 14 36.5t35 15.5q20 0 33 -14t13 -33zM315 613q0 -21 -14 -36.5t-35 -15.5q-20 0 -33 14t-13 33q0 22 13.5 37t34.5 15q20 0 33.5 -14t13.5 -33z" />
    <glyph glyph-name="copyright" unicode="&#xa9;" horiz-adv-x="865" 
d="M801 351q0 -153 -108 -261t-261 -108t-261 108t-108 261t108 261t261 108t261 -108t108 -261zM756 351q0 135 -94.5 231t-229.5 96t-229 -96t-94 -231t94 -231t229 -96t229.5 96t94.5 231zM564 200q-53 -39 -122 -39q-83 0 -135.5 53t-52.5 132q0 88 55 145.5t143 57.5
q67 0 112 -34l-12 -50q-43 34 -101 34q-62 0 -100.5 -41t-38.5 -104q0 -67 38 -105.5t99 -38.5t118 48z" />
    <glyph glyph-name="ordfeminine" unicode="&#xaa;" horiz-adv-x="355" 
d="M164 670q-46 0 -93 -30l-11 48q59 32 115 32q120 0 117 -121l-4 -134q-1 -31 21 -31q12 0 24 7l-3 -38q-21 -12 -43 -12q-48 0 -52 58q-13 -27 -41 -43t-60 -16q-45 0 -71.5 24.5t-26.5 64.5q0 46 39.5 74.5t117.5 28.5q13 0 41 -2l1 16q3 74 -71 74zM151 434
q33 0 56.5 23.5t24.5 58.5l1 27q-26 2 -37 2q-101 0 -101 -59q0 -23 14 -37.5t42 -14.5z" />
    <glyph glyph-name="guillemotleft" unicode="&#xab;" horiz-adv-x="551" 
d="M235 452q34 1 65 7q-69 -103 -167 -231q38 -58 160 -224l-43 -19q-144 159 -202 233l3 12q127 150 184 222zM437 452q35 2 64 7q-75 -113 -166 -231q83 -128 161 -233l-42 -19q-91 98 -204 242l2 12q117 136 185 222z" />
    <glyph glyph-name="registered" unicode="&#xae;" horiz-adv-x="462" 
d="M421 529q0 -79 -55.5 -134.5t-135.5 -55.5q-79 0 -134 56t-55 134q0 80 55 135.5t134 55.5q81 0 136 -55.5t55 -135.5zM392 529q0 69 -46.5 117t-115.5 48q-68 0 -114 -47.5t-46 -117.5q0 -69 46 -116t114 -47q69 0 115.5 47t46.5 116zM170 626q5 0 26.5 1t28.5 1
q38 0 57.5 -16.5t19.5 -40.5q-2 -40 -41 -55l35 -46l22 -29l-37 -2l-52 71h-26v-35q0 -27 1 -34h-34q1 11 1 63v60q0 51 -1 62zM203 536h24q21 0 32 9.5t11 24.5q0 31 -43 31q-17 0 -24 -1v-64z" />
    <glyph glyph-name="macron" unicode="&#xaf;" horiz-adv-x="386" 
d="M340 645q-5 -27 -5 -59q-80 2 -113 2h-68q-40 0 -108 -2q3 21 3 59q68 -3 145 -3q74 0 146 3z" />
    <glyph glyph-name="degree" unicode="&#xb0;" 
d="M330 574q0 -67 -40.5 -111.5t-106.5 -44.5q-62 0 -100.5 41t-38.5 100q0 66 41 110t106 44q63 0 101 -40.5t38 -98.5zM275 567q0 44 -23 71t-64 27q-40 0 -64.5 -28.5t-24.5 -70.5q0 -45 23.5 -72t63.5 -27q41 0 65 28.5t24 71.5z" />
    <glyph glyph-name="plusminus" unicode="&#xb1;" horiz-adv-x="552" 
d="M469 373q-2 -12 -5 -59l-150 2h-9v-13q0 -101 3 -149h-65q3 41 5 162h-17l-148 -2q2 28 2 59l163 -3q-2 117 -5 160q2 0 65 3q-3 -52 -3 -154v-9q18 0 52.5 0.5t62 1t49.5 1.5zM468 65q-5 -27 -5 -58q-112 2 -162 2h-57q-55 0 -161 -2q2 28 2 58q93 -3 191 -3q94 0 192 3
z" />
    <glyph glyph-name="two.sup" unicode="&#xb2;" 
d="M77 740l-22 46q62 53 134 53q57 0 92.5 -29t35.5 -79q0 -38 -21 -70t-67 -77q-36 -34 -104 -91q23 0 203 3q-3 -51 -3 -54q-88 2 -137 2q-52 0 -140 -2l-7 41q120 100 151 131q68 65 68 109q0 29 -20.5 46t-55.5 17q-54 0 -107 -46z" />
    <glyph glyph-name="three.sup" unicode="&#xb3;" 
d="M56 451l-8 53q62 -19 109 -19q50 0 80 17t30 45q0 65 -148 70l-7 37q148 24 148 84q0 21 -21.5 35t-60.5 14q-60 0 -110 -30l-17 45q65 36 133 36q61 0 97.5 -25.5t36.5 -65.5q0 -71 -117 -102q125 -19 125 -98q0 -50 -45.5 -81t-117.5 -31q-60 0 -107 16z" />
    <glyph glyph-name="acute" unicode="&#xb4;" horiz-adv-x="307" 
d="M165 680l100 7l-145 -146l-49 -4z" />
    <glyph glyph-name="paragraph" unicode="&#xb6;" horiz-adv-x="618" 
d="M521 0h-66q6 59 6 223v225q0 151 -6 209q30 0 66 3q-4 -36 -4 -133v-387q0 -78 4 -140zM288 660q18 0 47.5 -0.5t42.5 -0.5q-3 -27 -3 -133v-386q0 -94 3 -140h-65q6 74 6 223v27q-139 -1 -206 56.5t-67 155.5q0 82 63 140t179 58z" />
    <glyph glyph-name="periodcentered" unicode="&#xb7;" horiz-adv-x="204" 
d="M154 344q0 -22 -14 -37.5t-37 -15.5q-20 0 -33.5 15t-13.5 34q0 22 14 37.5t36 15.5q21 0 34.5 -14.5t13.5 -34.5z" />
    <glyph glyph-name="cedilla" unicode="&#xb8;" horiz-adv-x="297" 
d="M155 1l-20 -71q100 -28 100 -86q0 -31 -26 -52.5t-72 -21.5q-39 0 -83 15l10 46q40 -16 78 -16q42 0 42 27q0 32 -93 53l-4 4q16 47 31 112z" />
    <glyph glyph-name="one.sup" unicode="&#xb9;" horiz-adv-x="280" 
d="M134 772l-86 -25l-11 48q1 0 101 31l40 12l14 -4q-2 -12 -2 -68v-256q0 -54 2 -67h-61q3 33 3 113v216z" />
    <glyph glyph-name="ordmasculine" unicode="&#xba;" horiz-adv-x="386" 
d="M350 562q0 -74 -44.5 -123.5t-116.5 -49.5q-68 0 -110.5 46t-42.5 112q0 74 45 123.5t117 49.5q68 0 110 -46t42 -112zM290 555q0 53 -26.5 84.5t-68.5 31.5q-43 0 -70.5 -33.5t-27.5 -82.5q0 -54 25.5 -85.5t68.5 -31.5q44 0 71.5 33.5t27.5 83.5z" />
    <glyph glyph-name="guillemotright" unicode="&#xbb;" horiz-adv-x="551" 
d="M316 -9q-34 -1 -65 -7q70 105 166 232q-52 80 -159 223l43 19q149 -164 201 -232l-2 -12q-148 -178 -184 -223zM114 -9q-34 -1 -65 -7q76 111 167 232q-36 55 -161 225l42 19q141 -154 204 -234l-2 -12q-107 -125 -185 -223z" />
    <glyph glyph-name="onequarter" unicode="&#xbc;" horiz-adv-x="840" 
d="M671 0q2 18 2 84v15h-40q-116 0 -157 -2l-9 41l165 208q36 45 44 54l50 -4q-1 -12 -1 -70v-182q15 0 37 0.5t30 0.5q-5 -30 -5 -48l-62 2v-35q0 -50 1 -64h-55zM186 -13l-45 21q44 59 115 160l260 377q90 130 106 158q30 -14 47 -23q-22 -28 -83 -116l-331 -479
q-14 -22 -69 -98zM158 632l-86 -25l-11 49q1 0 101 31l40 12l14 -5q-2 -12 -2 -68v-255q0 -54 2 -67h-61q3 33 3 112v216zM675 330l-148 -188q128 0 148 1v187z" />
    <glyph glyph-name="onehalf" unicode="&#xbd;" horiz-adv-x="840" 
d="M150 -13l-45 21q44 59 115 160l260 377q90 130 106 158q30 -14 47 -23q-22 -28 -83 -116l-331 -479q-14 -22 -69 -98zM158 632l-86 -25l-11 49q1 0 101 31l40 12l14 -5q-2 -12 -2 -68v-255q0 -54 2 -67h-61q3 33 3 112v216zM522 297l-22 46q62 53 134 53q57 0 92.5 -29
t35.5 -79q0 -38 -21 -70t-67 -77q-36 -34 -104 -91q23 0 203 3q-3 -51 -3 -54q-88 2 -137 2q-52 0 -140 -2l-7 41q120 100 151 131q68 65 68 109q0 29 -20.5 46t-55.5 17q-54 0 -107 -46z" />
    <glyph glyph-name="threequarters" unicode="&#xbe;" horiz-adv-x="934" 
d="M765 0q2 18 2 84v15h-40q-116 0 -157 -2l-9 41l165 208q36 45 44 54l50 -4q-1 -12 -1 -70v-182q15 0 37 0.5t30 0.5q-5 -30 -5 -48l-62 2v-35q0 -50 1 -64h-55zM88 311l-8 53q59 -18 109 -18t80 17t30 44q0 67 -148 70l-7 38q148 24 148 84q0 21 -21.5 35t-60.5 14
q-61 0 -110 -31l-17 46q66 35 133 35q61 0 97.5 -25.5t36.5 -65.5q0 -71 -117 -102q125 -18 125 -97q0 -50 -45.5 -81.5t-117.5 -31.5q-56 0 -107 16zM275 -13l-45 21q44 59 115 160l260 377q90 130 106 158q30 -14 47 -23q-22 -28 -83 -116l-331 -479q-14 -22 -69 -98z
M769 330l-148 -188q128 0 148 1v187z" />
    <glyph glyph-name="questiondown" unicode="&#xbf;" horiz-adv-x="422" 
d="M28 132q0 41 25 74t61 54t71.5 39.5t60.5 41t25 48.5q0 29 -19.5 44.5t-53.5 15.5t-68 -13l-14 65q41 13 80 13q66 0 106.5 -33t40.5 -89q0 -40 -25 -71.5t-61 -51.5t-72 -39t-61 -43t-25 -54q0 -39 30.5 -62t82.5 -23q41 0 86.5 15t75.5 40l3 -74q-27 -20 -75.5 -33.5
t-89.5 -13.5q-83 0 -133.5 41t-50.5 109zM185 664q0 22 15 38t38 16q22 0 35.5 -15t13.5 -35q0 -23 -14.5 -38.5t-37.5 -15.5q-22 0 -36 15t-14 35z" />
    <glyph glyph-name="Agrave" unicode="&#xc0;" horiz-adv-x="695" 
d="M13 0l228 506q68 149 90 208l20 6l241 -530q46 -105 89 -190l-80 -7l-104 232h-310l-16 -37q-19 -45 -76 -188h-82zM342 579l-128 -293h256zM203 921l87 7l93 -146l-45 -4z" />
    <glyph glyph-name="Aacute" unicode="&#xc1;" horiz-adv-x="695" 
d="M13 0l228 506q68 149 90 208l20 6l241 -530q46 -105 89 -190l-80 -7l-104 232h-310l-16 -37q-19 -45 -76 -188h-82zM342 579l-128 -293h256zM393 921l100 7l-145 -146l-49 -4z" />
    <glyph glyph-name="Acircumflex" unicode="&#xc2;" horiz-adv-x="695" 
d="M13 0l228 506q68 149 90 208l20 6l241 -530q46 -105 89 -190l-80 -7l-104 232h-310l-16 -37q-19 -45 -76 -188h-82zM342 579l-128 -293h256zM308 929h81l102 -147l-52 -5l-92 101l-89 -94h-61z" />
    <glyph glyph-name="Atilde" unicode="&#xc3;" horiz-adv-x="695" 
d="M13 0l228 506q68 149 90 208l20 6l241 -530q46 -105 89 -190l-80 -7l-104 232h-310l-16 -37q-19 -45 -76 -188h-82zM342 579l-128 -293h256zM183 798q12 67 35.5 95t60.5 28q30 0 78.5 -35t64.5 -35q29 0 44 74l52 -8q-21 -126 -97 -126q-30 0 -79 35t-65 35t-25 -15.5
t-16 -55.5z" />
    <glyph glyph-name="Adieresis" unicode="&#xc4;" horiz-adv-x="695" 
d="M13 0l228 506q68 149 90 208l20 6l241 -530q46 -105 89 -190l-80 -7l-104 232h-310l-16 -37q-19 -45 -76 -188h-82zM342 579l-128 -293h256zM308 854q0 -22 -13.5 -37t-35.5 -15q-20 0 -33 14t-13 33q0 21 14 36.5t35 15.5q20 0 33 -14t13 -33zM478 854q0 -21 -14 -36.5
t-35 -15.5q-20 0 -33 14t-13 33q0 22 13.5 37t34.5 15q20 0 33.5 -14t13.5 -33z" />
    <glyph glyph-name="Aring" unicode="&#xc5;" horiz-adv-x="695" 
d="M456 794q0 -41 -24 -72t-65 -39l225 -493q46 -105 89 -190l-80 -7l-104 232h-310l-16 -37q-19 -45 -76 -188h-82l228 506q58 128 78 177q-39 7 -62.5 35t-23.5 65q0 48 31.5 79.5t82.5 31.5q49 0 79 -29t30 -71zM342 579l-128 -293h256zM407 789q0 28 -16.5 46t-44.5 18
q-29 0 -46.5 -18.5t-17.5 -46.5t17 -46.5t45 -18.5q29 0 46 19t17 47z" />
    <glyph glyph-name="AE" unicode="&#xc6;" horiz-adv-x="889" 
d="M-10 0l317 506q98 155 124 202q114 -4 210 -4q78 0 196 4q-5 -30 -7 -68q-116 2 -189 2q-82 0 -110 -1q-1 -24 -1 -80v-161l260 2q-3 -28 -3 -65l-257 1v-194q0 -56 1 -80q16 0 54 -0.5t55 -0.5q114 0 214 3q-5 -35 -6 -69q-79 4 -201 4q-126 0 -197 -5q5 75 5 227h-249
l-21 -35q-64 -104 -110 -188h-85zM455 466q0 50 -2 152l-207 -332h209v180z" />
    <glyph glyph-name="Ccedilla" unicode="&#xc7;" horiz-adv-x="679" 
d="M636 142l-5 -83q-99 -77 -226 -77h-8l-14 -52q100 -28 100 -86q0 -31 -26 -52.5t-72 -21.5q-39 0 -83 15l10 46q40 -16 78 -16q42 0 42 27q0 32 -93 53l-4 4q10 31 24 86q-134 15 -217.5 116t-83.5 235q0 162 103.5 273t262.5 111q117 0 204 -61l-22 -67q-80 61 -187 61
q-125 0 -205.5 -86.5t-80.5 -214.5q0 -136 77.5 -220t199.5 -84q126 0 226 94z" />
    <glyph glyph-name="Egrave" unicode="&#xc8;" horiz-adv-x="544" 
d="M509 65q-6 -34 -6 -68q-79 4 -201 4q-127 0 -197 -5q5 60 5 245v221q0 186 -5 246q112 -4 191 -4q78 0 196 4q-5 -23 -7 -66q-27 0 -90 0.5t-99 0.5q-83 0 -111 -1q-1 -24 -1 -81v-161l261 2q-3 -28 -3 -65l-258 1v-194q0 -57 1 -81q33 -1 110 -1q113 0 214 3zM162 913
l87 7l93 -146l-45 -4z" />
    <glyph glyph-name="Eacute" unicode="&#xc9;" horiz-adv-x="544" 
d="M353 913l100 7l-145 -146l-49 -4zM509 65q-6 -34 -6 -68q-79 4 -201 4q-127 0 -197 -5q5 60 5 245v221q0 186 -5 246q112 -4 191 -4q78 0 196 4q-5 -23 -7 -66q-27 0 -90 0.5t-99 0.5q-83 0 -111 -1q-1 -24 -1 -81v-161l261 2q-3 -28 -3 -65l-258 1v-194q0 -57 1 -81
q33 -1 110 -1q113 0 214 3z" />
    <glyph glyph-name="Ecircumflex" unicode="&#xca;" horiz-adv-x="544" 
d="M268 921h81l102 -147l-52 -5l-92 101l-89 -94h-61zM509 65q-6 -34 -6 -68q-79 4 -201 4q-127 0 -197 -5q5 60 5 245v221q0 186 -5 246q112 -4 191 -4q78 0 196 4q-5 -23 -7 -66q-27 0 -90 0.5t-99 0.5q-83 0 -111 -1q-1 -24 -1 -81v-161l261 2q-3 -28 -3 -65l-258 1v-194
q0 -57 1 -81q33 -1 110 -1q113 0 214 3z" />
    <glyph glyph-name="Edieresis" unicode="&#xcb;" horiz-adv-x="544" 
d="M267 846q0 -22 -13.5 -37t-35.5 -15q-20 0 -33 14t-13 33q0 21 14 36.5t35 15.5q20 0 33 -14t13 -33zM437 846q0 -21 -14 -36.5t-35 -15.5q-20 0 -33 14t-13 33q0 22 13.5 37t34.5 15q20 0 33.5 -14t13.5 -33zM509 65q-6 -34 -6 -68q-79 4 -201 4q-127 0 -197 -5
q5 60 5 245v221q0 186 -5 246q112 -4 191 -4q78 0 196 4q-5 -23 -7 -66q-27 0 -90 0.5t-99 0.5q-83 0 -111 -1q-1 -24 -1 -81v-161l261 2q-3 -28 -3 -65l-258 1v-194q0 -57 1 -81q33 -1 110 -1q113 0 214 3z" />
    <glyph glyph-name="Igrave" unicode="&#xcc;" horiz-adv-x="302" 
d="M191 0h-82q6 72 6 241v221q0 169 -6 241q50 0 82 4q-3 -43 -3 -147v-416q0 -102 3 -144zM8 913l87 7l93 -146l-45 -4z" />
    <glyph glyph-name="Iacute" unicode="&#xcd;" horiz-adv-x="302" 
d="M191 0h-82q6 72 6 241v221q0 169 -6 241q50 0 82 4q-3 -43 -3 -147v-416q0 -102 3 -144zM198 913l100 7l-145 -146l-49 -4z" />
    <glyph glyph-name="Icircumflex" unicode="&#xce;" horiz-adv-x="302" 
d="M191 0h-82q6 72 6 241v221q0 169 -6 241q50 0 82 4q-3 -43 -3 -147v-416q0 -102 3 -144zM114 921h81l102 -147l-52 -5l-92 101l-89 -94h-61z" />
    <glyph glyph-name="Idieresis" unicode="&#xcf;" horiz-adv-x="302" 
d="M191 0h-82q6 72 6 241v221q0 169 -6 241q50 0 82 4q-3 -43 -3 -147v-416q0 -102 3 -144zM113 846q0 -22 -13.5 -37t-35.5 -15q-20 0 -33 14t-13 33q0 21 14 36.5t35 15.5q20 0 33 -14t13 -33zM283 846q0 -21 -14 -36.5t-35 -15.5q-20 0 -33 14t-13 33q0 22 13.5 37
t34.5 15q20 0 33.5 -14t13.5 -33z" />
    <glyph glyph-name="Eth" unicode="&#xd0;" horiz-adv-x="733" 
d="M676 371q0 -164 -102 -267.5t-271 -103.5h-198q6 72 6 241v85l-80 -2q3 24 3 65l77 -3v76q0 169 -6 241q11 0 75 2.5t115 2.5q178 0 279.5 -96t101.5 -241zM600 361q0 128 -81 205t-227 77q-68 0 -107 -3q-1 -21 -1 -81v-173q83 0 158 3q-4 -36 -4 -65q-88 2 -130 2h-24
v-181q0 -54 1 -76q52 -5 108 -5q152 0 229.5 83t77.5 214z" />
    <glyph glyph-name="Ntilde" unicode="&#xd1;" horiz-adv-x="786" 
d="M99 0q6 60 9 241l3 234q0 192 -4 240l21 5l481 -585v327q0 169 -6 241q50 0 82 4q-5 -48 -5 -147l-5 -420q-1 -27 -0.5 -80t2.5 -72l-21 -5l-478 578v-417q0 -102 3 -144h-82zM232 790q12 67 35.5 95t60.5 28q30 0 78.5 -35t64.5 -35q29 0 44 74l52 -8q-21 -126 -97 -126
q-30 0 -79 35t-65 35t-25 -15.5t-16 -55.5z" />
    <glyph glyph-name="Ograve" unicode="&#xd2;" horiz-adv-x="816" 
d="M404 45q122 0 200 90.5t78 220.5q0 133 -76 217t-194 84q-122 0 -200.5 -90.5t-78.5 -220.5q0 -132 76 -216.5t195 -84.5zM398 -18q-148 0 -244 103t-96 248q0 164 101 275.5t259 111.5q148 0 244 -103t96 -248q0 -164 -101 -275.5t-259 -111.5zM265 921l87 7l93 -146
l-45 -4z" />
    <glyph glyph-name="Oacute" unicode="&#xd3;" horiz-adv-x="816" 
d="M455 921l100 7l-145 -146l-49 -4zM404 45q122 0 200 90.5t78 220.5q0 133 -76 217t-194 84q-122 0 -200.5 -90.5t-78.5 -220.5q0 -132 76 -216.5t195 -84.5zM398 -18q-148 0 -244 103t-96 248q0 164 101 275.5t259 111.5q148 0 244 -103t96 -248q0 -164 -101 -275.5
t-259 -111.5z" />
    <glyph glyph-name="Ocircumflex" unicode="&#xd4;" horiz-adv-x="816" 
d="M370 929h81l102 -147l-52 -5l-92 101l-89 -94h-61zM404 45q122 0 200 90.5t78 220.5q0 133 -76 217t-194 84q-122 0 -200.5 -90.5t-78.5 -220.5q0 -132 76 -216.5t195 -84.5zM398 -18q-148 0 -244 103t-96 248q0 164 101 275.5t259 111.5q148 0 244 -103t96 -248
q0 -164 -101 -275.5t-259 -111.5z" />
    <glyph glyph-name="Otilde" unicode="&#xd5;" horiz-adv-x="816" 
d="M404 45q122 0 200 90.5t78 220.5q0 133 -76 217t-194 84q-122 0 -200.5 -90.5t-78.5 -220.5q0 -132 76 -216.5t195 -84.5zM398 -18q-148 0 -244 103t-96 248q0 164 101 275.5t259 111.5q148 0 244 -103t96 -248q0 -164 -101 -275.5t-259 -111.5zM245 798q12 67 35.5 95
t60.5 28q30 0 78.5 -35t64.5 -35q29 0 44 74l52 -8q-21 -126 -97 -126q-30 0 -79 35t-65 35t-25 -15.5t-16 -55.5z" />
    <glyph glyph-name="Odieresis" unicode="&#xd6;" horiz-adv-x="816" 
d="M370 854q0 -22 -13.5 -37t-35.5 -15q-20 0 -33 14t-13 33q0 21 14 36.5t35 15.5q20 0 33 -14t13 -33zM540 854q0 -21 -14 -36.5t-35 -15.5q-20 0 -33 14t-13 33q0 22 13.5 37t34.5 15q20 0 33.5 -14t13.5 -33zM404 45q122 0 200 90.5t78 220.5q0 133 -76 217t-194 84
q-122 0 -200.5 -90.5t-78.5 -220.5q0 -132 76 -216.5t195 -84.5zM398 -18q-148 0 -244 103t-96 248q0 164 101 275.5t259 111.5q148 0 244 -103t96 -248q0 -164 -101 -275.5t-259 -111.5z" />
    <glyph glyph-name="multiply" unicode="&#xd7;" horiz-adv-x="552" 
d="M466 120q-8 -6 -46 -41q-58 65 -144 153q-31 -31 -85 -86.5t-64 -65.5q-11 16 -41 43l151 148q-85 85 -151 148q23 16 47 40l143 -150q68 71 144 154q5 -7 41 -46q-63 -61 -145 -146q107 -111 150 -151z" />
    <glyph glyph-name="Oslash" unicode="&#xd8;" horiz-adv-x="815" 
d="M744 703q-14 -14 -79 -90q92 -100 92 -244q0 -164 -101 -275.5t-258 -111.5q-121 0 -211 71l-70 -82l-49 26q39 42 83 91q-93 101 -93 245q0 164 101 275.5t259 111.5q119 0 209 -71q46 54 68 83q36 -23 49 -29zM135 346q0 -122 63 -202l383 451q-70 61 -169 61
q-121 0 -199 -90t-78 -220zM404 46q121 0 198.5 89.5t77.5 220.5q0 120 -63 200l-383 -449q70 -61 170 -61z" />
    <glyph glyph-name="Ugrave" unicode="&#xd9;" horiz-adv-x="745" 
d="M652 707q-4 -39 -4 -147v-280q0 -146 -76 -222q-78 -76 -210 -76q-118 0 -191.5 69t-73.5 188v223q0 181 -5 241q49 0 82 4q-3 -29 -3 -147v-296q0 -216 206 -216q92 0 145 53.5t53 148.5v212q0 183 -6 241q48 0 83 4zM229 913l87 7l93 -146l-45 -4z" />
    <glyph glyph-name="Uacute" unicode="&#xda;" horiz-adv-x="745" 
d="M420 913l100 7l-145 -146l-49 -4zM652 707q-4 -39 -4 -147v-280q0 -146 -76 -222q-78 -76 -210 -76q-118 0 -191.5 69t-73.5 188v223q0 181 -5 241q49 0 82 4q-3 -29 -3 -147v-296q0 -216 206 -216q92 0 145 53.5t53 148.5v212q0 183 -6 241q48 0 83 4z" />
    <glyph glyph-name="Ucircumflex" unicode="&#xdb;" horiz-adv-x="745" 
d="M335 921h81l102 -147l-52 -5l-92 101l-89 -94h-61zM652 707q-4 -39 -4 -147v-280q0 -146 -76 -222q-78 -76 -210 -76q-118 0 -191.5 69t-73.5 188v223q0 181 -5 241q49 0 82 4q-3 -29 -3 -147v-296q0 -216 206 -216q92 0 145 53.5t53 148.5v212q0 183 -6 241q48 0 83 4z
" />
    <glyph glyph-name="Udieresis" unicode="&#xdc;" horiz-adv-x="745" 
d="M334 846q0 -22 -13.5 -37t-35.5 -15q-20 0 -33 14t-13 33q0 21 14 36.5t35 15.5q20 0 33 -14t13 -33zM504 846q0 -21 -14 -36.5t-35 -15.5q-20 0 -33 14t-13 33q0 22 13.5 37t34.5 15q20 0 33.5 -14t13.5 -33zM652 707q-4 -39 -4 -147v-280q0 -146 -76 -222
q-78 -76 -210 -76q-118 0 -191.5 69t-73.5 188v223q0 181 -5 241q49 0 82 4q-3 -29 -3 -147v-296q0 -216 206 -216q92 0 145 53.5t53 148.5v212q0 183 -6 241q48 0 83 4z" />
    <glyph glyph-name="Yacute" unicode="&#xdd;" horiz-adv-x="611" 
d="M11 703l82 7l215 -340l74 115q2 2 137 220h86l-262 -398v-163q0 -102 3 -144h-82q6 72 6 238v66l-107 166q-72 115 -152 233zM356 913l100 7l-145 -146l-49 -4z" />
    <glyph glyph-name="Thorn" unicode="&#xde;" horiz-adv-x="571" 
d="M110 462q0 169 -6 241q51 0 84 4q-3 -29 -3 -143q42 3 84 3q122 0 190.5 -56t68.5 -143q0 -104 -72 -167.5t-219 -63.5q-16 0 -52 2q0 -110 3 -139h-83q5 60 5 241v221zM185 202q27 -3 54 -3q102 0 157.5 40.5t55.5 112.5q0 70 -48 108.5t-137 38.5q-30 0 -82 -2v-295z
" />
    <glyph glyph-name="germandbls" unicode="&#xdf;" horiz-adv-x="497" 
d="M74 0q5 54 5 165v334q0 109 49 166.5t133 57.5q68 0 113.5 -42.5t45.5 -103.5q0 -40 -17 -74.5t-38 -53t-38 -37t-17 -31.5t9 -23.5t40 -36.5q34 -28 53 -47t36.5 -52t17.5 -69q0 -61 -48 -109t-127 -48q-37 0 -70 8l-7 64q36 -10 71 -10q52 0 82 26.5t30 64.5
q0 34 -25 66t-54.5 53.5t-54.5 50t-25 54.5q0 19 18 41.5t39 41t39 48t18 60.5q0 43 -27 70t-67 27q-48 0 -78.5 -36.5t-31.5 -105.5v-420q0 -61 3 -99h-77z" />
    <glyph glyph-name="agrave" unicode="&#xe0;" horiz-adv-x="480" 
d="M181 -12q-66 0 -103.5 36t-37.5 94q0 67 59 108.5t175 41.5q28 0 54 -3l1 19q4 122 -106 122q-68 0 -130 -44l-16 61q75 44 156 44t123.5 -46t40.5 -130l-6 -198q-1 -27 6.5 -38t24.5 -11t40 10l-7 -50q-28 -14 -53 -14q-30 0 -49.5 21.5t-20.5 67.5q-19 -41 -60 -66
t-91 -25zM195 44q54 0 91.5 37t39.5 93l1 44q-27 3 -55 3q-87 0 -126 -27.5t-39 -71.5q0 -35 22 -56.5t66 -21.5zM96 680l87 7l93 -146l-45 -4z" />
    <glyph glyph-name="aacute" unicode="&#xe1;" horiz-adv-x="480" 
d="M181 -12q-66 0 -103.5 36t-37.5 94q0 67 59 108.5t175 41.5q28 0 54 -3l1 19q4 122 -106 122q-68 0 -130 -44l-16 61q75 44 156 44t123.5 -46t40.5 -130l-6 -198q-1 -27 6.5 -38t24.5 -11t40 10l-7 -50q-28 -14 -53 -14q-30 0 -49.5 21.5t-20.5 67.5q-19 -41 -60 -66
t-91 -25zM195 44q54 0 91.5 37t39.5 93l1 44q-27 3 -55 3q-87 0 -126 -27.5t-39 -71.5q0 -35 22 -56.5t66 -21.5zM287 680l100 7l-145 -146l-49 -4z" />
    <glyph glyph-name="acircumflex" unicode="&#xe2;" horiz-adv-x="480" 
d="M181 -12q-66 0 -103.5 36t-37.5 94q0 67 59 108.5t175 41.5q28 0 54 -3l1 19q4 122 -106 122q-68 0 -130 -44l-16 61q75 44 156 44t123.5 -46t40.5 -130l-6 -198q-1 -27 6.5 -38t24.5 -11t40 10l-7 -50q-28 -14 -53 -14q-30 0 -49.5 21.5t-20.5 67.5q-19 -41 -60 -66
t-91 -25zM195 44q54 0 91.5 37t39.5 93l1 44q-27 3 -55 3q-87 0 -126 -27.5t-39 -71.5q0 -35 22 -56.5t66 -21.5zM202 688h81l102 -147l-52 -5l-92 101l-89 -94h-61z" />
    <glyph glyph-name="atilde" unicode="&#xe3;" horiz-adv-x="480" 
d="M181 -12q-66 0 -103.5 36t-37.5 94q0 67 59 108.5t175 41.5q28 0 54 -3l1 19q4 122 -106 122q-68 0 -130 -44l-16 61q75 44 156 44t123.5 -46t40.5 -130l-6 -198q-1 -27 6.5 -38t24.5 -11t40 10l-7 -50q-28 -14 -53 -14q-30 0 -49.5 21.5t-20.5 67.5q-19 -41 -60 -66
t-91 -25zM195 44q54 0 91.5 37t39.5 93l1 44q-27 3 -55 3q-87 0 -126 -27.5t-39 -71.5q0 -35 22 -56.5t66 -21.5zM77 557q12 67 35.5 95t60.5 28q30 0 78.5 -35t64.5 -35q29 0 44 74l52 -8q-21 -126 -97 -126q-30 0 -79 35t-65 35t-25 -15.5t-16 -55.5z" />
    <glyph glyph-name="adieresis" unicode="&#xe4;" horiz-adv-x="480" 
d="M181 -12q-66 0 -103.5 36t-37.5 94q0 67 59 108.5t175 41.5q28 0 54 -3l1 19q4 122 -106 122q-68 0 -130 -44l-16 61q75 44 156 44t123.5 -46t40.5 -130l-6 -198q-1 -27 6.5 -38t24.5 -11t40 10l-7 -50q-28 -14 -53 -14q-30 0 -49.5 21.5t-20.5 67.5q-19 -41 -60 -66
t-91 -25zM195 44q54 0 91.5 37t39.5 93l1 44q-27 3 -55 3q-87 0 -126 -27.5t-39 -71.5q0 -35 22 -56.5t66 -21.5zM201 613q0 -22 -13.5 -37t-35.5 -15q-20 0 -33 14t-13 33q0 21 14 36.5t35 15.5q20 0 33 -14t13 -33zM371 613q0 -21 -14 -36.5t-35 -15.5q-20 0 -33 14
t-13 33q0 22 13.5 37t34.5 15q20 0 33.5 -14t13.5 -33z" />
    <glyph glyph-name="aring" unicode="&#xe5;" horiz-adv-x="480" 
d="M181 -12q-66 0 -103.5 36t-37.5 94q0 67 59 108.5t175 41.5q28 0 54 -3l1 19q4 122 -106 122q-68 0 -130 -44l-16 61q75 44 156 44t123.5 -46t40.5 -130l-6 -198q-1 -27 6.5 -38t24.5 -11t40 10l-7 -50q-28 -14 -53 -14q-30 0 -49.5 21.5t-20.5 67.5q-19 -41 -60 -66
t-91 -25zM350 650q0 -48 -31.5 -80.5t-82.5 -32.5q-48 0 -78.5 30t-30.5 72q0 48 31.5 79.5t82.5 31.5q49 0 79 -29t30 -71zM195 44q54 0 91.5 37t39.5 93l1 44q-27 3 -55 3q-87 0 -126 -27.5t-39 -71.5q0 -35 22 -56.5t66 -21.5zM301 645q0 28 -16.5 46t-44.5 18
q-29 0 -46.5 -18.5t-17.5 -46.5t17 -46.5t45 -18.5q29 0 46 19t17 47z" />
    <glyph glyph-name="ae" unicode="&#xe6;" horiz-adv-x="778" 
d="M738 247l-46 -28l-295 -8q3 -81 43.5 -123.5t113.5 -42.5q84 0 165 67l-4 -72q-80 -56 -169 -56q-140 0 -186 122q-23 -55 -67.5 -86.5t-106.5 -31.5q-66 0 -106 36.5t-40 94.5q0 66 57 106.5t171 40.5q9 0 31 -0.5t34 -0.5l1 18q2 60 -26 91.5t-84 31.5q-69 0 -131 -44
l-16 61q75 44 154 44q118 0 149 -99q57 99 169 99q92 0 140.5 -61.5t48.5 -158.5zM195 44q57 0 95 42.5t40 104.5l1 28q-12 0 -34 0.5t-32 0.5q-158 0 -158 -97q0 -35 22.5 -57t65.5 -22zM399 264l274 7q-14 137 -127 137q-56 0 -96.5 -41.5t-50.5 -102.5z" />
    <glyph glyph-name="ccedilla" unicode="&#xe7;" horiz-adv-x="479" 
d="M433 422l-20 -62q-57 45 -131 45q-75 0 -122 -52t-47 -127q0 -84 49.5 -132.5t122.5 -48.5q81 0 149 59l-4 -73q-69 -46 -150 -47l-15 -54q100 -28 100 -86q0 -31 -26 -52.5t-72 -21.5q-40 0 -83 15l10 46q40 -16 78 -16q42 0 42 27q0 32 -93 53l-4 4q14 46 25 88
q-88 11 -142.5 74.5t-54.5 153.5q0 106 67.5 179t173.5 73q85 0 147 -45z" />
    <glyph glyph-name="egrave" unicode="&#xe8;" horiz-adv-x="500" 
d="M460 247l-46 -28l-300 -8q2 -80 44 -123t116 -43q86 0 166 67l-3 -72q-80 -56 -171 -56q-104 0 -162.5 65t-58.5 164q0 109 63 181.5t164 72.5q93 0 140.5 -61t47.5 -159zM116 264l279 7q-14 137 -128 137q-60 0 -100.5 -40.5t-50.5 -103.5zM123 680l87 7l93 -146l-45 -4
z" />
    <glyph glyph-name="eacute" unicode="&#xe9;" horiz-adv-x="500" 
d="M313 680l100 7l-145 -146l-49 -4zM460 247l-46 -28l-300 -8q2 -80 44 -123t116 -43q86 0 166 67l-3 -72q-80 -56 -171 -56q-104 0 -162.5 65t-58.5 164q0 109 63 181.5t164 72.5q93 0 140.5 -61t47.5 -159zM116 264l279 7q-14 137 -128 137q-60 0 -100.5 -40.5
t-50.5 -103.5z" />
    <glyph glyph-name="ecircumflex" unicode="&#xea;" horiz-adv-x="500" 
d="M229 688h81l102 -147l-52 -5l-92 101l-89 -94h-61zM460 247l-46 -28l-300 -8q2 -80 44 -123t116 -43q86 0 166 67l-3 -72q-80 -56 -171 -56q-104 0 -162.5 65t-58.5 164q0 109 63 181.5t164 72.5q93 0 140.5 -61t47.5 -159zM116 264l279 7q-14 137 -128 137
q-60 0 -100.5 -40.5t-50.5 -103.5z" />
    <glyph glyph-name="edieresis" unicode="&#xeb;" horiz-adv-x="500" 
d="M228 613q0 -22 -13.5 -37t-35.5 -15q-20 0 -33 14t-13 33q0 21 14 36.5t35 15.5q20 0 33 -14t13 -33zM398 613q0 -21 -14 -36.5t-35 -15.5q-20 0 -33 14t-13 33q0 22 13.5 37t34.5 15q20 0 33.5 -14t13.5 -33zM460 247l-46 -28l-300 -8q2 -80 44 -123t116 -43
q86 0 166 67l-3 -72q-80 -56 -171 -56q-104 0 -162.5 65t-58.5 164q0 109 63 181.5t164 72.5q93 0 140.5 -61t47.5 -159zM116 264l279 7q-14 137 -128 137q-60 0 -100.5 -40.5t-50.5 -103.5z" />
    <glyph glyph-name="igrave" unicode="&#xec;" horiz-adv-x="226" 
d="M151 0h-77q5 54 5 166v117q0 107 -6 172q47 0 78 4q-3 -27 -3 -114v-246q0 -60 3 -99zM-30 680l87 7l93 -146l-45 -4z" />
    <glyph glyph-name="iacute" unicode="&#xed;" horiz-adv-x="226" 
d="M161 680l100 7l-145 -146l-49 -4zM151 0h-77q5 54 5 166v117q0 107 -6 172q47 0 78 4q-3 -27 -3 -114v-246q0 -60 3 -99z" />
    <glyph glyph-name="icircumflex" unicode="&#xee;" horiz-adv-x="226" 
d="M76 688h81l102 -147l-52 -5l-92 101l-89 -94h-61zM151 0h-77q5 54 5 166v117q0 107 -6 172q47 0 78 4q-3 -27 -3 -114v-246q0 -60 3 -99z" />
    <glyph glyph-name="idieresis" unicode="&#xef;" horiz-adv-x="226" 
d="M75 613q0 -22 -13.5 -37t-35.5 -15q-20 0 -33 14t-13 33q0 21 14 36.5t35 15.5q20 0 33 -14t13 -33zM245 613q0 -21 -14 -36.5t-35 -15.5q-20 0 -33 14t-13 33q0 22 13.5 37t34.5 15q20 0 33.5 -14t13.5 -33zM151 0h-77q5 54 5 166v117q0 107 -6 172q47 0 78 4
q-3 -27 -3 -114v-246q0 -60 3 -99z" />
    <glyph glyph-name="eth" unicode="&#xf0;" horiz-adv-x="543" 
d="M263 -16q-98 0 -158 66.5t-60 162.5q0 110 64 182t161 72q107 0 160 -89q-33 115 -122 203l-14 -8l-118 -69q-19 22 -44 42q77 41 134 73q-60 47 -133 77l63 32q67 -31 125 -78q11 7 112 69l42 -44q-36 -18 -113 -62q138 -141 139 -341q0 -132 -66 -210t-172 -78z
M430 232q0 77 -44 125.5t-111 48.5q-71 0 -116.5 -53t-45.5 -130t43.5 -127.5t112.5 -50.5q71 0 116 54t45 133z" />
    <glyph glyph-name="ntilde" unicode="&#xf1;" horiz-adv-x="543" 
d="M470 0h-78q6 64 6 170v121q0 115 -95 115q-54 0 -104.5 -46.5t-50.5 -89.5v-167q0 -59 3 -103h-77q5 72 5 170v114q0 98 -5 170q22 0 68 4l5 -99q27 44 75.5 76t99.5 32q69 0 107 -41t38 -119v-204q0 -25 3 -103zM115 557q12 67 35.5 95t60.5 28q30 0 78.5 -35t64.5 -35
q29 0 44 74l52 -8q-21 -126 -97 -126q-30 0 -79 35t-65 35t-25 -15.5t-16 -55.5z" />
    <glyph glyph-name="ograve" unicode="&#xf2;" horiz-adv-x="543" 
d="M498 237q0 -109 -64.5 -181t-169.5 -72q-98 0 -158.5 66t-60.5 164q0 109 64 181t168 72q98 0 159.5 -66.5t61.5 -163.5zM429 227q0 84 -44 131.5t-112 47.5q-71 0 -115.5 -52t-44.5 -129q0 -85 42.5 -132.5t113.5 -47.5q72 0 116 52t44 130zM129 680l87 7l93 -146
l-45 -4z" />
    <glyph glyph-name="oacute" unicode="&#xf3;" horiz-adv-x="543" 
d="M319 680l100 7l-145 -146l-49 -4zM498 237q0 -109 -64.5 -181t-169.5 -72q-98 0 -158.5 66t-60.5 164q0 109 64 181t168 72q98 0 159.5 -66.5t61.5 -163.5zM429 227q0 84 -44 131.5t-112 47.5q-71 0 -115.5 -52t-44.5 -129q0 -85 42.5 -132.5t113.5 -47.5q72 0 116 52
t44 130z" />
    <glyph glyph-name="ocircumflex" unicode="&#xf4;" horiz-adv-x="543" 
d="M234 688h81l102 -147l-52 -5l-92 101l-89 -94h-61zM498 237q0 -109 -64.5 -181t-169.5 -72q-98 0 -158.5 66t-60.5 164q0 109 64 181t168 72q98 0 159.5 -66.5t61.5 -163.5zM429 227q0 84 -44 131.5t-112 47.5q-71 0 -115.5 -52t-44.5 -129q0 -85 42.5 -132.5
t113.5 -47.5q72 0 116 52t44 130z" />
    <glyph glyph-name="otilde" unicode="&#xf5;" horiz-adv-x="543" 
d="M498 237q0 -109 -64.5 -181t-169.5 -72q-98 0 -158.5 66t-60.5 164q0 109 64 181t168 72q98 0 159.5 -66.5t61.5 -163.5zM429 227q0 84 -44 131.5t-112 47.5q-71 0 -115.5 -52t-44.5 -129q0 -85 42.5 -132.5t113.5 -47.5q72 0 116 52t44 130zM109 557q12 67 35.5 95
t60.5 28q30 0 78.5 -35t64.5 -35q29 0 44 74l52 -8q-21 -126 -97 -126q-30 0 -79 35t-65 35t-25 -15.5t-16 -55.5z" />
    <glyph glyph-name="odieresis" unicode="&#xf6;" horiz-adv-x="543" 
d="M234 613q0 -22 -13.5 -37t-35.5 -15q-20 0 -33 14t-13 33q0 21 14 36.5t35 15.5q20 0 33 -14t13 -33zM404 613q0 -21 -14 -36.5t-35 -15.5q-20 0 -33 14t-13 33q0 22 13.5 37t34.5 15q20 0 33.5 -14t13.5 -33zM498 237q0 -109 -64.5 -181t-169.5 -72q-98 0 -158.5 66
t-60.5 164q0 109 64 181t168 72q98 0 159.5 -66.5t61.5 -163.5zM429 227q0 84 -44 131.5t-112 47.5q-71 0 -115.5 -52t-44.5 -129q0 -85 42.5 -132.5t113.5 -47.5q72 0 116 52t44 130z" />
    <glyph glyph-name="divide" unicode="&#xf7;" horiz-adv-x="552" 
d="M479 301q-4 -30 -4 -58q-27 0 -82.5 0.5t-86.5 0.5h-64q-33 0 -88.5 -0.5t-80.5 -0.5q2 28 2 58q124 -2 203 -2q137 0 201 2zM322 444q0 -22 -13.5 -36.5t-35.5 -14.5q-20 0 -33 14t-13 33q0 21 14 36.5t35 15.5q20 0 33 -14.5t13 -33.5zM322 103q0 -22 -13.5 -36.5
t-35.5 -14.5q-20 0 -33 14t-13 33q0 21 14 36t35 15q20 0 33 -14t13 -33z" />
    <glyph glyph-name="oslash" unicode="&#xf8;" horiz-adv-x="543" 
d="M506 454q-8 -8 -29.5 -32t-30.5 -33q52 -63 52 -152q0 -109 -64.5 -181t-169.5 -72q-80 0 -137 46q-5 -6 -26 -28.5t-32 -35.5l-38 27l64 69q-50 64 -50 152q0 109 64 181t168 72q79 0 136 -46l56 64q10 -10 37 -31zM430 227q0 66 -30 112l-230 -261q39 -33 99 -33
q73 0 117 52t44 130zM113 225q0 -68 26 -112l231 260q-39 33 -97 33q-71 0 -115.5 -52t-44.5 -129z" />
    <glyph glyph-name="ugrave" unicode="&#xf9;" horiz-adv-x="544" 
d="M471 0h-64l-9 86q-26 -43 -74 -73t-94 -30q-153 0 -153 172v134q0 89 -5 166q46 0 77 4q-3 -41 -3 -110v-178q0 -65 25 -95.5t77 -30.5q48 0 98 42t50 83v119q0 97 -6 166q49 0 78 4q-3 -41 -3 -110v-180q0 -101 6 -169zM129 680l87 7l93 -146l-45 -4z" />
    <glyph glyph-name="uacute" unicode="&#xfa;" horiz-adv-x="544" 
d="M319 680l100 7l-145 -146l-49 -4zM471 0h-64l-9 86q-26 -43 -74 -73t-94 -30q-153 0 -153 172v134q0 89 -5 166q46 0 77 4q-3 -41 -3 -110v-178q0 -65 25 -95.5t77 -30.5q48 0 98 42t50 83v119q0 97 -6 166q49 0 78 4q-3 -41 -3 -110v-180q0 -101 6 -169z" />
    <glyph glyph-name="ucircumflex" unicode="&#xfb;" horiz-adv-x="544" 
d="M235 688h81l102 -147l-52 -5l-92 101l-89 -94h-61zM471 0h-64l-9 86q-26 -43 -74 -73t-94 -30q-153 0 -153 172v134q0 89 -5 166q46 0 77 4q-3 -41 -3 -110v-178q0 -65 25 -95.5t77 -30.5q48 0 98 42t50 83v119q0 97 -6 166q49 0 78 4q-3 -41 -3 -110v-180q0 -101 6 -169
z" />
    <glyph glyph-name="udieresis" unicode="&#xfc;" horiz-adv-x="544" 
d="M234 613q0 -22 -13.5 -37t-35.5 -15q-20 0 -33 14t-13 33q0 21 14 36.5t35 15.5q20 0 33 -14t13 -33zM404 613q0 -21 -14 -36.5t-35 -15.5q-20 0 -33 14t-13 33q0 22 13.5 37t34.5 15q20 0 33.5 -14t13.5 -33zM471 0h-64l-9 86q-26 -43 -74 -73t-94 -30q-153 0 -153 172
v134q0 89 -5 166q46 0 77 4q-3 -41 -3 -110v-178q0 -65 25 -95.5t77 -30.5q48 0 98 42t50 83v119q0 97 -6 166q49 0 78 4q-3 -41 -3 -110v-180q0 -101 6 -169z" />
    <glyph glyph-name="yacute" unicode="&#xfd;" horiz-adv-x="458" 
d="M90 -213l109 252q-25 65 -42 102q-2 4 -31 69t-37 84q-42 99 -73 157l78 11l140 -342l59 142q62 158 74 194q55 0 77 3l-223 -533q-43 -104 -54 -136q-47 0 -77 -3zM284 680l100 7l-145 -146l-49 -4z" />
    <glyph glyph-name="thorn" unicode="&#xfe;" horiz-adv-x="543" 
d="M147 338v-245q46 -49 122 -49q70 0 115.5 55.5t45.5 133.5q0 80 -38 126.5t-106 46.5q-77 0 -139 -68zM78 -60v603q0 111 -5 168q20 1 77 9q-3 -26 -3 -115v-203q73 65 156 65q87 0 141.5 -62.5t54.5 -162.5q0 -113 -69.5 -185.5t-159.5 -72.5q-77 0 -123 41v-137
q0 -63 4 -96q-1 0 -38.5 -3.5t-39.5 -3.5q5 48 5 155z" />
    <glyph glyph-name="ydieresis" unicode="&#xff;" horiz-adv-x="458" 
d="M90 -213l109 252q-25 65 -42 102q-2 4 -31 69t-37 84q-42 99 -73 157l78 11l140 -342l59 142q62 158 74 194q55 0 77 3l-223 -533q-43 -104 -54 -136q-47 0 -77 -3zM198 613q0 -22 -13.5 -37t-35.5 -15q-20 0 -33 14t-13 33q0 21 14 36.5t35 15.5q20 0 33 -14t13 -33z
M368 613q0 -21 -14 -36.5t-35 -15.5q-20 0 -33 14t-13 33q0 22 13.5 37t34.5 15q20 0 33.5 -14t13.5 -33z" />
    <glyph glyph-name="Amacron" unicode="&#x100;" horiz-adv-x="695" 
d="M13 0l228 506q68 149 90 208l20 6l241 -530q46 -105 89 -190l-80 -7l-104 232h-310l-16 -37q-19 -45 -76 -188h-82zM342 579l-128 -293h256zM492 886q-5 -27 -5 -59q-80 2 -113 2h-68q-40 0 -108 -2q3 21 3 59q68 -3 145 -3q74 0 146 3z" />
    <glyph glyph-name="amacron" unicode="&#x101;" horiz-adv-x="480" 
d="M181 -12q-66 0 -103.5 36t-37.5 94q0 67 59 108.5t175 41.5q28 0 54 -3l1 19q4 122 -106 122q-68 0 -130 -44l-16 61q75 44 156 44t123.5 -46t40.5 -130l-6 -198q-1 -27 6.5 -38t24.5 -11t40 10l-7 -50q-28 -14 -53 -14q-30 0 -49.5 21.5t-20.5 67.5q-19 -41 -60 -66
t-91 -25zM195 44q54 0 91.5 37t39.5 93l1 44q-27 3 -55 3q-87 0 -126 -27.5t-39 -71.5q0 -35 22 -56.5t66 -21.5zM386 645q-5 -27 -5 -59q-80 2 -113 2h-68q-40 0 -108 -2q3 21 3 59q68 -3 145 -3q74 0 146 3z" />
    <glyph glyph-name="Abreve" unicode="&#x102;" horiz-adv-x="695" 
d="M13 0l228 506q68 149 90 208l20 6l241 -530q46 -105 89 -190l-80 -7l-104 232h-310l-16 -37q-19 -45 -76 -188h-82zM342 579l-128 -293h256zM432 929l59 4q2 -71 -38 -111.5t-112 -40.5q-63 0 -103.5 40.5t-40.5 101.5l60 10q0 -47 24 -73.5t64 -26.5q43 0 65.5 27
t21.5 69z" />
    <glyph glyph-name="abreve" unicode="&#x103;" horiz-adv-x="480" 
d="M181 -12q-66 0 -103.5 36t-37.5 94q0 67 59 108.5t175 41.5q28 0 54 -3l1 19q4 122 -106 122q-68 0 -130 -44l-16 61q75 44 156 44t123.5 -46t40.5 -130l-6 -198q-1 -27 6.5 -38t24.5 -11t40 10l-7 -50q-28 -14 -53 -14q-30 0 -49.5 21.5t-20.5 67.5q-19 -41 -60 -66
t-91 -25zM195 44q54 0 91.5 37t39.5 93l1 44q-27 3 -55 3q-87 0 -126 -27.5t-39 -71.5q0 -35 22 -56.5t66 -21.5zM326 688l59 4q2 -71 -38 -111.5t-112 -40.5q-63 0 -103.5 40.5t-40.5 101.5l60 10q0 -47 24 -73.5t64 -26.5q43 0 65.5 27t21.5 69z" />
    <glyph glyph-name="Aogonek" unicode="&#x104;" horiz-adv-x="695" 
d="M13 0l228 506q68 149 90 208l20 6l241 -530q39 -91 88 -189l2 -1q-110 -68 -110 -122q0 -17 11 -27.5t31 -10.5q31 0 64 23l-4 -49q-30 -22 -71 -22t-64.5 21t-23.5 56q0 63 85 126l-103 230h-310l-16 -37q-19 -45 -76 -188h-82zM342 579l-128 -293h256z" />
    <glyph glyph-name="aogonek" unicode="&#x105;" horiz-adv-x="480" 
d="M181 -12q-66 0 -103.5 36t-37.5 94q0 67 59 108.5t175 41.5q27 0 54 -3l1 19q4 122 -106 122q-68 0 -130 -44l-16 61q75 44 156 44t123.5 -46t40.5 -130l-6 -198q-1 -27 6.5 -38t24.5 -11t40 10l-7 -48q-108 -73 -108 -128q0 -17 10.5 -27.5t30.5 -10.5q31 0 64 23
l-4 -49q-30 -22 -71 -22t-64.5 21t-23.5 56q0 63 92 125q-48 12 -49 85q-19 -41 -60 -66t-91 -25zM195 44q54 0 91.5 37t39.5 93l1 44q-27 3 -55 3q-87 0 -126 -27.5t-39 -71.5q0 -35 22 -56.5t66 -21.5z" />
    <glyph glyph-name="Cacute" unicode="&#x106;" horiz-adv-x="679" 
d="M447 921l100 7l-145 -146l-49 -4zM636 142l-5 -83q-99 -77 -226 -77q-152 0 -249.5 104t-97.5 250q0 162 103.5 273t262.5 111q117 0 204 -61l-22 -67q-80 61 -187 61q-125 0 -205.5 -86.5t-80.5 -214.5q0 -136 77.5 -220t199.5 -84q126 0 226 94z" />
    <glyph glyph-name="cacute" unicode="&#x107;" horiz-adv-x="479" 
d="M324 680l100 7l-145 -146l-49 -4zM433 422l-20 -62q-57 45 -131 45q-75 0 -122 -52t-47 -127q0 -84 49.5 -132.5t122.5 -48.5q81 0 149 59l-4 -73q-70 -47 -153 -47q-101 0 -166.5 66t-65.5 165q0 106 67.5 179t173.5 73q85 0 147 -45z" />
    <glyph glyph-name="Cdotaccent" unicode="&#x10a;" horiz-adv-x="679" 
d="M636 142l-5 -83q-99 -77 -226 -77q-152 0 -249.5 104t-97.5 250q0 162 103.5 273t262.5 111q117 0 204 -61l-22 -67q-80 61 -187 61q-125 0 -205.5 -86.5t-80.5 -214.5q0 -136 77.5 -220t199.5 -84q126 0 226 94zM445 854q0 -22 -13.5 -37t-34.5 -15q-20 0 -33 14t-13 33
q0 22 13.5 37t34.5 15q20 0 33 -14t13 -33z" />
    <glyph glyph-name="cdotaccent" unicode="&#x10b;" horiz-adv-x="479" 
d="M433 422l-20 -62q-57 45 -131 45q-75 0 -122 -52t-47 -127q0 -84 49.5 -132.5t122.5 -48.5q81 0 149 59l-4 -73q-70 -47 -153 -47q-101 0 -166.5 66t-65.5 165q0 106 67.5 179t173.5 73q85 0 147 -45zM323 613q0 -22 -13.5 -37t-34.5 -15q-20 0 -33 14t-13 33
q0 22 13.5 37t34.5 15q20 0 33 -14t13 -33z" />
    <glyph glyph-name="Ccaron" unicode="&#x10c;" horiz-adv-x="679" 
d="M436 783h-80l-104 145l53 5l92 -99l90 94h59zM636 142l-5 -83q-99 -77 -226 -77q-152 0 -249.5 104t-97.5 250q0 162 103.5 273t262.5 111q117 0 204 -61l-22 -67q-80 61 -187 61q-125 0 -205.5 -86.5t-80.5 -214.5q0 -136 77.5 -220t199.5 -84q126 0 226 94z" />
    <glyph glyph-name="ccaron" unicode="&#x10d;" horiz-adv-x="479" 
d="M313 542h-80l-104 145l53 5l92 -99l90 94h59zM433 422l-20 -62q-57 45 -131 45q-75 0 -122 -52t-47 -127q0 -84 49.5 -132.5t122.5 -48.5q81 0 149 59l-4 -73q-70 -47 -153 -47q-101 0 -166.5 66t-65.5 165q0 106 67.5 179t173.5 73q85 0 147 -45z" />
    <glyph glyph-name="Dcaron" unicode="&#x10e;" horiz-adv-x="734" 
d="M399 775h-80l-104 145l53 5l92 -99l90 94h59zM676 371q0 -164 -102 -267.5t-271 -103.5h-198q6 72 6 241v221q0 169 -6 241q11 0 75 2.5t115 2.5q178 0 279.5 -96t101.5 -241zM600 361q0 128 -81 205t-227 77q-68 0 -107 -3q-1 -21 -1 -81v-414q0 -54 1 -76q52 -5 108 -5
q152 0 229.5 83t77.5 214z" />
    <glyph glyph-name="dcaron" unicode="&#x10f;" horiz-adv-x="544" 
d="M279 467q70 0 117 -38v113q0 110 -5 168q50 4 77 10q-3 -27 -3 -115v-459q0 -85 6 -145h-64l-6 56q-24 -29 -64 -51t-85 -22q-94 0 -151 64.5t-57 161.5q0 110 66.5 183.5t168.5 73.5zM280 406q-76 0 -121.5 -53.5t-45.5 -132.5q0 -82 42.5 -128.5t108.5 -46.5
q41 0 76.5 21.5t55.5 55.5v238q-44 46 -116 46zM550 565l-31 -7q7 90 8 150l60 9q-25 -110 -37 -152z" />
    <glyph glyph-name="Dcroat" unicode="&#x110;" horiz-adv-x="733" 
d="M676 371q0 -164 -102 -267.5t-271 -103.5h-198q6 72 6 241v85l-80 -2q3 24 3 65l77 -3v76q0 169 -6 241q11 0 75 2.5t115 2.5q178 0 279.5 -96t101.5 -241zM600 361q0 128 -81 205t-227 77q-68 0 -107 -3q-1 -21 -1 -81v-173q83 0 158 3q-4 -36 -4 -65q-88 2 -130 2h-24
v-181q0 -54 1 -76q52 -5 108 -5q152 0 229.5 83t77.5 214z" />
    <glyph glyph-name="dcroat" unicode="&#x111;" horiz-adv-x="544" 
d="M279 467q70 0 117 -38v113v3h-42q-25 0 -64.5 -0.5t-56.5 -0.5q2 28 2 58q72 -3 161 -3q-2 76 -5 111q50 4 77 10q-3 -27 -3 -115v-6l70 3q-3 -13 -5 -58q-44 0 -65 1v-399q0 -85 6 -145h-64l-6 56q-24 -29 -64 -51t-85 -22q-94 0 -151 64.5t-57 161.5q0 110 66.5 183.5
t168.5 73.5zM280 406q-76 0 -121.5 -53.5t-45.5 -132.5q0 -82 42.5 -128.5t108.5 -46.5q41 0 76.5 21.5t55.5 55.5v238q-44 46 -116 46z" />
    <glyph glyph-name="Emacron" unicode="&#x112;" horiz-adv-x="544" 
d="M509 65q-6 -34 -6 -68q-79 4 -201 4q-127 0 -197 -5q5 60 5 245v221q0 186 -5 246q112 -4 191 -4q78 0 196 4q-5 -23 -7 -66q-27 0 -90 0.5t-99 0.5q-83 0 -111 -1q-1 -24 -1 -81v-161l261 2q-3 -28 -3 -65l-258 1v-194q0 -57 1 -81q33 -1 110 -1q113 0 214 3zM452 878
q-5 -27 -5 -59q-80 2 -113 2h-68q-40 0 -108 -2q3 21 3 59q68 -3 145 -3q74 0 146 3z" />
    <glyph glyph-name="emacron" unicode="&#x113;" horiz-adv-x="500" 
d="M460 247l-46 -28l-300 -8q2 -80 44 -123t116 -43q86 0 166 67l-3 -72q-80 -56 -171 -56q-104 0 -162.5 65t-58.5 164q0 109 63 181.5t164 72.5q93 0 140.5 -61t47.5 -159zM116 264l279 7q-14 137 -128 137q-60 0 -100.5 -40.5t-50.5 -103.5zM412 645q-5 -27 -5 -59
q-80 2 -113 2h-68q-40 0 -108 -2q3 21 3 59q68 -3 145 -3q74 0 146 3z" />
    <glyph glyph-name="Ebreve" unicode="&#x114;" horiz-adv-x="544" 
d="M509 65q-6 -34 -6 -68q-79 4 -201 4q-127 0 -197 -5q5 60 5 245v221q0 186 -5 246q112 -4 191 -4q78 0 196 4q-5 -23 -7 -66q-27 0 -90 0.5t-99 0.5q-83 0 -111 -1q-1 -24 -1 -81v-161l261 2q-3 -28 -3 -65l-258 1v-194q0 -57 1 -81q33 -1 110 -1q113 0 214 3zM392 921
l59 4q2 -71 -38 -111.5t-112 -40.5q-63 0 -103.5 40.5t-40.5 101.5l60 10q0 -47 24 -73.5t64 -26.5q43 0 65.5 27t21.5 69z" />
    <glyph glyph-name="ebreve" unicode="&#x115;" horiz-adv-x="500" 
d="M460 247l-46 -28l-300 -8q2 -80 44 -123t116 -43q86 0 166 67l-3 -72q-80 -56 -171 -56q-104 0 -162.5 65t-58.5 164q0 109 63 181.5t164 72.5q93 0 140.5 -61t47.5 -159zM116 264l279 7q-14 137 -128 137q-60 0 -100.5 -40.5t-50.5 -103.5zM352 688l59 4
q2 -71 -38 -111.5t-112 -40.5q-63 0 -103.5 40.5t-40.5 101.5l60 10q0 -47 24 -73.5t64 -26.5q43 0 65.5 27t21.5 69z" />
    <glyph glyph-name="Edotaccent" unicode="&#x116;" horiz-adv-x="544" 
d="M509 65q-6 -34 -6 -68q-79 4 -201 4q-127 0 -197 -5q5 60 5 245v221q0 186 -5 246q112 -4 191 -4q78 0 196 4q-5 -23 -7 -66q-27 0 -90 0.5t-99 0.5q-83 0 -111 -1q-1 -24 -1 -81v-161l261 2q-3 -28 -3 -65l-258 1v-194q0 -57 1 -81q33 -1 110 -1q113 0 214 3zM351 846
q0 -22 -13.5 -37t-34.5 -15q-20 0 -33 14t-13 33q0 22 13.5 37t34.5 15q20 0 33 -14t13 -33z" />
    <glyph glyph-name="edotaccent" unicode="&#x117;" horiz-adv-x="500" 
d="M460 247l-46 -28l-300 -8q2 -80 44 -123t116 -43q86 0 166 67l-3 -72q-80 -56 -171 -56q-104 0 -162.5 65t-58.5 164q0 109 63 181.5t164 72.5q93 0 140.5 -61t47.5 -159zM116 264l279 7q-14 137 -128 137q-60 0 -100.5 -40.5t-50.5 -103.5zM312 613q0 -22 -13.5 -37
t-34.5 -15q-20 0 -33 14t-13 33q0 22 13.5 37t34.5 15q20 0 33 -14t13 -33z" />
    <glyph glyph-name="Eogonek" unicode="&#x118;" horiz-adv-x="544" 
d="M509 65q-6 -34 -6 -68q-110 -67 -110 -119q0 -17 11 -27.5t31 -10.5q30 0 64 23l-4 -49q-30 -22 -72 -22q-40 0 -63.5 21t-23.5 56q0 34 25.5 65t80.5 66q-22 0 -69 0.5t-71 0.5q-127 0 -197 -5q5 60 5 245v221q0 186 -5 246q112 -4 191 -4q78 0 196 4q-5 -23 -7 -66
q-27 0 -90 0.5t-99 0.5q-83 0 -111 -1q-1 -24 -1 -81v-161l261 2q-3 -28 -3 -65l-258 1v-194q0 -57 1 -81q33 -1 110 -1q113 0 214 3z" />
    <glyph glyph-name="eogonek" unicode="&#x119;" horiz-adv-x="500" 
d="M440 112l-3 -71q-150 -97 -150 -163q0 -17 11 -27.5t31 -10.5q30 0 63 23l-4 -49q-30 -22 -71 -22q-40 0 -64 21t-24 56q0 59 75 117q-24 -2 -38 -2q-104 0 -162.5 65t-58.5 164q0 109 63 181.5t164 72.5q93 0 140.5 -61t47.5 -159l-46 -28l-300 -8q2 -80 44 -123
t116 -43q86 0 166 67zM116 264l279 7q-14 137 -128 137q-60 0 -100.5 -40.5t-50.5 -103.5z" />
    <glyph glyph-name="Ecaron" unicode="&#x11a;" horiz-adv-x="544" 
d="M342 775h-80l-104 145l53 5l92 -99l90 94h59zM509 65q-6 -34 -6 -68q-79 4 -201 4q-127 0 -197 -5q5 60 5 245v221q0 186 -5 246q112 -4 191 -4q78 0 196 4q-5 -23 -7 -66q-27 0 -90 0.5t-99 0.5q-83 0 -111 -1q-1 -24 -1 -81v-161l261 2q-3 -28 -3 -65l-258 1v-194
q0 -57 1 -81q33 -1 110 -1q113 0 214 3z" />
    <glyph glyph-name="ecaron" unicode="&#x11b;" horiz-adv-x="500" 
d="M302 542h-80l-104 145l53 5l92 -99l90 94h59zM460 247l-46 -28l-300 -8q2 -80 44 -123t116 -43q86 0 166 67l-3 -72q-80 -56 -171 -56q-104 0 -162.5 65t-58.5 164q0 109 63 181.5t164 72.5q93 0 140.5 -61t47.5 -159zM116 264l279 7q-14 137 -128 137
q-60 0 -100.5 -40.5t-50.5 -103.5z" />
    <glyph glyph-name="Gbreve" unicode="&#x11e;" horiz-adv-x="739" 
d="M660 53q-108 -70 -240 -70q-155 0 -258.5 104.5t-103.5 254.5q0 159 107 268.5t269 109.5q57 0 116 -17t100 -45l-22 -68q-37 29 -92 46t-110 17q-129 0 -211 -86.5t-82 -216.5q0 -134 84 -217.5t211 -83.5q88 0 160 39v150q0 45 -2 64q-41 1 -71 1q-80 0 -137 -2
q3 39 0 68q87 -3 137 -3q79 0 150 4q-5 -50 -5 -227v-90zM496 929l59 4q2 -71 -38 -111.5t-112 -40.5q-63 0 -103.5 40.5t-40.5 101.5l60 10q0 -47 24 -73.5t64 -26.5q43 0 65.5 27t21.5 69z" />
    <glyph glyph-name="gbreve" unicode="&#x11f;" horiz-adv-x="468" 
d="M417 306q0 -74 -54 -123t-134 -49q-34 0 -61 9q-45 -26 -45 -49q0 -39 103 -39l43 -1q184 -3 184 -112q0 -67 -72 -115t-175 -48q-89 0 -139.5 32.5t-50.5 82.5q0 70 104 120q-59 24 -59 66q0 45 66 83q-70 47 -70 129q0 72 53.5 122.5t132.5 50.5q44 0 82 -18
q33 90 125 76l-5 -62q-59 10 -80 -41q52 -49 52 -114zM352 299q0 50 -32 81t-81 31t-82.5 -33.5t-33.5 -78.5q0 -52 31 -81t81 -29q51 0 84 32t33 78zM232 -4l-51 3q-100 -41 -100 -95q0 -30 34.5 -50t95.5 -20q76 0 126.5 29.5t50.5 69.5q0 61 -119 62zM324 688l58 4
q2 -71 -38 -111.5t-111 -40.5q-63 0 -104 40.5t-41 101.5l60 10q0 -47 24.5 -73.5t64.5 -26.5q43 0 65 26.5t22 69.5z" />
    <glyph glyph-name="Gdotaccent" unicode="&#x120;" horiz-adv-x="739" 
d="M660 53q-108 -70 -240 -70q-155 0 -258.5 104.5t-103.5 254.5q0 159 107 268.5t269 109.5q57 0 116 -17t100 -45l-22 -68q-37 29 -92 46t-110 17q-129 0 -211 -86.5t-82 -216.5q0 -134 84 -217.5t211 -83.5q88 0 160 39v150q0 45 -2 64q-41 1 -71 1q-80 0 -137 -2
q3 39 0 68q87 -3 137 -3q79 0 150 4q-5 -50 -5 -227v-90zM455 854q0 -22 -13.5 -37t-34.5 -15q-20 0 -33 14t-13 33q0 22 13.5 37t34.5 15q20 0 33 -14t13 -33z" />
    <glyph glyph-name="gdotaccent" unicode="&#x121;" horiz-adv-x="468" 
d="M417 306q0 -74 -54 -123t-134 -49q-34 0 -61 9q-45 -26 -45 -49q0 -39 103 -39l43 -1q184 -3 184 -112q0 -67 -72 -115t-175 -48q-89 0 -139.5 32.5t-50.5 82.5q0 70 104 120q-59 24 -59 66q0 45 66 83q-70 47 -70 129q0 72 53.5 122.5t132.5 50.5q41 0 80 -17
q31 99 127 83l-5 -61q-62 9 -83 -48q55 -49 55 -116zM352 299q0 50 -32 81t-81 31t-82.5 -33.5t-33.5 -78.5q0 -52 31 -81t81 -29q51 0 84 32t33 78zM232 -4l-51 3q-100 -41 -100 -95q0 -30 34.5 -50t95.5 -20q76 0 126.5 29.5t50.5 69.5q0 61 -119 62zM288 613
q0 -21 -14 -36.5t-35 -15.5q-20 0 -33 14t-13 33q0 22 13.5 37t35.5 15q20 0 33 -14t13 -33z" />
    <glyph glyph-name="Gcommaaccent" unicode="&#x122;" horiz-adv-x="739" 
d="M660 53q-108 -70 -240 -70q-155 0 -258.5 104.5t-103.5 254.5q0 159 107 268.5t269 109.5q57 0 116 -17t100 -45l-22 -68q-37 29 -92 46t-110 17q-129 0 -211 -86.5t-82 -216.5q0 -134 84 -217.5t211 -83.5q88 0 160 39v150q0 45 -2 64q-41 1 -71 1q-80 0 -137 -2
q3 39 0 68q87 -3 137 -3q79 0 150 4q-5 -50 -5 -227v-90zM343 -224l23 17q34 28 34 58q0 23 -30 39l-12 5q11 43 51 43q21 0 35 -16.5t14 -41.5q0 -66 -96 -127z" />
    <glyph glyph-name="gcommaaccent" unicode="&#x123;" horiz-adv-x="468" 
d="M417 306q0 -74 -54 -123t-134 -49q-34 0 -61 9q-45 -26 -45 -49q0 -39 103 -39l43 -1q184 -3 184 -112q0 -67 -72 -115t-175 -48q-89 0 -139.5 32.5t-50.5 82.5q0 70 104 120q-59 24 -59 66q0 45 66 83q-70 47 -70 129q0 72 53.5 122.5t132.5 50.5q41 0 80 -17
q31 99 127 83l-5 -61q-62 9 -83 -48q55 -49 55 -116zM352 299q0 50 -32 81t-81 31t-82.5 -33.5t-33.5 -78.5q0 -52 31 -81t81 -29q51 0 84 32t33 78zM232 -4l-51 3q-100 -41 -100 -95q0 -30 34.5 -50t95.5 -20q76 0 126.5 29.5t50.5 69.5q0 61 -119 62zM304 725l-23 -17
q-35 -29 -35 -59q0 -24 30 -38l13 -6q-12 -43 -52 -43q-20 0 -34 16.5t-14 41.5q0 66 95 127z" />
    <glyph glyph-name="Hbar" unicode="&#x126;" horiz-adv-x="770" 
d="M665 0h-84q6 72 6 241v87h-403v-184q0 -102 3 -144h-83q6 72 6 241v221v50q-14 0 -40 -0.5t-39 -0.5q3 24 3 56l75 -2q-2 92 -5 138q51 0 83 4q-3 -42 -3 -143q59 -1 201 -1q131 0 201 1q-2 93 -5 139q51 0 84 4q-4 -37 -4 -142l80 2q-5 -30 -5 -56q-50 0 -75 1v-368
q0 -107 4 -144zM474 513h-290v-123h403v72v50q-20 0 -57.5 0.5t-55.5 0.5z" />
    <glyph glyph-name="hbar" unicode="&#x127;" horiz-adv-x="543" 
d="M470 0h-78q6 64 6 170v121q0 115 -95 115q-54 0 -104.5 -46.5t-50.5 -89.5v-171q0 -55 3 -99h-77q5 72 5 166v376v3q-25 -1 -69 -1q2 28 2 58l67 -3q-2 77 -5 111q48 4 77 10q-3 -27 -3 -115v-6h4q80 0 160 3q-3 -13 -5 -58q-23 0 -63 0.5t-60 0.5h-36v-185
q27 44 75 75.5t99 31.5q69 0 107 -41t38 -119v-204q0 -25 3 -103z" />
    <glyph glyph-name="Imacron" unicode="&#x12a;" horiz-adv-x="302" 
d="M191 0h-82q6 72 6 241v221q0 169 -6 241q50 0 82 4q-3 -43 -3 -147v-416q0 -102 3 -144zM298 878q-5 -27 -5 -59q-80 2 -113 2h-68q-40 0 -108 -2q3 21 3 59q67 -3 145 -3q74 0 146 3z" />
    <glyph glyph-name="imacron" unicode="&#x12b;" horiz-adv-x="226" 
d="M151 0h-77q5 54 5 166v117q0 107 -6 172q47 0 78 4q-3 -27 -3 -114v-246q0 -60 3 -99zM260 645q-5 -27 -5 -59q-80 2 -113 2h-68q-40 0 -108 -2q3 21 3 59q67 -3 145 -3q74 0 146 3z" />
    <glyph glyph-name="Ibreve" unicode="&#x12c;" horiz-adv-x="302" 
d="M191 0h-82q6 72 6 241v221q0 169 -6 241q50 0 82 4q-3 -43 -3 -147v-416q0 -102 3 -144zM238 921l59 4q2 -71 -38 -111.5t-112 -40.5q-63 0 -103.5 40.5t-40.5 101.5l60 10q0 -47 24 -73.5t64 -26.5q43 0 65.5 27t21.5 69z" />
    <glyph glyph-name="ibreve" unicode="&#x12d;" horiz-adv-x="226" 
d="M151 0h-77q5 54 5 166v117q0 107 -6 172q47 0 78 4q-3 -27 -3 -114v-246q0 -60 3 -99zM200 688l59 4q2 -71 -38 -111.5t-112 -40.5q-63 0 -103.5 40.5t-40.5 101.5l60 10q0 -47 24 -73.5t64 -26.5q43 0 65.5 27t21.5 69z" />
    <glyph glyph-name="Iogonek" unicode="&#x12e;" horiz-adv-x="303" 
d="M54 -129q0 65 81 129h-26q6 72 6 241v221q0 169 -6 241q50 0 82 4q-3 -43 -3 -147v-416q0 -98 3 -142l2 -2q-82 -63 -82 -119q0 -18 11 -29.5t31 -11.5q29 0 64 23l-4 -49q-30 -22 -71 -22t-64.5 21.5t-23.5 57.5z" />
    <glyph glyph-name="iogonek" unicode="&#x12f;" horiz-adv-x="226" 
d="M151 0q-80 -65 -80 -119q0 -18 11 -29.5t31 -11.5q29 0 64 23l-4 -49q-30 -22 -71 -22t-64.5 21.5t-23.5 57.5q0 64 78 129h-18q5 54 5 166v117q0 107 -6 172q47 0 78 4q-3 -27 -3 -114v-246q0 -60 3 -99zM165 619q0 -21 -14 -36t-36 -15q-21 0 -34.5 14t-13.5 33
q0 22 14 37t36 15q21 0 34.5 -14.5t13.5 -33.5z" />
    <glyph glyph-name="Idotaccent" unicode="&#x130;" horiz-adv-x="302" 
d="M191 0h-82q6 72 6 241v221q0 169 -6 241q50 0 82 4q-3 -43 -3 -147v-416q0 -102 3 -144zM197 846q0 -22 -13.5 -37t-34.5 -15q-20 0 -33 14t-13 33q0 22 13.5 37t34.5 15q20 0 33 -14t13 -33z" />
    <glyph glyph-name="dotlessi" unicode="&#x131;" horiz-adv-x="226" 
d="M151 0h-77q5 54 5 166v117q0 107 -6 172q47 0 78 4q-3 -27 -3 -114v-246q0 -60 3 -99z" />
    <glyph glyph-name="Kcommaaccent" unicode="&#x136;" horiz-adv-x="635" 
d="M531 -7l-347 359v-208q0 -88 2 -144h-81q6 72 6 241v221q0 169 -6 241q49 0 81 4q-2 -58 -2 -147v-189l142 143q121 121 186 190h96l-344 -338l160 -163q67 -70 197 -203zM284 -223l23 17q34 28 34 58q0 23 -30 39l-12 5q11 43 51 43q21 0 35 -16.5t14 -41.5
q0 -66 -96 -127z" />
    <glyph glyph-name="kcommaaccent" unicode="&#x137;" horiz-adv-x="461" 
d="M383 -11l-235 243v-133q0 -61 3 -99h-77q5 54 5 165v377q0 110 -5 168q48 4 77 10q-3 -27 -3 -116v-349q20 23 104.5 107t95.5 97q53 0 90 3l-219 -212l52 -53q18 -20 55.5 -59t80.5 -82.5t50 -50.5zM184 -223l23 17q34 28 34 58q0 23 -30 39l-12 5q11 43 51 43
q21 0 35 -16.5t14 -41.5q0 -66 -96 -127z" />
    <glyph glyph-name="Lacute" unicode="&#x139;" horiz-adv-x="530" 
d="M228 903l100 7l-145 -146l-49 -4zM511 65q-4 -21 -6 -68q-80 4 -201 4q-122 0 -199 -4q6 72 6 244v221q0 169 -6 241q49 0 81 4q-2 -58 -2 -147v-415q0 -58 2 -81q14 0 56.5 -0.5t57.5 -0.5q81 0 211 2z" />
    <glyph glyph-name="lacute" unicode="&#x13a;" horiz-adv-x="226" 
d="M154 910l100 7l-145 -146l-49 -4zM151 0h-77q5 54 5 166v376q0 110 -5 168q48 4 77 10q-3 -27 -3 -115v-506q0 -60 3 -99z" />
    <glyph glyph-name="Lcommaaccent" unicode="&#x13b;" horiz-adv-x="530" 
d="M233 -223l23 17q34 28 34 58q0 23 -30 39l-12 5q11 43 51 43q21 0 35 -16.5t14 -41.5q0 -66 -96 -127zM511 65q-4 -21 -6 -68q-80 4 -201 4q-122 0 -199 -4q6 72 6 244v221q0 169 -6 241q49 0 81 4q-2 -58 -2 -147v-415q0 -58 2 -81q14 0 56.5 -0.5t57.5 -0.5q81 0 211 2
z" />
    <glyph glyph-name="lcommaaccent" unicode="&#x13c;" horiz-adv-x="226" 
d="M44 -223l23 17q34 28 34 58q0 23 -30 39l-12 5q11 43 51 43q21 0 35 -16.5t14 -41.5q0 -66 -96 -127zM151 0h-77q5 54 5 166v376q0 110 -5 168q48 4 77 10q-3 -27 -3 -115v-506q0 -60 3 -99z" />
    <glyph glyph-name="Lcaron" unicode="&#x13d;" horiz-adv-x="530" 
d="M511 65q-4 -21 -6 -68q-80 4 -201 4q-122 0 -199 -4q6 72 6 244v221q0 169 -6 241q49 0 81 4q-2 -58 -2 -147v-415q0 -58 2 -81q14 0 56.5 -0.5t57.5 -0.5q81 0 211 2zM298 554l-31 -7q7 90 8 150l60 9q-25 -110 -37 -152z" />
    <glyph glyph-name="lcaron" unicode="&#x13e;" horiz-adv-x="226" 
d="M151 0h-77q5 54 5 166v376q0 110 -5 168q48 4 77 10q-3 -27 -3 -115v-506q0 -60 3 -99zM233 565l-31 -7q7 90 8 150l60 9q-25 -110 -37 -152z" />
    <glyph glyph-name="Ldot" unicode="&#x13f;" horiz-adv-x="530" 
d="M511 65q-4 -21 -6 -68q-80 4 -201 4q-122 0 -199 -4q6 72 6 244v221q0 169 -6 241q49 0 81 4q-2 -58 -2 -147v-415q0 -58 2 -81q14 0 56.5 -0.5t57.5 -0.5q81 0 211 2zM456 389q0 -22 -13.5 -37t-34.5 -15q-20 0 -33 14t-13 33q0 22 13.5 37t34.5 15q20 0 33 -14t13 -33z
" />
    <glyph glyph-name="ldot" unicode="&#x140;" horiz-adv-x="334" 
d="M151 0h-77q5 54 5 166v376q0 110 -5 168q48 4 77 10q-3 -27 -3 -115v-506q0 -60 3 -99zM323 345q0 -22 -13.5 -37t-34.5 -15q-20 0 -33 14t-13 33q0 22 13.5 37t34.5 15q20 0 33 -14t13 -33z" />
    <glyph glyph-name="Lslash" unicode="&#x141;" horiz-adv-x="530" 
d="M511 64q-4 -21 -6 -68q-80 4 -201 4q-122 0 -199 -4q6 72 6 244v64l-67 -40q-4 12 -29 56q26 12 96 51v90q0 169 -6 241q49 0 81 4q-2 -58 -2 -147v-147q51 29 120 72q6 -15 27 -57l-147 -81v-202q0 -58 2 -81q14 0 56.5 -0.5t57.5 -0.5q81 0 211 2z" />
    <glyph glyph-name="lslash" unicode="&#x142;" horiz-adv-x="226" 
d="M151 0h-77q5 54 5 166v147q-21 -12 -63 -37q-14 30 -27 52q30 16 90 49v165q0 110 -5 168q48 4 77 10q-3 -27 -3 -115v-189q38 23 65 40q11 -25 27 -52l-92 -51v-254q0 -60 3 -99z" />
    <glyph glyph-name="Nacute" unicode="&#x143;" horiz-adv-x="786" 
d="M99 0q6 60 9 241l3 234q0 192 -4 240l21 5l481 -585v327q0 169 -6 241q50 0 82 4q-5 -48 -5 -147l-5 -420q-1 -27 -0.5 -80t2.5 -72l-21 -5l-478 578v-417q0 -102 3 -144h-82zM443 913l100 7l-145 -146l-49 -4z" />
    <glyph glyph-name="nacute" unicode="&#x144;" horiz-adv-x="543" 
d="M325 680l100 7l-145 -146l-49 -4zM470 0h-78q6 64 6 170v121q0 115 -95 115q-54 0 -104.5 -46.5t-50.5 -89.5v-167q0 -59 3 -103h-77q5 72 5 170v114q0 98 -5 170q22 0 68 4l5 -99q27 44 75.5 76t99.5 32q69 0 107 -41t38 -119v-204q0 -25 3 -103z" />
    <glyph glyph-name="Ncommaaccent" unicode="&#x145;" horiz-adv-x="786" 
d="M99 0q6 60 9 241l3 234q0 192 -4 240l21 5l481 -585v327q0 169 -6 241q50 0 82 4q-5 -48 -5 -147l-5 -420q-1 -27 -0.5 -80t2.5 -72l-21 -5l-478 578v-417q0 -102 3 -144h-82zM326 -223l23 17q34 28 34 58q0 23 -30 39l-12 5q11 43 51 43q21 0 35 -16.5t14 -41.5
q0 -66 -96 -127z" />
    <glyph glyph-name="ncommaaccent" unicode="&#x146;" horiz-adv-x="543" 
d="M208 -223l23 17q34 28 34 58q0 23 -30 39l-12 5q11 43 51 43q21 0 35 -16.5t14 -41.5q0 -66 -96 -127zM470 0h-78q6 64 6 170v121q0 115 -95 115q-54 0 -104.5 -46.5t-50.5 -89.5v-167q0 -59 3 -103h-77q5 72 5 170v114q0 98 -5 170q22 0 68 4l5 -99q27 44 75.5 76
t99.5 32q69 0 107 -41t38 -119v-204q0 -25 3 -103z" />
    <glyph glyph-name="Ncaron" unicode="&#x147;" horiz-adv-x="786" 
d="M99 0q6 60 9 241l3 234q0 192 -4 240l21 5l481 -585v327q0 169 -6 241q50 0 82 4q-5 -48 -5 -147l-5 -420q-1 -27 -0.5 -80t2.5 -72l-21 -5l-478 578v-417q0 -102 3 -144h-82zM432 775h-80l-104 145l53 5l92 -99l90 94h59z" />
    <glyph glyph-name="ncaron" unicode="&#x148;" horiz-adv-x="543" 
d="M314 542h-80l-104 145l53 5l92 -99l90 94h59zM470 0h-78q6 64 6 170v121q0 115 -95 115q-54 0 -104.5 -46.5t-50.5 -89.5v-167q0 -59 3 -103h-77q5 72 5 170v114q0 98 -5 170q22 0 68 4l5 -99q27 44 75.5 76t99.5 32q69 0 107 -41t38 -119v-204q0 -25 3 -103z" />
    <glyph glyph-name="Omacron" unicode="&#x14c;" horiz-adv-x="816" 
d="M554 886q-5 -27 -5 -59q-80 2 -113 2h-68q-40 0 -108 -2q3 21 3 59q68 -3 145 -3q74 0 146 3zM404 45q122 0 200 90.5t78 220.5q0 133 -76 217t-194 84q-122 0 -200.5 -90.5t-78.5 -220.5q0 -132 76 -216.5t195 -84.5zM398 -18q-148 0 -244 103t-96 248q0 164 101 275.5
t259 111.5q148 0 244 -103t96 -248q0 -164 -101 -275.5t-259 -111.5z" />
    <glyph glyph-name="omacron" unicode="&#x14d;" horiz-adv-x="543" 
d="M418 645q-5 -27 -5 -59q-80 2 -113 2h-68q-40 0 -108 -2q3 21 3 59q68 -3 145 -3q74 0 146 3zM498 237q0 -109 -64.5 -181t-169.5 -72q-98 0 -158.5 66t-60.5 164q0 109 64 181t168 72q98 0 159.5 -66.5t61.5 -163.5zM429 227q0 84 -44 131.5t-112 47.5q-71 0 -115.5 -52
t-44.5 -129q0 -85 42.5 -132.5t113.5 -47.5q72 0 116 52t44 130z" />
    <glyph glyph-name="Obreve" unicode="&#x14e;" horiz-adv-x="816" 
d="M404 45q122 0 200 90.5t78 220.5q0 133 -76 217t-194 84q-122 0 -200.5 -90.5t-78.5 -220.5q0 -132 76 -216.5t195 -84.5zM398 -18q-148 0 -244 103t-96 248q0 164 101 275.5t259 111.5q148 0 244 -103t96 -248q0 -164 -101 -275.5t-259 -111.5zM494 929l59 4
q2 -71 -38 -111.5t-112 -40.5q-63 0 -103.5 40.5t-40.5 101.5l60 10q0 -47 24 -73.5t64 -26.5q43 0 65.5 27t21.5 69z" />
    <glyph glyph-name="obreve" unicode="&#x14f;" horiz-adv-x="543" 
d="M498 237q0 -109 -64.5 -181t-169.5 -72q-98 0 -158.5 66t-60.5 164q0 109 64 181t168 72q98 0 159.5 -66.5t61.5 -163.5zM429 227q0 84 -44 131.5t-112 47.5q-71 0 -115.5 -52t-44.5 -129q0 -85 42.5 -132.5t113.5 -47.5q72 0 116 52t44 130zM358 688l59 4
q2 -71 -38 -111.5t-112 -40.5q-63 0 -103.5 40.5t-40.5 101.5l60 10q0 -47 24 -73.5t64 -26.5q43 0 65.5 27t21.5 69z" />
    <glyph glyph-name="Ohungarumlaut" unicode="&#x150;" horiz-adv-x="816" 
d="M356 927l90 7l-91 -155l-50 -3zM508 928l93 9l-100 -156l-51 -2zM404 45q122 0 200 90.5t78 220.5q0 133 -76 217t-194 84q-122 0 -200.5 -90.5t-78.5 -220.5q0 -132 76 -216.5t195 -84.5zM398 -18q-148 0 -244 103t-96 248q0 164 101 275.5t259 111.5q148 0 244 -103
t96 -248q0 -164 -101 -275.5t-259 -111.5z" />
    <glyph glyph-name="ohungarumlaut" unicode="&#x151;" horiz-adv-x="543" 
d="M220 686l90 7l-91 -155l-50 -3zM372 687l93 9l-100 -156l-51 -2zM498 237q0 -109 -64.5 -181t-169.5 -72q-98 0 -158.5 66t-60.5 164q0 109 64 181t168 72q98 0 159.5 -66.5t61.5 -163.5zM429 227q0 84 -44 131.5t-112 47.5q-71 0 -115.5 -52t-44.5 -129
q0 -85 42.5 -132.5t113.5 -47.5q72 0 116 52t44 130z" />
    <glyph glyph-name="OE" unicode="&#x152;" horiz-adv-x="956" 
d="M419 -2q-154 0 -257.5 99.5t-103.5 244.5q0 161 107 262.5t270 101.5q29 0 132 -1t141 -1q76 0 196 4q-7 -31 -7 -68q-116 2 -189 2q-82 0 -110 -1q-2 -24 -2 -80v-161l261 2q-3 -28 -3 -65l-258 1v-194q0 -56 2 -80q16 0 53.5 -0.5t54.5 -0.5q114 0 215 3q-6 -34 -6 -69
q-79 4 -202 4q-37 0 -151 -1.5t-143 -1.5zM426 65q57 0 93 3q2 44 2 139v292q0 93 -1 137q-27 3 -82 3q-138 0 -220.5 -79t-82.5 -201q0 -132 80.5 -213t210.5 -81z" />
    <glyph glyph-name="oe" unicode="&#x153;" horiz-adv-x="884" 
d="M844 247l-46 -28l-300 -8q2 -80 44 -123t116 -43q86 0 167 67l-4 -72q-80 -56 -171 -56q-70 0 -119.5 30.5t-74.5 84.5q-28 -54 -78.5 -84.5t-115.5 -30.5q-97 0 -157 66t-60 164q0 109 63 181t167 72q65 0 113.5 -32t74.5 -86q29 55 79 86.5t115 31.5q93 0 140 -61
t47 -159zM425 227q0 84 -43.5 131.5t-110.5 47.5q-71 0 -114.5 -52t-43.5 -129q0 -86 41.5 -133t111.5 -47q72 0 115.5 52t43.5 130zM500 264l279 7q-14 137 -127 137q-61 0 -101.5 -40.5t-50.5 -103.5z" />
    <glyph glyph-name="Racute" unicode="&#x154;" horiz-adv-x="621" 
d="M594 4l-86 -11l-194 301h-131v-150q0 -88 2 -144h-81q6 72 6 241v221q0 170 -6 242q18 0 50.5 0.5t71.5 2t54 1.5q120 1 187.5 -55.5t65.5 -140.5q-3 -144 -151 -201l108 -161q48 -73 104 -146zM183 356h117q72 0 114.5 42.5t42.5 103.5q0 68 -43.5 104.5t-128.5 36.5
q-72 0 -102 -2v-285zM347 913l100 7l-145 -146l-49 -4z" />
    <glyph glyph-name="racute" unicode="&#x155;" horiz-adv-x="329" 
d="M235 680l100 7l-145 -146l-49 -4zM309 467l-9 -80q-58 6 -105 -31.5t-47 -90.5v-162q0 -59 3 -103h-77q5 54 5 170v128q0 89 -9 152q31 1 69 10l8 -103q52 99 162 110z" />
    <glyph glyph-name="Rcommaaccent" unicode="&#x156;" horiz-adv-x="621" 
d="M594 4l-86 -11l-194 301h-131v-150q0 -88 2 -144h-81q6 72 6 241v221q0 170 -6 242q18 0 50.5 0.5t71.5 2t54 1.5q120 1 187.5 -55.5t65.5 -140.5q-3 -144 -151 -201l108 -161q48 -73 104 -146zM183 356h117q72 0 114.5 42.5t42.5 103.5q0 68 -43.5 104.5t-128.5 36.5
q-72 0 -102 -2v-285zM258 -223l23 17q34 28 34 58q0 23 -30 39l-12 5q11 43 51 43q21 0 35 -16.5t14 -41.5q0 -66 -96 -127z" />
    <glyph glyph-name="rcommaaccent" unicode="&#x157;" horiz-adv-x="329" 
d="M51 -223l23 17q34 28 34 58q0 23 -30 39l-12 5q11 43 51 43q21 0 35 -16.5t14 -41.5q0 -66 -96 -127zM309 467l-9 -80q-58 6 -105 -31.5t-47 -90.5v-162q0 -59 3 -103h-77q5 54 5 170v128q0 89 -9 152q31 1 69 10l8 -103q52 99 162 110z" />
    <glyph glyph-name="Rcaron" unicode="&#x158;" horiz-adv-x="621" 
d="M594 4l-86 -11l-194 301h-131v-150q0 -88 2 -144h-81q6 72 6 241v221q0 170 -6 242q18 0 50.5 0.5t71.5 2t54 1.5q120 1 187.5 -55.5t65.5 -140.5q-3 -144 -151 -201l108 -161q48 -73 104 -146zM183 356h117q72 0 114.5 42.5t42.5 103.5q0 68 -43.5 104.5t-128.5 36.5
q-72 0 -102 -2v-285zM336 775h-80l-104 145l53 5l92 -99l90 94h59z" />
    <glyph glyph-name="rcaron" unicode="&#x159;" horiz-adv-x="329" 
d="M225 542h-80l-104 145l53 5l92 -99l90 94h59zM309 467l-9 -80q-58 6 -105 -31.5t-47 -90.5v-162q0 -59 3 -103h-77q5 54 5 170v128q0 89 -9 152q31 1 69 10l8 -103q52 99 162 110z" />
    <glyph glyph-name="Sacute" unicode="&#x15a;" horiz-adv-x="521" 
d="M332 921l100 7l-145 -146l-49 -4zM469 189q0 -87 -61.5 -147t-165.5 -60t-195 57l5 79q34 -28 88 -49t106 -21q69 0 109.5 36t40.5 95q0 42 -33 75.5t-80 58.5t-94.5 51t-80.5 66.5t-33 92.5q0 83 60 140t156 57q88 0 160 -49l-24 -65q-65 48 -139 48q-64 0 -102 -34.5
t-38 -87.5q0 -34 24 -62t59.5 -47t77 -42.5t77 -46.5t59.5 -60.5t24 -84.5z" />
    <glyph glyph-name="sacute" unicode="&#x15b;" horiz-adv-x="406" 
d="M263 680l100 7l-145 -146l-49 -4zM214 467q74 0 134 -36l-24 -61q-50 35 -111 35q-38 0 -63.5 -17t-25.5 -50q0 -24 24.5 -41.5t60 -30.5t71 -28t60 -42.5t24.5 -66.5q0 -66 -50.5 -105.5t-121.5 -39.5q-92 0 -150 38l4 73q67 -49 148 -49q44 0 73 19t29 53
q0 27 -24.5 46.5t-60 32.5t-71 28t-60 42.5t-24.5 67.5q0 56 45 94t113 38z" />
    <glyph glyph-name="Scedilla" unicode="&#x15e;" horiz-adv-x="521" 
d="M469 189q0 -80 -52.5 -137.5t-143.5 -67.5l-15 -54q100 -28 100 -86q0 -31 -26 -52.5t-72 -21.5q-40 0 -83 15l10 46q40 -16 78 -16q42 0 42 27q0 32 -93 53l-4 4q9 28 24 83q-102 3 -187 57l5 79q34 -28 88 -49t106 -21q69 0 109.5 36t40.5 95q0 42 -33 75.5t-80 58.5
t-94.5 51t-80.5 66.5t-33 92.5q0 83 60 140t156 57q88 0 160 -49l-24 -65q-65 48 -139 48q-64 0 -102 -34.5t-38 -87.5q0 -34 24 -62t59.5 -47t77 -42.5t77 -46.5t59.5 -60.5t24 -84.5z" />
    <glyph glyph-name="scedilla" unicode="&#x15f;" horiz-adv-x="406" 
d="M214 467q74 0 134 -36l-24 -61q-50 35 -111 35q-38 0 -63.5 -17t-25.5 -50q0 -24 24.5 -41.5t60 -30.5t71 -28t60 -42.5t24.5 -66.5q0 -59 -41.5 -97.5t-104.5 -45.5l-15 -56q100 -28 100 -86q0 -31 -26 -52.5t-72 -21.5q-39 0 -83 15l10 46q40 -16 78 -16q42 0 42 27
q0 32 -93 53l-4 4q11 36 24 85q-84 3 -137 38l4 73q67 -49 148 -49q44 0 73 19t29 53q0 27 -24.5 46.5t-60 32.5t-71 28t-60 42.5t-24.5 67.5q0 56 45 94t113 38z" />
    <glyph glyph-name="Scaron" unicode="&#x160;" horiz-adv-x="521" 
d="M321 783h-80l-104 145l53 5l92 -99l90 94h59zM469 189q0 -87 -61.5 -147t-165.5 -60t-195 57l5 79q34 -28 88 -49t106 -21q69 0 109.5 36t40.5 95q0 42 -33 75.5t-80 58.5t-94.5 51t-80.5 66.5t-33 92.5q0 83 60 140t156 57q88 0 160 -49l-24 -65q-65 48 -139 48
q-64 0 -102 -34.5t-38 -87.5q0 -34 24 -62t59.5 -47t77 -42.5t77 -46.5t59.5 -60.5t24 -84.5z" />
    <glyph glyph-name="scaron" unicode="&#x161;" horiz-adv-x="406" 
d="M252 542h-80l-104 145l53 5l92 -99l90 94h59zM214 467q74 0 134 -36l-24 -61q-50 35 -111 35q-38 0 -63.5 -17t-25.5 -50q0 -24 24.5 -41.5t60 -30.5t71 -28t60 -42.5t24.5 -66.5q0 -66 -50.5 -105.5t-121.5 -39.5q-92 0 -150 38l4 73q67 -49 148 -49q44 0 73 19t29 53
q0 27 -24.5 46.5t-60 32.5t-71 28t-60 42.5t-24.5 67.5q0 56 45 94t113 38z" />
    <glyph glyph-name="Tcommaaccent" unicode="&#x162;" horiz-adv-x="624" 
d="M243 -223l23 17q34 28 34 58q0 23 -30 39l-12 5q11 43 51 43q21 0 35 -16.5t14 -41.5q0 -66 -96 -127zM598 708q-5 -23 -7 -68q-76 2 -243 2v-84v-414q0 -116 2 -144h-81q5 60 5 241v218q0 157 -1 183q-103 0 -247 -2q4 27 4 68q172 -4 281 -4q111 0 287 4z" />
    <glyph glyph-name="Tcommaaccent" unicode="&#x21a;" horiz-adv-x="624" 
d="M243 -223l23 17q34 28 34 58q0 23 -30 39l-12 5q11 43 51 43q21 0 35 -16.5t14 -41.5q0 -66 -96 -127zM598 708q-5 -23 -7 -68q-76 2 -243 2v-84v-414q0 -116 2 -144h-81q5 60 5 241v218q0 157 -1 183q-103 0 -247 -2q4 27 4 68q172 -4 281 -4q111 0 287 4z" />
    <glyph glyph-name="tcommaaccent" unicode="&#x163;" horiz-adv-x="338" 
d="M137 -224l23 17q34 28 34 58q0 23 -30 39l-12 5q11 43 51 43q21 0 35 -16.5t14 -41.5q0 -66 -96 -127zM304 72l-3 -61q-32 -25 -85 -25q-113 0 -113 123v288h-80l19 60h62l7 100l61 16v-116h126q-3 -25 -3 -60h-123v-281q0 -36 14.5 -51.5t44.5 -15.5q37 0 73 23z" />
    <glyph glyph-name="tcommaaccent" unicode="&#x21b;" horiz-adv-x="338" 
d="M137 -224l23 17q34 28 34 58q0 23 -30 39l-12 5q11 43 51 43q21 0 35 -16.5t14 -41.5q0 -66 -96 -127zM304 72l-3 -61q-32 -25 -85 -25q-113 0 -113 123v288h-80l19 60h62l7 100l61 16v-116h126q-3 -25 -3 -60h-123v-281q0 -36 14.5 -51.5t44.5 -15.5q37 0 73 23z" />
    <glyph glyph-name="Tcaron" unicode="&#x164;" horiz-adv-x="624" 
d="M349 775h-80l-104 145l53 5l92 -99l90 94h59zM598 708q-5 -23 -7 -68q-76 2 -243 2v-84v-414q0 -116 2 -144h-81q5 60 5 241v218q0 157 -1 183q-103 0 -247 -2q4 27 4 68q172 -4 281 -4q111 0 287 4z" />
    <glyph glyph-name="tcaron" unicode="&#x165;" horiz-adv-x="338" 
d="M307 72l-3 -61q-32 -25 -85 -25q-113 0 -113 123v288h-80l19 60h62l7 100l61 16v-116h126q-3 -25 -3 -60h-123v-281q0 -36 14.5 -51.5t44.5 -15.5q37 0 73 23zM266 548l-31 -7q7 90 8 150l60 9q-25 -110 -37 -152z" />
    <glyph glyph-name="Umacron" unicode="&#x16a;" horiz-adv-x="745" 
d="M652 707q-4 -39 -4 -147v-280q0 -146 -76 -222q-78 -76 -210 -76q-118 0 -191.5 69t-73.5 188v223q0 181 -5 241q49 0 82 4q-3 -29 -3 -147v-296q0 -216 206 -216q92 0 145 53.5t53 148.5v212q0 183 -6 241q48 0 83 4zM519 878q-5 -27 -5 -59q-80 2 -113 2h-68
q-40 0 -108 -2q3 21 3 59q68 -3 145 -3q74 0 146 3z" />
    <glyph glyph-name="umacron" unicode="&#x16b;" horiz-adv-x="544" 
d="M471 0h-64l-9 86q-26 -43 -74 -73t-94 -30q-153 0 -153 172v134q0 89 -5 166q46 0 77 4q-3 -41 -3 -110v-178q0 -65 25 -95.5t77 -30.5q48 0 98 42t50 83v119q0 97 -6 166q49 0 78 4q-3 -41 -3 -110v-180q0 -101 6 -169zM418 645q-5 -27 -5 -59q-80 2 -113 2h-68
q-40 0 -108 -2q3 21 3 59q68 -3 145 -3q74 0 146 3z" />
    <glyph glyph-name="Ubreve" unicode="&#x16c;" horiz-adv-x="745" 
d="M652 707q-4 -39 -4 -147v-280q0 -146 -76 -222q-78 -76 -210 -76q-118 0 -191.5 69t-73.5 188v223q0 181 -5 241q49 0 82 4q-3 -29 -3 -147v-296q0 -216 206 -216q92 0 145 53.5t53 148.5v212q0 183 -6 241q48 0 83 4zM459 921l59 4q2 -71 -38 -111.5t-112 -40.5
q-63 0 -103.5 40.5t-40.5 101.5l60 10q0 -47 24 -73.5t64 -26.5q43 0 65.5 27t21.5 69z" />
    <glyph glyph-name="ubreve" unicode="&#x16d;" horiz-adv-x="544" 
d="M471 0h-64l-9 86q-26 -43 -74 -73t-94 -30q-153 0 -153 172v134q0 89 -5 166q46 0 77 4q-3 -41 -3 -110v-178q0 -65 25 -95.5t77 -30.5q48 0 98 42t50 83v119q0 97 -6 166q49 0 78 4q-3 -41 -3 -110v-180q0 -101 6 -169zM358 688l59 4q2 -71 -38 -111.5t-112 -40.5
q-63 0 -103.5 40.5t-40.5 101.5l60 10q0 -47 24 -73.5t64 -26.5q43 0 65.5 27t21.5 69z" />
    <glyph glyph-name="Uring" unicode="&#x16e;" horiz-adv-x="745" 
d="M483 874q0 -48 -31.5 -80.5t-82.5 -32.5q-48 0 -78.5 30t-30.5 72q0 48 31.5 79.5t82.5 31.5q49 0 79 -29t30 -71zM434 869q0 28 -16.5 46t-44.5 18q-29 0 -46.5 -18.5t-17.5 -46.5t17 -46.5t45 -18.5q29 0 46 19t17 47zM652 707q-4 -39 -4 -147v-280q0 -146 -76 -222
q-78 -76 -210 -76q-118 0 -191.5 69t-73.5 188v223q0 181 -5 241q49 0 82 4q-3 -29 -3 -147v-296q0 -216 206 -216q92 0 145 53.5t53 148.5v212q0 183 -6 241q48 0 83 4z" />
    <glyph glyph-name="uring" unicode="&#x16f;" horiz-adv-x="544" 
d="M383 650q0 -48 -31.5 -80.5t-82.5 -32.5q-48 0 -78.5 30t-30.5 72q0 48 31.5 79.5t82.5 31.5q49 0 79 -29t30 -71zM334 645q0 28 -16.5 46t-44.5 18q-29 0 -46.5 -18.5t-17.5 -46.5t17 -46.5t45 -18.5q29 0 46 19t17 47zM471 0h-64l-9 86q-26 -43 -74 -73t-94 -30
q-153 0 -153 172v134q0 89 -5 166q46 0 77 4q-3 -41 -3 -110v-178q0 -65 25 -95.5t77 -30.5q48 0 98 42t50 83v119q0 97 -6 166q49 0 78 4q-3 -41 -3 -110v-180q0 -101 6 -169z" />
    <glyph glyph-name="Uhungarumlaut" unicode="&#x170;" horiz-adv-x="745" 
d="M652 707q-4 -39 -4 -147v-280q0 -146 -76 -222q-78 -76 -210 -76q-118 0 -191.5 69t-73.5 188v223q0 181 -5 241q49 0 82 4q-3 -29 -3 -147v-296q0 -216 206 -216q92 0 145 53.5t53 148.5v212q0 183 -6 241q48 0 83 4zM321 919l90 7l-91 -155l-50 -3zM473 920l93 9
l-100 -156l-51 -2z" />
    <glyph glyph-name="uhungarumlaut" unicode="&#x171;" horiz-adv-x="544" 
d="M471 0h-64l-9 86q-26 -43 -74 -73t-94 -30q-153 0 -153 172v134q0 89 -5 166q46 0 77 4q-3 -41 -3 -110v-178q0 -65 25 -95.5t77 -30.5q48 0 98 42t50 83v119q0 97 -6 166q49 0 78 4q-3 -41 -3 -110v-180q0 -101 6 -169zM220 686l90 7l-91 -155l-50 -3zM372 687l93 9
l-100 -156l-51 -2z" />
    <glyph glyph-name="Uogonek" unicode="&#x172;" horiz-adv-x="745" 
d="M387 -208q-41 0 -64.5 21t-23.5 56q0 59 82 114q-6 -1 -19 -1q-118 0 -191.5 69t-73.5 188v223q0 181 -5 241q50 0 83 4q-3 -43 -3 -147v-295q0 -216 205 -216q92 0 144.5 53t52.5 148v212q0 183 -6 241q51 0 84 4q-3 -29 -3 -147v-280q0 -146 -76 -222q-39 -37 -91 -58
q-61 -24 -93.5 -56.5t-32.5 -65.5q0 -17 11 -27.5t31 -10.5q31 0 64 23l-4 -49q-30 -22 -71 -22z" />
    <glyph glyph-name="uogonek" unicode="&#x173;" horiz-adv-x="544" 
d="M471 0q-110 -68 -110 -122q0 -17 11 -27.5t31 -10.5q31 0 64 23l-4 -49q-30 -22 -71 -22t-64.5 21t-23.5 56q0 66 103 131l-9 86q-26 -43 -74 -73t-94 -30q-153 0 -153 172v134q0 89 -5 166q46 0 77 4q-3 -41 -3 -110v-178q0 -65 25 -95.5t77 -30.5q48 0 98 42t50 83v119
q0 97 -6 166q49 0 78 4q-3 -41 -3 -110v-180q0 -101 6 -169z" />
    <glyph glyph-name="Wcircumflex" unicode="&#x174;" horiz-adv-x="990" 
d="M976 703l-184 -508q-13 -36 -29 -81t-26 -74t-18 -53l-20 -6l-200 568l-132 -360q-10 -29 -37 -98.5t-40 -108.5h-20l-185 528q-49 140 -71 191l80 6l191 -562l137 378q9 27 35.5 101.5t30.5 85.5l21 6l200 -571l125 370q22 65 61 188h81zM464 921h81l102 -147l-52 -5
l-92 101l-89 -94h-61z" />
    <glyph glyph-name="wcircumflex" unicode="&#x175;" horiz-adv-x="698" 
d="M184 -14q-9 36 -49 148l-57 158q-37 103 -62 159l76 11l116 -350l50 146q47 136 67 198l49 5l122 -349l48 145q46 141 62 199q51 0 75 3l-165 -468l-43 -5q-16 60 -58 174l-66 186l-122 -354zM314 688h81l102 -147l-52 -5l-92 101l-89 -94h-61z" />
    <glyph glyph-name="Ycircumflex" unicode="&#x176;" horiz-adv-x="611" 
d="M11 703l82 7l215 -340l74 115q2 2 137 220h86l-262 -398v-163q0 -102 3 -144h-82q6 72 6 238v66l-107 166q-72 115 -152 233zM271 921h81l102 -147l-52 -5l-92 101l-89 -94h-61z" />
    <glyph glyph-name="ycircumflex" unicode="&#x177;" horiz-adv-x="458" 
d="M90 -213l109 252q-25 65 -42 102q-2 4 -31 69t-37 84q-42 99 -73 157l78 11l140 -342l59 142q62 158 74 194q55 0 77 3l-223 -533q-43 -104 -54 -136q-47 0 -77 -3zM199 688h81l102 -147l-52 -5l-92 101l-89 -94h-61z" />
    <glyph glyph-name="Ydieresis" unicode="&#x178;" horiz-adv-x="611" 
d="M11 703l82 7l215 -340l74 115q2 2 137 220h86l-262 -398v-163q0 -102 3 -144h-82q6 72 6 238v66l-107 166q-72 115 -152 233zM270 846q0 -22 -13.5 -37t-35.5 -15q-20 0 -33 14t-13 33q0 21 14 36.5t35 15.5q20 0 33 -14t13 -33zM440 846q0 -21 -14 -36.5t-35 -15.5
q-20 0 -33 14t-13 33q0 22 13.5 37t34.5 15q20 0 33.5 -14t13.5 -33z" />
    <glyph glyph-name="Zacute" unicode="&#x179;" horiz-adv-x="619" 
d="M381 913l100 7l-145 -146l-49 -4zM579 708l15 -14l-448 -631q46 -1 159 -1q161 0 267 3q-5 -32 -7 -68q-83 4 -256 4q-179 0 -266 -5l-15 15l447 631q-50 1 -152 1q-114 0 -254 -2q4 27 4 67q109 -4 251 -4q168 0 255 4z" />
    <glyph glyph-name="zacute" unicode="&#x17a;" horiz-adv-x="448" 
d="M284 680l100 7l-145 -146l-49 -4zM411 459l11 -18l-289 -382q198 0 281 2q-6 -33 -7 -65q-95 5 -186 5q-87 0 -185 -5l-11 18l289 384q-177 0 -263 -2q4 28 4 63q89 -3 165 -3q100 0 191 3z" />
    <glyph glyph-name="Zdotaccent" unicode="&#x17b;" horiz-adv-x="619" 
d="M579 708l15 -14l-448 -631q46 -1 159 -1q161 0 267 3q-5 -32 -7 -68q-83 4 -256 4q-179 0 -266 -5l-15 15l447 631q-50 1 -152 1q-114 0 -254 -2q4 27 4 67q109 -4 251 -4q168 0 255 4zM380 846q0 -22 -13.5 -37t-34.5 -15q-20 0 -33 14t-13 33q0 22 13.5 37t34.5 15
q20 0 33 -14t13 -33z" />
    <glyph glyph-name="zdotaccent" unicode="&#x17c;" horiz-adv-x="448" 
d="M411 459l11 -18l-289 -382q198 0 281 2q-6 -33 -7 -65q-95 5 -186 5q-87 0 -185 -5l-11 18l289 384q-177 0 -263 -2q4 28 4 63q89 -3 165 -3q100 0 191 3zM283 613q0 -22 -13.5 -37t-34.5 -15q-20 0 -33 14t-13 33q0 22 13.5 37t34.5 15q20 0 33 -14t13 -33z" />
    <glyph glyph-name="Zcaron" unicode="&#x17d;" horiz-adv-x="619" 
d="M370 775h-80l-104 145l53 5l92 -99l90 94h59zM579 708l15 -14l-448 -631q46 -1 159 -1q161 0 267 3q-5 -32 -7 -68q-83 4 -256 4q-179 0 -266 -5l-15 15l447 631q-50 1 -152 1q-114 0 -254 -2q4 27 4 67q109 -4 251 -4q168 0 255 4z" />
    <glyph glyph-name="zcaron" unicode="&#x17e;" horiz-adv-x="448" 
d="M273 542h-80l-104 145l53 5l92 -99l90 94h59zM411 459l11 -18l-289 -382q198 0 281 2q-6 -33 -7 -65q-95 5 -186 5q-87 0 -185 -5l-11 18l289 384q-177 0 -263 -2q4 28 4 63q89 -3 165 -3q100 0 191 3z" />
    <glyph glyph-name="florin" unicode="&#x192;" horiz-adv-x="428" 
d="M354 398h-142l-36 -254q-11 -80 -18 -144h-76q25 131 40 241l23 157h-92l29 58h72l6 39q16 105 58 155t117 50q41 0 71 -13l-16 -60q-44 11 -57 11q-48 0 -70.5 -30t-34.5 -102l-7 -50h144q-7 -28 -11 -58z" />
    <glyph glyph-name="Aringacute" unicode="&#x1fa;" horiz-adv-x="695" 
d="M456 794q0 -41 -24 -72t-65 -39l225 -493q46 -105 89 -190l-80 -7l-104 232h-310l-16 -37q-19 -45 -76 -188h-82l228 506q58 128 78 177q-39 7 -62.5 35t-23.5 65q0 48 31.5 79.5t82.5 31.5q49 0 79 -29t30 -71zM342 579l-128 -293h256zM407 789q0 28 -16.5 46t-44.5 18
q-29 0 -46.5 -18.5t-17.5 -46.5t17 -46.5t45 -18.5q29 0 46 19t17 47zM388 1107l100 7l-145 -146l-49 -4z" />
    <glyph glyph-name="aringacute" unicode="&#x1fb;" horiz-adv-x="480" 
d="M181 -12q-66 0 -103.5 36t-37.5 94q0 67 59 108.5t175 41.5q28 0 54 -3l1 19q4 122 -106 122q-68 0 -130 -44l-16 61q75 44 156 44t123.5 -46t40.5 -130l-6 -198q-1 -27 6.5 -38t24.5 -11t40 10l-7 -50q-28 -14 -53 -14q-30 0 -49.5 21.5t-20.5 67.5q-19 -41 -60 -66
t-91 -25zM349 650q0 -48 -31.5 -80.5t-82.5 -32.5q-48 0 -78.5 30t-30.5 72q0 48 31.5 79.5t82.5 31.5q49 0 79 -29t30 -71zM195 44q54 0 91.5 37t39.5 93l1 44q-27 3 -55 3q-87 0 -126 -27.5t-39 -71.5q0 -35 22 -56.5t66 -21.5zM300 645q0 28 -16.5 46t-44.5 18
q-29 0 -46.5 -18.5t-17.5 -46.5t17 -46.5t45 -18.5q29 0 46 19t17 47zM281 963l100 7l-145 -146l-49 -4z" />
    <glyph glyph-name="AEacute" unicode="&#x1fc;" horiz-adv-x="889" 
d="M-10 0l317 506q98 155 124 202q114 -4 210 -4q78 0 196 4q-5 -30 -7 -68q-116 2 -189 2q-82 0 -110 -1q-1 -24 -1 -80v-161l260 2q-3 -28 -3 -65l-257 1v-194q0 -56 1 -80q16 0 54 -0.5t55 -0.5q114 0 214 3q-5 -35 -6 -69q-79 4 -201 4q-126 0 -197 -5q5 75 5 227h-249
l-21 -35q-64 -104 -110 -188h-85zM455 466q0 50 -2 152l-207 -332h209v180zM598 913l100 7l-145 -146l-49 -4z" />
    <glyph glyph-name="aeacute" unicode="&#x1fd;" horiz-adv-x="778" 
d="M738 247l-46 -28l-295 -8q3 -81 43.5 -123.5t113.5 -42.5q84 0 165 67l-4 -72q-80 -56 -169 -56q-140 0 -186 122q-23 -55 -67.5 -86.5t-106.5 -31.5q-66 0 -106 36.5t-40 94.5q0 66 57 106.5t171 40.5q9 0 31 -0.5t34 -0.5l1 18q2 60 -26 91.5t-84 31.5q-69 0 -131 -44
l-16 61q75 44 154 44q118 0 149 -99q57 99 169 99q92 0 140.5 -61.5t48.5 -158.5zM195 44q57 0 95 42.5t40 104.5l1 28q-12 0 -34 0.5t-32 0.5q-158 0 -158 -97q0 -35 22.5 -57t65.5 -22zM399 264l274 7q-14 137 -127 137q-56 0 -96.5 -41.5t-50.5 -102.5zM436 680l100 7
l-145 -146l-49 -4z" />
    <glyph glyph-name="Oslashacute" unicode="&#x1fe;" horiz-adv-x="815" 
d="M744 703q-14 -14 -79 -90q92 -100 92 -244q0 -164 -101 -275.5t-258 -111.5q-121 0 -211 71l-70 -82l-49 26q39 42 83 91q-93 101 -93 245q0 164 101 275.5t259 111.5q119 0 209 -71q46 54 68 83q36 -23 49 -29zM135 346q0 -122 63 -202l383 451q-70 61 -169 61
q-121 0 -199 -90t-78 -220zM404 46q121 0 198.5 89.5t77.5 220.5q0 120 -63 200l-383 -449q70 -61 170 -61zM456 921l100 7l-145 -146l-49 -4z" />
    <glyph glyph-name="oslashacute" unicode="&#x1ff;" horiz-adv-x="543" 
d="M506 454q-8 -8 -29.5 -32t-30.5 -33q52 -63 52 -152q0 -109 -64.5 -181t-169.5 -72q-80 0 -137 46q-5 -6 -26 -28.5t-32 -35.5l-38 27l64 69q-50 64 -50 152q0 109 64 181t168 72q79 0 136 -46l56 64q10 -10 37 -31zM430 227q0 66 -30 112l-230 -261q39 -33 99 -33
q73 0 117 52t44 130zM113 225q0 -68 26 -112l231 260q-39 33 -97 33q-71 0 -115.5 -52t-44.5 -129zM316 680l100 7l-145 -146l-49 -4z" />
    <glyph glyph-name="Scommaaccent" unicode="&#x218;" horiz-adv-x="521" 
d="M188 -223l23 17q34 28 34 58q0 23 -30 39l-12 5q11 43 51 43q21 0 35 -16.5t14 -41.5q0 -66 -96 -127zM469 189q0 -87 -61.5 -147t-165.5 -60t-195 57l5 79q34 -28 88 -49t106 -21q69 0 109.5 36t40.5 95q0 42 -33 75.5t-80 58.5t-94.5 51t-80.5 66.5t-33 92.5
q0 83 60 140t156 57q88 0 160 -49l-24 -65q-65 48 -139 48q-64 0 -102 -34.5t-38 -87.5q0 -34 24 -62t59.5 -47t77 -42.5t77 -46.5t59.5 -60.5t24 -84.5z" />
    <glyph glyph-name="scommaaccent" unicode="&#x219;" horiz-adv-x="406" 
d="M126 -223l23 17q34 28 34 58q0 23 -30 39l-12 5q11 43 51 43q21 0 35 -16.5t14 -41.5q0 -66 -96 -127zM214 467q74 0 134 -36l-24 -61q-50 35 -111 35q-38 0 -63.5 -17t-25.5 -50q0 -24 24.5 -41.5t60 -30.5t71 -28t60 -42.5t24.5 -66.5q0 -66 -50.5 -105.5t-121.5 -39.5
q-92 0 -150 38l4 73q67 -49 148 -49q44 0 73 19t29 53q0 27 -24.5 46.5t-60 32.5t-71 28t-60 42.5t-24.5 67.5q0 56 45 94t113 38z" />
    <glyph glyph-name="schwa" unicode="&#x259;" horiz-adv-x="500" 
d="M40 203l46 29l300 8q-2 80 -44 123t-116 43q-86 0 -166 -67l3 71q81 57 171 57q104 0 162.5 -65.5t58.5 -164.5q0 -108 -63 -180.5t-164 -72.5q-93 0 -140.5 61t-47.5 158zM384 187l-279 -8q14 -137 128 -137q60 0 100.5 41t50.5 104z" />
    <glyph glyph-name="circumflex" unicode="&#x2c6;" horiz-adv-x="408" 
d="M168 688h81l102 -147l-52 -5l-92 101l-89 -94h-61z" />
    <glyph glyph-name="caron" unicode="&#x2c7;" horiz-adv-x="408" 
d="M241 542h-80l-104 145l53 5l92 -99l90 94h59z" />
    <glyph glyph-name="breve" unicode="&#x2d8;" horiz-adv-x="382" 
d="M279 688l59 4q2 -71 -38 -111.5t-112 -40.5q-63 0 -103.5 40.5t-40.5 101.5l60 10q0 -47 24 -73.5t64 -26.5q43 0 65.5 27t21.5 69z" />
    <glyph glyph-name="dotaccent" unicode="&#x2d9;" horiz-adv-x="218" 
d="M156 613q0 -22 -13.5 -37t-34.5 -15q-20 0 -33 14t-13 33q0 22 13.5 37t34.5 15q20 0 33 -14t13 -33z" />
    <glyph glyph-name="ring" unicode="&#x2da;" horiz-adv-x="306" 
d="M264 650q0 -48 -31.5 -80.5t-82.5 -32.5q-48 0 -78.5 30t-30.5 72q0 48 31.5 79.5t82.5 31.5q49 0 79 -29t30 -71zM215 645q0 28 -16.5 46t-44.5 18q-29 0 -46.5 -18.5t-17.5 -46.5t17 -46.5t45 -18.5q29 0 46 19t17 47z" />
    <glyph glyph-name="ogonek" unicode="&#x2db;" horiz-adv-x="297" 
d="M210 36l10 -26q-110 -77 -110 -132q0 -17 11 -27.5t31 -10.5q30 0 64 23l-4 -49q-30 -22 -72 -22q-40 0 -63.5 21t-23.5 56q0 79 157 167z" />
    <glyph glyph-name="tilde" unicode="&#x2dc;" horiz-adv-x="407" 
d="M36 557q12 67 35.5 95t60.5 28q30 0 78.5 -35t64.5 -35q29 0 44 74l52 -8q-21 -126 -97 -126q-30 0 -79 35t-65 35t-25 -15.5t-16 -55.5z" />
    <glyph glyph-name="hungarumlaut" unicode="&#x2dd;" horiz-adv-x="427" 
d="M124 686l90 7l-91 -155l-50 -3zM276 687l93 9l-100 -156l-51 -2z" />
    <glyph glyph-name="commaaccent" unicode="&#x326;" horiz-adv-x="230" 
d="M64 -223l23 17q34 28 34 58q0 23 -30 39l-12 5q11 43 51 43q21 0 35 -16.5t14 -41.5q0 -66 -96 -127z" />
    <glyph glyph-name="baht" unicode="&#xe3f;" horiz-adv-x="608" 
d="M295 -1h-111l-58 -132q-29 18 -56 25l50 107h-19q5 60 5 237v214q0 178 -5 235q160 5 176 5q68 0 123 -20q5 12 17 37t22.5 49t20.5 48q40 -24 53 -28q-17 -37 -62 -132q64 -47 64 -126q0 -54 -32.5 -94.5t-88.5 -57.5q76 -19 115 -63t39 -107q0 -86 -67.5 -141.5
t-185.5 -55.5zM180 68q51 -4 111 -4q85 0 134 34t49 99q0 61 -51.5 97.5t-153.5 36.5q-55 0 -90 -4v-187q0 -49 1 -72zM180 388q14 -1 87 -1q83 0 128.5 34t45.5 90q0 114 -171 114q-27 0 -90 -3q-1 -9 -1 -62v-110q0 -53 1 -62z" />
    <glyph glyph-name="Wgrave" unicode="&#x1e80;" horiz-adv-x="990" 
d="M976 703l-184 -508q-13 -36 -29 -81t-26 -74t-18 -53l-20 -6l-200 568l-132 -360q-10 -29 -37 -98.5t-40 -108.5h-20l-185 528q-49 140 -71 191l80 6l191 -562l137 378q9 27 35.5 101.5t30.5 85.5l21 6l200 -571l125 370q22 65 61 188h81zM358 913l87 7l93 -146l-45 -4z
" />
    <glyph glyph-name="wgrave" unicode="&#x1e81;" horiz-adv-x="698" 
d="M184 -14q-9 36 -49 148l-57 158q-37 103 -62 159l76 11l116 -350l50 146q47 136 67 198l49 5l122 -349l48 145q46 141 62 199q51 0 75 3l-165 -468l-43 -5q-16 60 -58 174l-66 186l-122 -354zM208 680l87 7l93 -146l-45 -4z" />
    <glyph glyph-name="Wacute" unicode="&#x1e82;" horiz-adv-x="990" 
d="M976 703l-184 -508q-13 -36 -29 -81t-26 -74t-18 -53l-20 -6l-200 568l-132 -360q-10 -29 -37 -98.5t-40 -108.5h-20l-185 528q-49 140 -71 191l80 6l191 -562l137 378q9 27 35.5 101.5t30.5 85.5l21 6l200 -571l125 370q22 65 61 188h81zM549 913l100 7l-145 -146
l-49 -4z" />
    <glyph glyph-name="wacute" unicode="&#x1e83;" horiz-adv-x="698" 
d="M184 -14q-9 36 -49 148l-57 158q-37 103 -62 159l76 11l116 -350l50 146q47 136 67 198l49 5l122 -349l48 145q46 141 62 199q51 0 75 3l-165 -468l-43 -5q-16 60 -58 174l-66 186l-122 -354zM399 680l100 7l-145 -146l-49 -4z" />
    <glyph glyph-name="Wdieresis" unicode="&#x1e84;" horiz-adv-x="990" 
d="M976 703l-184 -508q-13 -36 -29 -81t-26 -74t-18 -53l-20 -6l-200 568l-132 -360q-10 -29 -37 -98.5t-40 -108.5h-20l-185 528q-49 140 -71 191l80 6l191 -562l137 378q9 27 35.5 101.5t30.5 85.5l21 6l200 -571l125 370q22 65 61 188h81zM463 846q0 -22 -13.5 -37
t-35.5 -15q-20 0 -33 14t-13 33q0 21 14 36.5t35 15.5q20 0 33 -14t13 -33zM633 846q0 -21 -14 -36.5t-35 -15.5q-20 0 -33 14t-13 33q0 22 13.5 37t34.5 15q20 0 33.5 -14t13.5 -33z" />
    <glyph glyph-name="wdieresis" unicode="&#x1e85;" horiz-adv-x="698" 
d="M184 -14q-9 36 -49 148l-57 158q-37 103 -62 159l76 11l116 -350l50 146q47 136 67 198l49 5l122 -349l48 145q46 141 62 199q51 0 75 3l-165 -468l-43 -5q-16 60 -58 174l-66 186l-122 -354zM313 613q0 -22 -13.5 -37t-35.5 -15q-20 0 -33 14t-13 33q0 21 14 36.5
t35 15.5q20 0 33 -14t13 -33zM483 613q0 -21 -14 -36.5t-35 -15.5q-20 0 -33 14t-13 33q0 22 13.5 37t34.5 15q20 0 33.5 -14t13.5 -33z" />
    <glyph glyph-name="Ygrave" unicode="&#x1ef2;" horiz-adv-x="611" 
d="M11 703l82 7l215 -340l74 115q2 2 137 220h86l-262 -398v-163q0 -102 3 -144h-82q6 72 6 238v66l-107 166q-72 115 -152 233zM165 913l87 7l93 -146l-45 -4z" />
    <glyph glyph-name="ygrave" unicode="&#x1ef3;" horiz-adv-x="458" 
d="M90 -213l109 252q-25 65 -42 102q-2 4 -31 69t-37 84q-42 99 -73 157l78 11l140 -342l59 142q62 158 74 194q55 0 77 3l-223 -533q-43 -104 -54 -136q-47 0 -77 -3zM93 680l87 7l93 -146l-45 -4z" />
    <glyph glyph-name="enspace" unicode="&#x2002;" horiz-adv-x="500" 
 />
    <glyph glyph-name="emspace" unicode="&#x2003;" horiz-adv-x="1000" 
 />
    <glyph glyph-name="threeperemspace" unicode="&#x2004;" horiz-adv-x="333" 
 />
    <glyph glyph-name="fourperemspace" unicode="&#x2005;" horiz-adv-x="250" 
 />
    <glyph glyph-name="figurespace" unicode="&#x2007;" horiz-adv-x="560" 
 />
    <glyph glyph-name="thinspace" unicode="&#x2009;" horiz-adv-x="133" 
 />
    <glyph glyph-name="hairspace" unicode="&#x200a;" horiz-adv-x="75" 
 />
    <glyph glyph-name="endash" unicode="&#x2013;" horiz-adv-x="527" 
d="M472 308q-4 -32 -4 -59q-110 2 -159 2h-94q-54 0 -158 -2q3 23 3 59q94 -3 204 -3q108 0 208 3z" />
    <glyph glyph-name="emdash" unicode="&#x2014;" horiz-adv-x="966" 
d="M909 308q-2 -13 -5 -59q-130 2 -217 2h-414q-90 0 -216 -2q3 23 3 59q124 -3 422 -3t427 3z" />
    <glyph glyph-name="quoteleft" unicode="&#x2018;" horiz-adv-x="200" 
d="M152 726l23 -35l-7 -7q-79 -55 -79 -109q0 -35 47 -57l14 -6q-17 -55 -61 -55q-26 0 -45 23t-19 59q0 96 127 187z" />
    <glyph glyph-name="quoteright" unicode="&#x2019;" horiz-adv-x="200" 
d="M48 448l-23 35l6 6q79 55 79 109q0 36 -46 57l-15 7q18 54 61 54q27 0 45.5 -23t18.5 -59q0 -95 -126 -186z" />
    <glyph glyph-name="quotesinglbase" unicode="&#x201a;" horiz-adv-x="200" 
d="M47 -182l-23 35l7 7q79 55 79 109q0 35 -47 57l-14 6q17 55 61 55q26 0 45 -23t19 -59q0 -96 -127 -187z" />
    <glyph glyph-name="quotedblleft" unicode="&#x201c;" horiz-adv-x="382" 
d="M334 726l23 -35l-7 -7q-79 -55 -79 -109q0 -35 47 -57l14 -6q-17 -55 -61 -55q-26 0 -45 23t-19 59q0 96 127 187zM152 726l23 -35l-7 -7q-79 -55 -79 -109q0 -35 47 -57l14 -6q-17 -55 -61 -55q-26 0 -45 23t-19 59q0 96 127 187z" />
    <glyph glyph-name="quotedblright" unicode="&#x201d;" horiz-adv-x="382" 
d="M48 448l-23 35l6 6q79 55 79 109q0 36 -46 57l-15 7q18 54 61 54q27 0 45.5 -23t18.5 -59q0 -95 -126 -186zM230 448l-23 35l6 6q79 55 79 109q0 36 -46 57l-15 7q18 54 61 54q27 0 45.5 -23t18.5 -59q0 -95 -126 -186z" />
    <glyph glyph-name="quotedblbase" unicode="&#x201e;" horiz-adv-x="382" 
d="M47 -182l-23 35l7 7q79 55 79 109q0 35 -47 57l-14 6q17 55 61 55q26 0 45 -23t19 -59q0 -96 -127 -187zM229 -182l-23 35l7 7q79 55 79 109q0 35 -47 57l-14 6q17 55 61 55q26 0 45 -23t19 -59q0 -96 -127 -187z" />
    <glyph glyph-name="dagger" unicode="&#x2020;" horiz-adv-x="515" 
d="M477 526l-3 -65q-23 3 -64 4l-63 2q-20 1 -63 1l2 -343q0 -98 3 -145h-67q3 55 5 241l3 247q-41 0 -76 -1l-48 -2q-41 -1 -68 -4l3 65q15 -2 47 -4l94 -5h48q0 138 -8 210q29 0 71 5q-4 -57 -6 -147l-2 -68h50l96 5q33 2 46 4z" />
    <glyph glyph-name="daggerdbl" unicode="&#x2021;" horiz-adv-x="515" 
d="M287 585l-2 -68q2 0 26.5 1t57.5 2t49 1q11 0 59 4q0 -1 -1.5 -31.5t-1.5 -31.5q-42 4 -77 5q-17 0 -64 1t-49 1l1 -237q1 0 26.5 1t57.5 2t49 1q38 2 59 5q0 -1 -1.5 -31.5t-1.5 -31.5q-42 4 -77 4q-84 3 -112 3v-53q0 -88 4 -152h-67q4 66 6 205q-1 0 -43.5 -1
t-58.5 -1q-58 -2 -88 -5q0 1 1.5 31.5t1.5 31.5q18 -2 61 -4q15 0 45.5 -1.5t55 -2.5t25.5 -1l2 237q-50 0 -104 -2q-70 -2 -88 -4q0 1 1.5 31.5t1.5 31.5q30 -4 61 -5q14 0 45.5 -1t55.5 -2t26 -1v59q-3 111 -7 151q29 0 71 5q-4 -57 -6 -147z" />
    <glyph glyph-name="bullet" unicode="&#x2022;" horiz-adv-x="420" 
d="M336 349q0 -53 -36.5 -91t-89.5 -38t-90 38.5t-37 92.5t36.5 91.5t89.5 37.5q54 0 90.5 -38t36.5 -93z" />
    <glyph glyph-name="ellipsis" unicode="&#x2026;" horiz-adv-x="636" 
d="M152 37q0 -22 -14.5 -37.5t-36.5 -15.5q-21 0 -34.5 14.5t-13.5 33.5q0 23 14 38t36 15q21 0 35 -14.5t14 -33.5zM367 37q0 -22 -14 -37.5t-37 -15.5q-20 0 -33.5 14.5t-13.5 33.5q0 23 14 38t36 15q21 0 34.5 -14.5t13.5 -33.5zM583 37q0 -22 -14.5 -37.5t-36.5 -15.5
q-21 0 -34 14t-13 34q0 23 14 38t36 15q20 0 34 -14.5t14 -33.5z" />
    <glyph glyph-name="guilsinglleft" unicode="&#x2039;" horiz-adv-x="348" 
d="M235 452q34 1 65 7q-69 -103 -167 -231q38 -58 160 -224l-43 -19q-144 159 -202 233l3 12q127 150 184 222z" />
    <glyph glyph-name="guilsinglright" unicode="&#x203a;" horiz-adv-x="348" 
d="M112 -9q-33 -1 -64 -7q74 111 167 232q-32 49 -160 223l42 19q145 -158 203 -232l-2 -12q-120 -140 -186 -223z" />
    <glyph glyph-name="fraction" unicode="&#x2044;" horiz-adv-x="186" 
d="M-126 -13l-45 21q44 59 115 160l260 377q90 130 106 158q30 -14 47 -23q-22 -28 -83 -116l-331 -479q-14 -22 -69 -98z" />
    <glyph glyph-name="zero.sup" unicode="&#x2070;" 
d="M190 839q71 0 109 -55.5t38 -141.5q0 -94 -40.5 -151.5t-113.5 -57.5q-71 0 -109 55.5t-38 141.5q0 94 41 151.5t113 57.5zM186 482q44 0 69.5 43t25.5 110q0 74 -25 114.5t-69 40.5t-69.5 -43t-25.5 -110q0 -74 25 -114.5t69 -40.5z" />
    <glyph glyph-name="four.sup" unicode="&#x2074;" 
d="M228 443q2 18 2 84v15h-40q-116 0 -157 -2l-9 41l165 208q36 45 44 54l50 -4q-1 -12 -1 -70v-182q15 0 37 0.5t30 0.5q-5 -30 -5 -48l-62 2v-35q0 -50 1 -64h-55zM232 773l-148 -188q128 0 148 1v187z" />
    <glyph glyph-name="five.sup" unicode="&#x2075;" 
d="M55 450l-7 53q61 -18 108 -18q50 0 79 20t29 51q0 71 -131 71q-31 0 -60 -4l-6 5q0 10 1.5 33t1.5 29l3 65q1 22 1 68l7 7q98 -2 116 -2q21 0 117 2q-7 -49 -7 -55q-37 1 -106 1h-74l-5 -103q5 0 15.5 0.5t16.5 0.5q80 0 124 -31.5t44 -86.5q0 -54 -43.5 -87.5
t-116.5 -33.5q-61 0 -107 15z" />
    <glyph glyph-name="six.sup" unicode="&#x2076;" 
d="M300 793q-169 -25 -203 -152q40 48 110 48q55 0 92.5 -34.5t37.5 -85.5q0 -57 -42 -96.5t-108 -39.5q-67 0 -106.5 41.5t-39.5 114.5q0 100 65 168.5t183 84.5zM281 566q0 37 -24 58.5t-64 21.5q-39 0 -66.5 -24t-27.5 -59q0 -36 25 -59.5t65 -23.5q41 0 66.5 24.5
t25.5 61.5z" />
    <glyph glyph-name="seven.sup" unicode="&#x2077;" 
d="M45 830q96 -2 135 -2q49 0 145 2l11 -30q-5 -7 -17 -30.5t-18 -33.5l-124 -223q-25 -44 -38 -74l-62 8q15 23 57 96l130 233h-98q-87 0 -125 -1q4 26 4 55z" />
    <glyph glyph-name="eight.sup" unicode="&#x2078;" 
d="M185 433q-65 0 -105 29.5t-40 76.5q0 73 98 103q-84 30 -84 93q0 45 39 75t98 30q58 0 95.5 -29t38.5 -72q1 -33 -20.5 -55.5t-64.5 -39.5q94 -35 94 -100q0 -49 -41.5 -80t-107.5 -31zM277 544q0 50 -92 77q-89 -24 -89 -79q0 -28 25.5 -46t66.5 -18t65 18.5t24 47.5z
M108 737q0 -47 86 -72q77 21 77 70q0 26 -22.5 43t-58.5 17q-37 0 -59.5 -17t-22.5 -41z" />
    <glyph glyph-name="nine.sup" unicode="&#x2079;" 
d="M85 433l-11 49q84 12 135.5 51.5t66.5 99.5q-39 -47 -109 -47q-55 0 -92.5 34.5t-37.5 85.5q0 57 42 96.5t108 39.5q67 0 106.5 -41.5t39.5 -114.5q0 -100 -65 -168.5t-183 -84.5zM93 709q0 -37 24 -58.5t64 -21.5q39 0 66.5 24t27.5 59q0 36 -25 59.5t-65 23.5
q-41 0 -66.5 -24.5t-25.5 -61.5z" />
    <glyph glyph-name="zero.inf" unicode="&#x2080;" 
d="M190 192q71 0 109 -55.5t38 -141.5q0 -94 -40.5 -151.5t-113.5 -57.5q-71 0 -109 55t-38 142q0 94 41 151.5t113 57.5zM186 -165q44 0 69.5 43t25.5 110q0 74 -25 114.5t-69 40.5t-69.5 -43t-25.5 -110q0 -74 25 -114.5t69 -40.5z" />
    <glyph glyph-name="one.inf" unicode="&#x2081;" horiz-adv-x="280" 
d="M134 125l-86 -25l-11 48q1 0 101 31l40 12l14 -4q-2 -12 -2 -68v-256q0 -54 2 -67h-61q3 33 3 113v216z" />
    <glyph glyph-name="two.inf" unicode="&#x2082;" 
d="M77 93l-22 46q62 53 134 53q57 0 92.5 -29t35.5 -79q0 -38 -21 -70t-67 -77q-36 -34 -104 -91q23 0 203 3q-3 -51 -3 -54q-88 2 -137 2q-52 0 -140 -2l-7 41q120 100 151 131q68 65 68 109q0 29 -20.5 46t-55.5 17q-54 0 -107 -46z" />
    <glyph glyph-name="three.inf" unicode="&#x2083;" 
d="M56 -196l-8 53q62 -19 109 -19q50 0 80 17t30 45q0 65 -148 70l-7 37q148 24 148 84q0 21 -21.5 35t-60.5 14q-60 0 -110 -30l-17 45q65 36 133 36q61 0 97.5 -25.5t36.5 -65.5q0 -71 -117 -102q125 -19 125 -98q0 -50 -45.5 -81t-117.5 -31q-60 0 -107 16z" />
    <glyph glyph-name="four.inf" unicode="&#x2084;" 
d="M228 -204q2 18 2 84v15h-40q-116 0 -157 -2l-9 41l165 208q36 45 44 54l50 -4q-1 -12 -1 -70v-182q27 1 67 1q-5 -30 -5 -48q-34 2 -62 2v-35q0 -50 1 -64h-55zM232 126l-148 -188q128 0 148 1v187z" />
    <glyph glyph-name="five.inf" unicode="&#x2085;" 
d="M55 -197l-7 53q61 -18 108 -18q50 0 79 20t29 51q0 71 -131 71q-31 0 -60 -4l-6 5q0 10 1.5 33t1.5 29l3 65q1 22 1 68l7 7q98 -2 116 -2q21 0 117 2q-7 -49 -7 -55q-37 1 -106 1h-74l-5 -103q5 0 15.5 0.5t16.5 0.5q80 0 124 -31.5t44 -86.5q0 -54 -43.5 -87.5
t-116.5 -33.5q-61 0 -107 15z" />
    <glyph glyph-name="six.inf" unicode="&#x2086;" 
d="M300 146q-169 -25 -203 -151q40 47 110 47q55 0 92.5 -34.5t37.5 -85.5q0 -57 -42 -96.5t-108 -39.5q-67 0 -106.5 41.5t-39.5 114.5q0 100 65 168.5t183 84.5zM281 -81q0 37 -24 58.5t-64 21.5q-39 0 -66.5 -24t-27.5 -59q0 -36 25 -59.5t65 -23.5q41 0 66.5 24.5
t25.5 61.5z" />
    <glyph glyph-name="seven.inf" unicode="&#x2087;" 
d="M45 183q96 -2 135 -2q49 0 145 2l11 -30q-5 -7 -17 -30.5t-18 -33.5l-124 -223q-25 -44 -38 -74l-62 8q15 23 57 96l130 233h-98q-87 0 -125 -1q4 26 4 55z" />
    <glyph glyph-name="eight.inf" unicode="&#x2088;" 
d="M185 -214q-65 0 -105 29.5t-40 76.5q0 72 98 104q-84 28 -84 92q0 45 39 75t98 30q58 0 95.5 -29t38.5 -72q1 -61 -85 -94q94 -37 94 -101q0 -49 -41.5 -80t-107.5 -31zM277 -103q0 51 -92 78q-89 -25 -89 -80q0 -28 25.5 -46t66.5 -18t65 18.5t24 47.5zM108 90
q0 -47 86 -72q77 21 77 70q0 26 -22.5 43t-58.5 17q-37 0 -59.5 -17t-22.5 -41z" />
    <glyph glyph-name="nine.inf" unicode="&#x2089;" 
d="M85 -214l-11 49q84 13 135.5 52.5t66.5 99.5q-40 -48 -109 -48q-55 0 -92.5 34.5t-37.5 85.5q0 57 42 96.5t108 39.5q67 0 106.5 -41.5t39.5 -114.5q0 -100 -65 -168.5t-183 -84.5zM93 62q0 -37 24 -58.5t64 -21.5q39 0 66.5 24t27.5 59q0 36 -25 59.5t-65 23.5
q-41 0 -66.5 -24.5t-25.5 -61.5z" />
    <glyph glyph-name="colonmonetary" unicode="&#x20a1;" horiz-adv-x="727" 
d="M171 -104q-19 14 -55 31l60 135q-56 49 -87 118.5t-31 147.5q0 158 101.5 265.5t256.5 107.5q10 0 30 -2q22 56 49 119q54 -27 57 -28l-45 -101q56 -14 106 -44l52 127l56 -28q-147 -337 -188 -435l-110 -262q105 6 202 95l-5 -82q-98 -78 -222 -78h-2q-48 -113 -55 -131
q-28 20 -55 29q17 39 48 108q-60 10 -108 39q-48 -113 -55 -131zM134 332q0 -123 72 -201l27 62l162 385l24 59h-7q-122 0 -200 -86.5t-78 -218.5zM253 90q45 -31 107 -40l43 97l161 385l21 50q-49 33 -105 47q-73 -168 -116 -276q-80 -189 -111 -263z" />
    <glyph glyph-name="naira" unicode="&#x20a6;" horiz-adv-x="862" 
d="M811 463q-6 -23 -6 -59l-97 2l-1 -131q72 0 102 1q-5 -27 -3 -60q-17 0 -33.5 0.5t-35 1.5t-30.5 1l-1 -83q-1 -26 -0.5 -77.5t1.5 -70.5l-21 -5l-195 236h-152q-83 0 -117 -1v-78q0 -100 3 -141h-81q6 62 8 218q-33 -1 -100 -1q4 29 2 60q52 -2 98 -2q3 111 3 132
l-104 -2q4 19 4 59q24 -1 101 -1v2q0 187 -5 234l21 6l200 -244h104h164v1q0 177 -6 224q51 0 82 5q-4 -50 -6 -144l-1 -85q80 2 102 2zM222 274h224l-224 271v-271zM640 406h-223l223 -272v272z" />
    <glyph glyph-name="rupee" unicode="&#x20a8;" horiz-adv-x="1007" 
d="M582 4l-85 -11l-189 292h-126v-145q0 -100 3 -141h-81q5 59 5 236v215q0 176 -5 235l173 4q116 2 182 -53t64 -137q-3 -142 -147 -197l105 -157q65 -94 101 -141zM182 347h113q70 0 111.5 42t41.5 100q0 65 -42.5 100.5t-125.5 35.5q-18 0 -51 -0.5t-47 -0.5v-277z
M791 467q75 0 135 -36l-24 -61q-50 35 -111 35q-39 0 -64.5 -17t-25.5 -50q0 -24 25 -41.5t60.5 -30.5t70.5 -28t60 -42.5t25 -66.5q0 -66 -50.5 -105.5t-122.5 -39.5q-91 0 -150 38l4 73q68 -49 148 -49q44 0 73 19t29 53q0 27 -24.5 46.5t-60 32.5t-71 28t-60 42.5
t-24.5 67.5q0 56 45 94t113 38z" />
    <glyph glyph-name="won" unicode="&#x20a9;" horiz-adv-x="1112" 
d="M1055 465q-5 -39 -4 -59q-36 1 -127 1l-48 -132q97 0 179 2q-4 -32 -4 -59q-134 2 -195 2l-11 -30q-55 -151 -71 -203l-17 -6l-85 239h-230l-13 -35q-14 -40 -40.5 -109.5t-35.5 -93.5h-17l-83 237q-33 0 -97.5 -0.5t-98.5 -0.5q2 15 2 59q22 -1 83 -1.5t91 -0.5l-46 132
q-23 0 -67.5 -0.5t-62.5 -0.5q2 28 2 59q11 0 48 -0.5t60 -0.5l-12 35q-63 172 -69 186l75 6l77 -228h230l18 48q31 95 64 183l18 6l83 -237h224l14 40l59 182h77l-81 -221q22 0 59.5 0.5t51.5 0.5zM448 407h-190l92 -271zM559 540l-97 -265h191zM856 407q-23 0 -84.5 0.5
t-101.5 0.5l95 -271z" />
    <glyph glyph-name="sheqel" unicode="&#x20aa;" horiz-adv-x="683" 
d="M272 119q-8 28 -30.5 102t-26.5 91l55 -6l51 -162q23 -75 99 -75h122l-1 280q0 97 -2 153h67q-5 -51 -5 -217v-285h-182q-63 0 -96.5 29t-50.5 90zM388 203q1 17 1 153q0 37 -21 57.5t-59 20.5h-166v-321q0 -84 1 -113h-67q6 86 6 180v322h225q66 0 101 -31t37 -85
q1 -9 1 -19.5t0.5 -25t0.5 -26.5q0 -65 3 -109z" />
    <glyph glyph-name="Euro" unicode="&#x20ac;" horiz-adv-x="654" 
d="M310 271q141 0 203 3q-7 -43 -8 -60q-30 0 -95 0.5t-100 0.5h-113q28 -79 90 -125t142 -46q111 0 189 72l-5 -77q-83 -57 -194 -57q-106 0 -185.5 64.5t-107.5 168.5q-40 -1 -112 -1q2 30 2 60q45 -3 99 -3q-2 28 -2 44q0 30 5 67q-68 0 -99 -1q3 24 3 60q96 -3 108 -3
q31 107 111.5 171t190.5 64q105 0 177 -55l-19 -61q-69 54 -163 54q-80 0 -142 -47t-89 -126h119q123 0 214 3q-6 -34 -7 -60q-63 1 -207 1h-132q-4 -23 -4 -53q0 -34 4 -58h127z" />
    <glyph glyph-name="peso" unicode="&#x20b1;" horiz-adv-x="678" 
d="M35 493q74 -2 101 -2q-2 146 -6 195q14 0 75 2t95 2q114 0 178 -55t69 -144q32 0 98 2q-5 -23 -5 -61q-67 0 -95 1q-13 -92 -82.5 -146.5t-199.5 -54.5l-53 2v-92q0 -100 3 -142h-83q6 69 6 234v198v1q-31 -1 -104 -1q3 21 3 61zM210 490h260q-14 138 -183 138
q-35 0 -77 -3v-135zM470 435h-260v-137q27 -3 55 -3q91 0 143 37t62 103z" />
    <glyph glyph-name="numero" unicode="&#x2116;" horiz-adv-x="1183" 
d="M99 0q5 59 8 225l2 218q3 161 -3 223l21 5l449 -533l1 292q0 162 -7 225q52 0 83 4q-2 -14 -5 -137l-4 -391q-1 -26 -0.5 -74.5t1.5 -67.5l-20 -5l-447 526v-375q0 -96 3 -135h-82zM1123 489q0 -86 -52 -143.5t-135 -57.5q-78 0 -127 53.5t-49 129.5q0 86 52 143.5
t135 57.5q79 0 127.5 -53t48.5 -130zM945 615q-52 0 -85 -39t-33 -97q0 -60 31 -97t81 -37q52 0 84.5 39t32.5 97q0 60 -31 97t-80 37zM1126 209q-1 -9 -4 -61q-59 1 -184 1q-124 0 -182 -1q2 14 2 61q97 -3 181 -3q87 0 187 3z" />
    <glyph glyph-name="published" unicode="&#x2117;" horiz-adv-x="865" 
d="M801 351q0 -153 -108 -261t-261 -108t-261 108t-108 261t108 261t261 108t261 -108t108 -261zM756 351q0 135 -94.5 231t-229.5 96t-229 -96t-94 -231t94 -231t229 -96t229.5 96t94.5 231zM396 493v-143q18 -2 26 -2q49 0 75.5 19.5t26.5 55.5q0 72 -91 72q-9 0 -37 -2z
M396 248q0 -63 2 -78h-62q3 25 3 124v120q0 101 -3 125q57 3 96 3q71 0 110.5 -32t39.5 -82q0 -55 -40 -90.5t-120 -36.5q-8 0 -26 2v-55z" />
    <glyph glyph-name="servicemark" unicode="&#x2120;" horiz-adv-x="803" 
d="M749 354l-59 -4q0 5 -6 71l-19 165q-107 -221 -115 -237l-16 -3q-1 3 -29 61t-53.5 112t-29.5 63l-22 -164q-7 -61 -7 -64h-55l19 118l18 120q13 77 16 120l18 2q9 -21 34 -71l101 -205l99 205l35 71h16l17 -118l18 -122zM280 451q0 -46 -32.5 -76t-86.5 -30
q-57 0 -103 28l3 52q42 -34 102 -34q30 0 47.5 15t17.5 41q0 19 -16.5 34t-39.5 26.5t-46 24.5t-39.5 34t-16.5 48q0 44 31.5 72.5t81.5 28.5q51 0 87 -24l-14 -44q-30 22 -73 22q-28 0 -44 -14t-16 -38q0 -21 24.5 -39t54 -30t54 -37.5t24.5 -59.5z" />
    <glyph glyph-name="trademark" unicode="&#x2122;" horiz-adv-x="841" 
d="M787 354l-59 -4q0 5 -6 71l-19 165q-107 -221 -115 -237l-16 -3q-1 3 -29 61t-53.5 112t-29.5 63l-22 -164q-7 -61 -7 -64h-55l19 118l18 120q13 77 16 120l18 2q9 -21 34 -71l101 -205l99 205l35 71h16l17 -118l18 -122zM345 709l-3 -51q-41 1 -119 1q-1 -11 -1 -40
v-193q0 -44 2 -72h-63q3 23 3 120v96q0 62 -1 89q-82 0 -121 -1q2 22 2 51q47 -2 149 -2q106 0 152 2z" />
    <glyph glyph-name="onethird" unicode="&#x2153;" horiz-adv-x="840" 
d="M507 8l-8 53q62 -19 109 -19q50 0 80 17t30 45q0 65 -148 70l-7 37q148 24 148 84q0 21 -21.5 35t-60.5 14q-60 0 -110 -30l-17 45q65 36 133 36q61 0 97.5 -25.5t36.5 -65.5q0 -71 -117 -102q125 -19 125 -98q0 -50 -45.5 -81t-117.5 -31q-60 0 -107 16zM158 632
l-86 -25l-11 49q1 0 101 31l40 12l14 -5q-2 -12 -2 -68v-255q0 -54 2 -67h-61q3 33 3 112v216zM148 -13l-45 21q44 59 115 160l260 377q90 130 106 158q30 -14 47 -23q-22 -28 -83 -116l-331 -479q-14 -22 -69 -98z" />
    <glyph glyph-name="twothirds" unicode="&#x2154;" horiz-adv-x="934" 
d="M601 8l-8 53q62 -19 109 -19q50 0 80 17t30 45q0 65 -148 70l-7 37q148 24 148 84q0 21 -21.5 35t-60.5 14q-60 0 -110 -30l-17 45q65 36 133 36q61 0 97.5 -25.5t36.5 -65.5q0 -71 -117 -102q125 -19 125 -98q0 -50 -45.5 -81t-117.5 -31q-60 0 -107 16zM110 600l-22 47
q61 52 134 52q57 0 92.5 -29t35.5 -78q0 -38 -21 -71t-67 -77q-38 -36 -104 -90q113 0 203 3q-3 -54 -3 -55q-88 2 -137 2q-52 0 -140 -2l-7 41q128 108 151 131q68 67 68 110q0 29 -20.5 46t-55.5 17q-54 0 -107 -47zM269 -13l-45 21q44 59 115 160l260 377q90 130 106 158
q30 -14 47 -23q-22 -28 -83 -116l-331 -479q-14 -22 -69 -98z" />
    <glyph glyph-name="onefifth" unicode="&#x2155;" horiz-adv-x="840" 
d="M506 7l-7 53q61 -18 108 -18q50 0 79 20t29 51q0 71 -131 71q-31 0 -60 -4l-6 5q0 10 1.5 33t1.5 29l3 65q1 22 1 68l7 7q98 -2 116 -2q21 0 117 2q-7 -49 -7 -55q-37 1 -106 1h-74l-5 -103q5 0 15.5 0.5t16.5 0.5q80 0 124 -31.5t44 -86.5q0 -54 -43.5 -87.5
t-116.5 -33.5q-61 0 -107 15zM157 -13l-45 21q44 59 115 160l260 377q90 130 106 158q30 -14 47 -23q-22 -28 -83 -116l-331 -479q-14 -22 -69 -98zM158 632l-86 -25l-11 49q1 0 101 31l40 12l14 -5q-2 -12 -2 -68v-255q0 -54 2 -67h-61q3 33 3 112v216z" />
    <glyph glyph-name="twofifths" unicode="&#x2156;" horiz-adv-x="934" 
d="M600 7l-7 53q61 -18 108 -18q50 0 79 20t29 51q0 71 -131 71q-31 0 -60 -4l-6 5q0 10 1.5 33t1.5 29l3 65q1 22 1 68l7 7q98 -2 116 -2q21 0 117 2q-7 -49 -7 -55q-37 1 -106 1h-74l-5 -103q5 0 15.5 0.5t16.5 0.5q80 0 124 -31.5t44 -86.5q0 -54 -43.5 -87.5
t-116.5 -33.5q-61 0 -107 15zM110 600l-22 47q61 52 134 52q57 0 92.5 -29t35.5 -78q0 -38 -21 -71t-67 -77q-38 -36 -104 -90q113 0 203 3q-3 -54 -3 -55q-88 2 -137 2q-52 0 -140 -2l-7 41q128 108 151 131q68 67 68 110q0 29 -20.5 46t-55.5 17q-54 0 -107 -47zM272 -13
l-45 21q44 59 115 160l260 377q90 130 106 158q30 -14 47 -23q-22 -28 -83 -116l-331 -479q-14 -22 -69 -98z" />
    <glyph glyph-name="threefifths" unicode="&#x2157;" horiz-adv-x="934" 
d="M600 7l-7 53q61 -18 108 -18q50 0 79 20t29 51q0 71 -131 71q-31 0 -60 -4l-6 5q0 10 1.5 33t1.5 29l3 65q1 22 1 68l7 7q98 -2 116 -2q21 0 117 2q-7 -49 -7 -55q-37 1 -106 1h-74l-5 -103q5 0 15.5 0.5t16.5 0.5q80 0 124 -31.5t44 -86.5q0 -54 -43.5 -87.5
t-116.5 -33.5q-61 0 -107 15zM88 311l-8 53q59 -18 109 -18t80 17t30 44q0 67 -148 70l-7 38q148 24 148 84q0 21 -21.5 35t-60.5 14q-61 0 -110 -31l-17 46q66 35 133 35q61 0 97.5 -25.5t36.5 -65.5q0 -71 -117 -102q125 -18 125 -97q0 -50 -45.5 -81.5t-117.5 -31.5
q-56 0 -107 16zM254 -13l-45 21q44 59 115 160l260 377q90 130 106 158q30 -14 47 -23q-22 -28 -83 -116l-331 -479q-14 -22 -69 -98z" />
    <glyph glyph-name="fourfifths" unicode="&#x2158;" horiz-adv-x="934" 
d="M253 304q2 18 2 83v15h-40q-116 0 -157 -2l-9 41l165 209q6 7 23 28t21 26l50 -4q-1 -13 -1 -70v-182q49 0 67 1q-5 -30 -5 -48q-8 0 -29 0.5t-33 0.5v-34q0 -51 1 -64h-55zM600 7l-7 53q61 -18 108 -18q50 0 79 20t29 51q0 71 -131 71q-31 0 -60 -4l-6 5q0 10 1.5 33
t1.5 29l3 65q1 22 1 68l7 7q98 -2 116 -2q21 0 117 2q-7 -49 -7 -55q-37 1 -106 1h-74l-5 -103q5 0 15.5 0.5t16.5 0.5q80 0 124 -31.5t44 -86.5q0 -54 -43.5 -87.5t-116.5 -33.5q-61 0 -107 15zM261 -13l-45 21q44 59 115 160l260 377q90 130 106 158q30 -14 47 -23
q-22 -28 -83 -116l-331 -479q-14 -22 -69 -98zM257 634l-148 -188q128 0 148 1v187z" />
    <glyph glyph-name="onesixth" unicode="&#x2159;" horiz-adv-x="840" 
d="M747 350q-169 -25 -203 -152q40 48 110 48q55 0 92.5 -34.5t37.5 -85.5q0 -57 -42 -96.5t-108 -39.5q-67 0 -106.5 41.5t-39.5 114.5q0 100 65 168.5t183 84.5zM172 -13l-45 21q44 59 115 160l260 377q90 130 106 158q30 -14 47 -23q-22 -28 -83 -116l-331 -479
q-14 -22 -69 -98zM158 632l-86 -25l-11 49q1 0 101 31l40 12l14 -5q-2 -12 -2 -68v-255q0 -54 2 -67h-61q3 33 3 112v216zM728 123q0 37 -24 58.5t-64 21.5q-39 0 -66.5 -24t-27.5 -59q0 -36 25 -59.5t65 -23.5q41 0 66.5 24.5t25.5 61.5z" />
    <glyph glyph-name="fivesixths" unicode="&#x215a;" horiz-adv-x="934" 
d="M841 350q-169 -25 -203 -152q40 48 110 48q55 0 92.5 -34.5t37.5 -85.5q0 -57 -42 -96.5t-108 -39.5q-67 0 -106.5 41.5t-39.5 114.5q0 100 65 168.5t183 84.5zM75 311l-7 53q61 -18 108 -18q51 0 79.5 19.5t28.5 51.5q0 71 -131 71q-31 0 -60 -4l-6 4q0 10 1.5 32.5
t1.5 30.5l3 65q1 22 1 68l7 6q23 0 55 -0.5t61 -0.5q21 0 117 2q-7 -49 -7 -55q-37 1 -106 1h-74l-5 -104q11 1 32 1q80 0 124 -31t44 -86q0 -54 -43.5 -88t-116.5 -34q-58 0 -107 16zM259 -13l-45 21q44 59 115 160l260 377q90 130 106 158q30 -14 47 -23q-22 -28 -83 -116
l-331 -479q-14 -22 -69 -98zM822 123q0 37 -24 58.5t-64 21.5q-39 0 -66.5 -24t-27.5 -59q0 -36 25 -59.5t65 -23.5q41 0 66.5 24.5t25.5 61.5z" />
    <glyph glyph-name="oneeighth" unicode="&#x215b;" horiz-adv-x="840" 
d="M636 -10q-65 0 -105 29.5t-40 76.5q0 73 98 103q-84 30 -84 93q0 45 39 75t98 30q58 0 95.5 -29t38.5 -72q1 -33 -20.5 -55.5t-64.5 -39.5q94 -35 94 -100q0 -49 -41.5 -80t-107.5 -31zM163 -13l-45 21q44 59 115 160l260 377q90 130 106 158q30 -14 47 -23
q-22 -28 -83 -116l-331 -479q-14 -22 -69 -98zM158 632l-86 -25l-11 49q1 0 101 31l40 12l14 -5q-2 -12 -2 -68v-255q0 -54 2 -67h-61q3 33 3 112v216zM728 101q0 50 -92 77q-89 -24 -89 -79q0 -28 25.5 -46t66.5 -18t65 18.5t24 47.5zM559 294q0 -47 86 -72q77 21 77 70
q0 26 -22.5 43t-58.5 17q-37 0 -59.5 -17t-22.5 -41z" />
    <glyph glyph-name="threeeighths" unicode="&#x215c;" horiz-adv-x="934" 
d="M730 -10q-65 0 -105 29.5t-40 76.5q0 73 98 103q-84 30 -84 93q0 45 39 75t98 30q58 0 95.5 -29t38.5 -72q1 -33 -20.5 -55.5t-64.5 -39.5q94 -35 94 -100q0 -49 -41.5 -80t-107.5 -31zM88 311l-8 53q59 -18 109 -18t80 17t30 44q0 67 -148 70l-7 38q148 24 148 84
q0 21 -21.5 35t-60.5 14q-61 0 -110 -31l-17 46q66 35 133 35q61 0 97.5 -25.5t36.5 -65.5q0 -71 -117 -102q125 -18 125 -97q0 -50 -45.5 -81.5t-117.5 -31.5q-56 0 -107 16zM256 -13l-45 21q44 59 115 160l260 377q90 130 106 158q30 -14 47 -23q-22 -28 -83 -116
l-331 -479q-14 -22 -69 -98zM822 101q0 50 -92 77q-89 -24 -89 -79q0 -28 25.5 -46t66.5 -18t65 18.5t24 47.5zM653 294q0 -47 86 -72q77 21 77 70q0 26 -22.5 43t-58.5 17q-37 0 -59.5 -17t-22.5 -41z" />
    <glyph glyph-name="fiveeighths" unicode="&#x215d;" horiz-adv-x="934" 
d="M730 -10q-65 0 -105 29.5t-40 76.5q0 73 98 103q-84 30 -84 93q0 45 39 75t98 30q58 0 95.5 -29t38.5 -72q1 -33 -20.5 -55.5t-64.5 -39.5q94 -35 94 -100q0 -49 -41.5 -80t-107.5 -31zM75 311l-7 53q61 -18 108 -18q51 0 79.5 19.5t28.5 51.5q0 71 -131 71q-31 0 -60 -4
l-6 4q0 10 1.5 32.5t1.5 30.5l3 65q1 22 1 68l7 6q23 0 55 -0.5t61 -0.5q21 0 117 2q-7 -49 -7 -55q-37 1 -106 1h-74l-5 -104q11 1 32 1q80 0 124 -31t44 -86q0 -54 -43.5 -88t-116.5 -34q-58 0 -107 16zM251 -13l-45 21q44 59 115 160l260 377q90 130 106 158
q30 -14 47 -23q-22 -28 -83 -116l-331 -479q-14 -22 -69 -98zM822 101q0 50 -92 77q-89 -24 -89 -79q0 -28 25.5 -46t66.5 -18t65 18.5t24 47.5zM653 294q0 -47 86 -72q77 21 77 70q0 26 -22.5 43t-58.5 17q-37 0 -59.5 -17t-22.5 -41z" />
    <glyph glyph-name="seveneighths" unicode="&#x215e;" horiz-adv-x="934" 
d="M730 -10q-65 0 -105 29.5t-40 76.5q0 73 98 103q-84 30 -84 93q0 45 39 75t98 30q58 0 95.5 -29t38.5 -72q1 -33 -20.5 -55.5t-64.5 -39.5q94 -35 94 -100q0 -49 -41.5 -80t-107.5 -31zM219 -13l-45 21q44 59 115 160l260 377q90 130 106 158q30 -14 47 -23
q-22 -28 -83 -116l-331 -479q-14 -22 -69 -98zM96 689q96 -2 135 -2q49 0 145 2l11 -30q-5 -8 -17.5 -32t-17.5 -33l-124 -222q-30 -55 -38 -75l-62 8q12 18 57 97l130 233h-98q-87 0 -125 -1q4 26 4 55zM822 101q0 50 -92 77q-89 -24 -89 -79q0 -28 25.5 -46t66.5 -18
t65 18.5t24 47.5zM653 294q0 -47 86 -72q77 21 77 70q0 26 -22.5 43t-58.5 17q-37 0 -59.5 -17t-22.5 -41z" />
    <glyph glyph-name="minus" unicode="&#x2212;" horiz-adv-x="552" 
d="M455 301q-4 -30 -4 -58q-26 0 -76 0.5t-80 0.5h-44q-32 0 -81 -0.5t-73 -0.5q2 28 2 58q120 -2 178 -2q115 0 178 2z" />
    <glyph glyph-name="box.1" unicode="&#xe000;" horiz-adv-x="786" 
d="M705 13l-13 -13h-602l-13 6q6 48 6 201v246q0 144 -6 191l14 13h602l12 -6q-3 -36 -3 -123v-404q0 -75 3 -111z" />
    <glyph glyph-name="box.2" unicode="&#xe001;" horiz-adv-x="786" 
d="M705 10l-10 -10h-607l-9 5q4 40 4 190v267q0 142 -4 185l10 10h607l9 -5q-3 -24 -3 -124v-410q0 -72 3 -108zM153 61h481q1 12 1 127v228q0 145 -4 180h-480v-422q0 -90 2 -113z" />
    <glyph glyph-name="arrow.1_W" unicode="&#xe01d;" horiz-adv-x="789" 
d="M51 240v12q12 10 131.5 115.5t127.5 111.5q35 -39 40 -46q-18 -14 -63.5 -53t-69.5 -58l-56 -46h348q33 0 116 0.5t112 0.5q-3 -22 -3 -60q-117 3 -308 3q-183 0 -264 -1l58 -47q97 -81 133 -108l-41 -49q-12 10 -130 112.5t-131 112.5z" />
    <glyph glyph-name="arrow.1_E" unicode="&#xe01f;" horiz-adv-x="789" 
d="M53 217q3 23 3 60q117 -3 308 -3q102 0 264 2l-58 46q-71 60 -133 108l41 49q12 -10 130 -112t131 -112v-13q-12 -10 -131.5 -115.5t-127.5 -111.5q-34 37 -41 47q20 15 67.5 55.5t66.5 55.5l56 45q-20 0 -65 0.5t-77 0.5h-205q-111 0 -229 -2z" />
    <glyph glyph-name="G.alt" horiz-adv-x="739" 
d="M660 143v-90q-108 -70 -240 -70q-155 0 -258.5 104.5t-103.5 254.5q0 159 107 268.5t269 109.5q57 0 116 -17t100 -45l-22 -68q-37 29 -92 46t-110 17q-129 0 -211 -86.5t-82 -216.5q0 -134 84 -217.5t211 -83.5q88 0 160 39v140q0 100 -3 124q77 0 79 1q0 -1 -2 -87.5
t-2 -122.5z" />
    <glyph glyph-name="J.alt" horiz-adv-x="301" 
d="M126 -3v465q0 181 -5 241q49 0 81 4q-2 -29 -2 -147v-568q0 -102 -39.5 -150t-127.5 -48q-26 0 -53 6l-9 69q30 -6 52 -6q58 0 80.5 29t22.5 105z" />
    <glyph glyph-name="a.sc" horiz-adv-x="534" 
d="M21 0l164 361q54 119 65 147l26 5l171 -377q22 -49 65 -135l-76 -6l-67 150h-212l-8 -19q-8 -18 -18.5 -43.5t-20.5 -50.5t-13 -32h-76zM263 395l-84 -195h167z" />
    <glyph glyph-name="b.sc" horiz-adv-x="476" 
d="M240 0h-157q3 35 3 172v158q0 137 -3 171q9 0 64 2t79 2q90 0 135 -36t45 -91q0 -40 -23.5 -69t-63.5 -42q54 -13 82.5 -45.5t28.5 -77.5q0 -65 -50 -104.5t-140 -39.5zM155 63q38 -3 79 -3q126 0 126 87q0 88 -141 88q-31 0 -65 -2v-123q0 -33 1 -47zM154 288
q10 -1 64 -1q59 0 89.5 21.5t30.5 59.5q0 77 -118 77q-37 0 -65 -2q-1 -9 -1 -43v-112z" />
    <glyph glyph-name="c.sc" horiz-adv-x="509" 
d="M465 116l-5 -76q-71 -53 -161 -53q-109 0 -180 74t-71 179q0 115 75.5 194t189.5 79q84 0 147 -41l-17 -64q-60 43 -129 43q-84 0 -139 -58t-55 -142q0 -90 52.5 -145.5t135.5 -55.5q84 0 157 66z" />
    <glyph glyph-name="d.sc" horiz-adv-x="549" 
d="M501 263q0 -117 -73.5 -190t-194.5 -73h-150q3 35 3 172v158q0 137 -3 171q7 0 55.5 2t86.5 2q129 0 202.5 -67.5t73.5 -174.5zM430 257q0 84 -54 135.5t-149 51.5q-33 0 -69 -2q-1 -15 -1 -54v-274q0 -35 1 -50q32 -3 69 -3q100 0 151.5 55t51.5 141z" />
    <glyph glyph-name="e.sc" horiz-adv-x="429" 
d="M390 62q-3 -22 -5 -65q-57 4 -153 4q-92 0 -149 -4q3 35 3 173v162q0 139 -4 173q66 -3 145 -3q85 0 150 3q-5 -33 -5 -63q-40 1 -137 1h-78q-1 -16 -1 -50v-102l190 1q-2 -17 -2 -60l-188 1v-123q0 -34 1 -50q11 0 38 -0.5t39 -0.5q86 0 156 3z" />
    <glyph glyph-name="f.sc" horiz-adv-x="409" 
d="M374 505q-5 -33 -5 -63q-19 0 -63 0.5t-69 0.5q-59 0 -79 -1q-1 -16 -1 -54v-104l178 1q-2 -17 -2 -60l-176 1v-123q0 -83 2 -103h-76q3 35 3 172v160q0 139 -4 173q66 -3 147 -3t145 3z" />
    <glyph glyph-name="g.sc" horiz-adv-x="551" 
d="M477 468l-21 -61q-62 44 -134 44q-87 0 -144.5 -58t-57.5 -142q0 -90 54.5 -145.5t138.5 -55.5q56 0 106 24v136h-50q-52 0 -90 -1q2 34 0 61q84 -2 98 -2q31 0 111 2q-4 -37 -4 -166v-66q-81 -51 -180 -51q-110 0 -183 74.5t-73 178.5q0 115 78 194t195 79q93 0 156 -45
z" />
    <glyph glyph-name="g.sc_alt" horiz-adv-x="551" 
d="M477 468l-21 -61q-62 44 -134 44q-87 0 -144.5 -58t-57.5 -142q0 -90 54.5 -145.5t138.5 -55.5q56 0 104 23v91q0 73 -2 89q72 0 73 1q-4 -72 -4 -149v-67q-81 -51 -180 -51q-110 0 -183 74.5t-73 178.5q0 115 78 194t195 79q93 0 156 -45z" />
    <glyph glyph-name="h.sc" horiz-adv-x="579" 
d="M496 0h-78q5 44 5 170v60h-266v-127q0 -83 2 -103h-77q4 47 4 172v158q0 126 -4 171q52 0 77 4q-2 -21 -2 -106v-110h266v42q0 127 -5 170q53 0 78 4q-3 -21 -3 -106v-296q0 -83 3 -103z" />
    <glyph glyph-name="i.sc" horiz-adv-x="249" 
d="M163 0h-77q4 47 4 172v158q0 126 -4 171q52 0 77 4q-3 -21 -3 -106v-296q0 -83 3 -103z" />
    <glyph glyph-name="j.sc" horiz-adv-x="327" 
d="M176 330q0 126 -4 171q52 0 77 4q-3 -25 -3 -106v-262q0 -78 -30 -114t-100 -36q-47 0 -91 18l4 66q40 -19 80 -19q67 0 67 79v199z" />
    <glyph glyph-name="k.sc" horiz-adv-x="494" 
d="M473 1l-83 -6l-233 252v-144q0 -63 2 -103h-77q5 58 5 172v158q0 114 -5 171q52 0 77 4q-2 -42 -2 -106v-133l95 103q90 95 123 134h89l-235 -243l115 -122q88 -96 129 -137z" />
    <glyph glyph-name="l.sc" horiz-adv-x="410" 
d="M82 -3q4 47 4 174v159q0 126 -4 171q52 0 77 4q-2 -21 -2 -106v-285q0 -38 1 -53q10 0 38 -0.5t38 -0.5q57 0 149 2q-3 -22 -5 -65q-59 4 -147 4q-90 0 -149 -4z" />
    <glyph glyph-name="m.sc" horiz-adv-x="670" 
d="M618 0l-73 -5q-1 24 -13 110l-33 240l-152 -350l-26 -6q-4 9 -32.5 75.5t-68.5 158t-52 120.5l-32 -241q-1 -8 -2.5 -22l-3 -28t-3 -26.5t-2 -19.5t-0.5 -6h-73q14 63 29 169l24 174q15 104 20 169l28 5q9 -21 27 -61t21 -47l135 -300l133 298q15 33 47 109h26
q4 -27 22 -167l25 -177q17 -114 29 -172z" />
    <glyph glyph-name="n.sc" horiz-adv-x="589" 
d="M80 0q5 58 5 172l2 165q0 137 -3 171l27 5l327 -387v204q0 126 -4 171q50 0 75 4q0 -2 -4 -106l-3 -300q0 -86 2 -106l-27 -6l-325 385v-269q0 -63 2 -103h-74z" />
    <glyph glyph-name="o.sc" horiz-adv-x="599" 
d="M306 513q108 0 176.5 -72.5t68.5 -177.5q0 -118 -73 -197t-186 -79q-107 0 -175.5 73t-68.5 178q0 117 72.5 196t185.5 79zM297 48q80 0 131 59.5t51 145.5q0 88 -49.5 144t-127.5 56q-80 0 -131 -60t-51 -146q0 -88 49.5 -143.5t127.5 -55.5z" />
    <glyph glyph-name="p.sc" horiz-adv-x="444" 
d="M82 502q10 0 61.5 1.5t74.5 1.5q95 0 145.5 -42t50.5 -109q0 -78 -54 -123t-162 -45q-30 0 -41 1v-84q0 -63 2 -103h-77q4 47 4 172v158q0 127 -4 172zM345 344q0 100 -131 100q-38 0 -57 -1q-1 -11 -1 -53v-146q12 -1 43 -1q70 0 108 26t38 75z" />
    <glyph glyph-name="q.sc" horiz-adv-x="600" 
d="M306 513q108 0 176.5 -72.5t68.5 -177.5q0 -88 -43 -157.5t-116 -99.5l85 -22q76 -22 129 -33l-46 -54l-281 90q-102 5 -166.5 77.5t-64.5 173.5q0 117 72.5 196t185.5 79zM302 453q-80 0 -131 -60t-51 -146q0 -88 49.5 -143.5t127.5 -55.5q80 0 131 59.5t51 145.5
q0 88 -49.5 144t-127.5 56z" />
    <glyph glyph-name="r.sc" horiz-adv-x="484" 
d="M458 3l-81 -9l-131 203h-90v-94q0 -63 2 -103h-76q4 47 4 172v158q0 127 -4 172q37 0 139 3q91 1 143 -39.5t51 -104.5q-1 -102 -106 -146l79 -114q51 -74 70 -98zM156 253h81q49 0 78.5 28t29.5 69q0 94 -121 94q-48 0 -67 -1q-1 -11 -1 -44v-146z" />
    <glyph glyph-name="s.sc" horiz-adv-x="410" 
d="M363 137q0 -65 -46.5 -107.5t-123.5 -42.5q-81 0 -147 41l3 71q26 -20 67 -35t80 -15q45 0 71.5 22t26.5 58q0 28 -23.5 51t-57.5 39.5t-68 35.5t-57.5 48t-23.5 67q0 62 44.5 102.5t116.5 40.5t124 -35l-19 -60q-49 34 -105 34q-42 0 -67 -21.5t-25 -53.5
q0 -27 23.5 -48t57.5 -37.5t68 -35t57.5 -49t23.5 -70.5z" />
    <glyph glyph-name="t.sc" horiz-adv-x="475" 
d="M445 505q-4 -40 -4 -65q-53 1 -168 1v-338q0 -83 2 -103h-77q5 58 5 172v146q0 68 -3 123q-120 0 -170 -1q2 18 2 65q94 -3 205 -3q113 0 208 3z" />
    <glyph glyph-name="u.sc" horiz-adv-x="563" 
d="M488 505q-3 -21 -3 -106v-196q0 -106 -56 -160q-56 -56 -154 -56q-89 0 -142.5 49.5t-53.5 137.5v156q0 126 -4 171q51 0 76 4q-2 -42 -2 -106v-204q0 -145 135 -145q61 0 96 35.5t35 99.5v145q0 128 -5 171q51 0 78 4z" />
    <glyph glyph-name="v.sc" horiz-adv-x="502" 
d="M21 500l76 4l158 -390l102 259q22 53 48 127h77l-154 -362q-40 -92 -59 -145l-28 -6l-159 374q-49 113 -61 139z" />
    <glyph glyph-name="w.sc" horiz-adv-x="742" 
d="M720 500l-132 -360q-9 -25 -20.5 -56.5t-18.5 -52t-13 -38.5l-26 -6l-138 383l-86 -234q-9 -26 -27 -74.5t-27 -72.5l-26 -1l-132 374q-29 85 -53 137l75 5l130 -376l87 243q38 109 48 133l26 5l137 -378l79 236l42 133h75z" />
    <glyph glyph-name="x.sc" horiz-adv-x="525" 
d="M118 0h-82l183 253l-73 103q-10 14 -104 145l79 5l142 -205l49 72q8 13 44 65t44 64h81l-177 -246l76 -107l106 -149l-80 -5l-145 212l-49 -72q-62 -87 -94 -135z" />
    <glyph glyph-name="y.sc" horiz-adv-x="474" 
d="M18 501l78 5l143 -231l48 76q15 22 93 151h79l-187 -286v-113q0 -73 3 -103h-77q5 58 5 170v44l-76 119q-54 86 -109 168z" />
    <glyph glyph-name="z.sc" horiz-adv-x="475" 
d="M433 505l15 -14l-307 -431q28 -1 107 -1q85 0 181 2q-4 -38 -5 -64q-60 4 -186 4t-194 -4l-15 15l307 432q-30 1 -102 1q-75 0 -173 -2q3 27 3 62q93 -3 184 -3q113 0 185 3z" />
    <glyph glyph-name="aacute.sc" horiz-adv-x="534" 
d="M21 0l164 361q54 119 65 147l26 5l171 -377q22 -49 65 -135l-76 -6l-67 150h-212l-8 -19q-8 -18 -18.5 -43.5t-20.5 -50.5t-13 -32h-76zM263 395l-84 -195h167zM314 724l100 7l-145 -146l-49 -4z" />
    <glyph glyph-name="abreve.sc" horiz-adv-x="534" 
d="M21 0l164 361q54 119 65 147l26 5l171 -377q22 -49 65 -135l-76 -6l-67 150h-212l-8 -19q-8 -18 -18.5 -43.5t-20.5 -50.5t-13 -32h-76zM353 732l59 4q2 -71 -38 -111.5t-112 -40.5q-63 0 -103.5 40.5t-40.5 101.5l60 10q0 -47 24 -73.5t64 -26.5q43 0 65.5 27t21.5 69z
M263 395l-84 -195h167z" />
    <glyph glyph-name="acircumflex.sc" horiz-adv-x="534" 
d="M21 0l164 361q54 119 65 147l26 5l171 -377q22 -49 65 -135l-76 -6l-67 150h-212l-8 -19q-8 -18 -18.5 -43.5t-20.5 -50.5t-13 -32h-76zM228 726h81l102 -147l-52 -5l-92 101l-89 -94h-61zM263 395l-84 -195h167z" />
    <glyph glyph-name="adieresis.sc" horiz-adv-x="534" 
d="M21 0l164 361q54 119 65 147l26 5l171 -377q22 -49 65 -135l-76 -6l-67 150h-212l-8 -19q-8 -18 -18.5 -43.5t-20.5 -50.5t-13 -32h-76zM263 395l-84 -195h167zM228 657q0 -22 -13.5 -37t-35.5 -15q-20 0 -33 14t-13 33q0 21 14 36.5t35 15.5q20 0 33 -14t13 -33z
M398 657q0 -21 -14 -36.5t-35 -15.5q-20 0 -33 14t-13 33q0 22 13.5 37t34.5 15q20 0 33.5 -14t13.5 -33z" />
    <glyph glyph-name="agrave.sc" horiz-adv-x="534" 
d="M21 0l164 361q54 119 65 147l26 5l171 -377q22 -49 65 -135l-76 -6l-67 150h-212l-8 -19q-8 -18 -18.5 -43.5t-20.5 -50.5t-13 -32h-76zM263 395l-84 -195h167zM123 724l87 7l93 -146l-45 -4z" />
    <glyph glyph-name="amacron.sc" horiz-adv-x="534" 
d="M21 0l164 361q54 119 65 147l26 5l171 -377q22 -49 65 -135l-76 -6l-67 150h-212l-8 -19q-8 -18 -18.5 -43.5t-20.5 -50.5t-13 -32h-76zM263 395l-84 -195h167zM413 689q-5 -27 -5 -59q-80 2 -113 2h-68q-40 0 -108 -2q3 21 3 59q68 -3 145 -3q74 0 146 3z" />
    <glyph glyph-name="aogonek.sc" horiz-adv-x="534" 
d="M21 0l164 361q54 119 65 147l26 5l171 -377q22 -49 65 -135h-2l1 -1q-110 -68 -110 -122q0 -17 11 -27.5t32 -10.5q30 0 63 23l-4 -49q-30 -22 -71 -22t-64.5 21t-23.5 56q0 63 91 127l-66 149h-212l-8 -19q-8 -18 -18.5 -43.5t-20.5 -50.5t-13 -32h-76zM263 395
l-84 -195h167z" />
    <glyph glyph-name="aring.sc" horiz-adv-x="534" 
d="M21 0l164 361q37 81 52 115q-38 8 -61 36t-23 64q0 48 31.5 79.5t82.5 31.5q49 0 79 -29t30 -71q0 -40 -22.5 -70t-61.5 -40l155 -341q22 -49 65 -135l-76 -6l-67 150h-212l-8 -19q-8 -18 -18.5 -43.5t-20.5 -50.5t-13 -32h-76zM263 395l-84 -195h167zM327 582
q0 28 -16.5 46t-44.5 18q-29 0 -46.5 -18.5t-17.5 -46.5t17 -46.5t45 -18.5q29 0 46 19t17 47z" />
    <glyph glyph-name="aringacute.sc" horiz-adv-x="534" 
d="M21 0l164 361q37 81 52 115q-38 8 -61 36t-23 64q0 48 31.5 79.5t82.5 31.5q49 0 79 -29t30 -71q0 -40 -22.5 -70t-61.5 -40l155 -341q22 -49 65 -135l-76 -6l-67 150h-212l-8 -19q-8 -18 -18.5 -43.5t-20.5 -50.5t-13 -32h-76zM263 395l-84 -195h167zM327 582
q0 28 -16.5 46t-44.5 18q-29 0 -46.5 -18.5t-17.5 -46.5t17 -46.5t45 -18.5q29 0 46 19t17 47zM315 897l100 7l-145 -146l-49 -4z" />
    <glyph glyph-name="atilde.sc" horiz-adv-x="534" 
d="M21 0l164 361q54 119 65 147l26 5l171 -377q22 -49 65 -135l-76 -6l-67 150h-212l-8 -19q-8 -18 -18.5 -43.5t-20.5 -50.5t-13 -32h-76zM104 601q12 67 35.5 95t60.5 28q30 0 78.5 -35t64.5 -35q29 0 44 74l52 -8q-21 -126 -97 -126q-30 0 -79 35t-65 35t-25 -15.5
t-16 -55.5zM263 395l-84 -195h167z" />
    <glyph glyph-name="cacute.sc" horiz-adv-x="509" 
d="M344 724l100 7l-145 -146l-49 -4zM465 116l-5 -76q-71 -53 -161 -53q-109 0 -180 74t-71 179q0 115 75.5 194t189.5 79q84 0 147 -41l-17 -64q-60 43 -129 43q-84 0 -139 -58t-55 -142q0 -90 52.5 -145.5t135.5 -55.5q84 0 157 66z" />
    <glyph glyph-name="ccaron.sc" horiz-adv-x="509" 
d="M333 586h-80l-104 145l53 5l92 -99l90 94h59zM465 116l-5 -76q-71 -53 -161 -53q-109 0 -180 74t-71 179q0 115 75.5 194t189.5 79q84 0 147 -41l-17 -64q-60 43 -129 43q-84 0 -139 -58t-55 -142q0 -90 52.5 -145.5t135.5 -55.5q84 0 157 66z" />
    <glyph glyph-name="ccedilla.sc" horiz-adv-x="509" 
d="M465 116l-5 -76q-71 -53 -161 -53h-1l-15 -54q100 -28 100 -86q0 -31 -26 -52.5t-72 -21.5q-39 0 -83 15l10 46q40 -16 78 -16q42 0 42 27q0 32 -93 53l-4 4q13 40 25 88q-95 13 -153.5 84t-58.5 166q0 115 75.5 194t189.5 79q84 0 147 -41l-17 -64q-60 43 -129 43
q-84 0 -139 -58t-55 -142q0 -90 52.5 -145.5t135.5 -55.5q84 0 157 66z" />
    <glyph glyph-name="cdotaccent.sc" horiz-adv-x="509" 
d="M465 116l-5 -76q-71 -53 -161 -53q-109 0 -180 74t-71 179q0 115 75.5 194t189.5 79q84 0 147 -41l-17 -64q-60 43 -129 43q-84 0 -139 -58t-55 -142q0 -90 52.5 -145.5t135.5 -55.5q84 0 157 66zM342 657q0 -22 -13.5 -37t-34.5 -15q-20 0 -33 14t-13 33q0 22 13.5 37
t34.5 15q20 0 33 -14t13 -33z" />
    <glyph glyph-name="dcaron.sc" horiz-adv-x="549" 
d="M501 263q0 -117 -73.5 -190t-194.5 -73h-150q3 35 3 172v158q0 137 -3 171q7 0 55.5 2t86.5 2q129 0 202.5 -67.5t73.5 -174.5zM430 257q0 84 -54 135.5t-149 51.5q-33 0 -69 -2q-1 -15 -1 -54v-274q0 -35 1 -50q32 -3 69 -3q100 0 151.5 55t51.5 141zM309 586h-80
l-104 145l53 5l92 -99l90 94h59z" />
    <glyph glyph-name="dcroat.sc" horiz-adv-x="549" 
d="M501 263q0 -117 -73.5 -190t-194.5 -73h-150q3 35 3 172v54l-63 -2q3 24 3 61l60 -3v48q0 137 -3 171q7 0 55.5 2t86.5 2q129 0 202.5 -67.5t73.5 -174.5zM430 257q0 84 -54 135.5t-149 51.5q-33 0 -69 -2q-1 -15 -1 -54v-106q59 0 111 3q-5 -28 -5 -61q-66 2 -98 2h-8
v-112q0 -35 1 -50q32 -3 69 -3q100 0 151.5 55t51.5 141z" />
    <glyph glyph-name="eacute.sc" horiz-adv-x="429" 
d="M390 62q-3 -22 -5 -65q-57 4 -153 4q-92 0 -149 -4q3 35 3 173v162q0 139 -4 173q66 -3 145 -3q85 0 150 3q-5 -33 -5 -63q-40 1 -137 1h-78q-1 -16 -1 -50v-102l190 1q-2 -17 -2 -60l-188 1v-123q0 -34 1 -50q11 0 38 -0.5t39 -0.5q86 0 156 3zM281 724l100 7l-145 -146
l-49 -4z" />
    <glyph glyph-name="ebreve.sc" horiz-adv-x="429" 
d="M390 62q-3 -22 -5 -65q-57 4 -153 4q-92 0 -149 -4q3 35 3 173v162q0 139 -4 173q66 -3 145 -3q85 0 150 3q-5 -33 -5 -63q-40 1 -137 1h-78q-1 -16 -1 -50v-102l190 1q-2 -17 -2 -60l-188 1v-123q0 -34 1 -50q11 0 38 -0.5t39 -0.5q86 0 156 3zM320 732l59 4
q2 -71 -38 -111.5t-112 -40.5q-63 0 -103.5 40.5t-40.5 101.5l60 10q0 -47 24 -73.5t64 -26.5q43 0 65.5 27t21.5 69z" />
    <glyph glyph-name="ecaron.sc" horiz-adv-x="429" 
d="M390 62q-3 -22 -5 -65q-57 4 -153 4q-92 0 -149 -4q3 35 3 173v162q0 139 -4 173q66 -3 145 -3q85 0 150 3q-5 -33 -5 -63q-40 1 -137 1h-78q-1 -16 -1 -50v-102l190 1q-2 -17 -2 -60l-188 1v-123q0 -34 1 -50q11 0 38 -0.5t39 -0.5q86 0 156 3zM270 586h-80l-104 145
l53 5l92 -99l90 94h59z" />
    <glyph glyph-name="ecircumflex.sc" horiz-adv-x="429" 
d="M390 62q-3 -22 -5 -65q-57 4 -153 4q-92 0 -149 -4q3 35 3 173v162q0 139 -4 173q66 -3 145 -3q85 0 150 3q-5 -33 -5 -63q-40 1 -137 1h-78q-1 -16 -1 -50v-102l190 1q-2 -17 -2 -60l-188 1v-123q0 -34 1 -50q11 0 38 -0.5t39 -0.5q86 0 156 3zM196 732h81l102 -147
l-52 -5l-92 101l-89 -94h-61z" />
    <glyph glyph-name="edieresis.sc" horiz-adv-x="429" 
d="M390 62q-3 -22 -5 -65q-57 4 -153 4q-92 0 -149 -4q3 35 3 173v162q0 139 -4 173q66 -3 145 -3q85 0 150 3q-5 -33 -5 -63q-40 1 -137 1h-78q-1 -16 -1 -50v-102l190 1q-2 -17 -2 -60l-188 1v-123q0 -34 1 -50q11 0 38 -0.5t39 -0.5q86 0 156 3zM196 657q0 -22 -13.5 -37
t-35.5 -15q-20 0 -33 14t-13 33q0 21 14 36.5t35 15.5q20 0 33 -14t13 -33zM366 657q0 -21 -14 -36.5t-35 -15.5q-20 0 -33 14t-13 33q0 22 13.5 37t34.5 15q20 0 33.5 -14t13.5 -33z" />
    <glyph glyph-name="edotaccent.sc" horiz-adv-x="429" 
d="M390 62q-3 -22 -5 -65q-57 4 -153 4q-92 0 -149 -4q3 35 3 173v162q0 139 -4 173q66 -3 145 -3q85 0 150 3q-5 -33 -5 -63q-40 1 -137 1h-78q-1 -16 -1 -50v-102l190 1q-2 -17 -2 -60l-188 1v-123q0 -34 1 -50q11 0 38 -0.5t39 -0.5q86 0 156 3zM280 657q0 -22 -13.5 -37
t-34.5 -15q-20 0 -33 14t-13 33q0 22 13.5 37t34.5 15q20 0 33 -14t13 -33z" />
    <glyph glyph-name="egrave.sc" horiz-adv-x="429" 
d="M390 62q-3 -22 -5 -65q-57 4 -153 4q-92 0 -149 -4q3 35 3 173v162q0 139 -4 173q66 -3 145 -3q85 0 150 3q-5 -33 -5 -63q-40 1 -137 1h-78q-1 -16 -1 -50v-102l190 1q-2 -17 -2 -60l-188 1v-123q0 -34 1 -50q11 0 38 -0.5t39 -0.5q86 0 156 3zM91 724l87 7l93 -146
l-45 -4z" />
    <glyph glyph-name="emacron.sc" horiz-adv-x="429" 
d="M390 62q-3 -22 -5 -65q-57 4 -153 4q-92 0 -149 -4q3 35 3 173v162q0 139 -4 173q66 -3 145 -3q85 0 150 3q-5 -33 -5 -63q-40 1 -137 1h-78q-1 -16 -1 -50v-102l190 1q-2 -17 -2 -60l-188 1v-123q0 -34 1 -50q11 0 38 -0.5t39 -0.5q86 0 156 3zM380 689q-5 -27 -5 -59
q-80 2 -113 2h-68q-40 0 -108 -2q3 21 3 59q68 -3 145 -3q74 0 146 3z" />
    <glyph glyph-name="eogonek.sc" horiz-adv-x="429" 
d="M390 62q-3 -22 -5 -65q-1 0 -3 1h-1v-1q-110 -65 -110 -119q0 -17 11 -27.5t31 -10.5q31 0 64 23l-4 -49q-30 -22 -71 -22t-64.5 21t-23.5 56q0 64 106 131q-29 1 -88 1q-92 0 -149 -4q3 35 3 173v162q0 139 -4 173q66 -3 145 -3q85 0 150 3q-5 -33 -5 -63q-40 1 -137 1
h-78q-1 -16 -1 -50v-102l190 1q-2 -17 -2 -60l-188 1v-123q0 -34 1 -50q11 0 38 -0.5t39 -0.5q86 0 156 3z" />
    <glyph glyph-name="gbreve.sc" horiz-adv-x="551" 
d="M477 468l-21 -61q-62 44 -134 44q-87 0 -144.5 -58t-57.5 -142q0 -90 54.5 -145.5t138.5 -55.5q56 0 106 24v136h-50q-52 0 -90 -1q2 34 0 61q84 -2 98 -2q31 0 111 2q-4 -37 -4 -166v-66q-81 -51 -180 -51q-110 0 -183 74.5t-73 178.5q0 115 78 194t195 79q93 0 156 -45
zM386 732l59 4q2 -71 -38 -111.5t-112 -40.5q-63 0 -103.5 40.5t-40.5 101.5l60 10q0 -47 24 -73.5t64 -26.5q43 0 65.5 27t21.5 69z" />
    <glyph glyph-name="Gbreve.alt" horiz-adv-x="739" 
d="M660 143v-90q-108 -70 -240 -70q-155 0 -258.5 104.5t-103.5 254.5q0 159 107 268.5t269 109.5q57 0 116 -17t100 -45l-22 -68q-37 29 -92 46t-110 17q-129 0 -211 -86.5t-82 -216.5q0 -134 84 -217.5t211 -83.5q88 0 160 39v140q0 100 -3 124q77 0 79 1q0 -1 -2 -87.5
t-2 -122.5zM495 924l59 4q2 -71 -38 -111.5t-112 -40.5q-63 0 -103.5 40.5t-40.5 101.5l60 10q0 -47 24 -73.5t64 -26.5q43 0 65.5 27t21.5 69z" />
    <glyph glyph-name="gbreve.sc_alt" horiz-adv-x="551" 
d="M477 468l-21 -61q-62 44 -134 44q-87 0 -144.5 -58t-57.5 -142q0 -90 54.5 -145.5t138.5 -55.5q56 0 104 23v91q0 73 -2 89q72 0 73 1q-4 -72 -4 -149v-67q-81 -51 -180 -51q-110 0 -183 74.5t-73 178.5q0 115 78 194t195 79q93 0 156 -45zM390 732l59 4
q2 -71 -38 -111.5t-112 -40.5q-63 0 -103.5 40.5t-40.5 101.5l60 10q0 -47 24 -73.5t64 -26.5q43 0 65.5 27t21.5 69z" />
    <glyph glyph-name="gcommaaccent.sc" horiz-adv-x="551" 
d="M477 468l-21 -61q-62 44 -134 44q-87 0 -144.5 -58t-57.5 -142q0 -90 54.5 -145.5t138.5 -55.5q56 0 106 24v136h-50q-52 0 -90 -1q2 34 0 61q84 -2 98 -2q31 0 111 2q-4 -37 -4 -166v-66q-81 -51 -180 -51q-110 0 -183 74.5t-73 178.5q0 115 78 194t195 79q93 0 156 -45
zM233 -224l23 17q34 28 34 58q0 23 -30 39l-12 5q11 43 51 43q21 0 35 -16.5t14 -41.5q0 -66 -96 -127z" />
    <glyph glyph-name="Gcommaaccent.alt" horiz-adv-x="739" 
d="M660 143v-90q-108 -70 -240 -70q-155 0 -258.5 104.5t-103.5 254.5q0 159 107 268.5t269 109.5q57 0 116 -17t100 -45l-22 -68q-37 29 -92 46t-110 17q-129 0 -211 -86.5t-82 -216.5q0 -134 84 -217.5t211 -83.5q88 0 160 39v140q0 100 -3 124q77 0 79 1q0 -1 -2 -87.5
t-2 -122.5zM342 -223l23 17q34 28 34 58q0 23 -30 39l-12 5q11 43 51 43q21 0 35 -16.5t14 -41.5q0 -66 -96 -127z" />
    <glyph glyph-name="gcommaaccent.sc_alt" horiz-adv-x="551" 
d="M477 468l-21 -61q-62 44 -134 44q-87 0 -144.5 -58t-57.5 -142q0 -90 54.5 -145.5t138.5 -55.5q56 0 104 23v91q0 73 -2 89q72 0 73 1q-4 -72 -4 -149v-67q-81 -51 -180 -51q-110 0 -183 74.5t-73 178.5q0 115 78 194t195 79q93 0 156 -45zM234 -224l23 17q34 28 34 58
q0 23 -30 39l-12 5q11 43 51 43q21 0 35 -16.5t14 -41.5q0 -66 -96 -127z" />
    <glyph glyph-name="gdotaccent.sc" horiz-adv-x="551" 
d="M477 468l-21 -61q-62 44 -134 44q-87 0 -144.5 -58t-57.5 -142q0 -90 54.5 -145.5t138.5 -55.5q56 0 106 24v136h-50q-52 0 -90 -1q2 34 0 61q84 -2 98 -2q31 0 111 2q-4 -37 -4 -166v-66q-81 -51 -180 -51q-110 0 -183 74.5t-73 178.5q0 115 78 194t195 79q93 0 156 -45
zM345 657q0 -22 -13.5 -37t-34.5 -15q-20 0 -33 14t-13 33q0 22 13.5 37t34.5 15q20 0 33 -14t13 -33z" />
    <glyph glyph-name="Gdotaccent.alt" horiz-adv-x="739" 
d="M660 143v-90q-108 -70 -240 -70q-155 0 -258.5 104.5t-103.5 254.5q0 159 107 268.5t269 109.5q57 0 116 -17t100 -45l-22 -68q-37 29 -92 46t-110 17q-129 0 -211 -86.5t-82 -216.5q0 -134 84 -217.5t211 -83.5q88 0 160 39v140q0 100 -3 124q77 0 79 1q0 -1 -2 -87.5
t-2 -122.5zM455 849q0 -22 -13.5 -37t-34.5 -15q-20 0 -33 14t-13 33q0 22 13.5 37t34.5 15q20 0 33 -14t13 -33z" />
    <glyph glyph-name="gdotaccent.sc_alt" horiz-adv-x="551" 
d="M477 468l-21 -61q-62 44 -134 44q-87 0 -144.5 -58t-57.5 -142q0 -90 54.5 -145.5t138.5 -55.5q56 0 104 23v91q0 73 -2 89q72 0 73 1q-4 -72 -4 -149v-67q-81 -51 -180 -51q-110 0 -183 74.5t-73 178.5q0 115 78 194t195 79q93 0 156 -45zM350 657q0 -22 -13.5 -37
t-34.5 -15q-20 0 -33 14t-13 33q0 22 13.5 37t34.5 15q20 0 33 -14t13 -33z" />
    <glyph glyph-name="hbar.sc" horiz-adv-x="579" 
d="M558 412q-5 -28 -5 -53q-10 0 -30 0.5t-30 0.5v-257q0 -83 3 -103h-78q5 44 5 165v61h-266v-123q0 -83 2 -103h-77q4 47 4 172v158v31q-44 -2 -62 -2q2 32 2 53q19 -1 59 -1q0 33 -3 90q52 0 77 4q-2 -19 -2 -95q40 -1 133 -1h132q0 54 -4 92q53 0 78 4q-3 -19 -3 -95z
M423 283v43v34q-12 0 -35 0.5t-33 0.5h-198v-78h266z" />
    <glyph glyph-name="iacute.sc" horiz-adv-x="249" 
d="M173 724l100 7l-145 -146l-49 -4zM163 0h-77q4 47 4 172v158q0 126 -4 171q52 0 77 4q-3 -21 -3 -106v-296q0 -83 3 -103z" />
    <glyph glyph-name="ibreve.sc" horiz-adv-x="249" 
d="M163 0h-77q4 47 4 172v158q0 126 -4 171q52 0 77 4q-3 -21 -3 -106v-296q0 -83 3 -103zM213 732l59 4q2 -71 -38 -111.5t-112 -40.5q-63 0 -103.5 40.5t-40.5 101.5l60 10q0 -47 24 -73.5t64 -26.5q43 0 65.5 27t21.5 69z" />
    <glyph glyph-name="icircumflex.sc" horiz-adv-x="249" 
d="M89 732h81l102 -147l-52 -5l-92 101l-89 -94h-61zM163 0h-77q4 47 4 172v158q0 126 -4 171q52 0 77 4q-3 -21 -3 -106v-296q0 -83 3 -103z" />
    <glyph glyph-name="idieresis.sc" horiz-adv-x="249" 
d="M88 657q0 -22 -13.5 -37t-35.5 -15q-20 0 -33 14t-13 33q0 21 14 36.5t35 15.5q20 0 33 -14t13 -33zM258 657q0 -21 -14 -36.5t-35 -15.5q-20 0 -33 14t-13 33q0 22 13.5 37t34.5 15q20 0 33.5 -14t13.5 -33zM163 0h-77q4 47 4 172v158q0 126 -4 171q52 0 77 4
q-3 -21 -3 -106v-296q0 -83 3 -103z" />
    <glyph glyph-name="idotaccent.sc" horiz-adv-x="249" 
d="M163 0h-77q4 47 4 172v158q0 126 -4 171q52 0 77 4q-3 -21 -3 -106v-296q0 -83 3 -103zM171 657q0 -22 -13.5 -37t-34.5 -15q-20 0 -33 14t-13 33q0 22 13.5 37t34.5 15q20 0 33 -14t13 -33z" />
    <glyph glyph-name="dotlessi.sc" horiz-adv-x="249" 
d="M163 0h-77q4 47 4 172v158q0 126 -4 171q52 0 77 4q-3 -21 -3 -106v-296q0 -83 3 -103z" />
    <glyph glyph-name="igrave.sc" horiz-adv-x="249" 
d="M163 0h-77q4 47 4 172v158q0 126 -4 171q52 0 77 4q-3 -21 -3 -106v-296q0 -83 3 -103zM-17 724l87 7l93 -146l-45 -4z" />
    <glyph glyph-name="imacron.sc" horiz-adv-x="249" 
d="M163 0h-77q4 47 4 172v158q0 126 -4 171q52 0 77 4q-3 -21 -3 -106v-296q0 -83 3 -103zM273 689q-5 -27 -5 -59q-80 2 -113 2h-68q-40 0 -108 -2q3 21 3 59q68 -3 145 -3q74 0 146 3z" />
    <glyph glyph-name="iogonek.sc" horiz-adv-x="249" 
d="M163 0q-79 -64 -79 -119q0 -18 11 -29.5t31 -11.5q30 0 64 23l-4 -49q-30 -22 -71 -22t-64.5 21.5t-23.5 57.5q0 64 77 129h-18q4 47 4 172v158q0 126 -4 171q52 0 77 4q-3 -21 -3 -106v-296q0 -83 3 -103z" />
    <glyph glyph-name="kcommaaccent.sc" horiz-adv-x="494" 
d="M473 1l-83 -6l-233 252v-144q0 -63 2 -103h-77q5 58 5 172v158q0 114 -5 171q52 0 77 4q-2 -42 -2 -106v-133l95 103q90 95 123 134h89l-235 -243l115 -122q88 -96 129 -137zM209 -223l23 17q34 28 34 58q0 23 -30 39l-12 5q11 43 51 43q21 0 35 -16.5t14 -41.5
q0 -66 -96 -127z" />
    <glyph glyph-name="lacute.sc" horiz-adv-x="410" 
d="M82 -3q4 47 4 174v159q0 126 -4 171q52 0 77 4q-2 -21 -2 -106v-285q0 -38 1 -53q10 0 38 -0.5t38 -0.5q57 0 149 2q-3 -22 -5 -65q-59 4 -147 4q-90 0 -149 -4zM198 710l100 7l-145 -146l-49 -4z" />
    <glyph glyph-name="lcaron.sc" horiz-adv-x="410" 
d="M82 -3q4 47 4 174v159q0 126 -4 171q52 0 77 4q-2 -21 -2 -106v-285q0 -38 1 -53q10 0 38 -0.5t38 -0.5q57 0 149 2q-3 -22 -5 -65q-59 4 -147 4q-90 0 -149 -4zM259 361l-31 -7q7 90 8 150l60 9q-25 -110 -37 -152z" />
    <glyph glyph-name="lcommaaccent.sc" horiz-adv-x="410" 
d="M82 -3q4 47 4 174v159q0 126 -4 171q52 0 77 4q-2 -21 -2 -106v-285q0 -38 1 -53q10 0 38 -0.5t38 -0.5q57 0 149 2q-3 -22 -5 -65q-59 4 -147 4q-90 0 -149 -4zM159 -223l23 17q34 28 34 58q0 23 -30 39l-12 5q11 43 51 43q21 0 35 -16.5t14 -41.5q0 -66 -96 -127z" />
    <glyph glyph-name="ldot.sc" horiz-adv-x="410" 
d="M82 -3q4 47 4 174v159q0 126 -4 171q52 0 77 4q-2 -21 -2 -106v-285q0 -38 1 -53q10 0 38 -0.5t38 -0.5q57 0 149 2q-3 -22 -5 -65q-59 4 -147 4q-90 0 -149 -4zM368 284q0 -22 -13.5 -37t-34.5 -15q-20 0 -33 14t-13 33q0 22 13.5 37t34.5 15q20 0 33 -14t13 -33z" />
    <glyph glyph-name="lslash.sc" horiz-adv-x="410" 
d="M82 -3q4 47 4 174v35l-45 -26q-15 33 -28 51q6 3 32 16.5t41 22.5v60q0 126 -4 171q52 0 77 4q-2 -21 -2 -106v-88l76 47q12 -28 27 -53q-6 -3 -44.5 -24.5t-58.5 -33.5v-133q0 -38 1 -53q10 0 38 -0.5t38 -0.5q57 0 149 2q-3 -22 -5 -65q-59 4 -147 4q-90 0 -149 -4z
" />
    <glyph glyph-name="nacute.sc" horiz-adv-x="589" 
d="M80 0q5 58 5 172l2 165q0 137 -3 171l27 5l327 -387v204q0 126 -4 171q50 0 75 4q0 -2 -4 -106l-3 -300q0 -86 2 -106l-27 -6l-325 385v-269q0 -63 2 -103h-74zM342 724l100 7l-145 -146l-49 -4z" />
    <glyph glyph-name="ncaron.sc" horiz-adv-x="589" 
d="M80 0q5 58 5 172l2 165q0 137 -3 171l27 5l327 -387v204q0 126 -4 171q50 0 75 4q0 -2 -4 -106l-3 -300q0 -86 2 -106l-27 -6l-325 385v-269q0 -63 2 -103h-74zM331 583h-80l-104 145l53 5l92 -99l90 94h59z" />
    <glyph glyph-name="ncommaaccent.sc" horiz-adv-x="589" 
d="M80 0q5 58 5 172l2 165q0 137 -3 171l27 5l327 -387v204q0 126 -4 171q50 0 75 4q0 -2 -4 -106l-3 -300q0 -86 2 -106l-27 -6l-325 385v-269q0 -63 2 -103h-74zM225 -223l23 17q34 28 34 58q0 23 -30 39l-12 5q11 43 51 43q21 0 35 -16.5t14 -41.5q0 -66 -96 -127z" />
    <glyph glyph-name="ntilde.sc" horiz-adv-x="589" 
d="M80 0q5 58 5 172l2 165q0 137 -3 171l27 5l327 -387v204q0 126 -4 171q50 0 75 4q0 -2 -4 -106l-3 -300q0 -86 2 -106l-27 -6l-325 385v-269q0 -63 2 -103h-74zM132 601q12 67 35.5 95t60.5 28q30 0 78.5 -35t64.5 -35q29 0 44 74l52 -8q-21 -126 -97 -126q-30 0 -79 35
t-65 35t-25 -15.5t-16 -55.5z" />
    <glyph glyph-name="oacute.sc" horiz-adv-x="599" 
d="M306 513q108 0 176.5 -72.5t68.5 -177.5q0 -118 -73 -197t-186 -79q-107 0 -175.5 73t-68.5 178q0 117 72.5 196t185.5 79zM297 48q80 0 131 59.5t51 145.5q0 88 -49.5 144t-127.5 56q-80 0 -131 -60t-51 -146q0 -88 49.5 -143.5t127.5 -55.5zM347 724l100 7l-145 -146
l-49 -4z" />
    <glyph glyph-name="obreve.sc" horiz-adv-x="599" 
d="M306 513q108 0 176.5 -72.5t68.5 -177.5q0 -118 -73 -197t-186 -79q-107 0 -175.5 73t-68.5 178q0 117 72.5 196t185.5 79zM297 48q80 0 131 59.5t51 145.5q0 88 -49.5 144t-127.5 56q-80 0 -131 -60t-51 -146q0 -88 49.5 -143.5t127.5 -55.5zM387 732l59 4
q2 -71 -38 -111.5t-112 -40.5q-63 0 -103.5 40.5t-40.5 101.5l60 10q0 -47 24 -73.5t64 -26.5q43 0 65.5 27t21.5 69z" />
    <glyph glyph-name="ocircumflex.sc" horiz-adv-x="599" 
d="M263 732h81l102 -147l-52 -5l-92 101l-89 -94h-61zM306 513q108 0 176.5 -72.5t68.5 -177.5q0 -118 -73 -197t-186 -79q-107 0 -175.5 73t-68.5 178q0 117 72.5 196t185.5 79zM297 48q80 0 131 59.5t51 145.5q0 88 -49.5 144t-127.5 56q-80 0 -131 -60t-51 -146
q0 -88 49.5 -143.5t127.5 -55.5z" />
    <glyph glyph-name="odieresis.sc" horiz-adv-x="599" 
d="M262 657q0 -22 -13.5 -37t-35.5 -15q-20 0 -33 14t-13 33q0 21 14 36.5t35 15.5q20 0 33 -14t13 -33zM432 657q0 -21 -14 -36.5t-35 -15.5q-20 0 -33 14t-13 33q0 22 13.5 37t34.5 15q20 0 33.5 -14t13.5 -33zM306 513q108 0 176.5 -72.5t68.5 -177.5q0 -118 -73 -197
t-186 -79q-107 0 -175.5 73t-68.5 178q0 117 72.5 196t185.5 79zM297 48q80 0 131 59.5t51 145.5q0 88 -49.5 144t-127.5 56q-80 0 -131 -60t-51 -146q0 -88 49.5 -143.5t127.5 -55.5z" />
    <glyph glyph-name="ograve.sc" horiz-adv-x="599" 
d="M306 513q108 0 176.5 -72.5t68.5 -177.5q0 -118 -73 -197t-186 -79q-107 0 -175.5 73t-68.5 178q0 117 72.5 196t185.5 79zM297 48q80 0 131 59.5t51 145.5q0 88 -49.5 144t-127.5 56q-80 0 -131 -60t-51 -146q0 -88 49.5 -143.5t127.5 -55.5zM157 724l87 7l93 -146
l-45 -4z" />
    <glyph glyph-name="ohungarumlaut.sc" horiz-adv-x="599" 
d="M306 513q108 0 176.5 -72.5t68.5 -177.5q0 -118 -73 -197t-186 -79q-107 0 -175.5 73t-68.5 178q0 117 72.5 196t185.5 79zM297 48q80 0 131 59.5t51 145.5q0 88 -49.5 144t-127.5 56q-80 0 -131 -60t-51 -146q0 -88 49.5 -143.5t127.5 -55.5zM248 730l90 7l-91 -155
l-50 -3zM400 731l93 9l-100 -156l-51 -2z" />
    <glyph glyph-name="omacron.sc" horiz-adv-x="599" 
d="M306 513q108 0 176.5 -72.5t68.5 -177.5q0 -118 -73 -197t-186 -79q-107 0 -175.5 73t-68.5 178q0 117 72.5 196t185.5 79zM297 48q80 0 131 59.5t51 145.5q0 88 -49.5 144t-127.5 56q-80 0 -131 -60t-51 -146q0 -88 49.5 -143.5t127.5 -55.5zM447 689q-5 -27 -5 -59
q-80 2 -113 2h-68q-40 0 -108 -2q3 21 3 59q68 -3 145 -3q74 0 146 3z" />
    <glyph glyph-name="oslash.sc" horiz-adv-x="599" 
d="M91 -28l-39 28l60 65q-64 72 -64 173q0 117 72.5 196t185.5 79q85 0 147 -48l52 60q24 -21 37 -29q-8 -9 -27 -31t-27 -31q63 -71 63 -171q0 -118 -73 -197t-186 -79q-82 0 -147 47q-22 -24 -54 -62zM120 247q0 -77 37 -128l253 296q-46 38 -108 38q-80 0 -131 -60
t-51 -146zM297 48q80 0 131 59.5t51 145.5q0 75 -37 128l-253 -297q45 -36 108 -36z" />
    <glyph glyph-name="oslashacute.sc" horiz-adv-x="599" 
d="M91 -28l-39 28l60 65q-64 72 -64 173q0 117 72.5 196t185.5 79q85 0 147 -48l52 60q24 -21 37 -29q-8 -9 -27 -31t-27 -31q63 -71 63 -171q0 -118 -73 -197t-186 -79q-82 0 -147 47q-22 -24 -54 -62zM120 247q0 -77 37 -128l253 296q-46 38 -108 38q-80 0 -131 -60
t-51 -146zM297 48q80 0 131 59.5t51 145.5q0 75 -37 128l-253 -297q45 -36 108 -36zM347 724l100 7l-145 -146l-49 -4z" />
    <glyph glyph-name="otilde.sc" horiz-adv-x="599" 
d="M306 513q108 0 176.5 -72.5t68.5 -177.5q0 -118 -73 -197t-186 -79q-107 0 -175.5 73t-68.5 178q0 117 72.5 196t185.5 79zM297 48q80 0 131 59.5t51 145.5q0 88 -49.5 144t-127.5 56q-80 0 -131 -60t-51 -146q0 -88 49.5 -143.5t127.5 -55.5zM137 601q12 67 35.5 95
t60.5 28q30 0 78.5 -35t64.5 -35q29 0 44 74l52 -8q-21 -126 -97 -126q-30 0 -79 35t-65 35t-25 -15.5t-16 -55.5z" />
    <glyph glyph-name="racute.sc" horiz-adv-x="484" 
d="M458 3l-81 -9l-131 203h-90v-94q0 -63 2 -103h-76q4 47 4 172v158q0 127 -4 172q37 0 139 3q91 1 143 -39.5t51 -104.5q-1 -102 -106 -146l79 -114q51 -74 70 -98zM156 253h81q49 0 78.5 28t29.5 69q0 94 -121 94q-48 0 -67 -1q-1 -11 -1 -44v-146zM284 724l100 7
l-145 -146l-49 -4z" />
    <glyph glyph-name="rcaron.sc" horiz-adv-x="484" 
d="M458 3l-81 -9l-131 203h-90v-94q0 -63 2 -103h-76q4 47 4 172v158q0 127 -4 172q37 0 139 3q91 1 143 -39.5t51 -104.5q-1 -102 -106 -146l79 -114q51 -74 70 -98zM156 253h81q49 0 78.5 28t29.5 69q0 94 -121 94q-48 0 -67 -1q-1 -11 -1 -44v-146zM273 586h-80l-104 145
l53 5l92 -99l90 94h59z" />
    <glyph glyph-name="rcommaaccent.sc" horiz-adv-x="484" 
d="M458 3l-81 -9l-131 203h-90v-94q0 -63 2 -103h-76q4 47 4 172v158q0 127 -4 172q37 0 139 3q91 1 143 -39.5t51 -104.5q-1 -102 -106 -146l79 -114q51 -74 70 -98zM156 253h81q49 0 78.5 28t29.5 69q0 94 -121 94q-48 0 -67 -1q-1 -11 -1 -44v-146zM185 -223l23 17
q34 28 34 58q0 23 -30 39l-12 5q11 43 51 43q21 0 35 -16.5t14 -41.5q0 -66 -96 -127z" />
    <glyph glyph-name="sacute.sc" horiz-adv-x="410" 
d="M268 724l100 7l-145 -146l-49 -4zM363 137q0 -65 -46.5 -107.5t-123.5 -42.5q-81 0 -147 41l3 71q26 -20 67 -35t80 -15q45 0 71.5 22t26.5 58q0 28 -23.5 51t-57.5 39.5t-68 35.5t-57.5 48t-23.5 67q0 62 44.5 102.5t116.5 40.5t124 -35l-19 -60q-49 34 -105 34
q-42 0 -67 -21.5t-25 -53.5q0 -27 23.5 -48t57.5 -37.5t68 -35t57.5 -49t23.5 -70.5z" />
    <glyph glyph-name="scaron.sc" horiz-adv-x="410" 
d="M257 586h-80l-104 145l53 5l92 -99l90 94h59zM363 137q0 -65 -46.5 -107.5t-123.5 -42.5q-81 0 -147 41l3 71q26 -20 67 -35t80 -15q45 0 71.5 22t26.5 58q0 28 -23.5 51t-57.5 39.5t-68 35.5t-57.5 48t-23.5 67q0 62 44.5 102.5t116.5 40.5t124 -35l-19 -60
q-49 34 -105 34q-42 0 -67 -21.5t-25 -53.5q0 -27 23.5 -48t57.5 -37.5t68 -35t57.5 -49t23.5 -70.5z" />
    <glyph glyph-name="scedilla.sc" horiz-adv-x="410" 
d="M363 137q0 -59 -39 -100t-105 -48l-15 -56q100 -28 100 -86q0 -31 -26 -52.5t-72 -21.5q-40 0 -83 15l10 46q40 -16 78 -16q42 0 42 27q0 32 -93 53l-4 4q10 31 24 86q-74 3 -134 40l3 71q26 -20 67 -35t80 -15q45 0 71.5 22t26.5 58q0 28 -23.5 51t-57.5 39.5t-68 35.5
t-57.5 48t-23.5 67q0 62 44.5 102.5t116.5 40.5t124 -35l-19 -60q-49 34 -105 34q-42 0 -67 -21.5t-25 -53.5q0 -27 23.5 -48t57.5 -37.5t68 -35t57.5 -49t23.5 -70.5z" />
    <glyph glyph-name="scommaaccent.sc" horiz-adv-x="410" 
d="M127 -223l23 17q34 28 34 58q0 23 -30 39l-12 5q11 43 51 43q21 0 35 -16.5t14 -41.5q0 -66 -96 -127zM363 137q0 -65 -46.5 -107.5t-123.5 -42.5q-81 0 -147 41l3 71q26 -20 67 -35t80 -15q45 0 71.5 22t26.5 58q0 28 -23.5 51t-57.5 39.5t-68 35.5t-57.5 48t-23.5 67
q0 62 44.5 102.5t116.5 40.5t124 -35l-19 -60q-49 34 -105 34q-42 0 -67 -21.5t-25 -53.5q0 -27 23.5 -48t57.5 -37.5t68 -35t57.5 -49t23.5 -70.5z" />
    <glyph glyph-name="tcaron.sc" horiz-adv-x="475" 
d="M445 505q-4 -40 -4 -65q-53 1 -168 1v-338q0 -83 2 -103h-77q5 58 5 172v146q0 68 -3 123q-120 0 -170 -1q2 18 2 65q94 -3 205 -3q113 0 208 3zM275 586h-80l-104 145l53 5l92 -99l90 94h59z" />
    <glyph glyph-name="tcommaaccent.sc" horiz-adv-x="475" 
d="M445 505q-4 -40 -4 -65q-53 1 -168 1v-338q0 -83 2 -103h-77q5 58 5 172v146q0 68 -3 123q-120 0 -170 -1q2 18 2 65q94 -3 205 -3q113 0 208 3zM169 -223l23 17q34 28 34 58q0 23 -30 39l-12 5q11 43 51 43q21 0 35 -16.5t14 -41.5q0 -66 -96 -127z" />
    <glyph glyph-name="uacute.sc" horiz-adv-x="563" 
d="M329 724l100 7l-145 -146l-49 -4zM488 505q-3 -21 -3 -106v-196q0 -106 -56 -160q-56 -56 -154 -56q-89 0 -142.5 49.5t-53.5 137.5v156q0 126 -4 171q51 0 76 4q-2 -42 -2 -106v-204q0 -145 135 -145q61 0 96 35.5t35 99.5v145q0 128 -5 171q51 0 78 4z" />
    <glyph glyph-name="ubreve.sc" horiz-adv-x="563" 
d="M488 505q-3 -21 -3 -106v-196q0 -106 -56 -160q-56 -56 -154 -56q-89 0 -142.5 49.5t-53.5 137.5v156q0 126 -4 171q51 0 76 4q-2 -42 -2 -106v-204q0 -145 135 -145q61 0 96 35.5t35 99.5v145q0 128 -5 171q51 0 78 4zM368 732l59 4q2 -71 -38 -111.5t-112 -40.5
q-63 0 -103.5 40.5t-40.5 101.5l60 10q0 -47 24 -73.5t64 -26.5q43 0 65.5 27t21.5 69z" />
    <glyph glyph-name="ucircumflex.sc" horiz-adv-x="563" 
d="M244 732h81l102 -147l-52 -5l-92 101l-89 -94h-61zM488 505q-3 -21 -3 -106v-196q0 -106 -56 -160q-56 -56 -154 -56q-89 0 -142.5 49.5t-53.5 137.5v156q0 126 -4 171q51 0 76 4q-2 -42 -2 -106v-204q0 -145 135 -145q61 0 96 35.5t35 99.5v145q0 128 -5 171q51 0 78 4z
" />
    <glyph glyph-name="udieresis.sc" horiz-adv-x="563" 
d="M243 657q0 -22 -13.5 -37t-35.5 -15q-20 0 -33 14t-13 33q0 21 14 36.5t35 15.5q20 0 33 -14t13 -33zM413 657q0 -21 -14 -36.5t-35 -15.5q-20 0 -33 14t-13 33q0 22 13.5 37t34.5 15q20 0 33.5 -14t13.5 -33zM488 505q-3 -21 -3 -106v-196q0 -106 -56 -160
q-56 -56 -154 -56q-89 0 -142.5 49.5t-53.5 137.5v156q0 126 -4 171q51 0 76 4q-2 -42 -2 -106v-204q0 -145 135 -145q61 0 96 35.5t35 99.5v145q0 128 -5 171q51 0 78 4z" />
    <glyph glyph-name="ugrave.sc" horiz-adv-x="563" 
d="M138 724l87 7l93 -146l-45 -4zM488 505q-3 -21 -3 -106v-196q0 -106 -56 -160q-56 -56 -154 -56q-89 0 -142.5 49.5t-53.5 137.5v156q0 126 -4 171q51 0 76 4q-2 -42 -2 -106v-204q0 -145 135 -145q61 0 96 35.5t35 99.5v145q0 128 -5 171q51 0 78 4z" />
    <glyph glyph-name="uhungarumlaut.sc" horiz-adv-x="563" 
d="M230 730l90 7l-91 -155l-50 -3zM382 731l93 9l-100 -156l-51 -2zM488 505q-3 -21 -3 -106v-196q0 -106 -56 -160q-56 -56 -154 -56q-89 0 -142.5 49.5t-53.5 137.5v156q0 126 -4 171q51 0 76 4q-2 -42 -2 -106v-204q0 -145 135 -145q61 0 96 35.5t35 99.5v145
q0 128 -5 171q51 0 78 4z" />
    <glyph glyph-name="umacron.sc" horiz-adv-x="563" 
d="M428 689q-5 -27 -5 -59q-80 2 -113 2h-68q-40 0 -108 -2q3 21 3 59q67 -3 145 -3q74 0 146 3zM488 505q-3 -21 -3 -106v-196q0 -106 -56 -160q-56 -56 -154 -56q-89 0 -142.5 49.5t-53.5 137.5v156q0 126 -4 171q51 0 76 4q-2 -42 -2 -106v-204q0 -145 135 -145
q61 0 96 35.5t35 99.5v145q0 128 -5 171q51 0 78 4z" />
    <glyph glyph-name="uogonek.sc" horiz-adv-x="563" 
d="M208 -131q0 61 81 118h-14q-89 0 -142.5 49.5t-53.5 137.5v156q0 126 -4 171q51 0 76 4q-2 -42 -2 -106v-204q0 -145 135 -145q61 0 96 35.5t35 99.5v145q0 128 -5 171q51 0 78 4q-3 -21 -3 -106v-196q0 -103 -56 -158q-21 -21 -79 -56q-85 -51 -85 -110q0 -17 11 -28
t31 -11q29 0 64 23l-4 -49q-30 -22 -72 -22q-40 0 -63.5 21t-23.5 56z" />
    <glyph glyph-name="uring.sc" horiz-adv-x="563" 
d="M392 691q0 -48 -31.5 -80.5t-82.5 -32.5q-48 0 -78.5 30t-30.5 72q0 48 31.5 79.5t82.5 31.5q49 0 79 -29t30 -71zM343 686q0 28 -16.5 46t-44.5 18q-29 0 -46.5 -18.5t-17.5 -46.5t17 -46.5t45 -18.5q29 0 46 19t17 47zM488 505q-3 -21 -3 -106v-196q0 -106 -56 -160
q-56 -56 -154 -56q-89 0 -142.5 49.5t-53.5 137.5v156q0 126 -4 171q51 0 76 4q-2 -42 -2 -106v-204q0 -145 135 -145q61 0 96 35.5t35 99.5v145q0 128 -5 171q51 0 78 4z" />
    <glyph glyph-name="wacute.sc" horiz-adv-x="742" 
d="M720 500l-132 -360q-9 -25 -20.5 -56.5t-18.5 -52t-13 -38.5l-26 -6l-138 383l-86 -234q-9 -26 -27 -74.5t-27 -72.5l-26 -1l-132 374q-29 85 -53 137l75 5l130 -376l87 243q38 109 48 133l26 5l137 -378l79 236l42 133h75zM420 724l100 7l-145 -146l-49 -4z" />
    <glyph glyph-name="wcircumflex.sc" horiz-adv-x="742" 
d="M720 500l-132 -360q-9 -25 -20.5 -56.5t-18.5 -52t-13 -38.5l-26 -6l-138 383l-86 -234q-9 -26 -27 -74.5t-27 -72.5l-26 -1l-132 374q-29 85 -53 137l75 5l130 -376l87 243q38 109 48 133l26 5l137 -378l79 236l42 133h75zM335 732h81l102 -147l-52 -5l-92 101l-89 -94
h-61z" />
    <glyph glyph-name="wdieresis.sc" horiz-adv-x="742" 
d="M720 500l-132 -360q-9 -25 -20.5 -56.5t-18.5 -52t-13 -38.5l-26 -6l-138 383l-86 -234q-9 -26 -27 -74.5t-27 -72.5l-26 -1l-132 374q-29 85 -53 137l75 5l130 -376l87 243q38 109 48 133l26 5l137 -378l79 236l42 133h75zM335 657q0 -22 -13.5 -37t-35.5 -15
q-20 0 -33 14t-13 33q0 21 14 36.5t35 15.5q20 0 33 -14t13 -33zM505 657q0 -21 -14 -36.5t-35 -15.5q-20 0 -33 14t-13 33q0 22 13.5 37t34.5 15q20 0 33.5 -14t13.5 -33z" />
    <glyph glyph-name="wgrave.sc" horiz-adv-x="742" 
d="M720 500l-132 -360q-9 -25 -20.5 -56.5t-18.5 -52t-13 -38.5l-26 -6l-138 383l-86 -234q-9 -26 -27 -74.5t-27 -72.5l-26 -1l-132 374q-29 85 -53 137l75 5l130 -376l87 243q38 109 48 133l26 5l137 -378l79 236l42 133h75zM230 724l87 7l93 -146l-45 -4z" />
    <glyph glyph-name="yacute.sc" horiz-adv-x="474" 
d="M18 501l78 5l143 -231l48 76q15 22 93 151h79l-187 -286v-113q0 -73 3 -103h-77q5 58 5 170v44l-76 119q-54 86 -109 168zM287 724l100 7l-145 -146l-49 -4z" />
    <glyph glyph-name="ycircumflex.sc" horiz-adv-x="474" 
d="M18 501l78 5l143 -231l48 76q15 22 93 151h79l-187 -286v-113q0 -73 3 -103h-77q5 58 5 170v44l-76 119q-54 86 -109 168zM202 732h81l102 -147l-52 -5l-92 101l-89 -94h-61z" />
    <glyph glyph-name="ydieresis.sc" horiz-adv-x="474" 
d="M18 501l78 5l143 -231l48 76q15 22 93 151h79l-187 -286v-113q0 -73 3 -103h-77q5 58 5 170v44l-76 119q-54 86 -109 168zM201 657q0 -22 -13.5 -37t-35.5 -15q-20 0 -33 14t-13 33q0 21 14 36.5t35 15.5q20 0 33 -14t13 -33zM371 657q0 -21 -14 -36.5t-35 -15.5
q-20 0 -33 14t-13 33q0 22 13.5 37t34.5 15q20 0 33.5 -14t13.5 -33z" />
    <glyph glyph-name="ygrave.sc" horiz-adv-x="474" 
d="M18 501l78 5l143 -231l48 76q15 22 93 151h79l-187 -286v-113q0 -73 3 -103h-77q5 58 5 170v44l-76 119q-54 86 -109 168zM96 724l87 7l93 -146l-45 -4z" />
    <glyph glyph-name="zacute.sc" horiz-adv-x="475" 
d="M303 724l100 7l-145 -146l-49 -4zM433 505l15 -14l-307 -431q28 -1 107 -1q85 0 181 2q-4 -38 -5 -64q-60 4 -186 4t-194 -4l-15 15l307 432q-30 1 -102 1q-75 0 -173 -2q3 27 3 62q93 -3 184 -3q113 0 185 3z" />
    <glyph glyph-name="zcaron.sc" horiz-adv-x="475" 
d="M292 586h-80l-104 145l53 5l92 -99l90 94h59zM433 505l15 -14l-307 -431q28 -1 107 -1q85 0 181 2q-4 -38 -5 -64q-60 4 -186 4t-194 -4l-15 15l307 432q-30 1 -102 1q-75 0 -173 -2q3 27 3 62q93 -3 184 -3q113 0 185 3z" />
    <glyph glyph-name="zdotaccent.sc" horiz-adv-x="475" 
d="M433 505l15 -14l-307 -431q28 -1 107 -1q85 0 181 2q-4 -38 -5 -64q-60 4 -186 4t-194 -4l-15 15l307 432q-30 1 -102 1q-75 0 -173 -2q3 27 3 62q93 -3 184 -3q113 0 185 3zM302 657q0 -22 -13.5 -37t-34.5 -15q-20 0 -33 14t-13 33q0 22 13.5 37t34.5 15q20 0 33 -14
t13 -33z" />
    <glyph glyph-name="ae.sc" horiz-adv-x="678" 
d="M79 0h-78l227 361q66 105 87 144q72 -3 151 -3q90 0 160 3q-5 -33 -5 -63q-40 1 -133 1h-78q-1 -16 -1 -50v-102l184 2q-2 -17 -2 -60l-182 1v-124q0 -34 1 -50q12 0 39 -0.5t38 -0.5q81 0 152 3q-3 -22 -5 -65q-57 4 -149 4t-149 -4q3 45 3 148h-174l-7 -13
q-43 -67 -79 -132zM339 332q0 61 -1 93l-140 -225h141v132z" />
    <glyph glyph-name="aeacute.sc" horiz-adv-x="678" 
d="M79 0h-78l227 361q66 105 87 144q72 -3 151 -3q90 0 160 3q-5 -33 -5 -63q-40 1 -133 1h-78q-1 -16 -1 -50v-102l184 2q-2 -17 -2 -60l-182 1v-124q0 -34 1 -50q12 0 39 -0.5t38 -0.5q81 0 152 3q-3 -22 -5 -65q-57 4 -149 4t-149 -4q3 45 3 148h-174l-7 -13
q-43 -67 -79 -132zM339 332q0 61 -1 93l-140 -225h141v132zM473 724l100 7l-145 -146l-49 -4z" />
    <glyph glyph-name="oe.sc" horiz-adv-x="731" 
d="M315 505q23 0 102 -1.5t109 -1.5q86 0 153 3q-5 -33 -5 -63q-40 1 -133 1h-78q-1 -16 -1 -50v-102l184 2q-2 -17 -2 -60l-182 1v-124q0 -34 1 -50q11 0 38 -0.5t39 -0.5q82 0 152 3q-3 -22 -5 -65q-57 4 -148 4q-28 0 -111 -0.5t-104 -0.5q-129 0 -202.5 67.5
t-73.5 173.5q0 117 73 190.5t194 73.5zM118 248q0 -84 54 -135.5t150 -51.5q33 0 69 2q1 14 1 54v273q0 36 -1 51q-31 3 -70 3q-100 0 -151.5 -55t-51.5 -141z" />
    <glyph glyph-name="eth.sc" horiz-adv-x="549" 
d="M501 263q0 -117 -73.5 -190t-194.5 -73h-150q3 35 3 172v54l-63 -2q3 24 3 61l60 -3v48q0 137 -3 171q7 0 55.5 2t86.5 2q129 0 202.5 -67.5t73.5 -174.5zM430 257q0 84 -54 135.5t-149 51.5q-33 0 -69 -2q-1 -15 -1 -54v-106q59 0 111 3q-5 -28 -5 -61q-66 2 -98 2h-8
v-112q0 -35 1 -50q32 -3 69 -3q100 0 151.5 55t51.5 141z" />
    <glyph glyph-name="thorn.sc" horiz-adv-x="464" 
d="M157 347q-1 -10 -1 -38v-159q14 -2 49 -2q70 0 109.5 26.5t39.5 74.5q0 100 -135 100q-22 0 -62 -2zM157 408q21 2 66 2q96 0 148 -42t52 -113q0 -75 -56 -119.5t-163 -44.5q-35 0 -47 1q0 -54 2 -92h-77q4 47 4 172v158q0 126 -4 171q52 0 77 4q-2 -19 -2 -97z" />
    <glyph glyph-name="one.alt" horiz-adv-x="292" 
d="M185 0h-78q5 55 5 169v149q0 108 -6 175q47 0 79 4q-3 -27 -3 -116v-280q0 -61 3 -101z" />
    <glyph glyph-name="zero.lin" horiz-adv-x="613" 
d="M311 703q114 0 179 -99t65 -251q0 -164 -69 -267.5t-185 -103.5q-113 0 -178 99t-65 251q0 164 69 267.5t184 103.5zM306 45q81 0 129 85.5t48 210.5q0 137 -47.5 218t-128.5 81q-80 0 -128.5 -85.5t-48.5 -210.5q0 -137 47.5 -218t128.5 -81z" />
    <glyph glyph-name="one.lin" horiz-adv-x="369" 
d="M241 701l10 -6q-2 -18 -2 -115v-466q0 -91 2 -114h-76q4 51 4 190v424l-141 -44l-16 61q39 12 156 50z" />
    <glyph glyph-name="two.lin" horiz-adv-x="546" 
d="M149 64q237 0 338 3q-5 -35 -6 -70q-88 4 -211 4q-129 0 -218 -4l-11 49q60 59 86.5 85.5l71 71t63 66t47 54.5t39.5 52.5t24.5 44.5t17.5 45.5t4 41.5q0 57 -36.5 92t-98.5 35q-83 0 -166 -70l-27 61q97 75 198 75q91 0 146.5 -50t55.5 -134q0 -68 -36.5 -130.5
t-115.5 -151.5q-82 -91 -165 -170z" />
    <glyph glyph-name="three.lin" horiz-adv-x="518" 
d="M54 12l-11 71q88 -32 167 -32q81 0 129.5 33.5t48.5 90.5q0 66 -63.5 103.5t-184.5 39.5l-10 51q117 21 181 65t64 101q0 42 -35.5 71t-97.5 29q-87 0 -157 -57l-27 61q93 61 189 61q89 0 145 -45.5t56 -111.5q0 -130 -178 -183q96 -19 144 -64.5t48 -112.5
q0 -88 -68.5 -143t-176.5 -55q-86 0 -163 27z" />
    <glyph glyph-name="four.lin" horiz-adv-x="561" 
d="M357 0q4 39 4 177v20h-69q-164 0 -256 -4l-17 46l289 364l76 97l48 -5q-2 -38 -2 -127v-313q52 0 108 2q-6 -38 -7 -64l-101 3v-79q0 -71 2 -117h-75zM108 255q21 -1 251 -1h2v318z" />
    <glyph glyph-name="five.lin" horiz-adv-x="520" 
d="M463 197q0 -94 -68 -153t-176 -59q-86 0 -153 25l-11 70q83 -30 160 -30q78 0 127 41t49 103q0 72 -55.5 109t-158.5 37q-22 0 -80 -6l-11 6q3 35 7 111l4 111q2 95 1 112l12 11q132 -2 168 -2q72 0 169 3q-6 -22 -11 -72q-98 2 -157 2h-111l-10 -215q6 0 22 1t22 1
q126 0 193.5 -56t67.5 -150z" />
    <glyph glyph-name="six.lin" horiz-adv-x="554" 
d="M452 646q-138 -26 -221.5 -108t-106.5 -202q29 44 75.5 70t101.5 26q86 0 146 -61t60 -152q0 -100 -64.5 -168.5t-164.5 -68.5q-103 0 -164 72t-61 196q0 175 100 299.5t283 158.5zM435 216q0 68 -43 111t-110 43q-64 0 -108.5 -48t-44.5 -116q0 -67 42.5 -114t110.5 -47
q67 0 110 49t43 122z" />
    <glyph glyph-name="seven.lin" horiz-adv-x="511" 
d="M43 686q104 -3 203 -3q111 0 214 3l20 -33q-5 -9 -56 -113l-201 -414q-53 -108 -61 -132l-80 11q41 71 90 173l213 438h-150q-139 0 -198 -1q6 57 6 71z" />
    <glyph glyph-name="eight.lin" horiz-adv-x="559" 
d="M54 165q0 68 43 115.5t120 73.5q-139 56 -139 166q0 76 59.5 129.5t150.5 53.5q88 0 145.5 -52t57.5 -124q0 -107 -141 -168q155 -66 155 -183q0 -83 -63.5 -138.5t-164.5 -55.5q-98 0 -160.5 52.5t-62.5 130.5zM433 173q0 100 -153 154q-154 -50 -154 -157
q0 -56 45 -91.5t112 -35.5q66 0 108 37t42 93zM150 523q0 -88 140 -137q61 20 95 55.5t34 81.5q0 52 -38 85.5t-96 33.5q-60 0 -97.5 -34t-37.5 -85z" />
    <glyph glyph-name="nine.lin" horiz-adv-x="554" 
d="M102 38q138 27 220.5 108t106.5 200q-29 -43 -75.5 -68t-100.5 -25q-86 0 -145.5 60.5t-59.5 151.5q0 100 64.5 168.5t164.5 68.5q102 0 163 -72t61 -196q0 -175 -99.5 -299t-282.5 -159zM120 469q0 -68 42.5 -111t109.5 -43q64 0 109 47.5t45 115.5t-43 114.5t-111 46.5
q-67 0 -109.5 -49t-42.5 -121z" />
    <glyph glyph-name="hyphen.lin" horiz-adv-x="415" 
d="M360 371q-5 -25 -5 -58q-20 0 -57.5 0.5t-55.5 0.5h-77q-22 0 -57.5 -0.5t-50.5 -0.5q3 21 3 58q88 -2 149 -2q103 0 151 2z" />
    <glyph glyph-name="endash.lin" horiz-adv-x="527" 
d="M472 371q-4 -30 -4 -58q-27 0 -77.5 0.5t-81.5 0.5h-94q-33 0 -83 -0.5t-75 -0.5q3 21 3 58q126 -2 204 -2q141 0 208 2z" />
    <glyph glyph-name="emdash.lin" horiz-adv-x="966" 
d="M909 371q-2 -12 -5 -58q-32 0 -106.5 0.5t-110.5 0.5h-414q-40 0 -113 -0.5t-103 -0.5q3 21 3 58q166 -2 422 -2q341 0 427 2z" />
    <glyph glyph-name="parenleft.lin" horiz-adv-x="398" 
d="M375 -133q-131 71 -214.5 195t-83.5 276q0 154 83 280.5t215 199.5l27 -47q-111 -64 -185 -175.5t-74 -254.5q0 -142 74.5 -254t185.5 -175z" />
    <glyph glyph-name="parenright.lin" horiz-adv-x="398" 
d="M23 -133l-27 47q111 63 185.5 174.5t74.5 253.5q0 143 -74.5 254.5t-186.5 175.5l28 46q132 -71 215.5 -196t83.5 -278t-84 -279.5t-215 -197.5z" />
    <glyph glyph-name="bracketleft.lin" horiz-adv-x="370" 
d="M363 -72q-6 -24 -7 -61q-39 3 -112 3q-94 0 -133 -2l-9 5q5 47 5 194v545q0 148 -5 195l10 11q74 -4 129 -4q66 0 118 4q-4 -31 -4 -61q-80 2 -113 2q-47 0 -72 -1v-701q0 -91 3 -130q12 0 35 -0.5t36 -0.5q39 0 119 2z" />
    <glyph glyph-name="bracketright.lin" horiz-adv-x="370" 
d="M7 757q6 24 7 61q39 -3 111 -3q95 0 133 2l10 -5q-5 -47 -5 -194v-545q0 -147 5 -195l-10 -11q-74 4 -129 4q-66 0 -118 -4q4 31 4 61q80 -2 113 -2q47 0 72 1v699q0 94 -3 133h-71q-41 0 -119 -2z" />
    <glyph glyph-name="braceleft.lin" horiz-adv-x="379" 
d="M70 323v39q81 19 110 35t29 35q0 15 -17.5 46.5t-35.5 71.5t-18 74q0 146 200 192l14 -45q-78 -20 -114.5 -55t-36.5 -77q0 -33 33.5 -98.5t33.5 -91.5q0 -34 -24.5 -59.5t-85.5 -46.5q63 -21 86.5 -46.5t23.5 -60.5q0 -26 -33.5 -91t-33.5 -98q0 -42 36.5 -77t114.5 -55
l-14 -46q-200 46 -200 193q0 34 18 73.5t35.5 71t17.5 46.5q0 19 -29 35t-110 35z" />
    <glyph glyph-name="braceright.lin" horiz-adv-x="379" 
d="M309 362v-38q-81 -20 -110 -36t-29 -35q0 -15 18 -46.5t35.5 -71t17.5 -73.5q0 -147 -200 -193l-14 46q79 20 115 55t36 77q0 33 -33.5 98.5t-33.5 91.5q0 34 24.5 59.5t85.5 46.5q-63 20 -86.5 45.5t-23.5 60.5q0 27 33.5 92t33.5 98q0 42 -36 77t-115 55l14 45
q200 -46 200 -192q0 -34 -17.5 -73.5t-35.5 -71t-18 -46.5q0 -19 29 -35t110 -36z" />
    <glyph glyph-name="at.cap" horiz-adv-x="831" 
d="M559 163q-47 0 -61 36.5t3 96.5q-27 -57 -72.5 -95t-82.5 -38q-43 0 -65 33t-22 87q0 91 61.5 172t142.5 81q54 0 76 -22l40 26l7 -5l-40 -254q-7 -37 -0.5 -57.5t29.5 -20.5q59 0 107.5 63.5t48.5 160.5q0 48 -16 91.5t-47 79.5t-84.5 57.5t-121.5 21.5
q-137 0 -237 -103.5t-100 -251.5q0 -136 82 -216.5t214 -80.5q138 0 245 65l16 -35q-123 -73 -270 -73q-145 0 -239 96.5t-94 231.5q0 92 34 170.5t89.5 130t126.5 80.5t145 29q141 0 221.5 -84t80.5 -198q0 -111 -63 -193t-154 -82zM522 468q-22 21 -63 21q-58 0 -102 -61
t-44 -132q0 -85 53 -85q40 0 87.5 57t58.5 137z" />
    <glyph glyph-name="registered.alt" horiz-adv-x="865" 
d="M801 351q0 -153 -108 -261t-261 -108t-261 108t-108 261t108 261t261 108t261 -108t108 -261zM756 351q0 135 -94.5 231t-229.5 96t-229 -96t-94 -231t94 -231t229 -96t229.5 96t94.5 231zM320 539q60 3 102 3q71 0 109.5 -29.5t37.5 -76.5q-2 -76 -76 -108l64 -91
q31 -45 47 -65l-66 -6l-99 148h-59v-79q0 -35 2 -65h-62q3 38 3 125v119q0 89 -3 125zM380 358h49q38 0 60 20t22 50q0 31 -21 49t-62 18q-20 0 -48 -2v-135z" />
    <glyph glyph-name="dollar.lin" horiz-adv-x="548" 
d="M278 -128h-66q6 39 11 111q-101 9 -186 60l5 76q33 -26 83.5 -46t102.5 -26l6 59l19 220q-44 19 -69.5 32t-56.5 35.5t-45.5 52t-14.5 66.5q0 77 59 131t155 58q4 52 6 99q40 0 62 3q0 -5 -3.5 -40.5t-6.5 -62.5q89 -11 150 -54l-24 -64q-58 41 -132 52l-21 -258
q43 -17 69.5 -31t57.5 -36.5t46 -54t15 -71.5q0 -80 -58.5 -137t-159.5 -64q-4 -80 -4 -110zM428 173q0 45 -31.5 74.5t-90.5 55.5l-19 -256q65 7 103 41t38 85zM139 520q0 -43 30.5 -70.5t88.5 -51.5l15 166q2 51 4 72q-63 -4 -100.5 -36.5t-37.5 -79.5z" />
    <glyph glyph-name="sterling.lin" horiz-adv-x="533" 
d="M45 308q3 26 3 66h93q-32 68 -32 126q0 85 60.5 143.5t154.5 58.5q83 0 146 -37l-16 -65q-60 36 -132 36q-61 0 -101 -35.5t-40 -94.5q0 -51 38 -131q117 1 211 7q-1 -9 -4 -66q-65 1 -179 -2q15 -40 15 -76q0 -97 -90 -173q141 0 327 6q-7 -38 -7 -74q-66 3 -203 3
q-157 0 -241 -5l-10 53q155 74 155 181q0 35 -21 82q-21 -1 -42.5 -1.5t-46 -1t-38.5 -0.5z" />
    <glyph glyph-name="Euro.lin" horiz-adv-x="684" 
d="M325 282q127 0 211 4q-5 -33 -8 -65q-64 1 -204 1h-116q29 -82 93.5 -128.5t147.5 -46.5q117 0 198 74l-5 -81q-88 -59 -203 -59q-110 0 -193.5 66.5t-113.5 174.5q-81 0 -117 -1q3 24 3 65q32 -2 102 -4q-2 30 -2 46q0 42 5 71q-19 0 -53 -0.5t-49 -0.5q4 32 4 63
q68 -2 111 -2q34 110 117.5 176.5t198.5 66.5q108 0 186 -57l-21 -64q-71 55 -170 55q-82 0 -146 -48t-93 -129h122q160 0 224 2q-6 -28 -8 -63q-65 1 -217 1h-136q-4 -25 -4 -58q0 -34 4 -59h132z" />
    <glyph glyph-name="yen.lin" horiz-adv-x="626" 
d="M275 214h2l1 88l-11 17q-39 0 -108.5 -0.5t-98.5 -0.5q3 22 3 62q72 -3 167 -3l-54 86q-8 12 -68 102.5t-77 117.5l79 7l203 -326l59 94q3 6 63.5 103t75.5 124h85l-202 -308q96 0 172 3q-2 -9 -7 -62q-31 0 -99.5 0.5t-103.5 0.5l-9 -14v-91h1q152 0 217 2q-2 -7 -7 -63
q-65 1 -210 1h-1v-14q0 -84 2 -140h-77q3 39 5 154h-3q-151 0 -215 -1q2 32 2 63q122 -2 214 -2z" />
    <glyph glyph-name="cent.lin" horiz-adv-x="494" 
d="M314 481l-18 -253l-5 -70h2q87 0 160 64l-3 -76q-74 -49 -163 -49q-4 -57 -4 -97h-62l9 102q-81 17 -130.5 80t-49.5 148q0 101 59.5 173t154.5 84q4 78 4 96q19 0 63 4q-3 -20 -9 -100q72 -7 130 -47l-21 -62q-51 39 -114 46q0 -5 -1 -14t-1.5 -16t-0.5 -13zM122 344
q0 -144 112 -178l6 70l17 240l3 47q-64 -10 -101 -59.5t-37 -119.5z" />
    <glyph glyph-name="R_p" horiz-adv-x="1118" 
d="M582 4l-85 -11l-189 292h-126v-145q0 -100 3 -141h-81q5 59 5 236v215q0 176 -5 235l173 4q116 2 182 -53t64 -137q-3 -142 -147 -197l105 -157q65 -94 101 -141zM1054 242q0 -113 -69.5 -185.5t-160.5 -72.5q-76 0 -122 41v-137q0 -63 4 -96q-2 0 -40 -3.5t-39 -3.5
q5 36 5 155v343q0 107 -6 171q35 0 68 3l4 -66q68 76 158 76t144 -64t54 -161zM986 234q0 83 -41 127.5t-106 44.5q-79 0 -137 -76v-237q44 -49 122 -49q70 0 116 56t46 134zM182 347h113q70 0 111.5 42t41.5 100q0 65 -42.5 100.5t-125.5 35.5q-18 0 -51 -0.5t-47 -0.5
v-277z" />
    <glyph glyph-name="numbersign.lin" horiz-adv-x="722" 
d="M527 436h-7l-23 -191h3q120 0 172 2q-9 -35 -12 -64q-5 0 -64 1t-99 1h-8l-2 -19q-16 -148 -17 -166h-71q14 64 29 185l-179 1l-2 -20q-14 -106 -18 -166h-70q15 83 28 186h-1q-132 0 -167 -3l11 64q50 -2 160 -2h5l25 193h-2q-93 0 -168 -3l11 62q25 -1 161 -1h5
q15 120 19 189q33 0 69 4q-20 -129 -24 -170l-3 -23h180q15 132 18 189q33 0 70 4q-3 -19 -13 -88t-12 -82l-3 -23h3q146 0 172 1q-9 -31 -12 -62q-4 0 -63 0.5t-101 0.5zM281 437l-24 -192h179l25 191z" />
    <glyph glyph-name="paragraph.lin" horiz-adv-x="665" 
d="M299 688q20 0 55 -1t50 -1q-4 -25 -4 -138l1 -402q0 -114 3 -146h-78q5 85 5 232v28q-145 -1 -214.5 59t-69.5 163q0 85 65.5 145.5t186.5 60.5zM568 0h-80q6 54 6 212v259q0 161 -7 214q39 0 81 3q-4 -38 -4 -136v-426q0 -74 4 -126z" />
    <glyph glyph-name="section.lin" horiz-adv-x="473" 
d="M52 278q0 47 30 83.5t83 56.5q-93 48 -93 126q0 63 52 111t136 48q89 0 152 -44l-21 -63q-62 44 -136 44q-50 0 -81.5 -24.5t-31.5 -63.5q0 -33 29.5 -58t72 -43.5t85 -39t72 -55t29.5 -81.5q0 -89 -100 -139q93 -48 93 -125q0 -70 -56 -119.5t-152 -49.5q-87 0 -167 47
l4 72q79 -56 170 -56q58 0 94 27.5t36 70.5q0 34 -31 59.5t-75 43.5t-88 38t-75 54t-31 80zM122 285q0 -35 34 -59.5t111 -56.5q43 13 69 39.5t26 59.5q0 27 -21 50.5t-44.5 36t-67.5 31.5q-52 -14 -79.5 -40.5t-27.5 -60.5z" />
    <glyph glyph-name="ordfeminine.lin" horiz-adv-x="352" 
d="M166 699q-51 0 -93 -28l-11 48q57 32 114 32q120 0 117 -121l-4 -130q0 -34 22 -34q10 0 20 5l9 -32q-23 -17 -51 -17q-48 0 -52 57q-13 -27 -40.5 -42.5t-60.5 -15.5q-46 0 -72 24.5t-26 63.5q0 47 39.5 75t118.5 28q20 0 39 -3l1 16q3 74 -70 74zM153 465
q33 0 56.5 22.5t24.5 57.5v30q-24 2 -37 2q-101 0 -101 -60q0 -22 14.5 -37t42.5 -15z" />
    <glyph glyph-name="ordmasculine.lin" horiz-adv-x="383" 
d="M352 593q0 -74 -45 -123.5t-117 -49.5q-68 0 -110 46t-42 112q0 74 44.5 123.5t116.5 49.5q68 0 110.5 -46t42.5 -112zM292 586q0 52 -26.5 83.5t-68.5 31.5q-44 0 -71.5 -33t-27.5 -83q0 -53 26 -84.5t69 -31.5q44 0 71.5 33.5t27.5 83.5z" />
    <glyph glyph-name="degree.lin" horiz-adv-x="372" 
d="M332 605q0 -67 -41 -112t-107 -45q-62 0 -100 41.5t-38 100.5q0 66 40.5 110t105.5 44q63 0 101.5 -40.5t38.5 -98.5zM277 597q0 45 -23 71.5t-64 26.5t-65 -28t-24 -70q0 -45 23 -72t63 -27q41 0 65.5 28.5t24.5 70.5z" />
    <glyph glyph-name="percent.lin" horiz-adv-x="742" 
d="M237 696q53 0 82.5 -36t29.5 -92q0 -89 -59.5 -169.5t-133.5 -80.5q-53 0 -82.5 36t-29.5 91q0 90 59 170.5t134 80.5zM158 371q51 0 91.5 64.5t40.5 132.5q0 75 -56 75q-49 0 -89.5 -65t-40.5 -133q0 -74 54 -74zM119 -30l-49 26q80 99 131 167l291 379q98 130 122 164
q25 -14 52 -27q-23 -27 -94 -121l-373 -486q-69 -88 -80 -102zM586 363q53 0 82.5 -36t29.5 -91q0 -90 -59 -170.5t-134 -80.5q-53 0 -82.5 36t-29.5 92q0 89 59.5 169.5t133.5 80.5zM508 38q50 0 90.5 65t40.5 133q0 73 -56 73q-50 0 -90 -64t-40 -132q0 -75 55 -75z" />
    <glyph glyph-name="quotedbl.lin" horiz-adv-x="324" 
d="M240 510l-39 -9q12 140 12 241q16 2 83 11q-21 -116 -56 -243zM80 506l-39 -9q12 135 13 241q18 2 83 11q-19 -105 -57 -243z" />
    <glyph glyph-name="quotesingle.lin" horiz-adv-x="163" 
d="M80 506l-39 -9q12 135 13 241q18 2 83 11q-19 -105 -57 -243z" />
    <glyph glyph-name="plus.lin" horiz-adv-x="555" 
d="M478 362q-4 -20 -6 -60l-149 2h-16v-27q0 -101 3 -152h-66q3 39 5 179h-24l-147 -2q2 28 2 60q74 -3 169 -3q-2 137 -5 175q26 0 66 4q-3 -54 -3 -157v-22q95 0 171 3z" />
    <glyph glyph-name="minus.lin" horiz-adv-x="555" 
d="M457 363q-2 -12 -5 -62q-108 2 -155 2h-44q-53 0 -155 -2q3 23 3 62q89 -3 177 -3q84 0 179 3z" />
    <glyph glyph-name="divide.lin" horiz-adv-x="555" 
d="M488 363q-5 -27 -5 -62q-112 2 -169 2h-64q-63 0 -169 -2q3 23 3 62q91 -3 202 -3q104 0 202 3zM332 504q0 -22 -14 -37t-36 -15t-35 14.5t-13 33.5q0 22 14 37t36 15q21 0 34.5 -14.5t13.5 -33.5zM332 163q0 -22 -14 -37t-36 -15t-35 14.5t-13 33.5q0 22 14 37t36 15
q21 0 34.5 -14.5t13.5 -33.5z" />
    <glyph glyph-name="equal.lin" horiz-adv-x="555" 
d="M468 447q-4 -18 -6 -62l-140 2h-96l-138 -2q3 21 3 62q162 -3 187 -3q103 0 190 3zM468 277q-4 -19 -6 -62l-140 2h-96l-138 -2q3 21 3 62q81 -3 187 -3q103 0 190 3z" />
    <glyph glyph-name="multiply.lin" horiz-adv-x="555" 
d="M468 180q-25 -20 -46 -43q-49 54 -144 154q-127 -129 -149 -153q-14 19 -42 45l151 148q-85 85 -151 148q25 18 47 41l144 -149q66 67 144 153q6 -8 22.5 -26t18.5 -21q-120 -120 -145 -146q118 -120 150 -151z" />
    <glyph glyph-name="less.lin" horiz-adv-x="558" 
d="M393 104q-64 51 -270 206l-1 34q128 98 270 213l35 -50q-72 -52 -134 -101l-97 -77l103 -79q66 -53 130 -95z" />
    <glyph glyph-name="greater.lin" horiz-adv-x="558" 
d="M165 557q82 -64 270 -206l1 -34q-156 -119 -269 -213l-35 50q58 43 133 101l96 77l-101 79q-74 58 -130 95z" />
    <glyph glyph-name="plusminus.lin" horiz-adv-x="555" 
d="M471 435q-4 -19 -6 -62l-148 2h-10v-13q0 -105 4 -148h-68q5 67 5 161h-17l-147 -2q3 21 3 62q56 -2 161 -4q0 86 -5 159q5 0 68 3q-4 -47 -4 -153v-9q116 2 164 4zM469 126q-4 -30 -4 -60q-27 0 -79 0.5t-83 0.5h-58q-33 0 -84.5 -0.5t-76.5 -0.5q3 21 3 60
q122 -2 191 -2q127 0 191 2z" />
    <glyph glyph-name="onehalf.alt" horiz-adv-x="934" 
d="M616 297l-22 46q62 53 134 53q57 0 92.5 -29t35.5 -79q0 -38 -21 -70t-67 -77q-36 -34 -104 -91q23 0 203 3q-3 -51 -3 -54q-88 2 -137 2q-52 0 -140 -2l-7 41q120 100 151 131q68 65 68 109q0 29 -20.5 46t-55.5 17q-54 0 -107 -46zM262 -13l-45 21q44 59 115 160
l260 377q90 130 106 158q30 -14 47 -23q-22 -28 -83 -116l-331 -479q-14 -22 -69 -98zM342 355q-1 -9 -1 -52q-27 1 -91 1h-91q-53 0 -87 -1q0 32 -2 52q24 -2 67 -2h45q1 23 1 64v216l-104 -32l-10 50q17 4 117 36l40 12l13 -5q-1 -12 -1 -68v-255v-18h31q53 0 73 2z" />
    <glyph glyph-name="onethird.alt" horiz-adv-x="934" 
d="M601 8l-8 53q62 -19 109 -19q50 0 80 17t30 45q0 65 -148 70l-7 37q148 24 148 84q0 21 -21.5 35t-60.5 14q-60 0 -110 -30l-17 45q65 36 133 36q61 0 97.5 -25.5t36.5 -65.5q0 -71 -117 -102q125 -19 125 -98q0 -50 -45.5 -81t-117.5 -31q-60 0 -107 16zM262 -13l-45 21
q44 59 115 160l260 377q90 130 106 158q30 -14 47 -23q-22 -28 -83 -116l-331 -479q-14 -22 -69 -98zM342 355q-1 -9 -1 -52q-27 1 -91 1h-91q-53 0 -87 -1q0 32 -2 52q24 -2 67 -2h45q1 23 1 64v216l-104 -32l-10 50q17 4 117 36l40 12l13 -5q-1 -12 -1 -68v-255v-18h31
q53 0 73 2z" />
    <glyph glyph-name="onequarter.alt" horiz-adv-x="934" 
d="M765 0q2 18 2 84v15h-40q-116 0 -157 -2l-9 41l165 208q36 45 44 54l50 -4q-1 -12 -1 -70v-182q15 0 37 0.5t30 0.5q-5 -30 -5 -48l-62 2v-35q0 -50 1 -64h-55zM284 -13l-45 21q44 59 115 160l260 377q90 130 106 158q30 -14 47 -23q-22 -28 -83 -116l-331 -479
q-14 -22 -69 -98zM342 355q-1 -9 -1 -52q-27 1 -91 1h-91q-53 0 -87 -1q0 32 -2 52q24 -2 67 -2h45q1 23 1 64v216l-104 -32l-10 50q17 4 117 36l40 12l13 -5q-1 -12 -1 -68v-255v-18h31q53 0 73 2zM769 330l-148 -188q128 0 148 1v187z" />
    <glyph glyph-name="onefifth.alt" horiz-adv-x="934" 
d="M600 7l-7 53q61 -18 108 -18q50 0 79 20t29 51q0 71 -131 71q-31 0 -60 -4l-6 5q0 10 1.5 33t1.5 29l3 65q1 22 1 68l7 7q98 -2 116 -2q21 0 117 2q-7 -49 -7 -55q-37 1 -106 1h-74l-5 -103q5 0 15.5 0.5t16.5 0.5q80 0 124 -31.5t44 -86.5q0 -54 -43.5 -87.5
t-116.5 -33.5q-61 0 -107 15zM266 -13l-45 21q44 59 115 160l260 377q90 130 106 158q30 -14 47 -23q-22 -28 -83 -116l-331 -479q-14 -22 -69 -98zM342 355q-1 -9 -1 -52q-27 1 -91 1h-91q-53 0 -87 -1q0 32 -2 52q24 -2 67 -2h45q1 23 1 64v216l-104 -32l-10 50
q17 4 117 36l40 12l13 -5q-1 -12 -1 -68v-255v-18h31q53 0 73 2z" />
    <glyph glyph-name="onesixth.alt" horiz-adv-x="934" 
d="M841 350q-169 -25 -203 -152q40 48 110 48q55 0 92.5 -34.5t37.5 -85.5q0 -57 -42 -96.5t-108 -39.5q-67 0 -106.5 41.5t-39.5 114.5q0 100 65 168.5t183 84.5zM271 -13l-45 21q44 59 115 160l260 377q90 130 106 158q30 -14 47 -23q-22 -28 -83 -116l-331 -479
q-14 -22 -69 -98zM342 355q-1 -9 -1 -52q-27 1 -91 1h-91q-53 0 -87 -1q0 32 -2 52q24 -2 67 -2h45q1 23 1 64v216l-104 -32l-10 50q17 4 117 36l40 12l13 -5q-1 -12 -1 -68v-255v-18h31q53 0 73 2zM822 123q0 37 -24 58.5t-64 21.5q-39 0 -66.5 -24t-27.5 -59
q0 -36 25 -59.5t65 -23.5q41 0 66.5 24.5t25.5 61.5z" />
    <glyph glyph-name="oneeighth.alt" horiz-adv-x="934" 
d="M730 -10q-65 0 -105 29.5t-40 76.5q0 73 98 103q-84 30 -84 93q0 45 39 75t98 30q58 0 95.5 -29t38.5 -72q1 -33 -20.5 -55.5t-64.5 -39.5q94 -35 94 -100q0 -49 -41.5 -80t-107.5 -31zM268 -13l-45 21q44 59 115 160l260 377q90 130 106 158q30 -14 47 -23
q-22 -28 -83 -116l-331 -479q-14 -22 -69 -98zM342 355q-1 -9 -1 -52q-27 1 -91 1h-91q-53 0 -87 -1q0 32 -2 52q24 -2 67 -2h45q1 23 1 64v216l-104 -32l-10 50q17 4 117 36l40 12l13 -5q-1 -12 -1 -68v-255v-18h31q53 0 73 2zM822 101q0 50 -92 77q-89 -24 -89 -79
q0 -28 25.5 -46t66.5 -18t65 18.5t24 47.5zM653 294q0 -47 86 -72q77 21 77 70q0 26 -22.5 43t-58.5 17q-37 0 -59.5 -17t-22.5 -41z" />
    <glyph glyph-name="one.sup_alt" 
d="M339 494q-1 -9 -1 -52q-27 1 -91 1h-91q-53 0 -87 -1q0 32 -2 52q24 -1 67 -1l45 -1q1 23 1 64v217l-104 -32l-10 49q22 6 65 19.5t52 16.5l40 12l13 -4q-1 -12 -1 -68v-255v-19h31q33 0 73 2z" />
    <glyph glyph-name="one.inf_alt" 
d="M339 -153q-1 -9 -1 -52q-27 1 -91 1h-91q-53 0 -87 -1q0 32 -2 52q24 -1 67 -1h45q1 23 1 63v217l-104 -32l-10 49q22 6 65 19.5t52 16.5l40 12l13 -4q-1 -12 -1 -68v-255v-19h31q33 0 73 2z" />
    <glyph glyph-name="zero.tab" horiz-adv-x="560" 
d="M284 703q111 0 172 -98.5t61 -251.5q0 -165 -65 -268t-178 -103q-110 0 -170.5 98.5t-60.5 251.5q0 165 64.5 268t176.5 103zM279 45q76 0 121 85.5t45 210.5q0 137 -44 218t-121 81q-75 0 -120 -85.5t-45 -210.5q0 -137 44 -218t120 -81z" />
    <glyph glyph-name="one.tab" horiz-adv-x="560" 
d="M520 66q0 -45 -1 -69q-73 3 -180 3h-109q-60 0 -154 -3q0 12 -3 69q72 -3 121 -3h73q2 86 2 127v424l-178 -60l-14 63q31 9 101.5 33t89.5 30l63 21l10 -6q-3 -27 -3 -115v-466v-51h56q70 0 126 3z" />
    <glyph glyph-name="two.tab" horiz-adv-x="560" 
d="M147 64q250 0 358 3q-4 -28 -7 -70q-92 4 -222 4q-133 0 -226 -4l-11 49q94 88 142 133.5t101.5 101t76 88.5t37.5 68.5t15 69.5q0 58 -38 92.5t-104 34.5q-92 0 -182 -84l-27 60q103 90 214 90q94 0 152 -49.5t58 -134.5q0 -68 -36.5 -127.5t-119.5 -148.5
q-87 -91 -181 -176z" />
    <glyph glyph-name="three.tab" horiz-adv-x="560" 
d="M57 14l-12 71q97 -34 186 -34t143 34.5t54 89.5q0 66 -66.5 103t-191.5 40l-10 51q127 24 190.5 68t63.5 99q0 42 -39 70.5t-107 28.5q-97 0 -181 -59l-27 60q103 64 213 64q96 0 155 -45t59 -112t-52.5 -113.5t-146.5 -70.5q105 -16 159 -62t54 -114q0 -87 -74 -142.5
t-191 -55.5q-99 0 -179 29z" />
    <glyph glyph-name="four.tab" horiz-adv-x="560" 
d="M359 0q4 47 4 160v22h-66q-164 0 -257 -4l-17 46l285 377l76 99l48 -5q-3 -29 -3 -127v-328q47 0 107 2q-6 -38 -7 -64l-100 3v-64q0 -83 3 -117h-73zM363 577l-253 -337h253v337z" />
    <glyph glyph-name="five.tab" horiz-adv-x="560" 
d="M63 13l-12 70q96 -33 183 -33t142 41t55 103q0 72 -62 109t-178 37q-39 0 -98 -8l-10 6q0 11 3 49.5t3 63.5l5 111q0 19 0.5 57t0.5 55l12 11q146 -2 189 -2q83 0 194 3q-10 -48 -10 -72q-116 2 -183 2h-133l-9 -217q2 0 28 2t37 2q136 0 209.5 -56t73.5 -150t-74.5 -153
t-191.5 -59q-98 0 -174 28z" />
    <glyph glyph-name="six.tab" horiz-adv-x="560" 
d="M463 646q-145 -27 -231 -109t-109 -203q29 45 76.5 71.5t105.5 26.5q90 0 151.5 -61t61.5 -152q0 -100 -66.5 -168.5t-170.5 -68.5q-105 0 -166.5 72t-61.5 196q0 175 103 299.5t291 158.5zM446 216q0 68 -44.5 111t-115.5 43q-66 0 -112 -48t-46 -116q0 -67 43.5 -114
t113.5 -47q71 0 116 49t45 122z" />
    <glyph glyph-name="seven.tab" horiz-adv-x="560" 
d="M46 686q111 -3 219 -3q125 0 240 3l20 -33q-11 -18 -57 -113l-219 -414q-44 -79 -65 -132l-79 11q32 54 94 173l232 438h-177q-151 0 -215 -1q5 30 7 71z" />
    <glyph glyph-name="eight.tab" horiz-adv-x="560" 
d="M47 165q0 133 169 189q-65 24 -104.5 67t-39.5 101q0 76 61.5 128.5t155.5 52.5q91 0 150 -51t59 -123q0 -110 -146 -170q161 -66 161 -185q0 -83 -66 -137.5t-169 -54.5q-101 0 -166 52.5t-65 130.5zM440 171q0 101 -160 156q-79 -26 -119.5 -63.5t-40.5 -93.5
t46.5 -91.5t116.5 -35.5t113.5 37t43.5 91zM143 525q0 -89 147 -139q64 20 100 56.5t36 81.5q0 52 -40 85t-101 33q-63 0 -102.5 -33.5t-39.5 -83.5z" />
    <glyph glyph-name="nine.tab" horiz-adv-x="560" 
d="M97 38q144 27 230.5 109.5t109.5 204.5q-28 -45 -76 -72t-106 -27q-90 0 -151.5 60.5t-61.5 151.5q0 100 66.5 168.5t170.5 68.5q105 0 166.5 -72t61.5 -196q0 -175 -102.5 -299t-291.5 -159zM114 469q0 -68 44.5 -111t115.5 -43q66 0 112 47.5t46 115.5t-43.5 114.5
t-113.5 46.5q-71 0 -116 -49t-45 -121z" />
    </font>
</defs>
</svg>
