<?xml version="1.0" standalone="no"?>
<!DOCTYPE svg PUBLIC "-//W3C//DTD SVG 1.1//EN" "http://www.w3.org/Graphics/SVG/1.1/DTD/svg11.dtd" >
<svg>
<metadata>
Created by FontForge 20110222 at Tue Mar 18 01:38:39 2014
 By Orthosie Webhosting
Copyright (C) 2004 Hoefler &#38; Frere-Jones Typography, Inc. www.typography.com
</metadata>
<defs>
<font id="WhitneyHTFSemiBold" horiz-adv-x="454" >
  <font-face 
    font-family="WhitneyHTFSemiBold"
    font-weight="700"
    font-stretch="normal"
    units-per-em="1000"
    panose-1="0 0 0 0 0 0 0 0 0 0"
    ascent="800"
    descent="-200"
    x-height="483"
    cap-height="690"
    bbox="-79 -200 993 953"
    underline-thickness="20"
    underline-position="-123"
    unicode-range="U+0020-FB02"
  />
<missing-glyph horiz-adv-x="500" 
 />
    <glyph glyph-name=".notdef" horiz-adv-x="500" 
 />
    <glyph glyph-name=".null" horiz-adv-x="0" 
 />
    <glyph glyph-name="nonmarkingreturn" horiz-adv-x="333" 
 />
    <glyph glyph-name="space" unicode=" " horiz-adv-x="214" 
 />
    <glyph glyph-name="exclam" unicode="!" horiz-adv-x="284" 
d="M216 690l-36 -452l-75 -17l-37 469h148zM207 0h-131v146h131v-146z" />
    <glyph glyph-name="quotedbl" unicode="&#x22;" horiz-adv-x="465" 
d="M410 676l-35 -254l-74 17l-33 237h142zM196 676l-34 -254l-75 17l-32 237h141z" />
    <glyph glyph-name="numbersign" unicode="#" horiz-adv-x="667" 
d="M228 157l-26 -165l-80 18l24 147h-107v101h122l25 160h-112l-17 101h145l26 159h83l-25 -159h153l25 165l80 -18l-23 -147h106v-101h-122l-25 -160h114l16 -101h-146l-25 -159h-83l25 159h-153zM269 420l-26 -164h155l25 164h-154z" />
    <glyph glyph-name="dollar" unicode="$" horiz-adv-x="538" 
d="M359 673q62 -12 111 -37l-17 -103q-53 32 -113 45l-28 -182q97 -33 140.5 -78t43.5 -124q0 -95 -63.5 -146.5t-173.5 -51.5h-5l-18 -118l-69 15q1 7 3 18t5.5 35t5.5 40l2 16q-81 12 -148 46l16 103q78 -44 152 -55l31 207q-97 33 -139.5 74t-42.5 117q0 89 60 137.5
t165 48.5h10l12 75l70 -16zM265 91h2q120 0 120 92q0 35 -19.5 58t-73.5 42zM277 586h-13q-104 0 -104 -79q0 -33 19.5 -52.5t71.5 -38.5z" />
    <glyph glyph-name="percent" unicode="%" horiz-adv-x="897" 
d="M371 485q0 -92 -47 -145.5t-118 -53.5t-118 53.5t-47 145.5t47 145.5t118 53.5q72 0 118.5 -53t46.5 -146zM704 664l-432 -671l-79 19l431 671zM280 485q0 58 -18.5 92t-55.5 34t-55.5 -34t-18.5 -92q0 -56 19 -90.5t55 -34.5q74 0 74 125zM855 191q0 -92 -47 -145.5
t-118 -53.5t-118 53.5t-47 145.5t47 145.5t118 53.5t118 -53.5t47 -145.5zM764 191q0 57 -19 91t-55 34q-37 0 -55.5 -33.5t-18.5 -91.5q0 -57 19 -91.5t55 -34.5q37 0 55.5 34t18.5 92z" />
    <glyph glyph-name="ampersand" unicode="&#x26;" horiz-adv-x="672" 
d="M678 16l-133 -22l-81 83q-84 -89 -205 -89q-107 0 -167.5 49t-60.5 138q0 131 147 208q-33 37 -48 71t-15 79q0 75 52.5 122.5t142.5 47.5q99 0 178 -43l-19 -115q-86 52 -152 52q-37 0 -57 -19t-20 -49q0 -43 55 -101l166 -176q26 65 38 155l105 -23q-20 -126 -69 -214z
M399 149l-156 163q-87 -50 -87 -122q0 -45 32 -73.5t84 -28.5q73 0 127 61z" />
    <glyph glyph-name="quotesingle" unicode="'" horiz-adv-x="253" 
d="M198 676l-34 -254l-77 17l-32 237h143z" />
    <glyph glyph-name="parenleft" unicode="(" horiz-adv-x="407" 
d="M376 -71l-101 -23q-111 91 -165.5 185t-54.5 220q0 267 275 415l14 -93q-81 -64 -119.5 -140.5t-38.5 -181.5q0 -108 44 -195.5t146 -186.5z" />
    <glyph glyph-name="parenright" unicode=")" horiz-adv-x="407" 
d="M351 316q0 -266 -274 -415l-15 93q81 65 120 141.5t39 180.5q0 109 -44 196.5t-146 186.5l101 23q111 -92 165 -186t54 -220z" />
    <glyph glyph-name="asterisk" unicode="*" horiz-adv-x="419" 
d="M383 557l-108 -60l53 -113l-29 -19l-90 84l-90 -84l-28 19l52 113l-107 60l10 32l123 -13l22 119h36l22 -119l123 13z" />
    <glyph glyph-name="plus" unicode="+" horiz-adv-x="572" 
d="M518 290h-182v-188h-100v188h-182v96h182v188h100v-188h182v-96z" />
    <glyph glyph-name="comma" unicode="," horiz-adv-x="243" 
d="M208 146l-114 -287l-69 17l46 270h137z" />
    <glyph glyph-name="hyphen" unicode="-" horiz-adv-x="354" 
d="M307 230h-260v115h260v-115z" />
    <glyph glyph-name="period" unicode="." horiz-adv-x="243" 
d="M187 0h-131v146h131v-146z" />
    <glyph glyph-name="slash" unicode="/" horiz-adv-x="533" 
d="M517 677l-451 -804l-103 22l451 804z" />
    <glyph glyph-name="zero" unicode="0" horiz-adv-x="627" 
d="M583 338q0 -166 -73 -258.5t-196 -92.5q-124 0 -197 92.5t-73 258.5t73 258.5t197 92.5q123 0 196 -92.5t73 -258.5zM454 338q0 120 -36 184t-104 64t-105 -64t-37 -184t37 -184t105 -64t104 64t36 184z" />
    <glyph glyph-name="one" unicode="1" horiz-adv-x="382" 
d="M300 0h-128v552l-138 -53l-14 101l167 77h113v-677z" />
    <glyph glyph-name="two" unicode="2" horiz-adv-x="543" 
d="M501 0h-459v94l242 247q42 44 60 75.5t18 66.5q0 94 -105 94q-88 0 -182 -75l-16 114q93 72 212 72q102 0 160 -51.5t58 -140.5q0 -63 -28.5 -112t-95.5 -115l-164 -163h284z" />
    <glyph glyph-name="three" unicode="3" horiz-adv-x="529" 
d="M488 187q0 -93 -68 -146.5t-180 -53.5q-119 0 -208 53l18 110q88 -55 185 -55q59 0 92 25t33 72q0 110 -166 110h-36l-16 100h57q149 0 149 96q0 39 -28.5 61t-83.5 22q-94 0 -177 -60l-16 106q87 62 207 62q109 0 167.5 -50t58.5 -127q0 -115 -122 -157
q134 -40 134 -168z" />
    <glyph glyph-name="four" unicode="4" horiz-adv-x="599" 
d="M577 144h-101v-144h-120v144h-326v85l300 448h146v-440h101v-93zM356 237v310l-208 -310h208z" />
    <glyph glyph-name="five" unicode="5" horiz-adv-x="541" 
d="M502 219q0 -111 -73.5 -171.5t-191.5 -60.5q-108 0 -199 49l19 112q87 -53 181 -53q63 0 102.5 30t39.5 88q0 51 -32.5 79.5t-91.5 28.5q-58 0 -105 -20l-86 19l24 356h377l17 -108h-293l-12 -158q50 14 102 14q101 0 161.5 -55t60.5 -150z" />
    <glyph glyph-name="six" unicode="6" horiz-adv-x="570" 
d="M168 370q80 52 168 52q90 0 145 -54.5t55 -151.5q0 -101 -68.5 -165t-173.5 -64q-113 0 -182 74.5t-69 211.5q0 171 102 274.5t276 142.5l16 -107q-228 -54 -269 -213zM161 274q1 -88 38 -137.5t97 -49.5q53 0 85.5 33t32.5 89q0 114 -118 114q-69 0 -135 -49z" />
    <glyph glyph-name="seven" unicode="7" horiz-adv-x="535" 
d="M494 577l-261 -584l-123 24l248 549h-310l-16 110h462v-99z" />
    <glyph glyph-name="eight" unicode="8" horiz-adv-x="578" 
d="M316 396q81 50 81 116q0 39 -28.5 62t-79.5 23q-50 0 -78 -24t-28 -61t29 -61.5t104 -54.5zM260 314q-98 -53 -98 -130q0 -47 36 -74.5t93 -27.5q55 0 89.5 26.5t34.5 70.5q0 45 -32 71t-123 64zM171 354q-107 58 -107 156q0 81 63.5 130t165.5 49t162.5 -48t60.5 -123
q0 -96 -110 -162q68 -33 100 -73.5t32 -104.5q0 -83 -68 -137t-181 -54q-117 0 -183 54t-66 134q0 109 131 179z" />
    <glyph glyph-name="nine" unicode="9" horiz-adv-x="570" 
d="M399 296q-77 -50 -162 -50q-93 0 -148 54.5t-55 155.5q0 104 68 168.5t173 64.5q114 0 183 -74.5t69 -211.5q0 -172 -104.5 -277t-282.5 -140l-16 107q229 46 275 203zM409 392v4q0 92 -37 142.5t-98 50.5q-53 0 -85.5 -33.5t-32.5 -92.5q0 -119 118 -119q70 0 135 48z
" />
    <glyph glyph-name="colon" unicode=":" horiz-adv-x="252" 
d="M191 339h-131v144h131v-144zM191 0h-131v145h131v-145z" />
    <glyph glyph-name="semicolon" unicode=";" horiz-adv-x="252" 
d="M198 339h-131v144h131v-144zM205 145l-114 -286l-70 17l47 269h137z" />
    <glyph glyph-name="less" unicode="&#x3c;" horiz-adv-x="572" 
d="M504 73l-447 222v86l447 222v-108l-326 -156l326 -157v-109z" />
    <glyph glyph-name="equal" unicode="=" horiz-adv-x="590" 
d="M518 404h-445v100h445v-100zM518 172h-445v100h445v-100z" />
    <glyph glyph-name="greater" unicode="&#x3e;" horiz-adv-x="572" 
d="M515 295l-447 -222v108l326 156l-326 157v109l447 -222v-86z" />
    <glyph glyph-name="question" unicode="?" horiz-adv-x="512" 
d="M289 0h-132v146h132v-146zM271 303l-6 -69l-73 -16l-12 159l31 12q73 26 103.5 53t30.5 68q0 38 -27 59.5t-73 21.5q-95 0 -193 -76l-17 116q100 72 223 72q99 0 156.5 -49t57.5 -135q0 -80 -49 -129.5t-152 -86.5z" />
    <glyph glyph-name="at" unicode="@" horiz-adv-x="835" 
d="M467 203l26 162q-26 8 -49 8q-47 0 -82.5 -51.5t-35.5 -128.5q0 -62 43 -62q22 0 43.5 16.5t54.5 55.5zM472 130q-38 -43 -69.5 -62.5t-67.5 -19.5q-46 0 -77 33.5t-31 96.5q0 119 66 195.5t157 76.5q74 0 148 -28l-32 -209q-4 -26 -4 -52q0 -27 16 -43t47 -16
q53 0 87 54.5t34 150.5q0 142 -79.5 216.5t-209.5 74.5q-151 0 -259.5 -118t-108.5 -292q0 -148 79 -220.5t213 -72.5q120 0 215 49l6 -36q-96 -48 -225 -48q-155 0 -243.5 84.5t-88.5 242.5q0 119 55 222t151 164t210 61q149 0 238.5 -87.5t89.5 -238.5q0 -119 -50 -189.5
t-138 -70.5q-47 0 -82 22t-47 60z" />
    <glyph glyph-name="A" unicode="A" horiz-adv-x="695" 
d="M674 17l-132 -24l-66 182h-261l-63 -175h-131l259 693h141zM439 283l-94 266l-94 -266h188z" />
    <glyph glyph-name="B" unicode="B" horiz-adv-x="566" 
d="M531 201q0 -100 -68 -150.5t-192 -50.5h-198v690h201q113 0 171 -47.5t58 -131.5q0 -102 -100 -144q128 -40 128 -166zM380 500q0 89 -113 89h-67v-183h61q58 0 88.5 24.5t30.5 69.5zM404 205q0 107 -135 107h-69v-211h71q64 0 98.5 26.5t34.5 77.5z" />
    <glyph glyph-name="C" unicode="C" horiz-adv-x="625" 
d="M576 47q-93 -59 -203 -59q-150 0 -238.5 97.5t-88.5 258.5t90 259.5t236 98.5q111 0 193 -50l-19 -125q-81 61 -168 61q-91 0 -144 -65t-53 -178t55 -177.5t147 -64.5q87 0 175 58z" />
    <glyph glyph-name="D" unicode="D" horiz-adv-x="704" 
d="M656 346q0 -157 -95.5 -251.5t-268.5 -94.5h-219v690h219q176 0 270 -93.5t94 -250.5zM521 345q0 116 -61.5 176t-168.5 60h-86v-472h84q111 0 171.5 58.5t60.5 177.5z" />
    <glyph glyph-name="E" unicode="E" horiz-adv-x="518" 
d="M484 0h-411v690h401v-112h-270v-162h208l18 -114h-226v-190h280v-112z" />
    <glyph glyph-name="F" unicode="F" horiz-adv-x="491" 
d="M459 575h-254v-175h194l19 -116h-213v-284h-132v690h386v-115z" />
    <glyph glyph-name="G" unicode="G" horiz-adv-x="689" 
d="M627 57q-108 -70 -242 -70q-161 0 -250 97t-89 260q0 162 90.5 260.5t246.5 98.5q118 0 210 -55l-19 -123q-91 65 -190 65t-151 -66t-52 -179q0 -114 53.5 -180t155.5 -66q63 0 116 28v153h-140l-16 106h277v-329z" />
    <glyph glyph-name="H" unicode="H" horiz-adv-x="705" 
d="M632 0h-133v300h-293v-300h-133v690h133v-272h293v272h133v-690z" />
    <glyph glyph-name="I" unicode="I" horiz-adv-x="288" 
d="M211 0h-133v690h133v-690z" />
    <glyph glyph-name="J" unicode="J" horiz-adv-x="397" 
d="M330 190q0 -101 -57 -149t-155 -48q-39 0 -79 7l-18 115q37 -10 79 -10q98 0 98 102v483h132v-500z" />
    <glyph glyph-name="K" unicode="K" horiz-adv-x="629" 
d="M625 18l-141 -25l-278 343v-336h-133v690h133v-303l254 303h152l-274 -319z" />
    <glyph glyph-name="L" unicode="L" horiz-adv-x="477" 
d="M454 0h-381v690h133v-573h230z" />
    <glyph glyph-name="M" unicode="M" horiz-adv-x="895" 
d="M842 0h-132l-37 504l-174 -506h-116l-175 506l-35 -504h-119l53 690h168l175 -521l174 521h165z" />
    <glyph glyph-name="N" unicode="N" horiz-adv-x="704" 
d="M631 0h-110l-325 475v-475h-123v690h125l310 -452v452h123v-690z" />
    <glyph glyph-name="O" unicode="O" horiz-adv-x="740" 
d="M694 346q0 -161 -88.5 -260t-236.5 -99q-146 0 -234.5 98.5t-88.5 258.5q0 161 89 260t236 99q148 0 235.5 -98t87.5 -259zM560 345q0 114 -51 181t-139 67t-138.5 -67t-50.5 -181t50.5 -181t138.5 -67q89 0 139.5 67t50.5 181z" />
    <glyph glyph-name="P" unicode="P" horiz-adv-x="555" 
d="M528 478q0 -109 -71 -166.5t-193 -57.5h-59v-254h-132v690h202q120 0 186.5 -54.5t66.5 -157.5zM398 475q0 109 -130 109h-63v-223h58q135 0 135 114z" />
    <glyph glyph-name="Q" unicode="Q" horiz-adv-x="740" 
d="M694 351q0 -117 -50 -199.5t-137 -119.5l179 -61l-25 -114l-380 139q-235 85 -235 348q0 161 89 260t236 99t235 -96.5t88 -255.5zM560 344q0 113 -51 181t-139 68t-138.5 -67.5t-50.5 -181.5q0 -113 51 -182.5t138 -69.5q88 0 139 69.5t51 182.5z" />
    <glyph glyph-name="R" unicode="R" horiz-adv-x="593" 
d="M404 476q0 52 -32.5 80t-94.5 28h-73v-219h67q62 0 97.5 29t35.5 82zM396 289l184 -271l-135 -25l-180 271h-60v-264h-132v690h214q117 0 182 -53.5t65 -153.5q0 -144 -138 -194z" />
    <glyph glyph-name="S" unicode="S" horiz-adv-x="533" 
d="M493 197q0 -98 -64.5 -151.5t-167.5 -53.5q-116 0 -217 48l20 121q104 -61 199 -61q47 0 75 22t28 62q0 38 -24 60.5t-100 54.5q-105 43 -146.5 86t-41.5 120q0 90 62 141.5t161 51.5q101 0 182 -42l-20 -120q-82 54 -163 54q-47 0 -71 -20.5t-24 -53.5t23.5 -54
t94.5 -51q109 -45 151.5 -90t42.5 -124z" />
    <glyph glyph-name="T" unicode="T" horiz-adv-x="605" 
d="M584 575h-217v-575h-133v575h-205v115h536z" />
    <glyph glyph-name="U" unicode="U" horiz-adv-x="688" 
d="M623 270q0 -135 -76.5 -208.5t-204.5 -73.5q-127 0 -201.5 73t-74.5 206v423h132v-416q0 -81 37 -126t108 -45q73 0 110 43.5t37 124.5v419h133v-420z" />
    <glyph glyph-name="V" unicode="V" horiz-adv-x="685" 
d="M664 690l-259 -693h-130l-254 676l140 24l184 -529l181 522h138z" />
    <glyph glyph-name="W" unicode="W" horiz-adv-x="1003" 
d="M977 690l-198 -690h-126l-153 502l-153 -502h-125l-193 672l138 25l130 -494l144 487h133l144 -487l126 487h133z" />
    <glyph glyph-name="X" unicode="X" horiz-adv-x="649" 
d="M247 355l-206 317l139 25l148 -240l141 233h140l-209 -325l227 -347l-139 -25l-168 269l-40 -66l-82 -130l-40 -66h-139z" />
    <glyph glyph-name="Y" unicode="Y" horiz-adv-x="654" 
d="M640 690l-250 -426v-264h-133v263l-241 412l138 22l175 -312l169 305h142z" />
    <glyph glyph-name="Z" unicode="Z" horiz-adv-x="609" 
d="M571 0h-527v97l357 484h-325l-17 109h503v-97l-357 -484h349z" />
    <glyph glyph-name="bracketleft" unicode="[" horiz-adv-x="414" 
d="M373 -104h-294v794h289v-80h-173v-633h165z" />
    <glyph glyph-name="backslash" unicode="\" horiz-adv-x="533" 
d="M570 -106l-103 -22l-451 804l102 22z" />
    <glyph glyph-name="bracketright" unicode="]" horiz-adv-x="414" 
d="M334 -104h-289v81h174v633h-166l-13 80h294v-794z" />
    <glyph glyph-name="asciicircum" unicode="^" 
d="M378 557l-69 -14l-82 69l-79 -65h-76l100 144h112z" />
    <glyph glyph-name="underscore" unicode="_" 
d="M456 -104h-458v70h458v-70z" />
    <glyph glyph-name="grave" unicode="`" 
d="M329 547h-79l-141 124l147 27z" />
    <glyph glyph-name="a" unicode="a" horiz-adv-x="503" 
d="M445 0h-103l-10 63q-69 -73 -161 -73q-62 0 -99.5 36t-37.5 98q0 86 70.5 129t220.5 58v14q0 72 -83 72q-73 0 -161 -39l-15 96q99 39 192 39q95 0 141 -38t46 -124v-331zM325 133v108q-97 -12 -134.5 -38.5t-37.5 -65.5q0 -26 15.5 -41t43.5 -15q61 0 113 52z" />
    <glyph glyph-name="b" unicode="b" horiz-adv-x="537" 
d="M500 255q0 -130 -64.5 -195.5t-176.5 -65.5q-102 0 -198 32v677l120 19v-293q62 64 137 64q81 0 131.5 -60.5t50.5 -177.5zM379 248q0 68 -25 103.5t-67 35.5q-53 0 -106 -63v-219q36 -13 76 -13q122 0 122 156z" />
    <glyph glyph-name="c" unicode="c" horiz-adv-x="460" 
d="M425 38q-68 -47 -160 -47q-103 0 -166 66t-63 182q0 121 66 187.5t167 66.5q86 0 151 -41l-17 -108q-60 45 -127 45q-53 0 -86 -38.5t-33 -108.5q0 -72 35 -110t92 -38q66 0 125 46z" />
    <glyph glyph-name="d" unicode="d" horiz-adv-x="541" 
d="M480 0h-103l-10 67q-64 -77 -148 -77q-80 0 -131 60.5t-51 177.5q0 128 60 194t151 66q60 0 112 -18v233l120 19v-722zM360 163v208q-45 21 -94 21t-79 -40t-30 -117q0 -68 25.5 -103t67.5 -35q57 0 110 66z" />
    <glyph glyph-name="e" unicode="e" horiz-adv-x="502" 
d="M466 247q0 -5 -0.5 -15.5t-0.5 -13.5h-310q9 -135 130 -135q80 0 166 60l14 -94q-85 -59 -193 -59q-107 0 -171.5 63t-64.5 188q0 116 61.5 184t158.5 68q104 0 157 -68.5t53 -177.5zM349 293q-12 117 -96 117q-37 0 -63 -30t-33 -87h192z" />
    <glyph glyph-name="f" unicode="f" horiz-adv-x="326" 
d="M321 611q-24 4 -50 4q-63 0 -63 -61v-71h92l15 -98h-107v-385h-119v385h-70v98h70v83q0 147 167 147q25 0 49 -4z" />
    <glyph glyph-name="g" unicode="g" horiz-adv-x="519" 
d="M165 24q-51 -36 -51 -73q0 -28 34 -45t100 -17q63 0 99 18.5t36 46.5q0 20 -18.5 31.5t-62.5 18.5l-65 8q-34 4 -72 12zM323 325q0 39 -23.5 65t-61.5 26q-39 0 -61.5 -26.5t-22.5 -67.5q0 -38 23 -63t61 -25q39 0 62 25.5t23 65.5zM374 448l118 42l16 -96l-88 -6
q13 -27 13 -63q0 -76 -56 -121t-137 -45q-21 0 -39 3q-20 -15 -20 -26q0 -12 16 -17.5t74 -13.5l62 -6q79 -11 120 -38.5t41 -80.5q0 -75 -72.5 -118.5t-181.5 -43.5q-102 0 -166 31t-64 89q0 62 91 114q-28 22 -28 52q0 40 61 77q-91 43 -91 141q0 77 55.5 124t138.5 47
t137 -45z" />
    <glyph glyph-name="h" unicode="h" horiz-adv-x="532" 
d="M473 0h-120v316q0 71 -62 71q-52 0 -110 -61v-326h-120v703l120 19v-300q77 71 154 71q67 0 102.5 -38.5t35.5 -106.5v-348z" />
    <glyph glyph-name="i" unicode="i" horiz-adv-x="252" 
d="M198 632q0 -30 -20.5 -49t-50.5 -19t-51 19t-21 49t21 50t51 20t50.5 -20t20.5 -50zM186 0h-120v483h120v-483z" />
    <glyph glyph-name="j" unicode="j" horiz-adv-x="253" 
d="M198 632q0 -30 -20.5 -49t-50.5 -19t-51 19t-21 49t21 50t51 20t50.5 -20t20.5 -50zM186 -37q0 -145 -149 -145q-36 0 -47 4l-15 98q15 -4 38 -4q53 0 53 57v510h120v-520z" />
    <glyph glyph-name="k" unicode="k" horiz-adv-x="493" 
d="M485 11l-127 -18l-177 246v-239h-120v703l120 19v-439l158 200h135l-178 -216z" />
    <glyph glyph-name="l" unicode="l" horiz-adv-x="252" 
d="M186 0h-120v703l120 19v-722z" />
    <glyph glyph-name="m" unicode="m" horiz-adv-x="813" 
d="M754 0h-120v316q0 71 -59 71q-49 0 -107 -60v-327h-120v316q0 71 -60 71q-49 0 -107 -60v-327h-120v483h102l11 -68q82 78 159 78q94 0 124 -78q78 78 161 78q67 0 101.5 -38t34.5 -107v-348z" />
    <glyph glyph-name="n" unicode="n" horiz-adv-x="532" 
d="M473 0h-120v316q0 71 -62 71q-52 0 -110 -61v-326h-120v483h102l11 -68q82 78 161 78q67 0 102.5 -38.5t35.5 -106.5v-348z" />
    <glyph glyph-name="o" unicode="o" horiz-adv-x="527" 
d="M491 241q0 -116 -64 -183.5t-165 -67.5q-100 0 -163 67.5t-63 183.5t63.5 184t163.5 68q101 0 164.5 -68t63.5 -184zM374 241q0 68 -29.5 110.5t-82.5 42.5q-52 0 -80.5 -42t-28.5 -111q0 -68 29 -110.5t80 -42.5q54 0 83 41.5t29 111.5z" />
    <glyph glyph-name="p" unicode="p" horiz-adv-x="541" 
d="M504 255q0 -128 -60.5 -194t-150.5 -66q-62 0 -112 19v-182l-120 -18v669h102l11 -66q66 76 148 76q80 0 131 -61t51 -177zM383 248q0 68 -25.5 103.5t-67.5 35.5q-56 0 -109 -68v-207q43 -21 93 -21q49 0 79 40t30 117z" />
    <glyph glyph-name="q" unicode="q" horiz-adv-x="537" 
d="M476 -168l-120 -18v240q-64 -64 -137 -64q-81 0 -131.5 60.5t-50.5 177.5q0 130 64.5 195.5t176.5 65.5q102 0 198 -32v-625zM356 159v218q-39 14 -76 14q-123 0 -123 -156q0 -68 25.5 -103t67.5 -35q53 0 106 62z" />
    <glyph glyph-name="r" unicode="r" horiz-adv-x="367" 
d="M352 374q-55 -4 -100 -30.5t-71 -66.5v-277h-120v483h102l15 -97q58 102 155 107z" />
    <glyph glyph-name="s" unicode="s" horiz-adv-x="453" 
d="M419 142q0 -72 -50.5 -111.5t-144.5 -39.5q-102 0 -188 47l16 100q87 -57 176 -57q80 0 80 50q0 25 -20 39t-78 28q-91 23 -128.5 55.5t-37.5 96.5q0 63 47.5 102.5t130.5 39.5q95 0 169 -34l-16 -100q-78 44 -153 44q-67 0 -67 -44q0 -20 18.5 -32.5t71.5 -26.5
q97 -25 135.5 -58t38.5 -99z" />
    <glyph glyph-name="t" unicode="t" horiz-adv-x="350" 
d="M321 0q-38 -8 -76 -8q-76 0 -117.5 33.5t-41.5 111.5v248h-68v98h68v153l118 18v-171h99l15 -98h-114v-228q0 -60 64 -60q23 0 38 4z" />
    <glyph glyph-name="u" unicode="u" horiz-adv-x="532" 
d="M471 0h-102l-11 68q-82 -78 -161 -78q-67 0 -102.5 38.5t-35.5 107.5v347h120v-316q0 -70 61 -70q53 0 111 60v326h120v-483z" />
    <glyph glyph-name="v" unicode="v" horiz-adv-x="490" 
d="M474 483l-171 -485h-117l-169 476l126 16l108 -343l104 336h119z" />
    <glyph glyph-name="w" unicode="w" horiz-adv-x="723" 
d="M704 483l-145 -483h-107l-91 320l-90 -320h-107l-144 474l120 16l86 -322l88 315h106l87 -315l84 315h113z" />
    <glyph glyph-name="x" unicode="x" horiz-adv-x="484" 
d="M462 9l-122 -16l-103 168l-96 -161h-119l155 243l-146 231l122 16l92 -154l90 147h118l-147 -230z" />
    <glyph glyph-name="y" unicode="y" horiz-adv-x="496" 
d="M481 483l-183 -509q-31 -87 -75 -121.5t-116 -34.5q-26 0 -44 5l-16 99q28 -7 56 -7q56 0 78 51l11 32l-175 476l125 16l112 -344l108 337h119z" />
    <glyph glyph-name="z" unicode="z" horiz-adv-x="460" 
d="M429 0h-397v92l240 295h-214l-16 96h375v-92l-241 -295h237z" />
    <glyph glyph-name="braceleft" unicode="{" horiz-adv-x="491" 
d="M450 -104h-135q-74 0 -112 34t-38 97q0 23 7 67.5t7 67.5q0 92 -103 92h-31l-12 79h44q102 0 102 91q0 23 -7 67.5t-7 67.5q0 63 38 97t112 34h131v-80h-97q-66 0 -66 -60q0 -20 6.5 -63t6.5 -65q0 -57 -27.5 -86.5t-80.5 -41.5v-2q53 -11 80.5 -41t27.5 -87
q0 -22 -6.5 -65t-6.5 -63q0 -59 65 -59h89z" />
    <glyph glyph-name="bar" unicode="|" horiz-adv-x="283" 
d="M193 -170l-103 -16v892l103 16v-892z" />
    <glyph glyph-name="braceright" unicode="}" horiz-adv-x="491" 
d="M458 254h-44q-102 0 -102 -92q0 -23 7 -67t7 -68q0 -63 -38 -97t-112 -34h-131v81h97q67 0 67 58q0 20 -7 63.5t-7 65.5q0 57 27.5 87t80.5 41v2q-53 12 -80.5 41.5t-27.5 86.5q0 22 7 66t7 64q0 58 -67 58h-89l-13 80h136q75 0 112.5 -34t37.5 -97q0 -22 -7 -67t-7 -68
q0 -91 103 -91h31z" />
    <glyph glyph-name="asciitilde" unicode="~" horiz-adv-x="409" 
d="M365 346q-16 -127 -89 -127q-27 0 -71 21q-48 24 -65 24q-22 0 -32 -48l-64 14q14 126 89 126q26 0 70 -21q50 -23 66 -23q20 0 32 48z" />
    <glyph glyph-name="nbspace" unicode="&#xa0;" horiz-adv-x="107" 
 />
    <glyph glyph-name="exclamdown" unicode="&#xa1;" horiz-adv-x="284" 
d="M207 544h-131v146h131v-146zM216 0h-148l36 452l75 17z" />
    <glyph glyph-name="cent" unicode="&#xa2;" horiz-adv-x="488" 
d="M282 91l-16 -101l-70 16l15 93q-79 19 -124 81t-45 156q0 117 67.5 182.5t173.5 65.5h3l16 101l70 -15l-14 -93q47 -10 83 -32l-15 -103q-46 31 -88 39l-45 -292q73 0 139 45l13 -96q-73 -47 -163 -47zM231 200l44 287q-57 -4 -88 -42t-31 -108q0 -107 75 -137z" />
    <glyph glyph-name="sterling" unicode="&#xa3;" horiz-adv-x="543" 
d="M142 386l40 126q29 93 82 135t141 42q51 0 96 -12l-16 -109q-34 10 -75 10q-44 0 -70.5 -23.5t-44.5 -78.5l-28 -90h148l17 -103h-198l-56 -178h309l18 -105h-459v85l63 198h-63v103h96z" />
    <glyph glyph-name="currency" unicode="&#xa4;" horiz-adv-x="600" 
d="M107 384h-81v74h93q26 106 97 168t177 62q97 0 171 -45l-18 -110q-73 49 -146 49q-56 0 -95 -32.5t-57 -91.5h211l12 -74h-236q-2 -30 -2 -46q0 -26 1 -39h231v-74h-219q37 -130 161 -130q75 0 150 50l18 -105q-86 -52 -182 -52q-113 0 -183.5 62.5t-93.5 174.5h-84
l-11 74h85q-1 12 -1 38q0 17 2 47z" />
    <glyph glyph-name="yen" unicode="&#xa5;" horiz-adv-x="624" 
d="M371 224v-71h160v-72h-160v-81h-125v81h-154l-11 72h165v71h-160v72h141l-211 365l132 22l166 -311l160 304h135l-220 -380h136l11 -72h-165z" />
    <glyph glyph-name="brokenbar" unicode="&#xa6;" horiz-adv-x="500" 
d="M25 -200v1000h450v-1000h-450z" />
    <glyph glyph-name="section" unicode="&#xa7;" horiz-adv-x="548" 
d="M509 362q0 -51 -31 -97l-91 16q17 32 17 54q0 23 -18.5 36t-69.5 25l-65 15q-78 18 -115.5 47.5t-37.5 87.5q0 62 48 100t124 38q92 0 163 -29l-15 -91q-73 35 -144 35q-31 0 -47.5 -12t-16.5 -32q0 -19 15.5 -30t52.5 -19l89 -21q77 -18 109.5 -45.5t32.5 -77.5zM38 314
q0 50 32 97l91 -16q-17 -29 -17 -54q0 -24 18 -36.5t69 -24.5l66 -15q78 -18 115.5 -47.5t37.5 -87.5q0 -62 -48 -100t-124 -38q-91 0 -164 29l15 91q75 -35 145 -35q31 0 47.5 12.5t16.5 31.5t-15.5 30t-53.5 19l-88 21q-78 18 -110.5 45.5t-32.5 77.5z" />
    <glyph glyph-name="dieresis" unicode="&#xa8;" 
d="M379 550h-115v115h115v-115zM190 550h-115v115h115v-115z" />
    <glyph glyph-name="copyright" unicode="&#xa9;" horiz-adv-x="799" 
d="M745 346q0 -160 -96.5 -259.5t-249.5 -99.5q-154 0 -249.5 98.5t-95.5 258.5t96.5 259.5t249.5 99.5q154 0 249.5 -98.5t95.5 -258.5zM701 345q0 151 -85 236.5t-216 85.5q-133 0 -217.5 -85.5t-84.5 -236.5t85 -236.5t217 -85.5t216.5 85.5t84.5 236.5zM541 181
q-61 -37 -126 -37q-89 0 -142 56t-53 148q0 91 54 147.5t140 56.5q63 0 120 -31l-13 -83q-51 37 -103 37q-49 0 -77.5 -34.5t-28.5 -92.5t29.5 -92t79.5 -34q51 0 107 37z" />
    <glyph glyph-name="ordfeminine" unicode="&#xaa;" horiz-adv-x="391" 
d="M328 356h-73l-6 39q-48 -45 -107 -45q-42 0 -67 24t-25 64q0 57 47 85.5t147 37.5v8q0 46 -56 46q-46 0 -107 -27l-10 66q60 27 131 27q64 0 95 -25.5t31 -81.5v-218zM337 222h-283v66h272zM244 447v64q-112 -13 -112 -63q0 -35 37 -35q39 0 75 34z" />
    <glyph glyph-name="guillemotleft" unicode="&#xab;" horiz-adv-x="549" 
d="M508 483l-127 -241l122 -230l-88 -19l-165 249l162 241h96zM287 483l-127 -241l121 -230l-86 -19l-167 249l163 241h96z" />
    <glyph glyph-name="logicalnot" unicode="&#xac;" horiz-adv-x="572" 
d="M518 287h-464v102h464v-102z" />
    <glyph glyph-name="registered" unicode="&#xae;" horiz-adv-x="563" 
d="M508 470q0 -103 -63.5 -167.5t-163.5 -64.5q-101 0 -164 64t-63 168q0 103 64 168t163 65q101 0 164 -64.5t63 -168.5zM476 470q0 96 -55.5 151t-139.5 55t-139 -55t-55 -151q0 -95 55 -150t139 -55q85 0 140 55t55 150zM398 357l-59 -10l-68 101h-19v-98h-57v257h88
q45 0 70 -20.5t25 -57.5q0 -52 -49 -71zM321 525q0 36 -42 36h-27v-73h26q43 0 43 37z" />
    <glyph glyph-name="macron" unicode="&#xaf;" 
d="M363 567h-272v88h272v-88z" />
    <glyph glyph-name="degree" unicode="&#xb0;" horiz-adv-x="436" 
d="M390 509q0 -74 -48.5 -122t-123.5 -48t-123.5 48t-48.5 122q0 75 48.5 124t123.5 49t123.5 -49t48.5 -124zM311 509q0 43 -26.5 71.5t-66.5 28.5t-66.5 -28.5t-26.5 -71.5t26 -70t67 -27t67 27t26 70z" />
    <glyph glyph-name="plusminus" unicode="&#xb1;" horiz-adv-x="599" 
d="M577 144h-101v-144h-118v144h-328v89l301 448l115 -26l-285 -416h197v160l118 25v-185h101v-95z" />
    <glyph glyph-name="twosuperior" unicode="&#xb2;" horiz-adv-x="500" 
d="M25 -200v1000h450v-1000h-450z" />
    <glyph glyph-name="threesuperior" unicode="&#xb3;" horiz-adv-x="500" 
d="M25 -200v1000h450v-1000h-450z" />
    <glyph glyph-name="acute" unicode="&#xb4;" 
d="M344 671l-140 -124h-79l74 151z" />
    <glyph glyph-name="mu" unicode="&#xb5;" horiz-adv-x="572" 
d="M436 117l-151 154l-151 -153l-68 68l153 151l-154 151l71 71l151 -154l151 153l68 -68l-153 -151l154 -151z" />
    <glyph glyph-name="paragraph" unicode="&#xb6;" horiz-adv-x="543" 
d="M467 0h-85v608h-68v-154l-35 -210q-115 5 -179.5 60t-64.5 158q0 101 66 157.5t181 56.5h185v-676z" />
    <glyph glyph-name="periodcentered" unicode="&#xb7;" horiz-adv-x="243" 
d="M187 214h-131v146h131v-146z" />
    <glyph glyph-name="cedilla" unicode="&#xb8;" 
d="M324 -75l-131 -107h-79l65 135z" />
    <glyph glyph-name="onesuperior" unicode="&#xb9;" horiz-adv-x="500" 
d="M25 -200v1000h450v-1000h-450z" />
    <glyph glyph-name="ordmasculine" unicode="&#xba;" horiz-adv-x="393" 
d="M352 515q0 -77 -43.5 -121.5t-112.5 -44.5q-68 0 -111 44.5t-43 121.5q0 76 43 121t111 45q69 0 112.5 -45t43.5 -121zM345 222h-293v66h282zM266 515q0 43 -18.5 69.5t-51.5 26.5t-51 -26.5t-18 -69.5t18 -70t51 -27q34 0 52 27t18 70z" />
    <glyph glyph-name="guillemotright" unicode="&#xbb;" horiz-adv-x="549" 
d="M520 241l-162 -241h-96l127 241l-122 231l87 18zM300 241l-163 -241h-97l128 241l-122 231l87 18z" />
    <glyph glyph-name="onequarter" unicode="&#xbc;" horiz-adv-x="500" 
d="M25 -200v1000h450v-1000h-450z" />
    <glyph glyph-name="onehalf" unicode="&#xbd;" horiz-adv-x="500" 
d="M25 -200v1000h450v-1000h-450z" />
    <glyph glyph-name="threequarters" unicode="&#xbe;" horiz-adv-x="500" 
d="M25 -200v1000h450v-1000h-450z" />
    <glyph glyph-name="questiondown" unicode="&#xbf;" horiz-adv-x="512" 
d="M223 690h132v-146h-132v146zM241 387l6 69l73 16l12 -159l-31 -12q-75 -29 -104.5 -54.5t-29.5 -66.5q0 -38 27 -59.5t73 -21.5q95 0 193 76l17 -116q-100 -72 -223 -72q-99 0 -156.5 49t-57.5 135q0 80 49 129.5t152 86.5z" />
    <glyph glyph-name="Agrave" unicode="&#xc0;" horiz-adv-x="695" 
d="M674 17l-132 -24l-66 182h-261l-63 -175h-131l259 693h141zM439 283l-94 266l-94 -266h188zM389 744h-79l-141 124l147 27z" />
    <glyph glyph-name="Aacute" unicode="&#xc1;" horiz-adv-x="695" 
d="M529 868l-140 -124h-79l74 151zM674 17l-132 -24l-66 182h-261l-63 -175h-131l259 693h141zM439 283l-94 266l-94 -266h188z" />
    <glyph glyph-name="Acircumflex" unicode="&#xc2;" horiz-adv-x="695" 
d="M674 17l-132 -24l-66 182h-261l-63 -175h-131l259 693h141zM439 283l-94 266l-94 -266h188zM499 745l-69 -14l-82 69l-79 -65h-76l100 144h112z" />
    <glyph glyph-name="Atilde" unicode="&#xc3;" horiz-adv-x="695" 
d="M674 17l-132 -24l-66 182h-261l-63 -175h-131l259 693h141zM439 283l-94 266l-94 -266h188zM509 872q-16 -126 -89 -126q-27 0 -71 21q-49 23 -65 23q-22 0 -32 -48l-65 14q16 127 89 127q27 0 71 -21q48 -24 65 -24q22 0 32 48z" />
    <glyph glyph-name="Adieresis" unicode="&#xc4;" horiz-adv-x="695" 
d="M674 17l-132 -24l-66 182h-261l-63 -175h-131l259 693h141zM439 283l-94 266l-94 -266h188zM500 747h-115v115h115v-115zM311 747h-115v115h115v-115z" />
    <glyph glyph-name="Aring" unicode="&#xc5;" horiz-adv-x="695" 
d="M674 17l-132 -24l-66 182h-261l-63 -175h-131l259 693h141zM439 283l-94 266l-94 -266h188zM466 847q0 -46 -32 -75.5t-86 -29.5t-86 29.5t-32 75.5q0 45 32.5 75.5t85.5 30.5t85.5 -30.5t32.5 -75.5zM402 847q0 25 -15 42t-39 17t-39 -17t-15 -42t15 -42t39 -17t39 17
t15 42z" />
    <glyph glyph-name="AE" unicode="&#xc6;" horiz-adv-x="894" 
d="M859 0h-408v175h-217l-94 -175h-138l368 690h479v-112h-271v-162h209l18 -114h-227v-190h281v-112zM451 283v315l-164 -315h164z" />
    <glyph glyph-name="Ccedilla" unicode="&#xc7;" horiz-adv-x="625" 
d="M576 47q-93 -59 -203 -59q-150 0 -238.5 97.5t-88.5 258.5t90 259.5t236 98.5q111 0 193 -50l-19 -125q-81 61 -168 61q-91 0 -144 -65t-53 -178t55 -177.5t147 -64.5q87 0 175 58zM436 -81l-131 -107h-79l65 135z" />
    <glyph glyph-name="Egrave" unicode="&#xc8;" horiz-adv-x="518" 
d="M484 0h-411v690h401v-112h-270v-162h208l18 -114h-226v-190h280v-112zM335 744h-79l-141 124l147 27z" />
    <glyph glyph-name="Eacute" unicode="&#xc9;" horiz-adv-x="518" 
d="M484 0h-411v690h401v-112h-270v-162h208l18 -114h-226v-190h280v-112zM417 868l-140 -124h-79l74 151z" />
    <glyph glyph-name="Ecircumflex" unicode="&#xca;" horiz-adv-x="518" 
d="M484 0h-411v690h401v-112h-270v-162h208l18 -114h-226v-190h280v-112zM420 754l-69 -14l-82 69l-79 -65h-76l100 144h112z" />
    <glyph glyph-name="Edieresis" unicode="&#xcb;" horiz-adv-x="518" 
d="M484 0h-411v690h401v-112h-270v-162h208l18 -114h-226v-190h280v-112zM421 747h-115v115h115v-115zM232 747h-115v115h115v-115z" />
    <glyph glyph-name="Igrave" unicode="&#xcc;" horiz-adv-x="288" 
d="M211 0h-133v690h133v-690zM188 744h-79l-141 124l147 27z" />
    <glyph glyph-name="Iacute" unicode="&#xcd;" horiz-adv-x="288" 
d="M321 868l-140 -124h-79l74 151zM211 0h-133v690h133v-690z" />
    <glyph glyph-name="Icircumflex" unicode="&#xce;" horiz-adv-x="288" 
d="M211 0h-133v690h133v-690zM296 745l-69 -14l-82 69l-79 -65h-76l100 144h112z" />
    <glyph glyph-name="Idieresis" unicode="&#xcf;" horiz-adv-x="288" 
d="M211 0h-133v690h133v-690zM297 747h-115v115h115v-115zM108 747h-115v115h115v-115z" />
    <glyph glyph-name="Eth" unicode="&#xd0;" horiz-adv-x="732" 
d="M685 346q0 -157 -96 -251.5t-268 -94.5h-218v300h-70l-19 114h89v276h218q176 0 270 -93.5t94 -250.5zM551 345q0 116 -62 176t-169 60h-88v-168h149v-113h-149v-191h87q110 0 171 58.5t61 177.5z" />
    <glyph glyph-name="Ntilde" unicode="&#xd1;" horiz-adv-x="704" 
d="M631 0h-110l-325 475v-475h-123v690h125l310 -452v452h123v-690zM515 857q-16 -126 -89 -126q-27 0 -71 21q-49 23 -65 23q-22 0 -32 -48l-65 14q16 127 89 127q27 0 71 -21q48 -24 65 -24q22 0 32 48z" />
    <glyph glyph-name="Ograve" unicode="&#xd2;" horiz-adv-x="740" 
d="M694 346q0 -161 -88.5 -260t-236.5 -99q-146 0 -234.5 98.5t-88.5 258.5q0 161 89 260t236 99q148 0 235.5 -98t87.5 -259zM560 345q0 114 -51 181t-139 67t-138.5 -67t-50.5 -181t50.5 -181t138.5 -67q89 0 139.5 67t50.5 181zM420 753h-79l-141 124l147 27z" />
    <glyph glyph-name="Oacute" unicode="&#xd3;" horiz-adv-x="740" 
d="M532 877l-140 -124h-79l74 151zM694 346q0 -161 -88.5 -260t-236.5 -99q-146 0 -234.5 98.5t-88.5 258.5q0 161 89 260t236 99q148 0 235.5 -98t87.5 -259zM560 345q0 114 -51 181t-139 67t-138.5 -67t-50.5 -181t50.5 -181t138.5 -67q89 0 139.5 67t50.5 181z" />
    <glyph glyph-name="Ocircumflex" unicode="&#xd4;" horiz-adv-x="740" 
d="M694 346q0 -161 -88.5 -260t-236.5 -99q-146 0 -234.5 98.5t-88.5 258.5q0 161 89 260t236 99q148 0 235.5 -98t87.5 -259zM560 345q0 114 -51 181t-139 67t-138.5 -67t-50.5 -181t50.5 -181t138.5 -67q89 0 139.5 67t50.5 181zM521 759l-69 -14l-82 69l-79 -65h-76
l100 144h112z" />
    <glyph glyph-name="Otilde" unicode="&#xd5;" horiz-adv-x="740" 
d="M694 346q0 -161 -88.5 -260t-236.5 -99q-146 0 -234.5 98.5t-88.5 258.5q0 161 89 260t236 99q148 0 235.5 -98t87.5 -259zM560 345q0 114 -51 181t-139 67t-138.5 -67t-50.5 -181t50.5 -181t138.5 -67q89 0 139.5 67t50.5 181zM531 884q-16 -126 -89 -126q-27 0 -71 21
q-49 23 -65 23q-22 0 -32 -48l-65 14q16 127 89 127q27 0 71 -21q48 -24 65 -24q22 0 32 48z" />
    <glyph glyph-name="Odieresis" unicode="&#xd6;" horiz-adv-x="740" 
d="M694 346q0 -161 -88.5 -260t-236.5 -99q-146 0 -234.5 98.5t-88.5 258.5q0 161 89 260t236 99q148 0 235.5 -98t87.5 -259zM560 345q0 114 -51 181t-139 67t-138.5 -67t-50.5 -181t50.5 -181t138.5 -67q89 0 139.5 67t50.5 181zM522 756h-115v115h115v-115zM333 756h-115
v115h115v-115z" />
    <glyph glyph-name="multiply" unicode="&#xd7;" horiz-adv-x="500" 
d="M25 -200v1000h450v-1000h-450z" />
    <glyph glyph-name="Oslash" unicode="&#xd8;" horiz-adv-x="740" 
d="M702 679l-79 -98q71 -93 71 -236q0 -160 -89 -259t-235 -99q-109 0 -191 60l-47 -56l-93 20l79 97q-72 95 -72 237q0 161 89 259.5t235 98.5q111 0 193 -60l46 56zM489 553q-49 44 -119 44q-89 0 -140 -68.5t-51 -183.5q0 -83 28 -139zM562 345q0 82 -27 139l-283 -347
q49 -44 118 -44q89 0 140.5 68t51.5 184z" />
    <glyph glyph-name="Ugrave" unicode="&#xd9;" horiz-adv-x="688" 
d="M623 270q0 -135 -76.5 -208.5t-204.5 -73.5q-127 0 -201.5 73t-74.5 206v423h132v-416q0 -81 37 -126t108 -45q73 0 110 43.5t37 124.5v419h133v-420zM400 725h-79l-141 124l147 27z" />
    <glyph glyph-name="Uacute" unicode="&#xda;" horiz-adv-x="688" 
d="M507 849l-140 -124h-79l74 151zM623 270q0 -135 -76.5 -208.5t-204.5 -73.5q-127 0 -201.5 73t-74.5 206v423h132v-416q0 -81 37 -126t108 -45q73 0 110 43.5t37 124.5v419h133v-420z" />
    <glyph glyph-name="Ucircumflex" unicode="&#xdb;" horiz-adv-x="688" 
d="M623 270q0 -135 -76.5 -208.5t-204.5 -73.5q-127 0 -201.5 73t-74.5 206v423h132v-416q0 -81 37 -126t108 -45q73 0 110 43.5t37 124.5v419h133v-420zM495 739l-69 -14l-82 69l-79 -65h-76l100 144h112z" />
    <glyph glyph-name="Udieresis" unicode="&#xdc;" horiz-adv-x="688" 
d="M623 270q0 -135 -76.5 -208.5t-204.5 -73.5q-127 0 -201.5 73t-74.5 206v423h132v-416q0 -81 37 -126t108 -45q73 0 110 43.5t37 124.5v419h133v-420zM496 732h-115v115h115v-115zM307 732h-115v115h115v-115z" />
    <glyph glyph-name="Yacute" unicode="&#xdd;" horiz-adv-x="654" 
d="M640 690l-250 -426v-264h-133v263l-241 412l138 22l175 -312l169 305h142zM497 844l-140 -124h-79l74 151z" />
    <glyph glyph-name="Thorn" unicode="&#xde;" horiz-adv-x="559" 
d="M528 359q0 -109 -71 -166.5t-193 -57.5h-59v-135h-132v690h132v-119h70q119 0 186 -54.5t67 -157.5zM398 356q0 109 -130 109h-63v-224h58q135 0 135 115z" />
    <glyph glyph-name="germandbls" unicode="&#xdf;" horiz-adv-x="613" 
d="M584 150q0 -77 -47 -118t-128 -41q-76 0 -145 37l16 99q65 -42 123 -42q31 0 49 15.5t18 42.5q0 39 -36 69.5t-142 57.5l-13 85q72 99 72 180q0 40 -18.5 61.5t-51.5 21.5q-35 0 -54 -24t-19 -66v-528h-120v385h-69v98h69v35q0 94 51 144.5t142 50.5q90 0 139 -45
t49 -125q0 -55 -22.5 -99.5t-66.5 -96.5q106 -30 155 -76t49 -121z" />
    <glyph glyph-name="agrave" unicode="&#xe0;" horiz-adv-x="503" 
d="M445 0h-103l-10 63q-69 -73 -161 -73q-62 0 -99.5 36t-37.5 98q0 86 70.5 129t220.5 58v14q0 72 -83 72q-73 0 -161 -39l-15 96q99 39 192 39q95 0 141 -38t46 -124v-331zM325 133v108q-97 -12 -134.5 -38.5t-37.5 -65.5q0 -26 15.5 -41t43.5 -15q61 0 113 52zM303 547
h-79l-141 124l147 27z" />
    <glyph glyph-name="aacute" unicode="&#xe1;" horiz-adv-x="503" 
d="M445 0h-103l-10 63q-69 -73 -161 -73q-62 0 -99.5 36t-37.5 98q0 86 70.5 129t220.5 58v14q0 72 -83 72q-73 0 -161 -39l-15 96q99 39 192 39q95 0 141 -38t46 -124v-331zM325 133v108q-97 -12 -134.5 -38.5t-37.5 -65.5q0 -26 15.5 -41t43.5 -15q61 0 113 52zM412 671
l-140 -124h-79l74 151z" />
    <glyph glyph-name="acircumflex" unicode="&#xe2;" horiz-adv-x="503" 
d="M445 0h-103l-10 63q-69 -73 -161 -73q-62 0 -99.5 36t-37.5 98q0 86 70.5 129t220.5 58v14q0 72 -83 72q-73 0 -161 -39l-15 96q99 39 192 39q95 0 141 -38t46 -124v-331zM325 133v108q-97 -12 -134.5 -38.5t-37.5 -65.5q0 -26 15.5 -41t43.5 -15q61 0 113 52zM400 557
l-69 -14l-82 69l-79 -65h-76l100 144h112z" />
    <glyph glyph-name="atilde" unicode="&#xe3;" horiz-adv-x="503" 
d="M445 0h-103l-10 63q-69 -73 -161 -73q-62 0 -99.5 36t-37.5 98q0 86 70.5 129t220.5 58v14q0 72 -83 72q-73 0 -161 -39l-15 96q99 39 192 39q95 0 141 -38t46 -124v-331zM325 133v108q-97 -12 -134.5 -38.5t-37.5 -65.5q0 -26 15.5 -41t43.5 -15q61 0 113 52zM414 675
q-16 -126 -89 -126q-27 0 -71 21q-49 23 -65 23q-22 0 -32 -48l-65 14q16 127 89 127q27 0 71 -21q48 -24 65 -24q22 0 32 48z" />
    <glyph glyph-name="adieresis" unicode="&#xe4;" horiz-adv-x="503" 
d="M445 0h-103l-10 63q-69 -73 -161 -73q-62 0 -99.5 36t-37.5 98q0 86 70.5 129t220.5 58v14q0 72 -83 72q-73 0 -161 -39l-15 96q99 39 192 39q95 0 141 -38t46 -124v-331zM325 133v108q-97 -12 -134.5 -38.5t-37.5 -65.5q0 -26 15.5 -41t43.5 -15q61 0 113 52zM405 550
h-115v115h115v-115zM216 550h-115v115h115v-115z" />
    <glyph glyph-name="aring" unicode="&#xe5;" horiz-adv-x="503" 
d="M445 0h-103l-10 63q-69 -73 -161 -73q-62 0 -99.5 36t-37.5 98q0 86 70.5 129t220.5 58v14q0 72 -83 72q-73 0 -161 -39l-15 96q99 39 192 39q95 0 141 -38t46 -124v-331zM325 133v108q-97 -12 -134.5 -38.5t-37.5 -65.5q0 -26 15.5 -41t43.5 -15q61 0 113 52zM367 650
q0 -46 -32 -75.5t-86 -29.5t-86 29.5t-32 75.5q0 45 32.5 75.5t85.5 30.5t85.5 -30.5t32.5 -75.5zM303 650q0 25 -15 42t-39 17t-39 -17t-15 -42t15 -42t39 -17t39 17t15 42z" />
    <glyph glyph-name="ae" unicode="&#xe6;" horiz-adv-x="785" 
d="M748 247q0 -22 -1 -29h-309q9 -135 130 -135q80 0 166 60l14 -94q-85 -59 -193 -59q-120 0 -183 75q-85 -75 -183 -75q-69 0 -112 34.5t-43 99.5q0 83 68.5 127.5t216.5 58.5v15q0 39 -18.5 55.5t-58.5 16.5q-73 0 -161 -39l-15 96q99 39 185 39q60 0 94.5 -15.5
t54.5 -50.5q53 66 143 66q101 0 153 -68.5t52 -177.5zM632 293q-12 117 -95 117q-38 0 -64 -30t-33 -87h192zM334 133q-16 55 -16 106v1q-165 -22 -165 -102q0 -27 17.5 -42t48.5 -15q59 0 115 52z" />
    <glyph glyph-name="ccedilla" unicode="&#xe7;" horiz-adv-x="460" 
d="M425 38q-68 -47 -160 -47q-103 0 -166 66t-63 182q0 121 66 187.5t167 66.5q86 0 151 -41l-17 -108q-60 45 -127 45q-53 0 -86 -38.5t-33 -108.5q0 -72 35 -110t92 -38q66 0 125 46zM346 -81l-131 -107h-79l65 135z" />
    <glyph glyph-name="egrave" unicode="&#xe8;" horiz-adv-x="502" 
d="M466 247q0 -5 -0.5 -15.5t-0.5 -13.5h-310q9 -135 130 -135q80 0 166 60l14 -94q-85 -59 -193 -59q-107 0 -171.5 63t-64.5 188q0 116 61.5 184t158.5 68q104 0 157 -68.5t53 -177.5zM349 293q-12 117 -96 117q-37 0 -63 -30t-33 -87h192zM299 547h-79l-141 124l147 27z
" />
    <glyph glyph-name="eacute" unicode="&#xe9;" horiz-adv-x="502" 
d="M466 247q0 -5 -0.5 -15.5t-0.5 -13.5h-310q9 -135 130 -135q80 0 166 60l14 -94q-85 -59 -193 -59q-107 0 -171.5 63t-64.5 188q0 116 61.5 184t158.5 68q104 0 157 -68.5t53 -177.5zM349 293q-12 117 -96 117q-37 0 -63 -30t-33 -87h192zM420 671l-140 -124h-79l74 151z
" />
    <glyph glyph-name="ecircumflex" unicode="&#xea;" horiz-adv-x="502" 
d="M466 247q0 -5 -0.5 -15.5t-0.5 -13.5h-310q9 -135 130 -135q80 0 166 60l14 -94q-85 -59 -193 -59q-107 0 -171.5 63t-64.5 188q0 116 61.5 184t158.5 68q104 0 157 -68.5t53 -177.5zM349 293q-12 117 -96 117q-37 0 -63 -30t-33 -87h192zM406 557l-69 -14l-82 69
l-79 -65h-76l100 144h112z" />
    <glyph glyph-name="edieresis" unicode="&#xeb;" horiz-adv-x="502" 
d="M466 247q0 -5 -0.5 -15.5t-0.5 -13.5h-310q9 -135 130 -135q80 0 166 60l14 -94q-85 -59 -193 -59q-107 0 -171.5 63t-64.5 188q0 116 61.5 184t158.5 68q104 0 157 -68.5t53 -177.5zM349 293q-12 117 -96 117q-37 0 -63 -30t-33 -87h192zM407 550h-115v115h115v-115z
M218 550h-115v115h115v-115z" />
    <glyph glyph-name="igrave" unicode="&#xec;" horiz-adv-x="252" 
d="M172 547h-70l-122 124l129 27zM189 0h-120v483h120v-483z" />
    <glyph glyph-name="iacute" unicode="&#xed;" horiz-adv-x="252" 
d="M277 671l-122 -124h-68l62 151zM189 0h-120v483h120v-483z" />
    <glyph glyph-name="icircumflex" unicode="&#xee;" horiz-adv-x="252" 
d="M264 557l-62 -14l-74 69l-71 -65h-69l91 144h100zM189 0h-120v483h120v-483z" />
    <glyph glyph-name="idieresis" unicode="&#xef;" horiz-adv-x="252" 
d="M259 550h-102v115h102v-115zM96 550h-101v115h101v-115zM189 0h-120v483h120v-483z" />
    <glyph glyph-name="eth" unicode="&#xf0;" horiz-adv-x="539" 
d="M500 305q0 -166 -85 -254q-60 -61 -157 -61q-98 0 -160 61.5t-62 167.5q0 102 56 168.5t141 66.5q81 0 143 -51q-15 88 -83 145l-30 -43h-84l56 82q-45 24 -99 39l15 96q82 -20 143 -52l34 52l82 -16l-53 -75q143 -112 143 -326zM384 309q-60 50 -123 50q-49 0 -78 -38
t-29 -102q0 -61 30 -97.5t81 -36.5q54 0 86.5 54.5t32.5 149.5v20z" />
    <glyph glyph-name="ntilde" unicode="&#xf1;" horiz-adv-x="532" 
d="M473 0h-120v316q0 71 -62 71q-52 0 -110 -61v-326h-120v483h102l11 -68q82 78 161 78q67 0 102.5 -38.5t35.5 -106.5v-348zM431 675q-16 -126 -89 -126q-27 0 -71 21q-49 23 -65 23q-22 0 -32 -48l-65 14q16 127 89 127q27 0 71 -21q48 -24 65 -24q22 0 32 48z" />
    <glyph glyph-name="ograve" unicode="&#xf2;" horiz-adv-x="527" 
d="M491 241q0 -116 -64 -183.5t-165 -67.5q-100 0 -163 67.5t-63 183.5t63.5 184t163.5 68q101 0 164.5 -68t63.5 -184zM374 241q0 68 -29.5 110.5t-82.5 42.5q-52 0 -80.5 -42t-28.5 -111q0 -68 29 -110.5t80 -42.5q54 0 83 41.5t29 111.5zM305 547h-79l-141 124l147 27z
" />
    <glyph glyph-name="oacute" unicode="&#xf3;" horiz-adv-x="527" 
d="M439 671l-140 -124h-79l74 151zM491 241q0 -116 -64 -183.5t-165 -67.5q-100 0 -163 67.5t-63 183.5t63.5 184t163.5 68q101 0 164.5 -68t63.5 -184zM374 241q0 68 -29.5 110.5t-82.5 42.5q-52 0 -80.5 -42t-28.5 -111q0 -68 29 -110.5t80 -42.5q54 0 83 41.5t29 111.5z
" />
    <glyph glyph-name="ocircumflex" unicode="&#xf4;" horiz-adv-x="527" 
d="M491 241q0 -116 -64 -183.5t-165 -67.5q-100 0 -163 67.5t-63 183.5t63.5 184t163.5 68q101 0 164.5 -68t63.5 -184zM374 241q0 68 -29.5 110.5t-82.5 42.5q-52 0 -80.5 -42t-28.5 -111q0 -68 29 -110.5t80 -42.5q54 0 83 41.5t29 111.5zM413 557l-69 -14l-82 69l-79 -65
h-76l100 144h112z" />
    <glyph glyph-name="otilde" unicode="&#xf5;" horiz-adv-x="527" 
d="M491 241q0 -116 -64 -183.5t-165 -67.5q-100 0 -163 67.5t-63 183.5t63.5 184t163.5 68q101 0 164.5 -68t63.5 -184zM374 241q0 68 -29.5 110.5t-82.5 42.5q-52 0 -80.5 -42t-28.5 -111q0 -68 29 -110.5t80 -42.5q54 0 83 41.5t29 111.5zM424 675q-16 -126 -89 -126
q-27 0 -71 21q-49 23 -65 23q-22 0 -32 -48l-65 14q16 127 89 127q27 0 71 -21q48 -24 65 -24q22 0 32 48z" />
    <glyph glyph-name="odieresis" unicode="&#xf6;" horiz-adv-x="527" 
d="M491 241q0 -116 -64 -183.5t-165 -67.5q-100 0 -163 67.5t-63 183.5t63.5 184t163.5 68q101 0 164.5 -68t63.5 -184zM374 241q0 68 -29.5 110.5t-82.5 42.5q-52 0 -80.5 -42t-28.5 -111q0 -68 29 -110.5t80 -42.5q54 0 83 41.5t29 111.5zM414 550h-115v115h115v-115z
M225 550h-115v115h115v-115z" />
    <glyph glyph-name="divide" unicode="&#xf7;" horiz-adv-x="572" 
d="M344 469h-116v119h116v-119zM518 291h-464v94h464v-94zM344 88h-116v119h116v-119z" />
    <glyph glyph-name="oslash" unicode="&#xf8;" horiz-adv-x="527" 
d="M499 474l-55 -69q48 -66 48 -164q0 -115 -64.5 -183t-163.5 -68q-73 0 -130 38l-29 -36l-77 17l56 68q-48 65 -48 164q0 115 63.5 183.5t162.5 68.5q75 0 131 -38l29 36zM329 375q-25 24 -66 24q-54 0 -83.5 -43t-29.5 -115q0 -43 12 -77zM364 319l-167 -211
q29 -24 66 -24q54 0 84 43t30 114q0 45 -13 78z" />
    <glyph glyph-name="ugrave" unicode="&#xf9;" horiz-adv-x="532" 
d="M471 0h-102l-11 68q-82 -78 -161 -78q-67 0 -102.5 38.5t-35.5 107.5v347h120v-316q0 -70 61 -70q53 0 111 60v326h120v-483zM308 547h-79l-141 124l147 27z" />
    <glyph glyph-name="uacute" unicode="&#xfa;" horiz-adv-x="532" 
d="M471 0h-102l-11 68q-82 -78 -161 -78q-67 0 -102.5 38.5t-35.5 107.5v347h120v-316q0 -70 61 -70q53 0 111 60v326h120v-483zM425 671l-140 -124h-79l74 151z" />
    <glyph glyph-name="ucircumflex" unicode="&#xfb;" horiz-adv-x="532" 
d="M471 0h-102l-11 68q-82 -78 -161 -78q-67 0 -102.5 38.5t-35.5 107.5v347h120v-316q0 -70 61 -70q53 0 111 60v326h120v-483zM417 557l-69 -14l-82 69l-79 -65h-76l100 144h112z" />
    <glyph glyph-name="udieresis" unicode="&#xfc;" horiz-adv-x="532" 
d="M471 0h-102l-11 68q-82 -78 -161 -78q-67 0 -102.5 38.5t-35.5 107.5v347h120v-316q0 -70 61 -70q53 0 111 60v326h120v-483zM419 550h-115v115h115v-115zM230 550h-115v115h115v-115z" />
    <glyph glyph-name="yacute" unicode="&#xfd;" horiz-adv-x="496" 
d="M481 483l-183 -509q-31 -87 -75 -121.5t-116 -34.5q-26 0 -44 5l-16 99q28 -7 56 -7q56 0 78 51l11 32l-175 476l125 16l112 -344l108 337h119zM427 662l-140 -124h-79l74 151z" />
    <glyph glyph-name="thorn" unicode="&#xfe;" horiz-adv-x="541" 
d="M504 255q0 -128 -60.5 -194t-150.5 -66q-62 0 -112 19v-182l-120 -18v889l120 19v-298q65 69 141 69q80 0 131 -61t51 -177zM383 248q0 68 -25.5 103.5t-67.5 35.5q-56 0 -109 -68v-207q43 -21 91 -21q51 0 81 40t30 117z" />
    <glyph glyph-name="ydieresis" unicode="&#xff;" horiz-adv-x="496" 
d="M481 483l-183 -509q-31 -87 -75 -121.5t-116 -34.5q-26 0 -44 5l-16 99q28 -7 56 -7q56 0 78 51l11 32l-175 476l125 16l112 -344l108 337h119zM404 550h-115v115h115v-115zM215 550h-115v115h115v-115z" />
    <glyph glyph-name="dotlessi" unicode="&#x131;" horiz-adv-x="252" 
d="M189 0h-120v483h120v-483z" />
    <glyph glyph-name="Lslash" unicode="&#x141;" horiz-adv-x="505" 
d="M483 0h-380v292l-71 -17l-18 111l89 22v282h131v-248l148 36v-114l-148 -36v-211h230z" />
    <glyph glyph-name="lslash" unicode="&#x142;" horiz-adv-x="311" 
d="M296 356l-81 -21v-335h-119v305l-71 -18l-18 109l89 21v286l119 19v-274l81 20v-112z" />
    <glyph glyph-name="OE" unicode="&#x152;" horiz-adv-x="890" 
d="M855 0h-443q-176 0 -270 93.5t-94 250.5t95.5 251.5t268.5 94.5h433v-112h-269v-162h208l17 -114h-225v-190h279v-112zM446 109v472h-32q-111 0 -171.5 -58.5t-60.5 -177.5q0 -115 62 -175.5t169 -60.5h33z" />
    <glyph glyph-name="oe" unicode="&#x153;" horiz-adv-x="841" 
d="M804 247q0 -15 -2 -29h-309q9 -135 130 -135q80 0 166 60l14 -94q-85 -59 -190 -59q-125 0 -182 90q-59 -90 -172 -90q-98 0 -160.5 68t-62.5 183q0 116 63 184t162 68q118 0 172 -90q57 90 164 90q102 0 154.5 -68.5t52.5 -177.5zM687 293q-12 117 -95 117
q-38 0 -64 -30t-33 -87h192zM374 241q0 68 -29.5 110.5t-82.5 42.5q-52 0 -80.5 -42t-28.5 -111q0 -68 29 -110.5t80 -42.5q54 0 83 41.5t29 111.5z" />
    <glyph glyph-name="Scaron" unicode="&#x160;" horiz-adv-x="533" 
d="M493 197q0 -98 -64.5 -151.5t-167.5 -53.5q-116 0 -217 48l20 121q104 -61 199 -61q47 0 75 22t28 62q0 38 -24 60.5t-100 54.5q-105 43 -146.5 86t-41.5 120q0 90 62 141.5t161 51.5q101 0 182 -42l-20 -120q-82 54 -163 54q-47 0 -71 -20.5t-24 -53.5t23.5 -54
t94.5 -51q109 -45 151.5 -90t42.5 -124zM426 897l-100 -144h-112l-94 134l69 14l82 -69l79 65h76z" />
    <glyph glyph-name="scaron" unicode="&#x161;" horiz-adv-x="453" 
d="M419 142q0 -72 -50.5 -111.5t-144.5 -39.5q-102 0 -188 47l16 100q87 -57 176 -57q80 0 80 50q0 25 -20 39t-78 28q-91 23 -128.5 55.5t-37.5 96.5q0 63 47.5 102.5t130.5 39.5q95 0 169 -34l-16 -100q-78 44 -153 44q-67 0 -67 -44q0 -20 18.5 -32.5t71.5 -26.5
q97 -25 135.5 -58t38.5 -99zM382 691l-100 -144h-112l-94 134l69 14l82 -69l79 65h76z" />
    <glyph glyph-name="Ydieresis" unicode="&#x178;" horiz-adv-x="654" 
d="M640 690l-250 -426v-264h-133v263l-241 412l138 22l175 -312l169 305h142zM480 732h-115v115h115v-115zM291 732h-115v115h115v-115z" />
    <glyph glyph-name="Zcaron" unicode="&#x17d;" horiz-adv-x="609" 
d="M571 0h-527v97l357 484h-325l-17 109h503v-97l-357 -484h349zM466 888l-100 -144h-112l-94 134l69 14l82 -69l79 65h76z" />
    <glyph glyph-name="zcaron" unicode="&#x17e;" horiz-adv-x="460" 
d="M429 0h-397v92l240 295h-214l-16 96h375v-92l-241 -295h237zM385 691l-100 -144h-112l-94 134l69 14l82 -69l79 65h76z" />
    <glyph glyph-name="florin" unicode="&#x192;" horiz-adv-x="413" 
d="M129 455l12 74q13 84 56.5 119.5t126.5 35.5q38 0 62 -3v-102q-36 3 -47 3q-34 0 -51.5 -17t-23.5 -56l-9 -54h93v-100h-109l-56 -355h-125l56 355h-72l15 100h72z" />
    <glyph glyph-name="circumflex" unicode="&#x2c6;" 
d="M378 557l-69 -14l-82 69l-79 -65h-76l100 144h112z" />
    <glyph glyph-name="caron" unicode="&#x2c7;" 
d="M382 691l-100 -144h-112l-94 134l69 14l82 -69l79 65h76z" />
    <glyph glyph-name="breve" unicode="&#x2d8;" 
d="M371 694q-6 -71 -43 -109t-102 -38q-61 0 -97.5 36.5t-44.5 102.5l73 14q11 -68 71 -68q58 0 68 62h75z" />
    <glyph glyph-name="dotaccent" unicode="&#x2d9;" 
d="M286 550h-118v115h118v-115z" />
    <glyph glyph-name="ring" unicode="&#x2da;" 
d="M345 650q0 -46 -32 -75.5t-86 -29.5t-86 29.5t-32 75.5q0 45 32.5 75.5t85.5 30.5t85.5 -30.5t32.5 -75.5zM281 650q0 25 -15 42t-39 17t-39 -17t-15 -42t15 -42t39 -17t39 17t15 42z" />
    <glyph glyph-name="ogonek" unicode="&#x2db;" 
d="M340 -182h-79l-132 107l146 28z" />
    <glyph glyph-name="tilde" unicode="&#x2dc;" 
d="M388 675q-16 -126 -89 -126q-27 0 -71 21q-49 23 -65 23q-22 0 -32 -48l-65 14q16 127 89 127q27 0 71 -21q48 -24 65 -24q22 0 32 48z" />
    <glyph glyph-name="hungarumlaut" unicode="&#x2dd;" 
d="M418 673l-137 -123h-66l72 148zM239 673l-136 -123h-67l72 148z" />
    <glyph glyph-name="Delta" unicode="&#x394;" horiz-adv-x="500" 
d="M25 -200v1000h450v-1000h-450z" />
    <glyph glyph-name="Omega" unicode="&#x3a9;" horiz-adv-x="651" 
d="M647 611q-24 4 -51 4q-62 0 -62 -61v-71h92l16 -98h-108v-385h-119v385h-70v98h70v83q0 147 167 147q25 0 49 -4zM321 611q-24 4 -50 4q-63 0 -63 -61v-71h92l15 -98h-107v-385h-119v385h-70v98h70v83q0 147 167 147q25 0 49 -4z" />
    <glyph glyph-name="pi" unicode="&#x3c0;" horiz-adv-x="799" 
d="M745 346q0 -160 -96.5 -259.5t-249.5 -99.5q-154 0 -249.5 98.5t-95.5 258.5t96.5 259.5t249.5 99.5q154 0 249.5 -98.5t95.5 -258.5zM701 345q0 151 -85 236.5t-216 85.5q-133 0 -217.5 -85.5t-84.5 -236.5t85 -236.5t217 -85.5t216.5 85.5t84.5 236.5zM559 417
q0 -63 -41.5 -97.5t-113.5 -34.5h-36v-135h-88v394h130q69 0 109 -33.5t40 -93.5zM473 415q0 29 -18 44.5t-52 15.5h-35v-121h34q33 0 52 15.5t19 45.5z" />
    <glyph glyph-name="endash" unicode="&#x2013;" 
d="M406 231h-358v112h358v-112z" />
    <glyph glyph-name="emdash" unicode="&#x2014;" horiz-adv-x="908" 
d="M860 232h-812v110h812v-110z" />
    <glyph glyph-name="quoteleft" unicode="&#x2018;" horiz-adv-x="243" 
d="M195 682l-25 -258h-137l91 274z" />
    <glyph glyph-name="quoteright" unicode="&#x2019;" horiz-adv-x="243" 
d="M210 690l-92 -274l-71 17l26 257h137z" />
    <glyph glyph-name="quotesinglbase" unicode="&#x201a;" horiz-adv-x="243" 
d="M203 146l-91 -274l-71 16l25 258h137z" />
    <glyph glyph-name="quotedblleft" unicode="&#x201c;" horiz-adv-x="445" 
d="M194 682l-25 -258h-136l91 274zM398 682l-26 -258h-135l91 274z" />
    <glyph glyph-name="quotedblright" unicode="&#x201d;" horiz-adv-x="445" 
d="M208 690l-91 -274l-70 17l26 257h135zM412 690l-91 -274l-70 17l25 257h136z" />
    <glyph glyph-name="quotedblbase" unicode="&#x201e;" horiz-adv-x="445" 
d="M202 146l-91 -274l-70 16l25 258h136zM406 146l-92 -274l-69 16l25 258h136z" />
    <glyph glyph-name="dagger" unicode="&#x2020;" horiz-adv-x="506" 
d="M306 611l-36 -135h-35l-35 135v79h106v-79zM463 386h-35l-135 34v33l135 35h35v-102zM213 420l-136 -34h-35v102h35l136 -35v-33zM299 14l-31 -128h-31l-30 128v265l28 119h35l29 -119v-265z" />
    <glyph glyph-name="daggerdbl" unicode="&#x2021;" horiz-adv-x="524" 
d="M315 611l-36 -135h-34l-36 135v79h106v-79zM472 388h-35l-135 32v33l135 33h35v-98zM222 420l-135 -32h-36v98h36l135 -33v-33zM311 230l-32 -119h-34l-32 119v49l32 119h34l32 -119v-49zM472 23h-35l-135 32v33l135 33h35v-98zM222 55l-135 -32h-36v98h36l135 -33v-33z
M315 -182h-106v79l36 136h34l36 -136v-79z" />
    <glyph glyph-name="bullet" unicode="&#x2022;" horiz-adv-x="451" 
d="M377 345l-21 -140l-130 -21l-129 21l-23 140l23 140l129 20l130 -20z" />
    <glyph glyph-name="ellipsis" unicode="&#x2026;" horiz-adv-x="752" 
d="M691 0h-130v145h130v-145zM441 0h-130v145h130v-145zM192 0h-130v145h130v-145z" />
    <glyph glyph-name="perthousand" unicode="&#x2030;" horiz-adv-x="799" 
d="M745 346q0 -160 -96.5 -259.5t-249.5 -99.5q-154 0 -249.5 98.5t-95.5 258.5t96.5 259.5t249.5 99.5q154 0 249.5 -98.5t95.5 -258.5zM701 345q0 151 -85 236.5t-216 85.5q-133 0 -217.5 -85.5t-84.5 -236.5t85 -236.5t217 -85.5t216.5 85.5t84.5 236.5zM474 314
l106 -146l-92 -18l-101 144h-33v-139h-87v394h128q70 0 110.5 -33t40.5 -92q0 -79 -72 -110zM391 480h-37v-120h36q70 0 70 60q0 28 -18 44t-51 16z" />
    <glyph glyph-name="guilsinglleft" unicode="&#x2039;" horiz-adv-x="328" 
d="M287 483l-127 -241l121 -230l-86 -19l-167 249l163 241h96z" />
    <glyph glyph-name="guilsinglright" unicode="&#x203a;" horiz-adv-x="328" 
d="M300 241l-163 -241h-97l128 241l-122 231l87 18z" />
    <glyph glyph-name="fraction" unicode="&#x2044;" horiz-adv-x="452" 
d="M535 766l-537 -874l-77 18l537 874z" />
    <glyph glyph-name="trademark" unicode="&#x2122;" horiz-adv-x="805" 
d="M760 345h-78l-17 227l-81 -228h-66l-81 228l-18 -227h-69l26 345h96l85 -242l84 242h92zM321 626h-110v-281h-77v281h-105v64h282z" />
    <glyph glyph-name="partialdiff" unicode="&#x2202;" horiz-adv-x="749" 
d="M713 108l-24 -122l-105 83q-88 -80 -215 -80q-147 0 -235 97.5t-88 257.5q0 161 88.5 260t236.5 99t235 -98t87 -256q0 -109 -45 -193zM561 347q0 112 -51 179t-139 67q-89 0 -140 -67t-51 -182q0 -114 51 -181t140 -67q73 0 120 44l-156 118l140 30l64 -51q22 44 22 110
z" />
    <glyph glyph-name="product" unicode="&#x220f;" horiz-adv-x="500" 
d="M25 -200v1000h450v-1000h-450z" />
    <glyph glyph-name="summation" unicode="&#x2211;" horiz-adv-x="1015" 
d="M993 690l-236 -693h-128l-123 340l-125 -340h-125l-234 676l136 24l173 -525l120 324l-62 178l136 24l173 -526l161 518h134z" />
    <glyph glyph-name="minus" unicode="&#x2212;" horiz-adv-x="500" 
d="M25 -200v1000h450v-1000h-450z" />
    <glyph glyph-name="radical" unicode="&#x221a;" horiz-adv-x="904" 
d="M838 0h-120v703l120 19v-722zM647 611q-24 4 -51 4q-62 0 -62 -61v-71h92l16 -98h-108v-385h-119v385h-70v98h70v83q0 147 167 147q25 0 49 -4zM321 611q-24 4 -50 4q-63 0 -63 -61v-71h92l15 -98h-107v-385h-119v385h-70v98h70v83q0 147 167 147q25 0 49 -4z" />
    <glyph glyph-name="infinity" unicode="&#x221e;" horiz-adv-x="503" 
d="M445 0h-103l-10 63q-69 -73 -161 -73q-62 0 -99.5 36t-37.5 98q0 86 70.5 129t220.5 58v14q0 72 -83 72q-73 0 -161 -39l-15 96q99 39 192 39q95 0 141 -38t46 -124v-331zM325 133v108q-97 -12 -134.5 -38.5t-37.5 -65.5q0 -26 15.5 -41t43.5 -15q61 0 113 52z" />
    <glyph glyph-name="integral" unicode="&#x222b;" horiz-adv-x="537" 
d="M476 19q0 -97 -56.5 -149t-169.5 -52q-95 0 -184 36l18 99q77 -41 160 -41q112 0 112 102v51q-65 -63 -137 -63q-81 0 -131.5 59.5t-50.5 173.5q0 125 64.5 189.5t176.5 64.5q102 0 198 -32v-438zM356 168v209q-39 14 -76 14q-123 0 -123 -151q0 -65 25.5 -99.5
t67.5 -34.5q53 0 106 62z" />
    <glyph glyph-name="approxequal" unicode="&#x2248;" horiz-adv-x="904" 
d="M848 633q0 -29 -20 -48t-50 -19t-50 19t-20 48q0 30 20 49.5t50 19.5t50 -19.5t20 -49.5zM647 611q-24 4 -51 4q-62 0 -62 -61v-71h92l16 -98h-108v-385h-119v385h-70v98h70v83q0 147 167 147q25 0 49 -4zM321 611q-24 4 -50 4q-63 0 -63 -61v-71h92l15 -98h-107v-385
h-119v385h-70v98h70v83q0 147 167 147q25 0 49 -4zM838 0h-120v483h120v-483z" />
    <glyph glyph-name="notequal" unicode="&#x2260;" horiz-adv-x="529" 
d="M487 201q0 -97 -66 -155.5t-179 -58.5q-121 0 -209 53l18 110q89 -56 183 -56q60 0 93.5 28t33.5 79q0 104 -164 104h-45l-14 83l179 182h-258l-17 106h430v-96l-188 -187q203 -23 203 -192z" />
    <glyph glyph-name="lessequal" unicode="&#x2264;" horiz-adv-x="883" 
d="M810 0h-125v496l-194 -499h-110l-194 499v-496h-114v690h173l197 -519l198 519h169v-690z" />
    <glyph glyph-name="greaterequal" unicode="&#x2265;" horiz-adv-x="695" 
d="M501 71q-109 -79 -212 -79q-104 0 -162 55t-58 170v473h132v-454q0 -128 116 -128q83 0 173 74v508h133v-690h-110z" />
    <glyph glyph-name="lozenge" unicode="&#x25ca;" horiz-adv-x="805" 
d="M760 345h-78l-17 227l-81 -228h-66l-81 228l-18 -227h-69l26 345h96l85 -242l84 242h92zM174 340q-55 0 -107 26l10 69q56 -34 99 -34q20 0 33 9.5t13 25.5q0 18 -11.5 29t-42.5 24q-54 24 -75 46t-21 62q0 44 32 71t82 27q52 0 91 -22l-10 -68q-48 29 -83 29
q-20 0 -31 -9t-11 -22q0 -16 10.5 -26t39.5 -23q56 -23 78 -46.5t22 -65.5q0 -48 -32.5 -75t-85.5 -27z" />
    <glyph glyph-name="apple" unicode="&#xf8ff;" horiz-adv-x="694" 
d="M644 -200h-208l-8 14h-163l-8 -14h-207v303q14 0 23 9.5t9 22.5t-9.5 22.5t-22.5 9.5v554h100l30 79h334l29 -79h101v-921zM400 563v-172h15v78h38v14h-38v66h43v14h-58zM184 563v-172h15v79h47v-79h15v172h-15v-79h-47v79h-15zM460 394q8 -4 21 -4q31 0 31 36v137h-16
v-137q0 -22 -16 -22q-10 0 -20 6v-16zM523 323v-46h8v13l7 7l16 -20h9l-19 26l18 20h-10l-21 -24v24h-8zM488 292l10 -15h9l-12 17q10 3 10 15q0 5 -4.5 9.5t-11.5 4.5h-21v-46h8v15h12zM426 276q11 0 17.5 7t6.5 17q0 9 -7 16.5t-17 7.5t-16.5 -7.5t-6.5 -16.5
q0 -10 6.5 -17t16.5 -7zM370 301l-13 22h-9l18 -29v-17h8v17l18 29h-9zM193 323v-46h33v7h-25v13h22v7h-22v12h25v7h-33zM132 323v-46h8v32l25 -32h7v46h-8v-32l-25 32h-7zM241 323l15 -47h8l10 34h1l11 -34h8l14 47h-8l-10 -35h-1l-10 35h-8l-11 -35h-1l-10 35h-8zM327 479
q-12 22 -12 32q0 19 14 19q13 0 13 -19q0 -15 -15 -32zM342 423q-6 -21 -18 -21q-17 0 -17 27q0 18 15 33zM488 299h-12v17h11q10 0 10 -8q0 -9 -9 -9zM426 283q-15 0 -15 17q0 6 4.5 11.5t10.5 5.5q7 0 11.5 -5.5t4.5 -11.5q0 -7 -4.5 -12t-11.5 -5zM349 438l-16 31
q23 21 23 42q0 12 -7 21.5t-20 9.5q-12 0 -20 -9.5t-8 -21.5q0 -13 14 -39q-23 -18 -23 -45q0 -17 9 -28t22 -11q17 0 27 24h1l12 -24l11 8l-16 30q10 23 13 39l-13 3q-2 -9 -9 -30z" />
    <glyph glyph-name="fi" unicode="&#xfb01;" horiz-adv-x="579" 
d="M522 633q0 -29 -20 -48t-50 -19t-50 19t-20 48q0 30 20 49.5t50 19.5t50 -19.5t20 -49.5zM321 611q-24 4 -50 4q-63 0 -63 -61v-71h92l15 -98h-107v-385h-119v385h-70v98h70v83q0 147 167 147q25 0 49 -4zM512 0h-120v483h120v-483z" />
    <glyph glyph-name="fl" unicode="&#xfb02;" horiz-adv-x="579" 
d="M512 0h-120v703l120 19v-722zM321 611q-24 4 -50 4q-63 0 -63 -61v-71h92l15 -98h-107v-385h-119v385h-70v98h70v83q0 147 167 147q25 0 49 -4z" />
    <glyph glyph-name="NUL" horiz-adv-x="0" 
 />
    </font>
</defs>
</svg>
