<?xml version="1.0" standalone="no"?>
<!DOCTYPE svg PUBLIC "-//W3C//DTD SVG 1.1//EN" "http://www.w3.org/Graphics/SVG/1.1/DTD/svg11.dtd" >
<svg>
<metadata>
Created by FontForge 20110222 at Tue Mar 18 12:53:06 2014
 By Orthosie Webhosting
Copyright (C) 2004 Hoefler &#38; Frere-Jones Typography, Inc. www.typography.com
</metadata>
<defs>
<font id="WhitneyHTFSemiBoldItalic" horiz-adv-x="438" >
  <font-face 
    font-family="WhitneyHTFSemiBoldItalic"
    font-weight="700"
    font-style="italic"
    font-stretch="normal"
    units-per-em="1000"
    panose-1="0 0 0 0 0 0 0 0 0 0"
    ascent="800"
    descent="-200"
    x-height="483"
    cap-height="690"
    bbox="-134 -200 1033 944"
    underline-thickness="20"
    underline-position="-123"
    slope="-12"
    unicode-range="U+0020-FB02"
  />
<missing-glyph horiz-adv-x="500" 
 />
    <glyph glyph-name=".notdef" horiz-adv-x="500" 
 />
    <glyph glyph-name=".null" horiz-adv-x="0" 
 />
    <glyph glyph-name="nonmarkingreturn" horiz-adv-x="333" 
 />
    <glyph glyph-name="space" unicode=" " horiz-adv-x="204" 
 />
    <glyph glyph-name="exclam" unicode="!" horiz-adv-x="282" 
d="M286 690l-107 -453l-78 -17l38 470h147zM191 145l-23 -145h-131l23 145h131z" />
    <glyph glyph-name="quotedbl" unicode="&#x22;" horiz-adv-x="444" 
d="M460 676l-71 -245l-68 17l5 228h134zM256 676l-71 -245l-68 17l5 228h134z" />
    <glyph glyph-name="numbersign" unicode="#" horiz-adv-x="645" 
d="M613 415h-119l-24 -154h109l15 -105h-141l-24 -158h-80l25 158h-151l-26 -164l-77 18l23 146h-102v105h119l24 154h-109l-15 105h141l25 158h80l-25 -158h150l26 164l77 -18l-23 -146h102v-105zM416 417h-153l-24 -158h151z" />
    <glyph glyph-name="dollar" unicode="$" horiz-adv-x="521" 
d="M416 669q63 -15 105 -44l-33 -99q-47 34 -106 50l-14 -45l-28 -90l-13 -45q83 -39 117.5 -81t34.5 -106q0 -101 -67 -157.5t-170 -56.5q-6 0 -18 0.5t-18 0.5l-36 -118l-67 16l36 113q-74 18 -135 55l32 99q72 -47 136 -63l65 210q-76 36 -110.5 75.5t-34.5 101.5
q0 89 60.5 142.5t162.5 53.5q23 0 33 -1l23 75l66 -16zM232 89h15q54 0 89 28t35 73q0 30 -17 50.5t-62 42.5zM322 587q-5 1 -16 1q-51 0 -79 -23.5t-28 -61.5q0 -25 15.5 -43.5t56.5 -39.5z" />
    <glyph glyph-name="percent" unicode="%" horiz-adv-x="846" 
d="M376 521q0 -97 -50 -169t-124 -72q-65 0 -99 44t-34 120q0 97 50 168.5t124 71.5q65 0 99 -43.5t34 -119.5zM735 664l-517 -671l-77 19l518 671zM239 610q-37 0 -61 -52t-24 -117q0 -86 52 -86q37 0 61 52t24 117q0 86 -52 86zM808 232q0 -97 -50.5 -168.5t-123.5 -71.5
q-65 0 -99 43.5t-34 119.5q0 97 50 169t124 72q65 0 99 -44t34 -120zM722 235q0 86 -51 86q-37 0 -61 -52t-24 -117q0 -86 52 -86q37 0 60.5 51.5t23.5 117.5z" />
    <glyph glyph-name="ampersand" unicode="&#x26;" horiz-adv-x="646" 
d="M504 172l110 -156l-129 -22l-60 84q-96 -91 -211 -91q-90 0 -142 47t-52 124q0 154 187 228q-46 70 -46 134q0 80 53.5 131.5t143.5 51.5q95 0 176 -43l-34 -105q-75 43 -139 43q-37 0 -58.5 -20t-21.5 -52q0 -39 42 -98l122 -173q34 64 56 152l98 -25q-36 -123 -95 -210
zM374 150l-118 165q-113 -50 -113 -141q0 -41 25 -66t72 -25q70 0 134 67z" />
    <glyph glyph-name="quotesingle" unicode="'" horiz-adv-x="242" 
d="M257 676l-71 -245l-69 17l5 228h135z" />
    <glyph glyph-name="parenleft" unicode="(" horiz-adv-x="393" 
d="M397 630q-108 -78 -159.5 -172t-52.5 -218q-1 -82 30.5 -155t99.5 -155l-102 -24q-76 77 -116.5 155t-39.5 182q2 312 340 483v-96z" />
    <glyph glyph-name="parenright" unicode=")" horiz-adv-x="393" 
d="M359 385q-2 -154 -88 -277t-253 -207v96q108 78 159.5 172t52.5 218q0 82 -31.5 155.5t-98.5 155.5l102 24q77 -77 117.5 -155.5t39.5 -181.5z" />
    <glyph glyph-name="asterisk" unicode="*" horiz-adv-x="419" 
d="M426 557l-108 -60l53 -113l-28 -19l-91 84l-90 -84l-28 19l52 113l-107 60l11 32l122 -13l22 119h36l22 -119l123 13z" />
    <glyph glyph-name="plus" unicode="+" horiz-adv-x="572" 
d="M526 290h-182l-30 -188h-100l29 188h-181l15 96h182l29 188h100l-29 -188h182z" />
    <glyph glyph-name="comma" unicode="," horiz-adv-x="242" 
d="M195 146l-159 -287l-68 17l90 270h137z" />
    <glyph glyph-name="hyphen" unicode="-" horiz-adv-x="342" 
d="M309 345l-17 -115h-248l17 115h248z" />
    <glyph glyph-name="period" unicode="." horiz-adv-x="242" 
d="M171 151l-23 -151h-131l24 151h130z" />
    <glyph glyph-name="slash" unicode="/" horiz-adv-x="533" 
d="M587 676l-574 -803l-104 23l574 803z" />
    <glyph glyph-name="zero" unicode="0" horiz-adv-x="593" 
d="M569 429q0 -196 -84.5 -319.5t-211.5 -123.5q-103 0 -160 70.5t-57 190.5q0 196 83.5 319t212.5 123q102 0 159.5 -70t57.5 -190zM443 437q0 74 -25.5 113t-72.5 39q-70 0 -117 -105.5t-47 -244.5q0 -152 98 -152q70 0 117 105.5t47 244.5z" />
    <glyph glyph-name="one" unicode="1" horiz-adv-x="364" 
d="M352 677l-106 -677h-124l88 554l-138 -52v99l173 76h107z" />
    <glyph glyph-name="two" unicode="2" horiz-adv-x="528" 
d="M513 517q0 -66 -33.5 -115.5t-116.5 -122.5l-194 -175h275v-104h-444l15 97l280 257q50 46 71.5 77.5t21.5 67.5q0 39 -24.5 60.5t-70.5 21.5q-81 0 -180 -72v113q95 67 205 67q90 0 142.5 -47t52.5 -125z" />
    <glyph glyph-name="three" unicode="3" horiz-adv-x="508" 
d="M497 529q0 -132 -148 -177q109 -42 109 -151q0 -100 -68.5 -157t-181.5 -57q-109 0 -208 56l32 102q91 -53 173 -53q60 0 96 29t36 80q0 104 -143 104h-34v97h56q72 0 114.5 28.5t42.5 77.5q0 76 -96 76q-84 0 -176 -59v108q96 56 198 56q93 0 145.5 -42t52.5 -118z" />
    <glyph glyph-name="four" unicode="4" horiz-adv-x="580" 
d="M560 237l-14 -92h-103l-23 -145h-115l24 145h-313l13 83l355 448h143l-70 -439h103zM342 237l51 312l-248 -312h197z" />
    <glyph glyph-name="five" unicode="5" horiz-adv-x="516" 
d="M511 572h-273l-34 -146q134 -18 199.5 -69t65.5 -143q0 -106 -69.5 -166t-178.5 -60q-111 0 -215 52l34 105q93 -51 183 -51q58 0 91.5 30.5t33.5 78.5q0 60 -60.5 91t-205.5 45l76 337h353v-104z" />
    <glyph glyph-name="six" unicode="6" horiz-adv-x="549" 
d="M183 373q80 49 165 49q79 0 124 -47.5t45 -133.5q0 -110 -72.5 -182t-183.5 -72q-99 0 -157.5 65t-58.5 180q0 183 117.5 303.5t316.5 155.5v-106q-115 -22 -191 -77t-105 -135zM163 281q-3 -24 -3 -48q0 -68 28.5 -108t80.5 -40q56 0 92.5 39t36.5 103q0 101 -97 101
q-69 0 -138 -47z" />
    <glyph glyph-name="seven" unicode="7" horiz-adv-x="526" 
d="M552 676l-15 -98l-349 -585l-117 24l332 551h-303v108h452z" />
    <glyph glyph-name="eight" unicode="8" horiz-adv-x="559" 
d="M331 396q95 48 95 123q0 37 -26 58.5t-73 21.5q-48 0 -77.5 -26t-29.5 -62q0 -35 25.5 -61t85.5 -54zM268 317q-119 -53 -119 -142q0 -44 32.5 -70t83.5 -26q58 0 93 30t35 77q0 39 -26 68t-99 63zM184 360q-79 55 -79 139q0 81 61.5 135.5t165.5 54.5q95 0 152 -44.5
t57 -115.5q0 -114 -128 -175q100 -63 100 -159q0 -90 -68.5 -148.5t-183.5 -58.5q-109 0 -170 49.5t-61 126.5q0 129 154 196z" />
    <glyph glyph-name="nine" unicode="9" horiz-adv-x="549" 
d="M394 294q-82 -44 -159 -44q-82 0 -127.5 47.5t-45.5 134.5q0 110 72.5 183.5t183.5 73.5q99 0 157.5 -65t58.5 -180q0 -185 -120.5 -305t-320.5 -154v106q236 44 301 203zM415 388q4 25 4 55q0 69 -28.5 109t-80.5 40q-56 0 -92.5 -41.5t-36.5 -106.5q0 -101 97 -101
q68 0 137 45z" />
    <glyph glyph-name="colon" unicode=":" horiz-adv-x="251" 
d="M228 483l-22 -147h-131l23 147h130zM176 148l-23 -148h-131l23 148h131z" />
    <glyph glyph-name="semicolon" unicode=";" horiz-adv-x="251" 
d="M232 483l-22 -147h-131l23 147h130zM190 146l-159 -287l-68 17l90 270h137z" />
    <glyph glyph-name="less" unicode="&#x3c;" horiz-adv-x="572" 
d="M476 73l-411 222l13 86l483 222l-18 -111l-352 -157l302 -157z" />
    <glyph glyph-name="equal" unicode="=" horiz-adv-x="590" 
d="M544 404h-445l16 100h445zM507 172h-445l16 100h445z" />
    <glyph glyph-name="greater" unicode="&#x3e;" horiz-adv-x="572" 
d="M126 603l411 -222l-13 -86l-483 -222l18 112l352 156l-302 157z" />
    <glyph glyph-name="question" unicode="?" horiz-adv-x="483" 
d="M252 144l-23 -144h-131l23 144h131zM260 301l-18 -69l-76 -16l14 162l23 9q88 34 123.5 61.5t35.5 69.5q0 33 -23.5 51.5t-67.5 18.5q-84 0 -183 -70v117q100 68 214 68q93 0 142.5 -44.5t49.5 -118.5q0 -87 -56.5 -143.5t-177.5 -95.5z" />
    <glyph glyph-name="at" unicode="@" horiz-adv-x="829" 
d="M465 210l28 160q-21 7 -49 7q-49 0 -88.5 -55t-39.5 -134q0 -60 44 -60q37 0 105 82zM465 132q-41 -47 -73.5 -68t-69.5 -21q-47 0 -77 33t-30 93q0 124 71.5 206.5t166.5 82.5q73 0 151 -30l-38 -215q-6 -42 -6 -55q0 -27 16 -43t47 -16q53 0 86.5 55.5t33.5 152.5
q0 142 -80 216.5t-209 74.5q-151 0 -260 -118t-109 -292q0 -148 79.5 -220.5t213.5 -72.5q119 0 215 49l6 -36q-98 -48 -225 -48q-155 0 -244 85t-89 242q0 119 55.5 222t151.5 164t210 61q149 0 238.5 -87.5t89.5 -238.5q0 -119 -51 -192t-136 -73q-51 0 -87 23.5t-47 65.5
z" />
    <glyph glyph-name="A" unicode="A" horiz-adv-x="651" 
d="M596 18l-132 -25l-30 182h-235l-84 -175h-132l352 693h134zM417 282l-43 263l-126 -263h169z" />
    <glyph glyph-name="B" unicode="B" horiz-adv-x="554" 
d="M533 532q0 -121 -122 -169q102 -43 102 -145q0 -104 -76.5 -161t-206.5 -57h-198l109 690h180q103 0 157.5 -42.5t54.5 -115.5zM409 512q0 38 -25.5 59.5t-75.5 21.5h-56l-30 -188h51q60 0 98 27.5t38 79.5zM386 214q0 99 -129 99h-49l-35 -216h62q70 0 110.5 30t40.5 87
z" />
    <glyph glyph-name="C" unicode="C" horiz-adv-x="587" 
d="M595 642l-37 -118q-70 65 -151 65q-97 0 -159 -88t-62 -208q0 -97 43 -145.5t119 -48.5q78 0 162 53v-116q-86 -48 -181 -48q-126 0 -201 76.5t-75 216.5q0 177 101 299t254 122q110 0 187 -60z" />
    <glyph glyph-name="D" unicode="D" horiz-adv-x="661" 
d="M636 405q0 -179 -109 -290q-117 -115 -313 -115h-182l109 690h174q151 0 236 -72t85 -213zM502 398q0 187 -192 187h-56l-76 -480h51q124 0 194 72q79 79 79 221z" />
    <glyph glyph-name="E" unicode="E" horiz-adv-x="491" 
d="M519 690l-17 -109h-248l-26 -166h189v-112h-207l-31 -194h257l-18 -109h-386l109 690h378z" />
    <glyph glyph-name="F" unicode="F" horiz-adv-x="469" 
d="M509 690l-18 -112h-238l-28 -179h181v-114h-199l-45 -285h-130l109 690h368z" />
    <glyph glyph-name="G" unicode="G" horiz-adv-x="656" 
d="M618 386l-54 -334q-106 -64 -228 -64q-130 0 -207 77.5t-77 214.5q0 175 105 298.5t262 123.5q123 0 208 -54l-36 -117q-78 60 -175 60q-100 0 -165 -88t-65 -214q0 -95 44 -144t117 -49q64 0 112 27l24 158h-127v105h262z" />
    <glyph glyph-name="H" unicode="H" horiz-adv-x="665" 
d="M665 690l-109 -690h-131l47 301h-262l-47 -301h-131l109 690h131l-43 -273h262l43 273h131z" />
    <glyph glyph-name="I" unicode="I" horiz-adv-x="280" 
d="M275 690l-109 -690h-131l109 690h131z" />
    <glyph glyph-name="J" unicode="J" horiz-adv-x="392" 
d="M396 690l-78 -495q-17 -106 -71.5 -153.5t-152.5 -47.5q-54 0 -94 9v114q41 -11 82 -11q45 0 72 23.5t36 81.5l76 479h130z" />
    <glyph glyph-name="K" unicode="K" horiz-adv-x="597" 
d="M641 690l-298 -323l208 -348l-137 -26l-199 342l-52 -335h-131l109 690h131l-48 -302l268 302h149z" />
    <glyph glyph-name="L" unicode="L" horiz-adv-x="458" 
d="M397 0h-365l109 690h131l-92 -577h217v-113z" />
    <glyph glyph-name="M" unicode="M" horiz-adv-x="859" 
d="M825 690l-57 -690h-130l43 504l-242 -507h-112l-81 507l-116 -504h-115l161 690h165l80 -516l244 516h160z" />
    <glyph glyph-name="N" unicode="N" horiz-adv-x="664" 
d="M663 690l-109 -690h-96l-230 487l-77 -487h-119l109 690h125l209 -443l69 443h119z" />
    <glyph glyph-name="O" unicode="O" horiz-adv-x="693" 
d="M667 410q0 -183 -98 -303t-248 -120q-127 0 -197 78.5t-70 214.5q0 183 98 303t248 120q127 0 197 -78.5t70 -214.5zM534 412q0 89 -36.5 138t-105.5 49q-90 0 -147.5 -94t-57.5 -227q0 -89 36.5 -138t104.5 -49q90 0 148 94t58 227z" />
    <glyph glyph-name="P" unicode="P" horiz-adv-x="539" 
d="M546 499q-1 -114 -79 -178.5t-215 -64.5h-50l-41 -256h-129l109 690h164q119 0 180 -49.5t61 -141.5zM418 486q1 49 -28.5 75t-90.5 26h-46l-35 -228h45q77 0 116 33t39 94z" />
    <glyph glyph-name="Q" unicode="Q" horiz-adv-x="696" 
d="M620 -30l-40 -113l-301 123q-123 50 -174 114.5t-51 185.5q0 182 97.5 302.5t246.5 120.5q128 0 198.5 -78.5t70.5 -212.5q0 -139 -57 -239.5t-149 -143.5zM534 412q0 89 -36.5 138t-105.5 49q-90 0 -147.5 -94t-57.5 -227q0 -89 36.5 -138.5t104.5 -49.5q90 0 148 94.5
t58 227.5z" />
    <glyph glyph-name="R" unicode="R" horiz-adv-x="572" 
d="M551 507q0 -81 -44 -136t-124 -78l138 -275l-135 -25l-136 278h-46l-43 -271h-129l109 690h168q115 0 178.5 -45.5t63.5 -137.5zM422 494q0 93 -119 93h-50l-33 -218h50q74 0 113 32.5t39 92.5z" />
    <glyph glyph-name="S" unicode="S" horiz-adv-x="519" 
d="M511 647l-36 -110q-91 60 -160 60q-45 0 -69 -24t-24 -59q0 -28 19.5 -49.5t71.5 -51.5q93 -52 127.5 -97t34.5 -109q0 -101 -67 -159.5t-168 -58.5q-121 0 -228 64l36 111q100 -71 192 -71q47 0 77 26.5t30 68.5q0 32 -17 52.5t-65 48.5q-97 55 -134 97.5t-37 106.5
q0 92 62.5 150t162.5 58q106 0 192 -54z" />
    <glyph glyph-name="T" unicode="T" horiz-adv-x="573" 
d="M608 579h-204l-91 -579h-131l91 579h-195l18 111h512v-111z" />
    <glyph glyph-name="U" unicode="U" horiz-adv-x="650" 
d="M660 690l-70 -441q-41 -262 -288 -262q-114 0 -177 55.5t-63 163.5q0 38 7 83l64 401h130l-64 -408q-5 -29 -5 -67q0 -56 29.5 -86.5t87.5 -30.5q125 0 149 158l69 434h131z" />
    <glyph glyph-name="V" unicode="V" horiz-adv-x="637" 
d="M689 690l-353 -693h-118l-130 675l137 25l84 -523l247 516h133z" />
    <glyph glyph-name="W" unicode="W" horiz-adv-x="976" 
d="M1021 690l-303 -690h-119l-74 494l-231 -494h-116l-82 672l143 25l42 -488l221 481h129l65 -481l196 481h129z" />
    <glyph glyph-name="X" unicode="X" horiz-adv-x="610" 
d="M643 690q-246 -327 -247 -327l161 -345l-137 -25l-113 262l-185 -255h-144l274 361l-143 311l135 25l97 -227l158 220h144z" />
    <glyph glyph-name="Y" unicode="Y" horiz-adv-x="618" 
d="M679 690l-304 -426l-42 -264h-131l42 262l-163 411l136 24l113 -310l206 303h143z" />
    <glyph glyph-name="Z" unicode="Z" horiz-adv-x="577" 
d="M604 690l-16 -95l-408 -488h324v-107h-501l15 95l408 488h-299v107h477z" />
    <glyph glyph-name="bracketleft" unicode="[" horiz-adv-x="408" 
d="M437 690l-12 -80h-174l-100 -633h166v-81h-293l125 794h288z" />
    <glyph glyph-name="backslash" unicode="\" horiz-adv-x="523" 
d="M544 -105l-101 -23l-407 803l101 23z" />
    <glyph glyph-name="bracketright" unicode="]" horiz-adv-x="408" 
d="M399 690l-125 -794h-289l13 81h173l101 633h-167v80h294z" />
    <glyph glyph-name="asciicircum" unicode="^" 
d="M414 557l-64 -14l-69 69l-89 -65h-74l120 144h106z" />
    <glyph glyph-name="underscore" unicode="_" 
d="M396 -35l-11 -69h-441l11 69h441z" />
    <glyph glyph-name="grave" unicode="`" 
d="M363 547h-71l-115 124l138 27z" />
    <glyph glyph-name="a" unicode="a" horiz-adv-x="504" 
d="M312 77q-81 -87 -152 -87q-60 0 -96 43.5t-36 121.5q0 153 84 243.5t201 90.5q79 0 164 -32l-53 -332v-125h-107zM315 167l35 221q-26 8 -50 8q-62 0 -108 -62.5t-46 -157.5q0 -84 56 -84q45 0 113 75z" />
    <glyph glyph-name="b" unicode="b" horiz-adv-x="508" 
d="M27 26l107 676l119 20l-46 -297q70 68 135 68q62 0 100 -45.5t38 -126.5q0 -149 -81.5 -238t-195.5 -89q-83 0 -176 32zM154 98q25 -10 59 -10q61 0 105 57.5t44 156.5q0 89 -62 89q-46 0 -109 -65z" />
    <glyph glyph-name="c" unicode="c" horiz-adv-x="424" 
d="M423 455l-32 -102q-55 38 -106 38q-55 0 -96 -55.5t-41 -132.5q0 -55 27.5 -84t75.5 -29q50 0 109 36v-101q-60 -35 -129 -35q-89 0 -145 52.5t-56 151.5q0 126 73 212.5t179 86.5q80 0 141 -38z" />
    <glyph glyph-name="d" unicode="d" horiz-adv-x="509" 
d="M523 722l-95 -605v-117h-108l-5 71q-77 -81 -149 -81q-62 0 -100 45.5t-38 126.5q0 149 80 237.5t191 88.5q32 0 70 -9l35 223zM354 385q-28 11 -59 11q-61 0 -105 -58t-44 -157q0 -89 63 -89q44 0 109 65z" />
    <glyph glyph-name="e" unicode="e" horiz-adv-x="467" 
d="M154 295h175q8 117 -69 117q-34 0 -62.5 -32t-43.5 -85zM142 220v-22q0 -119 106 -119q70 0 155 54v-92q-84 -51 -177 -51q-89 0 -143 51t-54 148q0 133 71 218.5t170 85.5q79 0 123 -50.5t44 -138.5q0 -43 -9 -84h-286z" />
    <glyph glyph-name="f" unicode="f" horiz-adv-x="312" 
d="M365 616q-28 4 -47 4q-56 0 -67 -65l-12 -72h86v-96h-101l-87 -554l-119 -19l90 573h-68l15 96h68l15 89q12 70 51.5 105.5t115.5 35.5q30 0 60 -4v-93z" />
    <glyph glyph-name="g" unicode="g" horiz-adv-x="508" 
d="M481 457l-66 -422q-18 -115 -78.5 -166t-159.5 -51q-100 0 -185 40l31 95q76 -41 151 -41q101 0 123 111l8 48q-70 -68 -137 -68q-62 0 -100.5 43.5t-38.5 120.5q0 145 81.5 233.5t195.5 88.5q82 0 175 -32zM354 385q-28 11 -59 11q-60 0 -104 -58.5t-44 -153.5
q0 -81 63 -81q47 0 109 64z" />
    <glyph glyph-name="h" unicode="h" horiz-adv-x="508" 
d="M473 386q0 -24 -3 -40l-55 -346h-117l51 315q2 16 2 27q0 48 -41 48q-22 0 -56 -25t-68 -67l-46 -298h-117l112 702l119 20l-52 -323q92 94 164 94q52 0 79.5 -28.5t27.5 -78.5z" />
    <glyph glyph-name="i" unicode="i" horiz-adv-x="245" 
d="M256 633q0 -30 -20.5 -49.5t-50.5 -19.5t-51 19.5t-21 49.5t21 49.5t51 19.5t50.5 -19.5t20.5 -49.5zM219 483l-77 -483h-117l77 483h117z" />
    <glyph glyph-name="j" unicode="j" horiz-adv-x="245" 
d="M256 633q0 -30 -20.5 -49.5t-50.5 -19.5q-31 0 -51.5 19.5t-20.5 49.5t20.5 49.5t51.5 19.5q30 0 50.5 -19.5t20.5 -49.5zM218 483l-81 -517q-13 -79 -50.5 -113.5t-105.5 -34.5q-40 0 -60 6v100q17 -6 42 -6q49 0 60 64l79 501h116z" />
    <glyph glyph-name="k" unicode="k" horiz-adv-x="474" 
d="M185 285l172 198h135l-202 -219l142 -251l-122 -20l-132 248l-38 -241h-117l112 702l119 20z" />
    <glyph glyph-name="l" unicode="l" horiz-adv-x="245" 
d="M256 722l-114 -722h-116l110 702z" />
    <glyph glyph-name="m" unicode="m" horiz-adv-x="774" 
d="M458 299l-48 -299h-117l51 315l3 27q0 25 -8.5 36.5t-30.5 11.5q-20 0 -54.5 -25.5t-67.5 -66.5l-46 -298h-117l58 366v117h108l5 -92q96 102 171 102q49 0 75 -25.5t28 -69.5q91 95 166 95q51 0 78.5 -28.5t27.5 -79.5q0 -19 -3 -39l-56 -346h-116l50 315q3 13 3 28
q0 47 -41 47q-20 0 -53.5 -25t-65.5 -66z" />
    <glyph glyph-name="n" unicode="n" horiz-adv-x="508" 
d="M473 386q0 -24 -3 -40l-55 -346h-117l51 315q2 16 2 27q0 48 -41 48q-22 0 -56 -25t-68 -67l-46 -298h-117l58 366v117h106l7 -92q96 102 172 102q52 0 79.5 -28.5t27.5 -78.5z" />
    <glyph glyph-name="o" unicode="o" horiz-adv-x="498" 
d="M467 284q0 -124 -68.5 -209t-176.5 -85q-88 0 -139.5 56t-51.5 153q0 123 68.5 208.5t175.5 85.5q89 0 140.5 -56t51.5 -153zM350 284q0 117 -82 117q-55 0 -87.5 -61t-32.5 -141q0 -117 82 -117q55 0 87.5 61t32.5 141z" />
    <glyph glyph-name="p" unicode="p" horiz-adv-x="509" 
d="M-6 -186l87 552v117h108l5 -70q77 80 149 80q62 0 100 -45.5t38 -126.5q0 -149 -80 -237.5t-191 -88.5q-35 0 -70 10l-26 -171zM155 98q25 -10 59 -10q61 0 105 57.5t44 156.5q0 89 -63 89q-46 0 -109 -65z" />
    <glyph glyph-name="q" unicode="q" horiz-adv-x="508" 
d="M481 457l-98 -624l-119 -19l38 244q-72 -68 -136 -68q-62 0 -100 45.5t-38 126.5q0 149 81.5 238t195.5 89q83 0 176 -32zM354 385q-28 11 -59 11q-61 0 -105 -58t-44 -157q0 -89 63 -89q44 0 109 65z" />
    <glyph glyph-name="r" unicode="r" horiz-adv-x="352" 
d="M362 374q-54 -5 -100.5 -32t-78.5 -68l-43 -274h-117l58 366v117h107l6 -107q33 51 76.5 84t91.5 33v-119z" />
    <glyph glyph-name="s" unicode="s" horiz-adv-x="404" 
d="M386 453l-29 -96q-73 44 -137 44q-27 0 -42 -13t-15 -30q0 -18 12 -29.5t47 -26.5q79 -36 112 -68.5t33 -85.5q0 -74 -49 -116t-133 -42q-99 0 -185 56l29 94q86 -59 165 -59q29 0 47.5 14t18.5 37q0 20 -14.5 33t-51.5 30q-77 35 -107.5 66t-30.5 82q0 67 47 108.5
t122 41.5q79 0 161 -40z" />
    <glyph glyph-name="t" unicode="t" horiz-adv-x="340" 
d="M332 387h-112l-35 -224q-2 -18 -2 -29q0 -43 48 -43q25 0 43 5v-96q-34 -8 -86 -8q-126 0 -126 106q0 19 4 51l38 238h-65l16 96h64l24 153l119 19l-27 -172h97v-96z" />
    <glyph glyph-name="u" unicode="u" horiz-adv-x="508" 
d="M484 483l-57 -366v-117h-108l-5 92q-98 -102 -172 -102q-53 0 -80.5 28.5t-27.5 79.5q0 6 3 39l55 346h117l-50 -315q-3 -24 -3 -26q0 -48 42 -48q22 0 56 25t67 66l47 298h116z" />
    <glyph glyph-name="v" unicode="v" horiz-adv-x="457" 
d="M479 483l-236 -485h-107l-84 475l120 17l45 -341l146 334h116z" />
    <glyph glyph-name="w" unicode="w" horiz-adv-x="703" 
d="M721 483l-217 -483h-104l-38 328l-139 -328h-102l-66 474l118 16l30 -329l135 322h107l34 -322l130 322h112z" />
    <glyph glyph-name="x" unicode="x" horiz-adv-x="463" 
d="M473 483l-177 -236l111 -238l-115 -16l-72 167l-114 -160h-125l188 248l-104 226l115 16l65 -155l103 148h125z" />
    <glyph glyph-name="y" unicode="y" horiz-adv-x="466" 
d="M488 483l-254 -515q-42 -85 -86 -117.5t-117 -32.5q-25 0 -43 5v98q24 -6 52 -6q49 0 79 50l22 41l-88 467l120 17l50 -341l150 334h115z" />
    <glyph glyph-name="z" unicode="z" horiz-adv-x="445" 
d="M440 483l-15 -90l-273 -299h224v-94h-384l15 90l273 299h-200v94h360z" />
    <glyph glyph-name="braceleft" unicode="{" horiz-adv-x="476" 
d="M504 690l-13 -79h-94q-77 0 -77 -83v-81q-1 -70 -33.5 -105.5t-95.5 -49.5v-2q47 -11 67.5 -33.5t20.5 -62.5q-1 -27 -19.5 -90.5t-18.5 -82.5q0 -45 60 -45h82v-80h-134q-60 0 -93 26t-32 76q0 28 19 94t19 92q1 36 -20.5 53t-68.5 17h-27v79h44q60 0 88 30t28 97v79
q2 151 169 151h129z" />
    <glyph glyph-name="bar" unicode="|" horiz-adv-x="285" 
d="M194 -168l-106 -18v890l106 18v-890z" />
    <glyph glyph-name="braceright" unicode="}" horiz-adv-x="473" 
d="M443 254h-43q-60 0 -88 -30t-29 -97v-80q-1 -72 -43 -111.5t-126 -39.5h-129l13 80h94q77 0 77 82q0 8 0.5 41t0.5 41q0 69 32.5 105t95.5 50v2q-47 11 -67 33t-20 63q1 25 19 89t18 83q1 22 -14.5 34t-45.5 12h-82l1 79h134q60 0 92.5 -26t31.5 -76q0 -27 -19 -93.5
t-19 -91.5q0 -36 21 -53t68 -17h27v-79z" />
    <glyph glyph-name="asciitilde" unicode="~" horiz-adv-x="395" 
d="M369 346q-32 -127 -103 -127q-26 0 -65 21q-43 24 -60 24q-20 0 -38 -48l-62 14q17 67 41.5 96.5t61.5 29.5q29 0 65 -21q43 -23 59 -23q12 0 20 10.5t18 37.5z" />
    <glyph glyph-name="nbspace" unicode="&#xa0;" horiz-adv-x="102" 
 />
    <glyph glyph-name="exclamdown" unicode="&#xa1;" horiz-adv-x="282" 
d="M279 690l-23 -145h-131l24 145h130zM216 470l-39 -470h-147l107 453z" />
    <glyph glyph-name="cent" unicode="&#xa2;" horiz-adv-x="452" 
d="M389 573q39 -12 69 -35l-32 -95q-33 27 -70 38l-91 -295h5q62 0 124 38v-95q-67 -38 -145 -38h-9l-32 -101l-66 16l30 98q-55 20 -88.5 69.5t-33.5 119.5q0 123 73 207t188 84h10l32 101l66 -16zM295 488q-60 -3 -96.5 -57t-36.5 -130q0 -75 45 -100z" />
    <glyph glyph-name="sterling" unicode="&#xa3;" horiz-adv-x="539" 
d="M152 383l61 143q36 85 84 124t129 39q64 0 114 -16l-27 -105q-40 14 -83 14q-69 0 -104 -85l-48 -114h147v-100h-190l-76 -180h310v-103h-454l15 95l80 188h-65l16 100h91z" />
    <glyph glyph-name="currency" unicode="&#xa4;" horiz-adv-x="564" 
d="M246 385q-8 -42 -9 -88h205l-12 -72h-189q23 -136 138 -136q64 0 129 43v-104q-66 -40 -147 -40q-108 0 -170 61.5t-74 175.5h-89v72h86q2 47 10 88h-78l12 73h85q36 103 109.5 167t173.5 64q97 0 165 -55l-33 -103q-67 55 -135 55q-49 0 -90 -34t-65 -94h192v-73h-214z
" />
    <glyph glyph-name="yen" unicode="&#xa5;" horiz-adv-x="606" 
d="M359 223l-11 -69h161l-12 -72h-161l-13 -82h-122l13 82h-155v72h167l11 69h-163l12 72h143l-143 366l129 22l109 -308l198 301h137l-271 -381h137v-72h-166z" />
    <glyph glyph-name="brokenbar" unicode="&#xa6;" horiz-adv-x="500" 
d="M25 -200v1000h450v-1000h-450z" />
    <glyph glyph-name="section" unicode="&#xa7;" horiz-adv-x="541" 
d="M519 368q0 -53 -44 -111l-85 21q26 38 26 65q0 20 -15 31.5t-56 22.5l-64 17q-72 19 -105 48.5t-33 81.5q0 62 48.5 101t131.5 39q89 0 168 -37l-27 -86q-76 39 -151 39q-30 0 -47 -12t-17 -31q0 -20 18 -31t66 -24l46 -13q75 -20 107.5 -46.5t32.5 -74.5zM50 308
q0 51 44 110l86 -21q-26 -33 -26 -65q0 -19 15 -31t55 -22l64 -17q71 -19 104.5 -48.5t33.5 -81.5q0 -62 -48 -101.5t-131 -39.5q-90 0 -169 38l28 86q74 -40 150 -40q30 0 47 12.5t17 31.5q0 20 -18 31.5t-65 23.5l-46 12q-75 21 -108 47.5t-33 74.5z" />
    <glyph glyph-name="dieresis" unicode="&#xa8;" 
d="M414 550h-110l18 115h110zM232 550h-109l18 115h110z" />
    <glyph glyph-name="copyright" unicode="&#xa9;" horiz-adv-x="799" 
d="M762 346q0 -160 -96.5 -259.5t-249.5 -99.5q-154 0 -249.5 98.5t-95.5 258.5t96.5 259.5t249.5 99.5q154 0 249.5 -98.5t95.5 -258.5zM718 345q0 151 -85 236.5t-216 85.5q-133 0 -217.5 -85.5t-84.5 -236.5t85 -236.5t217 -85.5t216.5 85.5t84.5 236.5zM558 181
q-60 -37 -126 -37q-89 0 -142 56t-53 148q0 91 54.5 147.5t140.5 56.5q62 0 119 -31l-13 -83q-51 37 -103 37q-49 0 -77.5 -34.5t-28.5 -92.5t30 -92t80 -34t107 37z" />
    <glyph glyph-name="ordfeminine" unicode="&#xaa;" horiz-adv-x="376" 
d="M324 222h-277l10 66h267v-66zM267 445l11 69q-118 -14 -118 -75q0 -29 31 -29q29 0 76 35zM286 559l1 8q4 27 -8 39t-41 12q-44 0 -106 -26l1 63q61 26 127 26q129 0 109 -113l-24 -146v-66h-75l-4 41q-59 -48 -110 -48q-36 0 -58 21t-22 57q0 114 210 132z" />
    <glyph glyph-name="guillemotleft" unicode="&#xab;" horiz-adv-x="528" 
d="M531 483l-166 -246l82 -224l-87 -20l-120 249l191 241h100zM317 483l-165 -246l82 -224l-87 -20l-121 249l192 241h99z" />
    <glyph glyph-name="logicalnot" unicode="&#xac;" horiz-adv-x="572" 
d="M525 288h-464l16 100h464z" />
    <glyph glyph-name="registered" unicode="&#xae;" horiz-adv-x="563" 
d="M545 470q0 -103 -63.5 -167.5t-163.5 -64.5q-101 0 -164 64t-63 168q0 103 64 168t163 65q101 0 164 -64.5t63 -168.5zM512 470q0 96 -55 151t-139 55t-139 -55t-55 -151q0 -95 55 -150t139 -55t139 54.5t55 150.5zM435 357l-60 -10l-67 101h-20v-98h-56v257h87
q45 0 70.5 -20.5t25.5 -57.5q0 -51 -49 -71zM358 525q0 36 -42 36h-28v-73h26q44 0 44 37z" />
    <glyph glyph-name="macron" unicode="&#xaf;" 
d="M401 567h-261l13 88h262z" />
    <glyph glyph-name="degree" unicode="&#xb0;" horiz-adv-x="436" 
d="M432 509q0 -74 -48.5 -122t-123.5 -48q-74 0 -122.5 48t-48.5 122q0 75 48.5 124t122.5 49q75 0 123.5 -49t48.5 -124zM354 509q0 43 -27 71.5t-67 28.5t-66.5 -28.5t-26.5 -71.5t26 -70t67 -27t67.5 27t26.5 70z" />
    <glyph glyph-name="plusminus" unicode="&#xb1;" horiz-adv-x="580" 
d="M546 145h-103l-23 -145h-109l23 145h-318l13 84l361 452l109 -28l-336 -416h185l27 165l113 26l-30 -191h103z" />
    <glyph glyph-name="twosuperior" unicode="&#xb2;" horiz-adv-x="500" 
d="M25 -200v1000h450v-1000h-450z" />
    <glyph glyph-name="threesuperior" unicode="&#xb3;" horiz-adv-x="500" 
d="M25 -200v1000h450v-1000h-450z" />
    <glyph glyph-name="acute" unicode="&#xb4;" 
d="M402 671l-153 -124h-82l95 151z" />
    <glyph glyph-name="mu" unicode="&#xb5;" horiz-adv-x="572" 
d="M420 118l-127 154l-176 -154l-61 71l178 152l-129 151l78 67l126 -153l176 153l61 -72l-178 -151l130 -151z" />
    <glyph glyph-name="paragraph" unicode="&#xb6;" horiz-adv-x="529" 
d="M414 0h-81l97 608h-66l-25 -154l-67 -210q-96 5 -150 51.5t-54 135.5q0 111 76 178t208 67h170z" />
    <glyph glyph-name="periodcentered" unicode="&#xb7;" horiz-adv-x="242" 
d="M182 212h-131l23 151h131z" />
    <glyph glyph-name="cedilla" unicode="&#xb8;" 
d="M264 -75l-144 -107h-78l86 135z" />
    <glyph glyph-name="onesuperior" unicode="&#xb9;" horiz-adv-x="500" 
d="M25 -200v1000h450v-1000h-450z" />
    <glyph glyph-name="ordmasculine" unicode="&#xba;" horiz-adv-x="379" 
d="M212 350q-59 0 -95.5 36.5t-36.5 99.5q0 81 49 138t125 57q59 0 95.5 -36.5t36.5 -100.5q0 -81 -49 -137.5t-125 -56.5zM332 222h-287l11 66h276v-66zM247 614q-38 0 -61 -38t-23 -85q0 -74 56 -74q38 0 61.5 38t23.5 85q0 35 -15.5 54.5t-41.5 19.5z" />
    <glyph glyph-name="guillemotright" unicode="&#xbb;" horiz-adv-x="528" 
d="M210 0l166 245l-82 225l87 20l120 -249l-191 -241h-100zM-3 0l166 245l-82 225l87 20l120 -249l-191 -241h-100z" />
    <glyph glyph-name="onequarter" unicode="&#xbc;" horiz-adv-x="500" 
d="M25 -200v1000h450v-1000h-450z" />
    <glyph glyph-name="onehalf" unicode="&#xbd;" horiz-adv-x="500" 
d="M25 -200v1000h450v-1000h-450z" />
    <glyph glyph-name="threequarters" unicode="&#xbe;" horiz-adv-x="500" 
d="M25 -200v1000h450v-1000h-450z" />
    <glyph glyph-name="questiondown" unicode="&#xbf;" horiz-adv-x="483" 
d="M263 546l23 144h131l-23 -144h-131zM255 390l17 69l77 15l-14 -162l-24 -9q-86 -32 -122 -60.5t-36 -69.5q0 -33 23 -52t67 -19q84 0 184 70v-117q-100 -68 -215 -68q-93 0 -142 44.5t-49 118.5q0 87 56.5 144t177.5 96z" />
    <glyph glyph-name="Agrave" unicode="&#xc0;" horiz-adv-x="651" 
d="M596 18l-132 -25l-30 182h-235l-84 -175h-132l352 693h134zM417 282l-43 263l-126 -263h169zM442 735h-71l-115 124l138 27z" />
    <glyph glyph-name="Aacute" unicode="&#xc1;" horiz-adv-x="651" 
d="M596 18l-132 -25l-30 182h-235l-84 -175h-132l352 693h134zM417 282l-43 263l-126 -263h169zM599 859l-153 -124h-82l95 151z" />
    <glyph glyph-name="Acircumflex" unicode="&#xc2;" horiz-adv-x="651" 
d="M596 18l-132 -25l-30 182h-235l-84 -175h-132l352 693h134zM417 282l-43 263l-126 -263h169zM551 739l-64 -14l-69 69l-89 -65h-74l120 144h106z" />
    <glyph glyph-name="Atilde" unicode="&#xc3;" horiz-adv-x="651" 
d="M596 18l-132 -25l-30 182h-235l-84 -175h-132l352 693h134zM417 282l-43 263l-126 -263h169zM578 863q-32 -126 -103 -126q-29 0 -65 21q-43 23 -59 23q-22 0 -38 -48l-63 14q32 127 103 127q26 0 65 -21q44 -24 60 -24q20 0 38 48z" />
    <glyph glyph-name="Adieresis" unicode="&#xc4;" horiz-adv-x="651" 
d="M596 18l-132 -25l-30 182h-235l-84 -175h-132l352 693h134zM417 282l-43 263l-126 -263h169zM551 738h-110l18 115h110zM369 738h-109l18 115h110z" />
    <glyph glyph-name="Aring" unicode="&#xc5;" horiz-adv-x="651" 
d="M596 18l-132 -25l-30 182h-235l-84 -175h-132l352 693h134zM417 282l-43 263l-126 -263h169zM531 838q-1 -46 -31.5 -75.5t-81.5 -29.5q-52 0 -82.5 29.5t-30.5 75.5q1 46 32 76t82 30t81.5 -30t30.5 -76zM470 838q0 24 -14.5 41.5t-36.5 17.5q-23 0 -38 -17.5t-15 -41.5
q0 -25 14.5 -42t37.5 -17q22 0 37 17t15 42z" />
    <glyph glyph-name="AE" unicode="&#xc6;" horiz-adv-x="858" 
d="M886 690l-17 -107h-243l-26 -168h183v-111h-201l-31 -197h252l-18 -107h-380l28 175h-216l-122 -175h-133l476 690h448zM500 598l-215 -316h165z" />
    <glyph glyph-name="Ccedilla" unicode="&#xc7;" horiz-adv-x="587" 
d="M595 642l-37 -118q-70 65 -151 65q-97 0 -159 -88t-62 -208q0 -97 43 -145.5t119 -48.5q78 0 162 53v-116q-86 -48 -181 -48q-126 0 -201 76.5t-75 216.5q0 177 101 299t254 122q110 0 187 -60zM366 -75l-144 -107h-78l86 135z" />
    <glyph glyph-name="Egrave" unicode="&#xc8;" horiz-adv-x="491" 
d="M519 690l-17 -109h-248l-26 -166h189v-112h-207l-31 -194h257l-18 -109h-386l109 690h378zM391 735h-71l-115 124l138 27z" />
    <glyph glyph-name="Eacute" unicode="&#xc9;" horiz-adv-x="491" 
d="M519 690l-17 -109h-248l-26 -166h189v-112h-207l-31 -194h257l-18 -109h-386l109 690h378zM506 859l-153 -124h-82l95 151z" />
    <glyph glyph-name="Ecircumflex" unicode="&#xca;" horiz-adv-x="491" 
d="M519 690l-17 -109h-248l-26 -166h189v-112h-207l-31 -194h257l-18 -109h-386l109 690h378zM482 745l-64 -14l-69 69l-89 -65h-74l120 144h106z" />
    <glyph glyph-name="Edieresis" unicode="&#xcb;" horiz-adv-x="491" 
d="M519 690l-17 -109h-248l-26 -166h189v-112h-207l-31 -194h257l-18 -109h-386l109 690h378zM483 738h-110l18 115h110zM301 738h-109l18 115h110z" />
    <glyph glyph-name="Igrave" unicode="&#xcc;" horiz-adv-x="280" 
d="M275 690l-109 -690h-131l109 690h131zM255 735h-71l-115 124l138 27z" />
    <glyph glyph-name="Iacute" unicode="&#xcd;" horiz-adv-x="280" 
d="M275 690l-109 -690h-131l109 690h131zM404 859l-153 -124h-82l95 151z" />
    <glyph glyph-name="Icircumflex" unicode="&#xce;" horiz-adv-x="280" 
d="M275 690l-109 -690h-131l109 690h131zM361 739l-64 -14l-69 69l-89 -65h-74l120 144h106z" />
    <glyph glyph-name="Idieresis" unicode="&#xcf;" horiz-adv-x="280" 
d="M275 690l-109 -690h-131l109 690h131zM361 738h-110l18 115h110zM179 738h-109l18 115h110z" />
    <glyph glyph-name="Eth" unicode="&#xd0;" horiz-adv-x="698" 
d="M673 405q0 -179 -109 -290q-117 -115 -313 -115h-182l47 301h-74v114h93l43 275h173q152 0 237 -72t85 -213zM539 398q0 187 -192 187h-56l-28 -170h142l-18 -114h-142l-31 -196h52q124 0 194 72q79 79 79 221z" />
    <glyph glyph-name="Ntilde" unicode="&#xd1;" horiz-adv-x="664" 
d="M663 690l-109 -690h-96l-230 487l-77 -487h-119l109 690h125l209 -443l69 443h119zM584 857q-32 -126 -103 -126q-29 0 -65 21q-43 23 -59 23q-22 0 -38 -48l-63 14q32 127 103 127q26 0 65 -21q44 -24 60 -24q20 0 38 48z" />
    <glyph glyph-name="Ograve" unicode="&#xd2;" horiz-adv-x="693" 
d="M667 410q0 -183 -98 -303t-248 -120q-127 0 -197 78.5t-70 214.5q0 183 98 303t248 120q127 0 197 -78.5t70 -214.5zM534 412q0 89 -36.5 138t-105.5 49q-90 0 -147.5 -94t-57.5 -227q0 -89 36.5 -138t104.5 -49q90 0 148 94t58 227zM459 744h-71l-115 124l138 27z" />
    <glyph glyph-name="Oacute" unicode="&#xd3;" horiz-adv-x="693" 
d="M667 410q0 -183 -98 -303t-248 -120q-127 0 -197 78.5t-70 214.5q0 183 98 303t248 120q127 0 197 -78.5t70 -214.5zM534 412q0 89 -36.5 138t-105.5 49q-90 0 -147.5 -94t-57.5 -227q0 -89 36.5 -138t104.5 -49q90 0 148 94t58 227zM596 868l-153 -124h-82l95 151z" />
    <glyph glyph-name="Ocircumflex" unicode="&#xd4;" horiz-adv-x="693" 
d="M667 410q0 -183 -98 -303t-248 -120q-127 0 -197 78.5t-70 214.5q0 183 98 303t248 120q127 0 197 -78.5t70 -214.5zM534 412q0 89 -36.5 138t-105.5 49q-90 0 -147.5 -94t-57.5 -227q0 -89 36.5 -138t104.5 -49q90 0 148 94t58 227zM564 751l-64 -14l-69 69l-89 -65h-74
l120 144h106z" />
    <glyph glyph-name="Otilde" unicode="&#xd5;" horiz-adv-x="693" 
d="M667 410q0 -183 -98 -303t-248 -120q-127 0 -197 78.5t-70 214.5q0 183 98 303t248 120q127 0 197 -78.5t70 -214.5zM534 412q0 89 -36.5 138t-105.5 49q-90 0 -147.5 -94t-57.5 -227q0 -89 36.5 -138t104.5 -49q90 0 148 94t58 227zM592 875q-32 -126 -103 -126
q-29 0 -65 21q-43 23 -59 23q-22 0 -38 -48l-63 14q32 127 103 127q26 0 65 -21q44 -24 60 -24q20 0 38 48z" />
    <glyph glyph-name="Odieresis" unicode="&#xd6;" horiz-adv-x="693" 
d="M667 410q0 -183 -98 -303t-248 -120q-127 0 -197 78.5t-70 214.5q0 183 98 303t248 120q127 0 197 -78.5t70 -214.5zM534 412q0 89 -36.5 138t-105.5 49q-90 0 -147.5 -94t-57.5 -227q0 -89 36.5 -138t104.5 -49q90 0 148 94t58 227zM564 747h-110l18 115h110zM382 747
h-109l18 115h110z" />
    <glyph glyph-name="multiply" unicode="&#xd7;" horiz-adv-x="500" 
d="M25 -200v1000h450v-1000h-450z" />
    <glyph glyph-name="Oslash" unicode="&#xd8;" horiz-adv-x="693" 
d="M531 480l-311 -341q39 -51 111 -51q89 0 147.5 95.5t58.5 231.5q0 35 -6 65zM189 209q20 22 52 57t100.5 110t114.5 124l45 50q-38 52 -112 52q-88 0 -147 -95.5t-59 -231.5q0 -36 6 -66zM88 117q-35 70 -35 165q0 182 97.5 301.5t242.5 119.5q119 0 188 -63l55 59
l96 -21l-99 -105q35 -68 35 -165q0 -182 -98 -301.5t-243 -119.5q-118 0 -187 63l-56 -59l-95 21z" />
    <glyph glyph-name="Ugrave" unicode="&#xd9;" horiz-adv-x="650" 
d="M660 690l-70 -441q-41 -262 -288 -262q-114 0 -177 55.5t-63 163.5q0 38 7 83l64 401h130l-64 -408q-5 -29 -5 -67q0 -56 29.5 -86.5t87.5 -30.5q125 0 149 158l69 434h131zM450 726h-71l-115 124l138 27z" />
    <glyph glyph-name="Uacute" unicode="&#xda;" horiz-adv-x="650" 
d="M660 690l-70 -441q-41 -262 -288 -262q-114 0 -177 55.5t-63 163.5q0 38 7 83l64 401h130l-64 -408q-5 -29 -5 -67q0 -56 29.5 -86.5t87.5 -30.5q125 0 149 158l69 434h131zM575 850l-153 -124h-82l95 151z" />
    <glyph glyph-name="Ucircumflex" unicode="&#xdb;" horiz-adv-x="650" 
d="M660 690l-70 -441q-41 -262 -288 -262q-114 0 -177 55.5t-63 163.5q0 38 7 83l64 401h130l-64 -408q-5 -29 -5 -67q0 -56 29.5 -86.5t87.5 -30.5q125 0 149 158l69 434h131zM549 739l-64 -14l-69 69l-89 -65h-74l120 144h106z" />
    <glyph glyph-name="Udieresis" unicode="&#xdc;" horiz-adv-x="650" 
d="M660 690l-70 -441q-41 -262 -288 -262q-114 0 -177 55.5t-63 163.5q0 38 7 83l64 401h130l-64 -408q-5 -29 -5 -67q0 -56 29.5 -86.5t87.5 -30.5q125 0 149 158l69 434h131zM549 732h-110l18 115h110zM367 732h-109l18 115h110z" />
    <glyph glyph-name="Yacute" unicode="&#xdd;" horiz-adv-x="618" 
d="M679 690l-304 -426l-42 -264h-131l42 262l-163 411l136 24l113 -310l206 303h143zM556 847l-153 -124h-82l95 151z" />
    <glyph glyph-name="Thorn" unicode="&#xde;" horiz-adv-x="561" 
d="M547 380q0 -114 -81 -179t-222 -65h-53l-21 -136h-137l109 690h137l-19 -120h36q124 0 187.5 -49t63.5 -141zM412 366q0 102 -123 102h-46l-36 -229h47q78 0 118 33.5t40 93.5z" />
    <glyph glyph-name="germandbls" unicode="&#xdf;" horiz-adv-x="586" 
d="M550 167q0 -84 -51 -130t-131 -46t-146 38l28 89q63 -34 113 -34q35 0 54.5 19t19.5 54q0 38 -35 66t-114 49v83q97 119 97 197q0 66 -58 66q-67 0 -84 -105l-106 -680l-119 -19l90 573h-67l16 96h66l6 37q32 193 214 193q78 0 120 -40t42 -106q0 -61 -30 -112.5
t-89 -111.5q81 -28 122.5 -69.5t41.5 -106.5z" />
    <glyph glyph-name="agrave" unicode="&#xe0;" horiz-adv-x="505" 
d="M312 77q-81 -87 -152 -87q-60 0 -96 43.5t-36 121.5q0 153 84 243.5t201 90.5q79 0 164 -32l-53 -332v-125h-107zM315 167l35 221q-26 8 -50 8q-62 0 -108 -62.5t-46 -157.5q0 -84 56 -84q45 0 113 75zM352 547h-71l-115 124l138 27z" />
    <glyph glyph-name="aacute" unicode="&#xe1;" horiz-adv-x="505" 
d="M312 77q-81 -87 -152 -87q-60 0 -96 43.5t-36 121.5q0 153 84 243.5t201 90.5q79 0 164 -32l-53 -332v-125h-107zM315 167l35 221q-26 8 -50 8q-62 0 -108 -62.5t-46 -157.5q0 -84 56 -84q45 0 113 75zM490 671l-153 -124h-82l95 151z" />
    <glyph glyph-name="acircumflex" unicode="&#xe2;" horiz-adv-x="505" 
d="M312 77q-81 -87 -152 -87q-60 0 -96 43.5t-36 121.5q0 153 84 243.5t201 90.5q79 0 164 -32l-53 -332v-125h-107zM315 167l35 221q-26 8 -50 8q-62 0 -108 -62.5t-46 -157.5q0 -84 56 -84q45 0 113 75zM453 557l-64 -14l-69 69l-89 -65h-74l120 144h106z" />
    <glyph glyph-name="atilde" unicode="&#xe3;" horiz-adv-x="505" 
d="M312 77q-81 -87 -152 -87q-60 0 -96 43.5t-36 121.5q0 153 84 243.5t201 90.5q79 0 164 -32l-53 -332v-125h-107zM315 167l35 221q-26 8 -50 8q-62 0 -108 -62.5t-46 -157.5q0 -84 56 -84q45 0 113 75zM481 675q-32 -126 -103 -126q-29 0 -65 21q-43 23 -59 23
q-22 0 -38 -48l-63 14q32 127 103 127q26 0 65 -21q44 -24 60 -24q20 0 38 48z" />
    <glyph glyph-name="adieresis" unicode="&#xe4;" horiz-adv-x="505" 
d="M312 77q-81 -87 -152 -87q-60 0 -96 43.5t-36 121.5q0 153 84 243.5t201 90.5q79 0 164 -32l-53 -332v-125h-107zM315 167l35 221q-26 8 -50 8q-62 0 -108 -62.5t-46 -157.5q0 -84 56 -84q45 0 113 75zM453 550h-110l18 115h110zM271 550h-109l18 115h110z" />
    <glyph glyph-name="aring" unicode="&#xe5;" horiz-adv-x="505" 
d="M312 77q-81 -87 -152 -87q-60 0 -96 43.5t-36 121.5q0 153 84 243.5t201 90.5q79 0 164 -32l-53 -332v-125h-107zM315 167l35 221q-26 8 -50 8q-62 0 -108 -62.5t-46 -157.5q0 -84 56 -84q45 0 113 75zM437 650q-1 -46 -31.5 -75.5t-81.5 -29.5q-52 0 -82.5 29.5
t-30.5 75.5q1 46 32 76t82 30t81.5 -30t30.5 -76zM376 650q0 24 -14.5 41.5t-36.5 17.5q-23 0 -38 -17.5t-15 -41.5q0 -25 14.5 -42t37.5 -17q22 0 37 17t15 42z" />
    <glyph glyph-name="ae" unicode="&#xe6;" horiz-adv-x="740" 
d="M427 295h175q8 117 -68 117q-35 0 -64 -32t-43 -85zM333 69q-102 -79 -190 -79q-57 0 -91.5 31.5t-34.5 90.5q0 171 300 192l3 17q7 42 -9.5 60.5t-59.5 18.5q-61 0 -151 -39v94q93 38 175 38q102 0 133 -58q58 58 136 58q79 0 123 -50t44 -135q0 -50 -10 -88h-286v-19
q0 -122 106 -122q70 0 155 54v-92q-84 -51 -176 -51q-116 0 -167 79zM305 236q-172 -19 -172 -108q0 -49 53 -49q47 0 121 58q-5 28 -5 54q0 24 3 45z" />
    <glyph glyph-name="ccedilla" unicode="&#xe7;" horiz-adv-x="424" 
d="M423 455l-32 -102q-55 38 -106 38q-55 0 -96 -55.5t-41 -132.5q0 -55 27.5 -84t75.5 -29q50 0 109 36v-101q-60 -35 -129 -35q-89 0 -145 52.5t-56 151.5q0 126 73 212.5t179 86.5q80 0 141 -38zM273 -75l-144 -107h-78l86 135z" />
    <glyph glyph-name="egrave" unicode="&#xe8;" horiz-adv-x="467" 
d="M322 547h-71l-115 124l138 27zM154 295h175q8 117 -69 117q-34 0 -62.5 -32t-43.5 -85zM142 220v-22q0 -119 106 -119q70 0 155 54v-92q-84 -51 -177 -51q-89 0 -143 51t-54 148q0 133 71 218.5t170 85.5q79 0 123 -50.5t44 -138.5q0 -43 -9 -84h-286z" />
    <glyph glyph-name="eacute" unicode="&#xe9;" horiz-adv-x="467" 
d="M461 671l-153 -124h-82l95 151zM154 295h175q8 117 -69 117q-34 0 -62.5 -32t-43.5 -85zM142 220v-22q0 -119 106 -119q70 0 155 54v-92q-84 -51 -177 -51q-89 0 -143 51t-54 148q0 133 71 218.5t170 85.5q79 0 123 -50.5t44 -138.5q0 -43 -9 -84h-286z" />
    <glyph glyph-name="ecircumflex" unicode="&#xea;" horiz-adv-x="467" 
d="M430 557l-64 -14l-69 69l-89 -65h-74l120 144h106zM154 295h175q8 117 -69 117q-34 0 -62.5 -32t-43.5 -85zM142 220v-22q0 -119 106 -119q70 0 155 54v-92q-84 -51 -177 -51q-89 0 -143 51t-54 148q0 133 71 218.5t170 85.5q79 0 123 -50.5t44 -138.5q0 -43 -9 -84h-286
z" />
    <glyph glyph-name="edieresis" unicode="&#xeb;" horiz-adv-x="467" 
d="M430 550h-110l18 115h110zM248 550h-109l18 115h110zM154 295h175q8 117 -69 117q-34 0 -62.5 -32t-43.5 -85zM142 220v-22q0 -119 106 -119q70 0 155 54v-92q-84 -51 -177 -51q-89 0 -143 51t-54 148q0 133 71 218.5t170 85.5q79 0 123 -50.5t44 -138.5q0 -43 -9 -84
h-286z" />
    <glyph glyph-name="igrave" unicode="&#xec;" horiz-adv-x="245" 
d="M209 547h-70l-100 124l130 27zM219 483l-77 -483h-117l77 483h117z" />
    <glyph glyph-name="iacute" unicode="&#xed;" horiz-adv-x="245" 
d="M341 671l-135 -124h-78l82 151zM219 483l-77 -483h-117l77 483h117z" />
    <glyph glyph-name="icircumflex" unicode="&#xee;" horiz-adv-x="245" 
d="M306 557l-60 -14l-61 69l-83 -65h-68l114 144h97zM219 483l-77 -483h-117l77 483h117z" />
    <glyph glyph-name="idieresis" unicode="&#xef;" horiz-adv-x="245" 
d="M298 550h-96l19 115h96zM143 550h-96l18 115h96zM219 483l-77 -483h-117l77 483h117z" />
    <glyph glyph-name="eth" unicode="&#xf0;" horiz-adv-x="512" 
d="M369 300q-54 61 -115 61q-48 0 -78.5 -49t-30.5 -121q0 -54 21.5 -82.5t60.5 -28.5q51 0 89.5 61t52.5 159zM322 546l-34 -41h-80q4 5 11 13.5l21 25.5t24 28l9 12q-32 22 -86 42l23 96q70 -20 128 -58l47 58l74 -16l-69 -83q97 -91 97 -246q0 -97 -32 -183t-85 -139
q-65 -65 -152 -65q-81 0 -134 51.5t-53 149.5q0 109 60.5 186t150.5 77q75 0 136 -63q0 96 -56 155z" />
    <glyph glyph-name="ntilde" unicode="&#xf1;" horiz-adv-x="508" 
d="M473 386q0 -24 -3 -40l-55 -346h-117l51 315q2 16 2 27q0 48 -41 48q-22 0 -56 -25t-68 -67l-46 -298h-117l58 366v117h106l7 -92q96 102 172 102q52 0 79.5 -28.5t27.5 -78.5zM475 675q-32 -126 -103 -126q-29 0 -65 21q-43 23 -59 23q-22 0 -38 -48l-63 14
q32 127 103 127q26 0 65 -21q44 -24 60 -24q20 0 38 48z" />
    <glyph glyph-name="ograve" unicode="&#xf2;" horiz-adv-x="498" 
d="M467 284q0 -124 -68.5 -209t-176.5 -85q-88 0 -139.5 56t-51.5 153q0 123 68.5 208.5t175.5 85.5q89 0 140.5 -56t51.5 -153zM350 284q0 117 -82 117q-55 0 -87.5 -61t-32.5 -141q0 -117 82 -117q55 0 87.5 61t32.5 141zM330 547h-71l-115 124l138 27z" />
    <glyph glyph-name="oacute" unicode="&#xf3;" horiz-adv-x="498" 
d="M448 671l-153 -124h-82l95 151zM495 284q0 -124 -68.5 -209t-176.5 -85q-88 0 -139.5 56t-51.5 153q0 123 68.5 208.5t175.5 85.5q89 0 140.5 -56t51.5 -153zM378 284q0 117 -82 117q-55 0 -87.5 -61t-32.5 -141q0 -117 82 -117q55 0 87.5 61t32.5 141z" />
    <glyph glyph-name="ocircumflex" unicode="&#xf4;" horiz-adv-x="498" 
d="M467 284q0 -124 -68.5 -209t-176.5 -85q-88 0 -139.5 56t-51.5 153q0 123 68.5 208.5t175.5 85.5q89 0 140.5 -56t51.5 -153zM350 284q0 117 -82 117q-55 0 -87.5 -61t-32.5 -141q0 -117 82 -117q55 0 87.5 61t32.5 141zM439 557l-64 -14l-69 69l-89 -65h-74l120 144h106
z" />
    <glyph glyph-name="otilde" unicode="&#xf5;" horiz-adv-x="498" 
d="M467 284q0 -124 -68.5 -209t-176.5 -85q-88 0 -139.5 56t-51.5 153q0 123 68.5 208.5t175.5 85.5q89 0 140.5 -56t51.5 -153zM350 284q0 117 -82 117q-55 0 -87.5 -61t-32.5 -141q0 -117 82 -117q55 0 87.5 61t32.5 141zM466 675q-32 -126 -103 -126q-29 0 -65 21
q-43 23 -59 23q-22 0 -38 -48l-63 14q32 127 103 127q26 0 65 -21q44 -24 60 -24q20 0 38 48z" />
    <glyph glyph-name="odieresis" unicode="&#xf6;" horiz-adv-x="498" 
d="M467 284q0 -124 -68.5 -209t-176.5 -85q-88 0 -139.5 56t-51.5 153q0 123 68.5 208.5t175.5 85.5q89 0 140.5 -56t51.5 -153zM350 284q0 117 -82 117q-55 0 -87.5 -61t-32.5 -141q0 -117 82 -117q55 0 87.5 61t32.5 141zM439 550h-110l18 115h110zM257 550h-109l18 115
h110z" />
    <glyph glyph-name="divide" unicode="&#xf7;" horiz-adv-x="572" 
d="M380 469h-116l19 119h116zM526 291h-464l15 94h464zM320 88h-116l19 119h116z" />
    <glyph glyph-name="oslash" unicode="&#xf8;" horiz-adv-x="498" 
d="M354 317l-47 -53l-94 -104l-47 -53q21 -30 61 -30q58 0 93.5 61.5t35.5 140.5q0 16 -2 38zM144 168l187 209q-21 28 -60 28q-58 0 -93.5 -61t-35.5 -137q0 -15 2 -39zM57 84q-26 50 -26 118q0 120 68.5 205.5t172.5 85.5q75 0 126 -42l36 40l75 -17l-69 -74
q27 -52 27 -119q0 -120 -68.5 -205.5t-173.5 -85.5q-76 0 -126 41l-9 -9l-18 -20l-9 -10l-76 18z" />
    <glyph glyph-name="ugrave" unicode="&#xf9;" horiz-adv-x="508" 
d="M484 483l-57 -366v-117h-108l-5 92q-98 -102 -172 -102q-53 0 -80.5 28.5t-27.5 79.5q0 6 3 39l55 346h117l-50 -315q-3 -24 -3 -26q0 -48 42 -48q22 0 56 25t67 66l47 298h116zM337 547h-71l-115 124l138 27z" />
    <glyph glyph-name="uacute" unicode="&#xfa;" horiz-adv-x="508" 
d="M484 483l-57 -366v-117h-108l-5 92q-98 -102 -172 -102q-53 0 -80.5 28.5t-27.5 79.5q0 6 3 39l55 346h117l-50 -315q-3 -24 -3 -26q0 -48 42 -48q22 0 56 25t67 66l47 298h116zM475 671l-153 -124h-82l95 151z" />
    <glyph glyph-name="ucircumflex" unicode="&#xfb;" horiz-adv-x="508" 
d="M484 483l-57 -366v-117h-108l-5 92q-98 -102 -172 -102q-53 0 -80.5 28.5t-27.5 79.5q0 6 3 39l55 346h117l-50 -315q-3 -24 -3 -26q0 -48 42 -48q22 0 56 25t67 66l47 298h116zM448 557l-64 -14l-69 69l-89 -65h-74l120 144h106z" />
    <glyph glyph-name="udieresis" unicode="&#xfc;" horiz-adv-x="508" 
d="M484 483l-57 -366v-117h-108l-5 92q-98 -102 -172 -102q-53 0 -80.5 28.5t-27.5 79.5q0 6 3 39l55 346h117l-50 -315q-3 -24 -3 -26q0 -48 42 -48q22 0 56 25t67 66l47 298h116zM449 550h-110l18 115h110zM267 550h-109l18 115h110z" />
    <glyph glyph-name="yacute" unicode="&#xfd;" horiz-adv-x="466" 
d="M488 483l-254 -515q-42 -85 -86 -117.5t-117 -32.5q-25 0 -43 5v98q24 -6 52 -6q49 0 79 50l22 41l-88 467l120 17l50 -341l150 334h115zM462 665l-153 -124h-82l95 151z" />
    <glyph glyph-name="thorn" unicode="&#xfe;" horiz-adv-x="533" 
d="M501 317q0 -148 -83 -235t-196 -87q-39 0 -75 9l-26 -171l-126 -19l139 888l127 20l-47 -297q72 68 141 68q67 0 106.5 -46t39.5 -130zM376 296q0 95 -66 95q-26 0 -51 -16t-61 -51l-36 -226q25 -10 61 -10q62 0 107.5 55.5t45.5 152.5z" />
    <glyph glyph-name="ydieresis" unicode="&#xff;" horiz-adv-x="466" 
d="M488 483l-254 -515q-42 -85 -86 -117.5t-117 -32.5q-25 0 -43 5v98q24 -6 52 -6q49 0 79 50l22 41l-88 467l120 17l50 -341l150 334h115zM429 550h-110l18 115h110zM247 550h-109l18 115h110z" />
    <glyph glyph-name="dotlessi" unicode="&#x131;" horiz-adv-x="245" 
d="M219 483l-77 -483h-117l77 483h117z" />
    <glyph glyph-name="Lslash" unicode="&#x141;" horiz-adv-x="496" 
d="M436 0h-366l44 278l-74 -15v114l93 19l46 294h131l-43 -267l155 32l-19 -117l-154 -31l-31 -194h218v-113z" />
    <glyph glyph-name="lslash" unicode="&#x142;" horiz-adv-x="310" 
d="M227 336l-53 -336h-117l48 305l-74 -18l-1 109l93 22l45 284l120 20l-43 -274l84 20l-18 -112z" />
    <glyph glyph-name="OE" unicode="&#x152;" horiz-adv-x="836" 
d="M864 690l-17 -107h-243l-26 -168h183v-111h-201l-31 -197h252l-18 -107h-388q-152 0 -236.5 72t-84.5 213q0 181 109 290q117 115 312 115h389zM476 585h-16q-122 0 -194 -72q-79 -79 -79 -221q0 -187 193 -187h20z" />
    <glyph glyph-name="oe" unicode="&#x153;" horiz-adv-x="783" 
d="M470 295h175q8 117 -68 117q-35 0 -64 -32t-43 -85zM350 288q0 57 -22.5 85t-59.5 28q-55 0 -87.5 -61.5t-32.5 -143.5q0 -58 22 -86t60 -28q55 0 87.5 61.5t32.5 144.5zM386 72q-64 -82 -166 -82q-87 0 -138 56t-51 153q0 123 68 208.5t173 85.5q106 0 153 -85
q66 85 162 85q79 0 123 -50.5t44 -138.5q0 -46 -10 -84h-286v-22q0 -119 106 -119q70 0 155 54v-92q-84 -51 -178 -51q-107 0 -155 82z" />
    <glyph glyph-name="Scaron" unicode="&#x160;" horiz-adv-x="514" 
d="M511 647l-36 -110q-91 60 -160 60q-45 0 -69 -24t-24 -59q0 -28 19.5 -49.5t71.5 -51.5q93 -52 127.5 -97t34.5 -109q0 -101 -67 -159.5t-168 -58.5q-121 0 -228 64l36 111q100 -71 192 -71q47 0 77 26.5t30 68.5q0 32 -17 52.5t-65 48.5q-97 55 -134 97.5t-37 106.5
q0 92 62.5 150t162.5 58q106 0 192 -54zM496 888l-120 -144h-105l-70 134l65 14l68 -69l88 65h74z" />
    <glyph glyph-name="scaron" unicode="&#x161;" horiz-adv-x="401" 
d="M386 453l-29 -96q-73 44 -137 44q-27 0 -42 -13t-15 -30q0 -18 12 -29.5t47 -26.5q79 -36 112 -68.5t33 -85.5q0 -74 -49 -116t-133 -42q-99 0 -185 56l29 94q86 -59 165 -59q29 0 47.5 14t18.5 37q0 20 -14.5 33t-51.5 30q-77 35 -107.5 66t-30.5 82q0 67 47 108.5
t122 41.5q79 0 161 -40zM418 691l-120 -144h-105l-70 134l65 14l68 -69l88 65h74z" />
    <glyph glyph-name="Ydieresis" unicode="&#x178;" horiz-adv-x="618" 
d="M679 690l-304 -426l-42 -264h-131l42 262l-163 411l136 24l113 -310l206 303h143zM529 732h-110l18 115h110zM347 732h-109l18 115h110z" />
    <glyph glyph-name="Zcaron" unicode="&#x17d;" horiz-adv-x="577" 
d="M604 690l-16 -95l-408 -488h324v-107h-501l15 95l408 488h-299v107h477zM536 879l-120 -144h-105l-70 134l65 14l68 -69l88 65h74z" />
    <glyph glyph-name="zcaron" unicode="&#x17e;" horiz-adv-x="445" 
d="M440 483l-15 -90l-273 -299h224v-94h-384l15 90l273 299h-200v94h360zM440 691l-120 -144h-105l-70 134l65 14l68 -69l88 65h74z" />
    <glyph glyph-name="florin" unicode="&#x192;" horiz-adv-x="372" 
d="M386 584q-21 3 -46 3q-60 0 -70 -67l-10 -61h86v-99h-101l-58 -360h-118l58 360h-69l15 99h70l11 72q12 79 53.5 116t120.5 37q19 0 58 -3v-97z" />
    <glyph glyph-name="circumflex" unicode="&#x2c6;" 
d="M414 557l-64 -14l-69 69l-89 -65h-74l120 144h106z" />
    <glyph glyph-name="caron" unicode="&#x2c7;" 
d="M439 691l-120 -144h-105l-70 134l65 14l68 -69l88 65h74z" />
    <glyph glyph-name="breve" unicode="&#x2d8;" 
d="M429 694q-13 -69 -54 -108t-102 -39q-62 0 -94 38t-26 101l71 14q2 -68 60 -68q50 0 73 62h72z" />
    <glyph glyph-name="dotaccent" unicode="&#x2d9;" 
d="M324 550h-112l18 115h113z" />
    <glyph glyph-name="ring" unicode="&#x2da;" 
d="M395 650q-1 -46 -31.5 -75.5t-81.5 -29.5q-52 0 -82.5 29.5t-30.5 75.5q1 46 32 76t82 30t81.5 -30t30.5 -76zM334 650q0 24 -14.5 41.5t-36.5 17.5q-23 0 -38 -17.5t-15 -41.5q0 -25 14.5 -42t37.5 -17q22 0 37 17t15 42z" />
    <glyph glyph-name="ogonek" unicode="&#x2db;" 
d="M259 -182h-73l-108 107l139 28z" />
    <glyph glyph-name="tilde" unicode="&#x2dc;" 
d="M442 675q-32 -126 -103 -126q-29 0 -65 21q-43 23 -59 23q-22 0 -38 -48l-63 14q32 127 103 127q26 0 65 -21q44 -24 60 -24q20 0 38 48z" />
    <glyph glyph-name="hungarumlaut" unicode="&#x2dd;" 
d="M473 673l-152 -123h-65l94 148zM299 673l-151 -123h-65l94 148z" />
    <glyph glyph-name="Delta" unicode="&#x394;" horiz-adv-x="500" 
d="M25 -200v1000h450v-1000h-450z" />
    <glyph glyph-name="Omega" unicode="&#x3a9;" horiz-adv-x="624" 
d="M365 616q-28 4 -47 4q-56 0 -67 -65l-12 -72h86v-96h-101l-87 -554l-119 -19l90 573h-68l15 96h68l15 89q12 70 51.5 105.5t115.5 35.5q30 0 60 -4v-93zM676 616q-26 4 -46 4q-30 0 -46 -15.5t-21 -49.5l-12 -72h85v-96h-100l-87 -554l-119 -19l89 573h-67l15 96h68
l14 89q12 71 52 106t117 35q30 0 58 -4v-93z" />
    <glyph glyph-name="pi" unicode="&#x3c0;" horiz-adv-x="799" 
d="M762 346q0 -160 -96.5 -259.5t-249.5 -99.5q-154 0 -249.5 98.5t-95.5 258.5t96.5 259.5t249.5 99.5q154 0 249.5 -98.5t95.5 -258.5zM718 345q0 151 -85 236.5t-216 85.5q-133 0 -217.5 -85.5t-84.5 -236.5t85 -236.5t217 -85.5t216.5 85.5t84.5 236.5zM576 419
q0 -63 -40.5 -96t-112.5 -33h-37v-140h-89v394h133q68 0 107 -33t39 -92zM490 418q0 57 -67 57h-38v-116h36q69 0 69 59z" />
    <glyph glyph-name="endash" unicode="&#x2013;" 
d="M390 231h-345l17 112h345z" />
    <glyph glyph-name="emdash" unicode="&#x2014;" horiz-adv-x="876" 
d="M827 232h-782l17 110h783z" />
    <glyph glyph-name="quoteleft" unicode="&#x2018;" horiz-adv-x="239" 
d="M66 437l130 261l68 -17l-62 -244h-136z" />
    <glyph glyph-name="quoteright" unicode="&#x2019;" horiz-adv-x="239" 
d="M274 690l-131 -261l-68 17l62 244h137z" />
    <glyph glyph-name="quotesinglbase" unicode="&#x201a;" horiz-adv-x="242" 
d="M187 151l-131 -262l-67 18l61 244h137z" />
    <glyph glyph-name="quotedblleft" unicode="&#x201c;" horiz-adv-x="441" 
d="M66 437l130 261l67 -17l-62 -244h-135zM270 437l130 261l67 -17l-62 -244h-135z" />
    <glyph glyph-name="quotedblright" unicode="&#x201d;" horiz-adv-x="441" 
d="M272 690l-130 -261l-67 17l62 244h135zM476 690l-130 -261l-67 17l62 244h135z" />
    <glyph glyph-name="quotedblbase" unicode="&#x201e;" horiz-adv-x="444" 
d="M186 151l-131 -262l-66 18l61 244h136zM390 151l-131 -262l-66 18l61 244h136z" />
    <glyph glyph-name="dagger" unicode="&#x2020;" horiz-adv-x="487" 
d="M353 611l-56 -135h-33l-12 135l12 79h101zM469 389h-33l-125 31l4 33l136 31h33zM233 420l-135 -31h-34l15 95h34l125 -31zM254 14l-52 -128h-30l-11 128l42 265l49 119h33l10 -119z" />
    <glyph glyph-name="daggerdbl" unicode="&#x2021;" horiz-adv-x="505" 
d="M361 611l-55 -135h-33l-13 135l13 79h101zM478 389h-33l-126 31l5 33l135 31h33zM242 420l-136 -31h-34l15 95h34l126 -31zM296 230l-48 -119h-33l-11 119l7 49l49 119h34l10 -119zM420 24h-33l-126 31l5 33l135 31h34zM183 55l-134 -31h-34l15 95h34l125 -31zM236 -182
h-101l12 79l55 136h33l12 -136z" />
    <glyph glyph-name="bullet" unicode="&#x2022;" horiz-adv-x="451" 
d="M394 345l-22 -140l-129 -21l-130 21l-22 140l22 140l130 20l129 -20z" />
    <glyph glyph-name="ellipsis" unicode="&#x2026;" horiz-adv-x="755" 
d="M655 0h-127l23 149h128zM403 0h-128l24 149h128zM151 0h-128l24 149h127z" />
    <glyph glyph-name="perthousand" unicode="&#x2030;" horiz-adv-x="799" 
d="M762 346q0 -160 -96.5 -259.5t-249.5 -99.5q-154 0 -249.5 98.5t-95.5 258.5t96.5 259.5t249.5 99.5q154 0 249.5 -98.5t95.5 -258.5zM718 345q0 151 -85 236.5t-216 85.5q-133 0 -217.5 -85.5t-84.5 -236.5t85 -236.5t217 -85.5t216.5 85.5t84.5 236.5zM491 314
l106 -146l-91 -18l-102 144h-32v-139h-88v394h128q71 0 111 -33t40 -92q0 -79 -72 -110zM408 480h-37v-120h36q70 0 70 60t-69 60z" />
    <glyph glyph-name="guilsinglleft" unicode="&#x2039;" horiz-adv-x="315" 
d="M317 483l-165 -246l82 -224l-87 -20l-121 249l192 241h99z" />
    <glyph glyph-name="guilsinglright" unicode="&#x203a;" horiz-adv-x="315" 
d="M-3 0l166 245l-82 225l87 20l120 -249l-191 -241h-100z" />
    <glyph glyph-name="fraction" unicode="&#x2044;" 
d="M601 766l-657 -874l-78 18l657 874z" />
    <glyph glyph-name="trademark" unicode="&#x2122;" horiz-adv-x="805" 
d="M814 345h-78l-16 227l-81 -228h-67l-81 228l-17 -227h-70l26 345h96l85 -242l84 242h92zM375 626h-110v-281h-77v281h-105v64h282z" />
    <glyph glyph-name="partialdiff" unicode="&#x2202;" horiz-adv-x="696" 
d="M438 136l-34 29q-34 29 -68 59l-34 29l132 28l65 -56q36 85 36 187q0 90 -37 138.5t-106 48.5q-89 0 -147 -94.5t-58 -227.5q0 -90 36.5 -139t105.5 -49q62 0 109 47zM595 144l51 -42l-32 -116q-89 76 -90 76q-88 -75 -203 -75q-127 0 -197 78.5t-70 214.5q0 183 98 303
t248 120q127 0 197 -78.5t70 -214.5q0 -153 -72 -266z" />
    <glyph glyph-name="product" unicode="&#x220f;" horiz-adv-x="500" 
d="M25 -200v1000h450v-1000h-450z" />
    <glyph glyph-name="summation" unicode="&#x2211;" horiz-adv-x="981" 
d="M510 348l-178 -350h-118l-126 675l136 24l86 -525l169 336l-34 165l134 24l90 -520l231 513h133l-333 -692h-118z" />
    <glyph glyph-name="minus" unicode="&#x2212;" horiz-adv-x="500" 
d="M25 -200v1000h450v-1000h-450z" />
    <glyph glyph-name="radical" unicode="&#x221a;" horiz-adv-x="869" 
d="M365 616q-28 4 -47 4q-56 0 -67 -65l-12 -72h86v-96h-101l-87 -554l-119 -19l90 573h-68l15 96h68l15 89q12 70 51.5 105.5t115.5 35.5q30 0 60 -4v-93zM676 616q-26 4 -46 4q-30 0 -46 -15.5t-21 -49.5l-12 -72h85v-96h-100l-87 -554l-119 -19l89 573h-67l15 96h68
l14 89q12 71 52 106t117 35q30 0 58 -4v-93zM881 722l-115 -722h-116l111 702z" />
    <glyph glyph-name="infinity" unicode="&#x221e;" horiz-adv-x="480" 
d="M309 237q-176 -17 -176 -112q0 -47 47 -47q42 0 113 58zM290 64q-84 -74 -157 -74q-51 0 -83.5 32t-32.5 88q0 86 72 135t231 59l3 17q7 43 -9.5 61t-58.5 18q-65 0 -155 -39v94q93 38 182 38q97 0 134 -44t23 -131l-36 -219v-99h-108z" />
    <glyph glyph-name="integral" unicode="&#x222b;" horiz-adv-x="496" 
d="M130 27q-62 -36 -62 -74q0 -30 33.5 -47t94.5 -17q57 0 91.5 18.5t34.5 44.5q0 18 -15 29t-53 20l-91 17q-4 1 -11 3t-12.5 3.5t-9.5 2.5zM326 341q0 35 -20 55.5t-55 20.5q-41 0 -65.5 -31.5t-24.5 -75.5q0 -33 20 -54t54 -21q41 0 66 31t25 75zM384 448l126 42v-96
l-85 -5q8 -24 8 -49q0 -77 -58.5 -127.5t-142.5 -50.5q-25 0 -52 5q-19 -15 -19 -28q0 -12 13.5 -18t51.5 -15l63 -11q73 -16 108 -43t35 -75q0 -70 -68 -114.5t-172 -44.5q-102 0 -165.5 32t-63.5 86q0 39 26 69.5t85 59.5q-21 18 -21 46q0 43 68 77q-68 40 -68 120
q0 79 56.5 131t142.5 52q81 0 132 -43z" />
    <glyph glyph-name="approxequal" unicode="&#x2248;" horiz-adv-x="869" 
d="M365 616q-28 4 -47 4q-56 0 -67 -65l-12 -72h86v-96h-101l-87 -554l-119 -19l90 573h-68l15 96h68l15 89q12 70 51.5 105.5t115.5 35.5q30 0 60 -4v-93zM676 616q-26 4 -46 4q-30 0 -46 -15.5t-21 -49.5l-12 -72h85v-96h-100l-87 -554l-119 -19l89 573h-67l15 96h68
l14 89q12 71 52 106t117 35q30 0 58 -4v-93zM882 634q0 -30 -20.5 -49t-50.5 -19t-50 19t-20 49t20 49t50 19q31 0 51 -19t20 -49zM844 483l-78 -483h-116l77 483h117z" />
    <glyph glyph-name="notequal" unicode="&#x2260;" horiz-adv-x="514" 
d="M466 221q0 -106 -73 -170t-190 -64q-109 0 -204 56l34 105q89 -55 173 -55q61 0 97.5 33t36.5 86q0 98 -141 98h-43v80l200 181h-249v105h421l-15 -95l-210 -187q163 -23 163 -173z" />
    <glyph glyph-name="lessequal" unicode="&#x2264;" horiz-adv-x="859" 
d="M746 0h-126l78 495l-260 -498h-112l-103 498l-77 -495h-114l109 690h170l107 -519l270 519h167z" />
    <glyph glyph-name="greaterequal" unicode="&#x2265;" horiz-adv-x="663" 
d="M659 690l-109 -690h-109l1 74q-114 -82 -209 -82q-83 0 -128 40.5t-45 122.5q0 26 6 68l73 467h131l-73 -458q-3 -22 -3 -42q-1 -85 85 -85q72 0 168 75l81 510h131z" />
    <glyph glyph-name="lozenge" unicode="&#x25ca;" horiz-adv-x="805" 
d="M814 345h-78l-16 227l-81 -228h-67l-81 228l-17 -227h-70l26 345h96l85 -242l84 242h92zM229 340q-57 0 -107 26l10 69q56 -34 99 -34q20 0 32.5 9.5t12.5 25.5q0 18 -11.5 29t-41.5 24q-55 24 -76 46t-21 62q0 44 32 71t82 27q52 0 91 -22l-10 -68q-47 29 -83 29
q-20 0 -31 -9t-11 -22q0 -16 10.5 -26t39.5 -23q56 -23 78 -46.5t22 -65.5q0 -48 -32.5 -75t-84.5 -27z" />
    <glyph glyph-name="apple" unicode="&#xf8ff;" horiz-adv-x="694" 
d="M644 -200h-208l-8 14h-163l-8 -14h-207v303q14 0 23 9.5t9 22.5t-9.5 22.5t-22.5 9.5v554h100l30 79h334l29 -79h101v-921zM400 563v-172h15v78h38v14h-38v66h43v14h-58zM184 563v-172h15v79h47v-79h15v172h-15v-79h-47v79h-15zM460 394q8 -4 21 -4q31 0 31 36v137h-16
v-137q0 -22 -16 -22q-10 0 -20 6v-16zM523 323v-46h8v13l7 7l16 -20h9l-19 26l18 20h-10l-21 -24v24h-8zM488 292l10 -15h9l-12 17q10 3 10 15q0 5 -4.5 9.5t-11.5 4.5h-21v-46h8v15h12zM426 276q11 0 17.5 7t6.5 17q0 9 -7 16.5t-17 7.5t-16.5 -7.5t-6.5 -16.5
q0 -10 6.5 -17t16.5 -7zM370 301l-13 22h-9l18 -29v-17h8v17l18 29h-9zM193 323v-46h33v7h-25v13h22v7h-22v12h25v7h-33zM132 323v-46h8v32l25 -32h7v46h-8v-32l-25 32h-7zM241 323l15 -47h8l10 34h1l11 -34h8l14 47h-8l-10 -35h-1l-10 35h-8l-11 -35h-1l-10 35h-8zM327 479
q-12 22 -12 32q0 19 14 19q13 0 13 -19q0 -15 -15 -32zM342 423q-6 -21 -18 -21q-17 0 -17 27q0 18 15 33zM488 299h-12v17h11q10 0 10 -8q0 -9 -9 -9zM426 283q-15 0 -15 17q0 6 4.5 11.5t10.5 5.5q7 0 11.5 -5.5t4.5 -11.5q0 -7 -4.5 -12t-11.5 -5zM349 438l-16 31
q23 21 23 42q0 12 -7 21.5t-20 9.5q-12 0 -20 -9.5t-8 -21.5q0 -13 14 -39q-23 -18 -23 -45q0 -17 9 -28t22 -11q17 0 27 24h1l12 -24l11 8l-16 30q10 23 13 39l-13 3q-2 -9 -9 -30z" />
    <glyph glyph-name="fi" unicode="&#xfb01;" horiz-adv-x="557" 
d="M365 616q-28 4 -47 4q-56 0 -67 -65l-12 -72h86v-96h-101l-87 -554l-119 -19l90 573h-68l15 96h68l15 89q12 70 51.5 105.5t115.5 35.5q30 0 60 -4v-93zM570 634q0 -30 -20.5 -49t-50.5 -19t-50 19t-20 49t20 49t50 19q31 0 51 -19t20 -49zM532 483l-78 -483h-116l77 483
h117z" />
    <glyph glyph-name="fl" unicode="&#xfb02;" horiz-adv-x="557" 
d="M365 616q-28 4 -47 4q-56 0 -67 -65l-12 -72h86v-96h-101l-87 -554l-119 -19l90 573h-68l15 96h68l15 89q12 70 51.5 105.5t115.5 35.5q30 0 60 -4v-93zM569 722l-115 -722h-116l110 702z" />
    <glyph glyph-name="NUL" horiz-adv-x="0" 
 />
    </font>
</defs>
</svg>
