<?xml version="1.0" encoding="UTF-8" standalone="no"?>
<svg width="4192px" height="600px" viewBox="0 0 4192 600" version="1.1" xmlns="http://www.w3.org/2000/svg" xmlns:xlink="http://www.w3.org/1999/xlink" xmlns:sketch="http://www.bohemiancoding.com/sketch/ns">
    <!-- Generator: Sketch 3.2.1 (9971) - http://www.bohemiancoding.com/sketch -->
    <title>Slice 3</title>
    <desc>Created with Sketch.</desc>
    <defs></defs>
    <g id="Page-1" stroke="none" stroke-width="1" fill="none" fill-rule="evenodd" sketch:type="MSPage">
        <path d="M2709,506 L3639,506 L3639,573 L2728,573 L2709,506 Z" id="Rectangle-3" opacity="0.682486007" fill="#CCCCCC" sketch:type="MSShapeGroup"></path>
        <path d="M3786,506 L4184,506 L4156,573 L3786,573 L3786,506 Z" id="Rectangle-4" opacity="0.682486007" fill="#CCCCCC" sketch:type="MSShapeGroup"></path>
        <path d="M143,465.45 C255.45,465.45 286,402.4 286,337.4 L286,263.95 C286,198.95 255.45,135.9 143,135.9 C30.55,135.9 0,198.95 0,263.95 L0,337.4 C0,402.4 30.55,465.45 143,465.45 L143,465.45 Z M143,386.8 C109.2,386.8 93.6,369.9 93.6,340 L93.6,261.35 C93.6,231.45 109.2,214.55 143,214.55 C176.8,214.55 192.4,231.45 192.4,261.35 L192.4,340 C192.4,369.9 176.8,386.8 143,386.8 L143,386.8 Z M428.35,263.3 C428.35,230.8 442,215.85 479.7,215.85 C497.9,215.85 525.2,219.1 544.7,223.65 L556.4,145.65 C524.55,138.5 501.8,135.9 479.7,135.9 C377,135.9 334.75,174.25 334.75,264.6 L334.75,336.75 C334.75,427.1 377,465.45 479.7,465.45 C501.8,465.45 524.55,462.85 556.4,455.7 L544.7,377.7 C521.95,382.9 503.75,385.5 479.7,385.5 C442,385.5 428.35,370.55 428.35,338.05 L428.35,263.3 Z M793,453.75 L781.95,382.9 C768.3,387.45 753.35,388.75 742.95,388.75 C731.25,388.75 723.45,384.2 723.45,371.2 L723.45,217.8 L790.4,217.8 L795.6,142.4 L723.45,142.4 L723.45,53.35 L629.85,66.35 L629.85,142.4 L586.95,142.4 L586.95,217.8 L629.85,217.8 L629.85,384.2 C629.85,442.7 664.95,465.45 725.4,465.45 C746.85,465.45 772.2,460.9 793,453.75 L793,453.75 Z M1099.8,458.95 L1099.8,256.8 C1099.8,169.05 1075.75,135.9 965.9,135.9 C929.5,135.9 882.05,142.4 852.15,151.5 L864.5,221.7 C894.4,215.85 922.35,212.6 950.3,212.6 C1000.35,212.6 1006.2,223.65 1006.2,256.15 L1006.2,280.2 L937.95,280.2 C872.95,280.2 843.7,305.55 843.7,369.25 C843.7,423.2 867.75,465.45 926.25,465.45 C947.7,465.45 980.2,458.95 1016.6,438.8 L1023.1,458.95 L1099.8,458.95 Z M1006.2,381.6 C991.9,388.1 978.25,392.65 958.75,392.65 C940.55,392.65 933.4,385.5 933.4,367.95 C933.4,350.4 941.2,345.2 961.35,345.2 L1006.2,345.2 L1006.2,381.6 Z M1271.4,458.95 L1271.4,0.05 L1177.8,13.05 L1177.8,458.95 L1271.4,458.95 Z M1636.7,332.2 L1636.7,250.3 C1636.7,179.45 1609.4,135.9 1539.2,135.9 C1504.75,135.9 1474.85,143.7 1449.5,153.45 L1449.5,0.05 L1355.9,13.05 L1355.9,455.05 C1399.45,462.2 1450.8,465.45 1484.6,465.45 C1615.25,465.45 1636.7,407.6 1636.7,332.2 L1636.7,332.2 Z M1449.5,234.7 C1467.05,225.6 1489.15,217.15 1509.3,217.15 C1534,217.15 1543.1,230.15 1543.1,250.95 L1543.1,332.85 C1543.1,362.75 1534.65,384.2 1487.85,384.2 C1474.85,384.2 1463.15,384.2 1449.5,382.9 L1449.5,234.7 Z M1831.7,465.45 C1944.15,465.45 1974.7,402.4 1974.7,337.4 L1974.7,263.95 C1974.7,198.95 1944.15,135.9 1831.7,135.9 C1719.25,135.9 1688.7,198.95 1688.7,263.95 L1688.7,337.4 C1688.7,402.4 1719.25,465.45 1831.7,465.45 L1831.7,465.45 Z M1831.7,386.8 C1797.9,386.8 1782.3,369.9 1782.3,340 L1782.3,261.35 C1782.3,231.45 1797.9,214.55 1831.7,214.55 C1865.5,214.55 1881.1,231.45 1881.1,261.35 L1881.1,340 C1881.1,369.9 1865.5,386.8 1831.7,386.8 L1831.7,386.8 Z M2321.15,458.95 L2321.15,237.3 C2321.15,176.2 2302.3,135.9 2248.35,135.9 C2211.95,135.9 2161.25,147.6 2122.25,166.45 L2112.5,142.4 L2042.95,142.4 L2042.95,458.95 L2136.55,458.95 L2136.55,249.65 C2156.7,238.6 2187.9,226.9 2204.8,226.9 C2221.05,226.9 2227.55,235.35 2227.55,249.65 L2227.55,458.95 L2321.15,458.95 Z M2650.05,333.5 L2650.05,267.2 C2650.05,198.3 2627.3,135.9 2522,135.9 C2416.7,135.9 2386.15,194.4 2386.15,262.65 L2386.15,336.75 C2386.15,414.75 2425.15,465.45 2527.85,465.45 C2572.05,465.45 2618.2,455.7 2646.8,445.3 L2633.15,375.1 C2605.2,383.55 2566.2,388.75 2536.95,388.75 C2494.05,388.75 2479.75,379 2479.75,342.6 L2479.75,333.5 L2650.05,333.5 Z M2561.65,263.3 L2479.75,263.3 L2479.75,249.65 C2479.75,227.55 2490.15,209.35 2522.65,209.35 C2555.15,209.35 2561.65,227.55 2561.65,249.65 L2561.65,263.3 Z M2934.75,364.7 C2934.75,301.65 2928.25,282.15 2837.9,262 C2800.2,253.55 2797.6,250.95 2797.6,231.45 C2797.6,217.15 2804.1,210 2831.4,210 C2856.1,210 2890.55,213.9 2918.5,219.1 L2926.95,146.3 C2899,139.15 2854.8,135.9 2830.75,135.9 C2735.85,135.9 2709.85,163.85 2709.85,230.8 C2709.85,289.95 2717,310.75 2793.7,329.6 C2844.4,341.95 2845.05,344.55 2845.05,364.7 C2845.05,383.55 2840.5,391.35 2812.55,391.35 C2777.45,391.35 2743,384.85 2717,377.05 L2702.05,446.6 C2733.25,457 2782.65,465.45 2817.1,465.45 C2907.45,465.45 2934.75,429.7 2934.75,364.7 L2934.75,364.7 Z M3073.85,263.3 C3073.85,230.8 3087.5,215.85 3125.2,215.85 C3143.4,215.85 3170.7,219.1 3190.2,223.65 L3201.9,145.65 C3170.05,138.5 3147.3,135.9 3125.2,135.9 C3022.5,135.9 2980.25,174.25 2980.25,264.6 L2980.25,336.75 C2980.25,427.1 3022.5,465.45 3125.2,465.45 C3147.3,465.45 3170.05,462.85 3201.9,455.7 L3190.2,377.7 C3167.45,382.9 3149.25,385.5 3125.2,385.5 C3087.5,385.5 3073.85,370.55 3073.85,338.05 L3073.85,263.3 Z M3441.1,224.3 L3433.3,135.9 C3407.95,141.1 3367.65,159.95 3348.15,172.95 L3341.65,142.4 L3263.65,142.4 L3263.65,458.95 L3357.25,458.95 L3357.25,265.9 C3377.4,251.6 3413.15,235.35 3441.1,224.3 L3441.1,224.3 Z M3581.5,102.75 L3581.5,3.3 L3487.9,3.3 L3487.9,102.75 L3581.5,102.75 Z M3581.5,458.95 L3581.5,142.4 L3487.9,142.4 L3487.9,458.95 L3581.5,458.95 Z M3946.8,252.9 C3946.8,175.55 3911.05,135.9 3846.7,135.9 C3812.25,135.9 3771.3,153.45 3749.2,167.75 L3739.45,142.4 L3666,142.4 L3666,600 L3759.6,587 L3759.6,456.35 C3781.05,461.55 3814.2,465.45 3840.2,465.45 C3914.3,465.45 3946.8,423.2 3946.8,348.45 L3946.8,252.9 Z M3759.6,241.85 C3773.25,230.15 3797.95,217.15 3819.4,217.15 C3844.1,217.15 3853.2,230.8 3853.2,252.9 L3853.2,348.45 C3853.2,369.25 3844.1,384.2 3819.4,384.2 C3799.9,384.2 3775.85,380.3 3759.6,376.4 L3759.6,241.85 Z M4188.6,453.75 L4177.55,382.9 C4163.9,387.45 4148.95,388.75 4138.55,388.75 C4126.85,388.75 4119.05,384.2 4119.05,371.2 L4119.05,217.8 L4186,217.8 L4191.2,142.4 L4119.05,142.4 L4119.05,53.35 L4025.45,66.35 L4025.45,142.4 L3982.55,142.4 L3982.55,217.8 L4025.45,217.8 L4025.45,384.2 C4025.45,442.7 4060.55,465.45 4121,465.45 C4142.45,465.45 4167.8,460.9 4188.6,453.75 L4188.6,453.75 Z" id="octalbonescript" fill="#FF8F4E" sketch:type="MSShapeGroup"></path>
    </g>
</svg>